<svg width="422" height="80" viewBox="0 0 422 80" fill="none" xmlns="http://www.w3.org/2000/svg">
<path d="M10.3409 25.3182C15.375 25.3182 18.9773 22.5455 18.9886 18.7614C18.9773 15.8523 16.8295 13.4205 14.125 12.9659V12.8068C16.4773 12.2841 18.1136 10.1705 18.125 7.64773C18.1136 4.06818 14.8182 1.40909 10.3409 1.40909C5.82955 1.40909 2.53409 4.05682 2.54545 7.64773C2.53409 10.1705 4.14773 12.2841 6.54545 12.8068V12.9659C3.79545 13.4205 1.67045 15.8523 1.68182 18.7614C1.67045 22.5455 5.26136 25.3182 10.3409 25.3182ZM10.3409 22.0682C7.70455 22.0682 6 20.6136 6.02273 18.4659C6 16.2386 7.82955 14.6591 10.3409 14.6591C12.8182 14.6591 14.6364 16.25 14.6591 18.4659C14.6364 20.6136 12.9432 22.0682 10.3409 22.0682ZM10.3409 11.4659C8.18182 11.4659 6.63636 10.0682 6.65909 8.04545C6.63636 6.04545 8.13636 4.70454 10.3409 4.70454C12.5114 4.70454 14 6.04545 14.0227 8.04545C14 10.0795 12.4659 11.4659 10.3409 11.4659ZM22.304 20.6818H33.4062V25H37.429V20.6818H40.4062V17.2159H37.429V1.72727H32.179L22.304 17.3295V20.6818ZM33.4517 17.2159H26.6222V17.0341L33.2699 6.5H33.4517V17.2159ZM56.4801 20.6364C56.4915 23.3409 58.2074 25.6477 61.4006 25.6477C64.5824 25.6477 66.3324 23.3409 66.321 20.6364V19.4091C66.3324 16.6818 64.6278 14.3977 61.4006 14.3977C58.2528 14.3977 56.4915 16.7045 56.4801 19.4091V20.6364ZM44.6506 7.31818C44.6619 10.0227 46.3778 12.3068 49.5824 12.3068C52.7528 12.3068 54.5028 10.0455 54.4915 7.31818V6.09091C54.5028 3.36364 52.7983 1.07954 49.5824 1.07954C46.446 1.07954 44.6619 3.36364 44.6506 6.09091V7.31818ZM45.6733 25H48.5256L64.5256 1.72727H61.6733L45.6733 25ZM59.446 19.4091C59.4574 18.2045 59.9688 16.9886 61.4006 16.9886C62.9006 16.9886 63.3438 18.2045 63.3324 19.4091V20.6364C63.3438 21.8409 62.8551 23.0341 61.4006 23.0341C59.946 23.0341 59.4574 21.8295 59.446 20.6364V19.4091ZM47.6392 6.09091C47.6506 4.89773 48.1392 3.67045 49.5824 3.67045C51.0824 3.67045 51.5142 4.88636 51.5028 6.09091V7.31818C51.5142 8.52273 51.0369 9.71591 49.5824 9.71591C48.1278 9.71591 47.6506 8.52273 47.6392 7.31818V6.09091ZM86.6335 25.3409C91.7472 25.3409 94.9972 21.7386 94.9972 16.3409C94.9972 10.9318 91.7472 7.31818 86.6335 7.31818C81.5199 7.31818 78.2699 10.9318 78.2699 16.3409C78.2699 21.7386 81.5199 25.3409 86.6335 25.3409ZM86.6562 22.0455C83.8267 22.0455 82.4403 19.5227 82.4403 16.3295C82.4403 13.1364 83.8267 10.5795 86.6562 10.5795C89.4403 10.5795 90.8267 13.1364 90.8267 16.3295C90.8267 19.5227 89.4403 22.0455 86.6562 22.0455ZM107.33 7.54545H103.705V6.17045C103.705 4.80682 104.273 4.04545 105.807 4.04545C106.455 4.04545 107 4.19318 107.341 4.29545L108.17 1.11364C107.636 0.931818 106.466 0.636362 105.045 0.636362C102.011 0.636362 99.5909 2.375 99.5909 5.89773V7.54545H97.0114V10.7273H99.5909V25H103.705V10.7273H107.33V7.54545ZM126.216 25.3409C130.284 25.3409 133.08 23.3523 133.807 20.3182L129.966 19.8864C129.409 21.3636 128.045 22.1364 126.273 22.1364C123.614 22.1364 121.852 20.3864 121.818 17.3977H133.977V16.1364C133.977 10.0114 130.295 7.31818 126 7.31818C121 7.31818 117.739 10.9886 117.739 16.375C117.739 21.8523 120.955 25.3409 126.216 25.3409ZM121.83 14.625C121.955 12.3977 123.602 10.5227 126.057 10.5227C128.42 10.5227 130.011 12.25 130.034 14.625H121.83ZM137.457 25H141.571V14.3864C141.571 12.2386 143.003 10.7841 144.776 10.7841C146.514 10.7841 147.707 11.9545 147.707 13.75V25H151.741V14.1136C151.741 12.1477 152.912 10.7841 154.901 10.7841C156.56 10.7841 157.878 11.7614 157.878 13.9205V25H162.003V13.2841C162.003 9.38636 159.753 7.31818 156.548 7.31818C154.014 7.31818 152.082 8.56818 151.31 10.5114H151.128C150.457 8.53409 148.764 7.31818 146.412 7.31818C144.071 7.31818 142.321 8.52273 141.594 10.5114H141.389V7.54545H137.457V25ZM166.176 31.5455H170.29V22.25H170.46C171.108 23.5227 172.46 25.3068 175.46 25.3068C179.574 25.3068 182.653 22.0455 182.653 16.2955C182.653 10.4773 179.483 7.31818 175.449 7.31818C172.369 7.31818 171.085 9.17045 170.46 10.4318H170.222V7.54545H166.176V31.5455ZM170.21 16.2727C170.21 12.8864 171.665 10.6932 174.312 10.6932C177.051 10.6932 178.46 13.0227 178.46 16.2727C178.46 19.5455 177.028 21.9318 174.312 21.9318C171.688 21.9318 170.21 19.6591 170.21 16.2727ZM190.29 1.72727H186.176V25H190.29V1.72727ZM202.134 25.3409C207.247 25.3409 210.497 21.7386 210.497 16.3409C210.497 10.9318 207.247 7.31818 202.134 7.31818C197.02 7.31818 193.77 10.9318 193.77 16.3409C193.77 21.7386 197.02 25.3409 202.134 25.3409ZM202.156 22.0455C199.327 22.0455 197.94 19.5227 197.94 16.3295C197.94 13.1364 199.327 10.5795 202.156 10.5795C204.94 10.5795 206.327 13.1364 206.327 16.3295C206.327 19.5227 204.94 22.0455 202.156 22.0455ZM215.952 31.5455C219.156 31.5455 221.009 29.8977 221.997 27.1136L229.009 7.56818L224.611 7.54545L220.577 20.7273H220.395L216.372 7.54545H212.009L218.338 25.3636L217.986 26.3068C217.224 28.2955 216.02 28.4318 214.224 27.9091L213.27 31.1136C213.827 31.3409 214.827 31.5455 215.952 31.5455ZM238.997 25.3409C243.065 25.3409 245.861 23.3523 246.588 20.3182L242.747 19.8864C242.19 21.3636 240.827 22.1364 239.054 22.1364C236.395 22.1364 234.634 20.3864 234.599 17.3977H246.759V16.1364C246.759 10.0114 243.077 7.31818 238.781 7.31818C233.781 7.31818 230.52 10.9886 230.52 16.375C230.52 21.8523 233.736 25.3409 238.997 25.3409ZM234.611 14.625C234.736 12.3977 236.384 10.5227 238.838 10.5227C241.202 10.5227 242.793 12.25 242.815 14.625H234.611ZM257.966 25.3409C262.034 25.3409 264.83 23.3523 265.557 20.3182L261.716 19.8864C261.159 21.3636 259.795 22.1364 258.023 22.1364C255.364 22.1364 253.602 20.3864 253.568 17.3977H265.727V16.1364C265.727 10.0114 262.045 7.31818 257.75 7.31818C252.75 7.31818 249.489 10.9886 249.489 16.375C249.489 21.8523 252.705 25.3409 257.966 25.3409ZM253.58 14.625C253.705 12.3977 255.352 10.5227 257.807 10.5227C260.17 10.5227 261.761 12.25 261.784 14.625H253.58ZM283.003 12.1591C282.435 9.20455 280.071 7.31818 275.98 7.31818C271.776 7.31818 268.912 9.38636 268.923 12.6136C268.912 15.1591 270.48 16.8409 273.832 17.5341L276.81 18.1591C278.412 18.5114 279.162 19.1591 279.162 20.1477C279.162 21.3409 277.866 22.2386 275.912 22.2386C274.026 22.2386 272.798 21.4205 272.446 19.8523L268.435 20.2386C268.946 23.4432 271.639 25.3409 275.923 25.3409C280.287 25.3409 283.366 23.0795 283.378 19.7727C283.366 17.2841 281.764 15.7614 278.469 15.0455L275.491 14.4091C273.719 14.0114 273.014 13.3977 273.026 12.3864C273.014 11.2045 274.321 10.3864 276.037 10.3864C277.935 10.3864 278.935 11.4205 279.253 12.5682L283.003 12.1591ZM298.31 25H302.605L305.878 13.2045H306.116L309.389 25H313.673L318.616 7.54545H314.412L311.389 19.75H311.219L308.082 7.54545H303.935L300.798 19.8182H300.639L297.571 7.54545H293.378L298.31 25ZM325.602 14.7727C325.602 12.25 327.17 10.7955 329.375 10.7955C331.534 10.7955 332.807 12.1705 332.807 14.5227V25H336.92V13.8864C336.92 9.67045 334.534 7.31818 330.909 7.31818C328.227 7.31818 326.523 8.53409 325.716 10.5114H325.511V1.72727H321.489V25H325.602V14.7727ZM348.727 25.3409C353.841 25.3409 357.091 21.7386 357.091 16.3409C357.091 10.9318 353.841 7.31818 348.727 7.31818C343.614 7.31818 340.364 10.9318 340.364 16.3409C340.364 21.7386 343.614 25.3409 348.727 25.3409ZM348.75 22.0455C345.92 22.0455 344.534 19.5227 344.534 16.3295C344.534 13.1364 345.92 10.5795 348.75 10.5795C351.534 10.5795 352.92 13.1364 352.92 16.3295C352.92 19.5227 351.534 22.0455 348.75 22.0455ZM379.645 17.6591C379.645 20.3182 377.747 21.6364 375.929 21.6364C373.952 21.6364 372.634 20.2386 372.634 18.0227V7.54545H368.52V18.6591C368.52 22.8523 370.906 25.2273 374.338 25.2273C376.952 25.2273 378.793 23.8523 379.588 21.8977H379.77V25H383.759V7.54545H379.645V17.6591ZM401.784 12.1591C401.216 9.20455 398.852 7.31818 394.761 7.31818C390.557 7.31818 387.693 9.38636 387.705 12.6136C387.693 15.1591 389.261 16.8409 392.614 17.5341L395.591 18.1591C397.193 18.5114 397.943 19.1591 397.943 20.1477C397.943 21.3409 396.648 22.2386 394.693 22.2386C392.807 22.2386 391.58 21.4205 391.227 19.8523L387.216 20.2386C387.727 23.4432 390.42 25.3409 394.705 25.3409C399.068 25.3409 402.148 23.0795 402.159 19.7727C402.148 17.2841 400.545 15.7614 397.25 15.0455L394.273 14.4091C392.5 14.0114 391.795 13.3977 391.807 12.3864C391.795 11.2045 393.102 10.3864 394.818 10.3864C396.716 10.3864 397.716 11.4205 398.034 12.5682L401.784 12.1591ZM413.278 25.3409C417.347 25.3409 420.142 23.3523 420.869 20.3182L417.028 19.8864C416.472 21.3636 415.108 22.1364 413.335 22.1364C410.676 22.1364 408.915 20.3864 408.881 17.3977H421.04V16.1364C421.04 10.0114 417.358 7.31818 413.062 7.31818C408.062 7.31818 404.801 10.9886 404.801 16.375C404.801 21.8523 408.017 25.3409 413.278 25.3409ZM408.892 14.625C409.017 12.3977 410.665 10.5227 413.119 10.5227C415.483 10.5227 417.074 12.25 417.097 14.625H408.892ZM10.8295 55.5455H7.38636V51.3636H3.27273V55.5455H0.795455V58.7273H3.27273V68.4318C3.25 71.7159 5.63636 73.3295 8.72727 73.2386C9.89773 73.2045 10.7045 72.9773 11.1477 72.8295L10.4545 69.6136C10.2273 69.6705 9.76136 69.7727 9.25 69.7727C8.21591 69.7727 7.38636 69.4091 7.38636 67.75V58.7273H10.8295V55.5455ZM14.2699 73H18.3835V62.7386C18.3835 60.5227 20.054 58.9545 22.3153 58.9545C23.0085 58.9545 23.8722 59.0795 24.2244 59.1932V55.4091C23.8494 55.3409 23.2017 55.2955 22.7472 55.2955C20.7472 55.2955 19.0767 56.4318 18.4403 58.4545H18.2585V55.5455H14.2699V73ZM38.0824 65.6591C38.0824 68.3182 36.1847 69.6364 34.3665 69.6364C32.3892 69.6364 31.071 68.2386 31.071 66.0227V55.5455H26.9574V66.6591C26.9574 70.8523 29.3438 73.2273 32.7756 73.2273C35.3892 73.2273 37.2301 71.8523 38.0256 69.8977H38.2074V73H42.196V55.5455H38.0824V65.6591ZM60.2216 60.1591C59.6534 57.2045 57.2898 55.3182 53.1989 55.3182C48.9943 55.3182 46.1307 57.3864 46.142 60.6136C46.1307 63.1591 47.6989 64.8409 51.0511 65.5341L54.0284 66.1591C55.6307 66.5114 56.3807 67.1591 56.3807 68.1477C56.3807 69.3409 55.0852 70.2386 53.1307 70.2386C51.2443 70.2386 50.017 69.4205 49.6648 67.8523L45.6534 68.2386C46.1648 71.4432 48.858 73.3409 53.142 73.3409C57.5057 73.3409 60.5852 71.0795 60.5966 67.7727C60.5852 65.2841 58.983 63.7614 55.6875 63.0455L52.7102 62.4091C50.9375 62.0114 50.233 61.3977 50.2443 60.3864C50.233 59.2045 51.5398 58.3864 53.2557 58.3864C55.1534 58.3864 56.1534 59.4205 56.4716 60.5682L60.2216 60.1591ZM72.7045 55.5455H69.2614V51.3636H65.1477V55.5455H62.6705V58.7273H65.1477V68.4318C65.125 71.7159 67.5114 73.3295 70.6023 73.2386C71.7727 73.2045 72.5795 72.9773 73.0227 72.8295L72.3295 69.6136C72.1023 69.6705 71.6364 69.7727 71.125 69.7727C70.0909 69.7727 69.2614 69.4091 69.2614 67.75V58.7273H72.7045V55.5455ZM92.7983 55.5455H89.3551V51.3636H85.2415V55.5455H82.7642V58.7273H85.2415V68.4318C85.2188 71.7159 87.6051 73.3295 90.696 73.2386C91.8665 73.2045 92.6733 72.9773 93.1165 72.8295L92.4233 69.6136C92.196 69.6705 91.7301 69.7727 91.2188 69.7727C90.1847 69.7727 89.3551 69.4091 89.3551 67.75V58.7273H92.7983V55.5455ZM100.727 62.7727C100.727 60.25 102.295 58.7955 104.5 58.7955C106.659 58.7955 107.932 60.1705 107.932 62.5227V73H112.045V61.8864C112.045 57.6705 109.659 55.3182 106.034 55.3182C103.352 55.3182 101.648 56.5341 100.841 58.5114H100.636V49.7273H96.6136V73H100.727V62.7727ZM123.966 73.3409C128.034 73.3409 130.83 71.3523 131.557 68.3182L127.716 67.8864C127.159 69.3636 125.795 70.1364 124.023 70.1364C121.364 70.1364 119.602 68.3864 119.568 65.3977H131.727V64.1364C131.727 58.0114 128.045 55.3182 123.75 55.3182C118.75 55.3182 115.489 58.9886 115.489 64.375C115.489 69.8523 118.705 73.3409 123.966 73.3409ZM119.58 62.625C119.705 60.3977 121.352 58.5227 123.807 58.5227C126.17 58.5227 127.761 60.25 127.784 62.625H119.58ZM135.207 73H139.321V55.5455H135.207V73ZM137.276 53.0682C138.582 53.0682 139.651 52.0682 139.651 50.8409C139.651 49.6023 138.582 48.6023 137.276 48.6023C135.957 48.6023 134.889 49.6023 134.889 50.8409C134.889 52.0682 135.957 53.0682 137.276 53.0682ZM143.551 73H147.665V62.7386C147.665 60.5227 149.335 58.9545 151.597 58.9545C152.29 58.9545 153.153 59.0795 153.506 59.1932V55.4091C153.131 55.3409 152.483 55.2955 152.028 55.2955C150.028 55.2955 148.358 56.4318 147.722 58.4545H147.54V55.5455H143.551V73ZM170.653 73.3068C173.653 73.3068 175.006 71.5227 175.653 70.25H175.903V73H179.949V49.7273H175.824V58.4318H175.653C175.028 57.1705 173.744 55.3182 170.665 55.3182C166.631 55.3182 163.46 58.4773 163.46 64.2955C163.46 70.0455 166.54 73.3068 170.653 73.3068ZM171.801 69.9318C169.085 69.9318 167.653 67.5455 167.653 64.2727C167.653 61.0227 169.062 58.6932 171.801 58.6932C174.449 58.6932 175.903 60.8864 175.903 64.2727C175.903 67.6591 174.426 69.9318 171.801 69.9318ZM184.332 73H188.446V55.5455H184.332V73ZM186.401 53.0682C187.707 53.0682 188.776 52.0682 188.776 50.8409C188.776 49.6023 187.707 48.6023 186.401 48.6023C185.082 48.6023 184.014 49.6023 184.014 50.8409C184.014 52.0682 185.082 53.0682 186.401 53.0682ZM192.676 73H196.79V62.7386C196.79 60.5227 198.46 58.9545 200.722 58.9545C201.415 58.9545 202.278 59.0795 202.631 59.1932V55.4091C202.256 55.3409 201.608 55.2955 201.153 55.2955C199.153 55.2955 197.483 56.4318 196.847 58.4545H196.665V55.5455H192.676V73ZM212.372 73.3409C216.44 73.3409 219.236 71.3523 219.963 68.3182L216.122 67.8864C215.565 69.3636 214.202 70.1364 212.429 70.1364C209.77 70.1364 208.009 68.3864 207.974 65.3977H220.134V64.1364C220.134 58.0114 216.452 55.3182 212.156 55.3182C207.156 55.3182 203.895 58.9886 203.895 64.375C203.895 69.8523 207.111 73.3409 212.372 73.3409ZM207.986 62.625C208.111 60.3977 209.759 58.5227 212.213 58.5227C214.577 58.5227 216.168 60.25 216.19 62.625H207.986ZM231.227 73.3409C235.614 73.3409 238.409 70.7386 238.705 67.0341H234.773C234.42 68.9091 233.068 69.9886 231.261 69.9886C228.693 69.9886 227.034 67.8409 227.034 64.2727C227.034 60.75 228.727 58.6364 231.261 58.6364C233.239 58.6364 234.455 59.9091 234.773 61.5909H238.705C238.42 57.8068 235.466 55.3182 231.205 55.3182C226.091 55.3182 222.864 59.0114 222.864 64.3409C222.864 69.625 226.011 73.3409 231.227 73.3409ZM250.798 55.5455H247.355V51.3636H243.241V55.5455H240.764V58.7273H243.241V68.4318C243.219 71.7159 245.605 73.3295 248.696 73.2386C249.866 73.2045 250.673 72.9773 251.116 72.8295L250.423 69.6136C250.196 69.6705 249.73 69.7727 249.219 69.7727C248.185 69.7727 247.355 69.4091 247.355 67.75V58.7273H250.798V55.5455ZM262.176 73H266.29V62.3864C266.29 60.2386 267.722 58.7841 269.494 58.7841C271.233 58.7841 272.426 59.9545 272.426 61.75V73H276.46V62.1136C276.46 60.1477 277.631 58.7841 279.619 58.7841C281.278 58.7841 282.597 59.7614 282.597 61.9205V73H286.722V61.2841C286.722 57.3864 284.472 55.3182 281.267 55.3182C278.733 55.3182 276.801 56.5682 276.028 58.5114H275.847C275.176 56.5341 273.483 55.3182 271.131 55.3182C268.79 55.3182 267.04 56.5227 266.312 58.5114H266.108V55.5455H262.176V73ZM295.918 73.3523C298.656 73.3523 300.293 72.0682 301.043 70.6023H301.179V73H305.134V61.3182C305.134 56.7045 301.372 55.3182 298.043 55.3182C294.372 55.3182 291.554 56.9545 290.645 60.1364L294.486 60.6818C294.895 59.4886 296.054 58.4659 298.065 58.4659C299.974 58.4659 301.02 59.4432 301.02 61.1591V61.2273C301.02 62.4091 299.781 62.4659 296.702 62.7955C293.315 63.1591 290.077 64.1705 290.077 68.1023C290.077 71.5341 292.588 73.3523 295.918 73.3523ZM296.986 70.3295C295.27 70.3295 294.043 69.5455 294.043 68.0341C294.043 66.4545 295.418 65.7955 297.259 65.5341C298.338 65.3864 300.497 65.1136 301.031 64.6818V66.7386C301.031 68.6818 299.463 70.3295 296.986 70.3295ZM313.384 62.7727C313.384 60.25 314.906 58.7955 317.077 58.7955C319.202 58.7955 320.474 60.1932 320.474 62.5227V73H324.588V61.8864C324.599 57.7045 322.213 55.3182 318.611 55.3182C315.997 55.3182 314.202 56.5682 313.406 58.5114H313.202V55.5455H309.27V73H313.384V62.7727ZM333.793 73.3523C336.531 73.3523 338.168 72.0682 338.918 70.6023H339.054V73H343.009V61.3182C343.009 56.7045 339.247 55.3182 335.918 55.3182C332.247 55.3182 329.429 56.9545 328.52 60.1364L332.361 60.6818C332.77 59.4886 333.929 58.4659 335.94 58.4659C337.849 58.4659 338.895 59.4432 338.895 61.1591V61.2273C338.895 62.4091 337.656 62.4659 334.577 62.7955C331.19 63.1591 327.952 64.1705 327.952 68.1023C327.952 71.5341 330.463 73.3523 333.793 73.3523ZM334.861 70.3295C333.145 70.3295 331.918 69.5455 331.918 68.0341C331.918 66.4545 333.293 65.7955 335.134 65.5341C336.213 65.3864 338.372 65.1136 338.906 64.6818V66.7386C338.906 68.6818 337.338 70.3295 334.861 70.3295ZM354.736 79.9091C359.452 79.9091 362.929 77.75 362.929 73.2841V55.5455H358.872V58.4318H358.645C358.02 57.1705 356.713 55.3182 353.634 55.3182C349.599 55.3182 346.429 58.4773 346.429 64.2159C346.429 69.9091 349.599 72.75 353.622 72.75C356.611 72.75 358.009 71.1477 358.645 69.8636H358.849V73.1705C358.849 75.7386 357.145 76.7955 354.804 76.7955C352.327 76.7955 351.236 75.625 350.736 74.6023L347.031 75.5C347.781 77.9432 350.293 79.9091 354.736 79.9091ZM354.77 69.5227C352.054 69.5227 350.622 67.4091 350.622 64.1932C350.622 61.0227 352.031 58.6932 354.77 58.6932C357.418 58.6932 358.872 60.8864 358.872 64.1932C358.872 67.5227 357.395 69.5227 354.77 69.5227ZM374.872 73.3409C378.94 73.3409 381.736 71.3523 382.463 68.3182L378.622 67.8864C378.065 69.3636 376.702 70.1364 374.929 70.1364C372.27 70.1364 370.509 68.3864 370.474 65.3977H382.634V64.1364C382.634 58.0114 378.952 55.3182 374.656 55.3182C369.656 55.3182 366.395 58.9886 366.395 64.375C366.395 69.8523 369.611 73.3409 374.872 73.3409ZM370.486 62.625C370.611 60.3977 372.259 58.5227 374.713 58.5227C377.077 58.5227 378.668 60.25 378.69 62.625H370.486ZM386.114 73H390.227V62.7386C390.227 60.5227 391.898 58.9545 394.159 58.9545C394.852 58.9545 395.716 59.0795 396.068 59.1932V55.4091C395.693 55.3409 395.045 55.2955 394.591 55.2955C392.591 55.2955 390.92 56.4318 390.284 58.4545H390.102V55.5455H386.114V73Z" fill="white"/>
</svg>
