<svg width="304" height="40" viewBox="0 0 304 40" fill="none" xmlns="http://www.w3.org/2000/svg">
<path d="M1.88636 12L3.05682 8.70455H7.76136L8.93182 12H10.4091L6.13636 0.363636H4.68182L0.409091 12H1.88636ZM3.5 7.45455L5.36364 2.20455H5.45455L7.31818 7.45455H3.5ZM15.5852 12.1818C17.517 12.1818 18.7898 11 19.017 9.45455H17.6761C17.4261 10.4091 16.6307 10.9773 15.5852 10.9773C13.9943 10.9773 12.9716 9.65909 12.9716 7.63636C12.9716 5.65909 14.017 4.36364 15.5852 4.36364C16.767 4.36364 17.4716 5.09091 17.6761 5.88636H19.017C18.7898 4.25 17.4034 3.15909 15.5625 3.15909C13.1989 3.15909 11.6307 5.02273 11.6307 7.68182C11.6307 10.2955 13.1307 12.1818 15.5852 12.1818ZM24.5227 12.1818C26.4545 12.1818 27.7273 11 27.9545 9.45455H26.6136C26.3636 10.4091 25.5682 10.9773 24.5227 10.9773C22.9318 10.9773 21.9091 9.65909 21.9091 7.63636C21.9091 5.65909 22.9545 4.36364 24.5227 4.36364C25.7045 4.36364 26.4091 5.09091 26.6136 5.88636H27.9545C27.7273 4.25 26.3409 3.15909 24.5 3.15909C22.1364 3.15909 20.5682 5.02273 20.5682 7.68182C20.5682 10.2955 22.0682 12.1818 24.5227 12.1818ZM33.5739 12.1818C35.3466 12.1818 36.642 11.2955 37.0511 9.97727L35.7557 9.61364C35.4148 10.5227 34.625 10.9773 33.5739 10.9773C32 10.9773 30.9148 9.96023 30.8523 8.09091H37.1875V7.52273C37.1875 4.27273 35.2557 3.15909 33.4375 3.15909C31.0739 3.15909 29.5057 5.02273 29.5057 7.70455C29.5057 10.3864 31.0511 12.1818 33.5739 12.1818ZM30.8523 6.93182C30.9432 5.57386 31.9034 4.36364 33.4375 4.36364C34.892 4.36364 35.8239 5.45455 35.8239 6.93182H30.8523ZM45.4091 5.22727C44.9886 3.98864 44.0455 3.15909 42.3182 3.15909C40.4773 3.15909 39.1136 4.20455 39.1136 5.68182C39.1136 6.88636 39.8295 7.69318 41.4318 8.06818L42.8864 8.40909C43.767 8.61364 44.1818 9.03409 44.1818 9.63636C44.1818 10.3864 43.3864 11 42.1364 11C41.0398 11 40.3523 10.5284 40.1136 9.59091L38.8409 9.90909C39.1534 11.392 40.375 12.1818 42.1591 12.1818C44.1875 12.1818 45.5682 11.0739 45.5682 9.56818C45.5682 8.35227 44.8068 7.58523 43.25 7.20455L41.9545 6.88636C40.9205 6.63068 40.4545 6.28409 40.4545 5.61364C40.4545 4.86364 41.25 4.31818 42.3182 4.31818C43.4886 4.31818 43.9716 4.96591 44.2045 5.56818L45.4091 5.22727ZM53.7685 5.22727C53.348 3.98864 52.4048 3.15909 50.6776 3.15909C48.8366 3.15909 47.473 4.20455 47.473 5.68182C47.473 6.88636 48.1889 7.69318 49.7912 8.06818L51.2457 8.40909C52.1264 8.61364 52.5412 9.03409 52.5412 9.63636C52.5412 10.3864 51.7457 11 50.4957 11C49.3991 11 48.7116 10.5284 48.473 9.59091L47.2003 9.90909C47.5128 11.392 48.7344 12.1818 50.5185 12.1818C52.5469 12.1818 53.9276 11.0739 53.9276 9.56818C53.9276 8.35227 53.1662 7.58523 51.6094 7.20455L50.3139 6.88636C49.2798 6.63068 48.8139 6.28409 48.8139 5.61364C48.8139 4.86364 49.6094 4.31818 50.6776 4.31818C51.848 4.31818 52.331 4.96591 52.5639 5.56818L53.7685 5.22727ZM60.446 12H61.7869V6.54545C61.7869 5.26705 62.7188 4.36364 63.7642 4.36364C64.7812 4.36364 65.4915 5.02841 65.4915 6.02273V12H66.8551V6.31818C66.8551 5.19318 67.5597 4.36364 68.7869 4.36364C69.7415 4.36364 70.5597 4.86932 70.5597 6.15909V12H71.9006V6.15909C71.9006 4.10795 70.7983 3.15909 69.2415 3.15909C67.9915 3.15909 67.0767 3.73295 66.6278 4.63636H66.5369C66.1051 3.70455 65.3438 3.15909 64.196 3.15909C63.0597 3.15909 62.2188 3.70455 61.8551 4.63636H61.7415V3.27273H60.446V12ZM76.9205 12.2045C78.4432 12.2045 79.2386 11.3864 79.5114 10.8182H79.5795V12H80.9205V6.25C80.9205 3.47727 78.8068 3.15909 77.6932 3.15909C76.375 3.15909 74.875 3.61364 74.1932 5.20455L75.4659 5.65909C75.7614 5.02273 76.4602 4.34091 77.7386 4.34091C78.9716 4.34091 79.5795 4.99432 79.5795 6.11364V6.15909C79.5795 6.80682 78.9205 6.75 77.3295 6.95455C75.7102 7.16477 73.9432 7.52273 73.9432 9.52273C73.9432 11.2273 75.2614 12.2045 76.9205 12.2045ZM77.125 11C76.0568 11 75.2841 10.5227 75.2841 9.59091C75.2841 8.56818 76.2159 8.25 77.2614 8.11364C77.8295 8.04545 79.3523 7.88636 79.5795 7.61364V8.84091C79.5795 9.93182 78.7159 11 77.125 11ZM84.7088 6.75C84.7088 5.22727 85.652 4.36364 86.9361 4.36364C88.1804 4.36364 88.9361 5.17614 88.9361 6.54545V12H90.277V6.45455C90.277 4.22727 89.0895 3.15909 87.3224 3.15909C86.0043 3.15909 85.1861 3.75 84.777 4.63636H84.6634V3.27273H83.3679V12H84.7088V6.75ZM95.2955 12.2045C96.8182 12.2045 97.6136 11.3864 97.8864 10.8182H97.9545V12H99.2955V6.25C99.2955 3.47727 97.1818 3.15909 96.0682 3.15909C94.75 3.15909 93.25 3.61364 92.5682 5.20455L93.8409 5.65909C94.1364 5.02273 94.8352 4.34091 96.1136 4.34091C97.3466 4.34091 97.9545 4.99432 97.9545 6.11364V6.15909C97.9545 6.80682 97.2955 6.75 95.7045 6.95455C94.0852 7.16477 92.3182 7.52273 92.3182 9.52273C92.3182 11.2273 93.6364 12.2045 95.2955 12.2045ZM95.5 11C94.4318 11 93.6591 10.5227 93.6591 9.59091C93.6591 8.56818 94.5909 8.25 95.6364 8.11364C96.2045 8.04545 97.7273 7.88636 97.9545 7.61364V8.84091C97.9545 9.93182 97.0909 11 95.5 11ZM105.266 15.4545C107.357 15.4545 109.038 14.5 109.038 12.25V3.27273H107.743V4.65909H107.607C107.311 4.20455 106.766 3.15909 105.061 3.15909C102.857 3.15909 101.334 4.90909 101.334 7.59091C101.334 10.3182 102.925 11.8636 105.038 11.8636C106.743 11.8636 107.288 10.8636 107.584 10.3864H107.697V12.1591C107.697 13.6136 106.675 14.2727 105.266 14.2727C103.68 14.2727 103.124 13.4375 102.766 12.9545L101.697 13.7045C102.243 14.6193 103.317 15.4545 105.266 15.4545ZM105.22 10.6591C103.538 10.6591 102.675 9.38636 102.675 7.56818C102.675 5.79545 103.516 4.36364 105.22 4.36364C106.857 4.36364 107.72 5.68182 107.72 7.56818C107.72 9.5 106.834 10.6591 105.22 10.6591ZM115.152 12.1818C116.925 12.1818 118.22 11.2955 118.629 9.97727L117.334 9.61364C116.993 10.5227 116.203 10.9773 115.152 10.9773C113.578 10.9773 112.493 9.96023 112.43 8.09091H118.766V7.52273C118.766 4.27273 116.834 3.15909 115.016 3.15909C112.652 3.15909 111.084 5.02273 111.084 7.70455C111.084 10.3864 112.629 12.1818 115.152 12.1818ZM112.43 6.93182C112.521 5.57386 113.482 4.36364 115.016 4.36364C116.47 4.36364 117.402 5.45455 117.402 6.93182H112.43ZM120.805 12H122.146V6.47727C122.146 5.29545 123.078 4.43182 124.351 4.43182C124.709 4.43182 125.078 4.5 125.169 4.52273V3.15909C125.016 3.14773 124.663 3.13636 124.464 3.13636C123.419 3.13636 122.51 3.72727 122.192 4.59091H122.101V3.27273H120.805V12ZM135.054 3.27273H133.19V1.18182H131.849V3.27273H130.531V4.40909H131.849V9.86364C131.849 11.3864 133.077 12.1136 134.213 12.1136C134.713 12.1136 135.031 12.0227 135.213 11.9545L134.94 10.75C134.827 10.7727 134.645 10.8182 134.349 10.8182C133.759 10.8182 133.19 10.6364 133.19 9.5V4.40909H135.054V3.27273ZM137.071 12H138.412V3.27273H137.071V12ZM137.753 1.81818C138.276 1.81818 138.707 1.40909 138.707 0.909091C138.707 0.409091 138.276 0 137.753 0C137.23 0 136.798 0.409091 136.798 0.909091C136.798 1.40909 137.23 1.81818 137.753 1.81818ZM140.868 15.2727H142.209V10.6591H142.322C142.618 11.1364 143.186 12.1818 144.868 12.1818C147.05 12.1818 148.572 10.4318 148.572 7.65909C148.572 4.90909 147.05 3.15909 144.845 3.15909C143.141 3.15909 142.618 4.20455 142.322 4.65909H142.163V3.27273H140.868V15.2727ZM142.186 7.63636C142.186 5.68182 143.05 4.36364 144.686 4.36364C146.391 4.36364 147.232 5.79545 147.232 7.63636C147.232 9.5 146.368 10.9773 144.686 10.9773C143.072 10.9773 142.186 9.61364 142.186 7.63636ZM156.8 5.22727C156.379 3.98864 155.436 3.15909 153.709 3.15909C151.868 3.15909 150.504 4.20455 150.504 5.68182C150.504 6.88636 151.22 7.69318 152.822 8.06818L154.277 8.40909C155.158 8.61364 155.572 9.03409 155.572 9.63636C155.572 10.3864 154.777 11 153.527 11C152.43 11 151.743 10.5284 151.504 9.59091L150.232 9.90909C150.544 11.392 151.766 12.1818 153.55 12.1818C155.578 12.1818 156.959 11.0739 156.959 9.56818C156.959 8.35227 156.197 7.58523 154.641 7.20455L153.345 6.88636C152.311 6.63068 151.845 6.28409 151.845 5.61364C151.845 4.86364 152.641 4.31818 153.709 4.31818C154.879 4.31818 155.362 4.96591 155.595 5.56818L156.8 5.22727ZM160.977 10.4091H159.523L159.455 11.0455C159.29 12.5852 158.966 14.1193 158.818 14.8409H159.841C160.114 14.0682 160.693 12.3182 160.886 11.0227L160.977 10.4091ZM170.53 12.2045C172.053 12.2045 172.848 11.3864 173.121 10.8182H173.189V12H174.53V6.25C174.53 3.47727 172.416 3.15909 171.303 3.15909C169.984 3.15909 168.484 3.61364 167.803 5.20455L169.075 5.65909C169.371 5.02273 170.07 4.34091 171.348 4.34091C172.581 4.34091 173.189 4.99432 173.189 6.11364V6.15909C173.189 6.80682 172.53 6.75 170.939 6.95455C169.32 7.16477 167.553 7.52273 167.553 9.52273C167.553 11.2273 168.871 12.2045 170.53 12.2045ZM170.734 11C169.666 11 168.893 10.5227 168.893 9.59091C168.893 8.56818 169.825 8.25 170.871 8.11364C171.439 8.04545 172.962 7.88636 173.189 7.61364V8.84091C173.189 9.93182 172.325 11 170.734 11ZM180.523 12.1818C182.455 12.1818 183.727 11 183.955 9.45455H182.614C182.364 10.4091 181.568 10.9773 180.523 10.9773C178.932 10.9773 177.909 9.65909 177.909 7.63636C177.909 5.65909 178.955 4.36364 180.523 4.36364C181.705 4.36364 182.409 5.09091 182.614 5.88636H183.955C183.727 4.25 182.341 3.15909 180.5 3.15909C178.136 3.15909 176.568 5.02273 176.568 7.68182C176.568 10.2955 178.068 12.1818 180.523 12.1818ZM189.71 3.27273H187.847V1.18182H186.506V3.27273H185.188V4.40909H186.506V9.86364C186.506 11.3864 187.733 12.1136 188.869 12.1136C189.369 12.1136 189.688 12.0227 189.869 11.9545L189.597 10.75C189.483 10.7727 189.301 10.8182 189.006 10.8182C188.415 10.8182 187.847 10.6364 187.847 9.5V4.40909H189.71V3.27273ZM191.727 12H193.068V3.27273H191.727V12ZM192.409 1.81818C192.932 1.81818 193.364 1.40909 193.364 0.909091C193.364 0.409091 192.932 0 192.409 0C191.886 0 191.455 0.409091 191.455 0.909091C191.455 1.40909 191.886 1.81818 192.409 1.81818ZM202.661 3.27273H201.206L198.797 10.2273H198.706L196.297 3.27273H194.842L198.07 12H199.433L202.661 3.27273ZM204.43 12H205.771V3.27273H204.43V12ZM205.112 1.81818C205.635 1.81818 206.067 1.40909 206.067 0.909091C206.067 0.409091 205.635 0 205.112 0C204.589 0 204.158 0.409091 204.158 0.909091C204.158 1.40909 204.589 1.81818 205.112 1.81818ZM212.023 3.27273H210.159V1.18182H208.818V3.27273H207.5V4.40909H208.818V9.86364C208.818 11.3864 210.045 12.1136 211.182 12.1136C211.682 12.1136 212 12.0227 212.182 11.9545L211.909 10.75C211.795 10.7727 211.614 10.8182 211.318 10.8182C210.727 10.8182 210.159 10.6364 210.159 9.5V4.40909H212.023V3.27273ZM214.04 12H215.381V3.27273H214.04V12ZM214.722 1.81818C215.244 1.81818 215.676 1.40909 215.676 0.909091C215.676 0.409091 215.244 0 214.722 0C214.199 0 213.767 0.409091 213.767 0.909091C213.767 1.40909 214.199 1.81818 214.722 1.81818ZM221.496 12.1818C223.268 12.1818 224.564 11.2955 224.973 9.97727L223.678 9.61364C223.337 10.5227 222.547 10.9773 221.496 10.9773C219.922 10.9773 218.837 9.96023 218.774 8.09091H225.109V7.52273C225.109 4.27273 223.178 3.15909 221.359 3.15909C218.996 3.15909 217.428 5.02273 217.428 7.70455C217.428 10.3864 218.973 12.1818 221.496 12.1818ZM218.774 6.93182C218.865 5.57386 219.825 4.36364 221.359 4.36364C222.814 4.36364 223.746 5.45455 223.746 6.93182H218.774ZM233.331 5.22727C232.911 3.98864 231.967 3.15909 230.24 3.15909C228.399 3.15909 227.036 4.20455 227.036 5.68182C227.036 6.88636 227.751 7.69318 229.354 8.06818L230.808 8.40909C231.689 8.61364 232.104 9.03409 232.104 9.63636C232.104 10.3864 231.308 11 230.058 11C228.962 11 228.274 10.5284 228.036 9.59091L226.763 9.90909C227.075 11.392 228.297 12.1818 230.081 12.1818C232.109 12.1818 233.49 11.0739 233.49 9.56818C233.49 8.35227 232.729 7.58523 231.172 7.20455L229.876 6.88636C228.842 6.63068 228.376 6.28409 228.376 5.61364C228.376 4.86364 229.172 4.31818 230.24 4.31818C231.411 4.31818 231.893 4.96591 232.126 5.56818L233.331 5.22727ZM242.577 12.2045C244.099 12.2045 244.895 11.3864 245.168 10.8182H245.236V12H246.577V6.25C246.577 3.47727 244.463 3.15909 243.349 3.15909C242.031 3.15909 240.531 3.61364 239.849 5.20455L241.122 5.65909C241.418 5.02273 242.116 4.34091 243.395 4.34091C244.628 4.34091 245.236 4.99432 245.236 6.11364V6.15909C245.236 6.80682 244.577 6.75 242.986 6.95455C241.366 7.16477 239.599 7.52273 239.599 9.52273C239.599 11.2273 240.918 12.2045 242.577 12.2045ZM242.781 11C241.713 11 240.94 10.5227 240.94 9.59091C240.94 8.56818 241.872 8.25 242.918 8.11364C243.486 8.04545 245.009 7.88636 245.236 7.61364V8.84091C245.236 9.93182 244.372 11 242.781 11ZM250.365 6.75C250.365 5.22727 251.308 4.36364 252.592 4.36364C253.837 4.36364 254.592 5.17614 254.592 6.54545V12H255.933V6.45455C255.933 4.22727 254.746 3.15909 252.979 3.15909C251.661 3.15909 250.842 3.75 250.433 4.63636H250.32V3.27273H249.024V12H250.365V6.75ZM261.679 12.1818C263.361 12.1818 263.929 11.1364 264.224 10.6591H264.384V12H265.679V0.363636H264.338V4.65909H264.224C263.929 4.20455 263.406 3.15909 261.702 3.15909C259.497 3.15909 257.974 4.90909 257.974 7.65909C257.974 10.4318 259.497 12.1818 261.679 12.1818ZM261.861 10.9773C260.179 10.9773 259.315 9.5 259.315 7.63636C259.315 5.79545 260.156 4.36364 261.861 4.36364C263.497 4.36364 264.361 5.68182 264.361 7.63636C264.361 9.61364 263.474 10.9773 261.861 10.9773ZM1.40909 36H2.70455V34.6591H2.86364C3.15909 35.1364 3.72727 36.1818 5.40909 36.1818C7.59091 36.1818 9.11364 34.4318 9.11364 31.6591C9.11364 28.9091 7.59091 27.1591 5.38636 27.1591C3.68182 27.1591 3.15909 28.2045 2.86364 28.6591H2.75V24.3636H1.40909V36ZM2.72727 31.6364C2.72727 29.6818 3.59091 28.3636 5.22727 28.3636C6.93182 28.3636 7.77273 29.7955 7.77273 31.6364C7.77273 33.5 6.90909 34.9773 5.22727 34.9773C3.61364 34.9773 2.72727 33.6136 2.72727 31.6364ZM14.8239 36.1818C16.5966 36.1818 17.892 35.2955 18.3011 33.9773L17.0057 33.6136C16.6648 34.5227 15.875 34.9773 14.8239 34.9773C13.25 34.9773 12.1648 33.9602 12.1023 32.0909H18.4375V31.5227C18.4375 28.2727 16.5057 27.1591 14.6875 27.1591C12.3239 27.1591 10.7557 29.0227 10.7557 31.7045C10.7557 34.3864 12.3011 36.1818 14.8239 36.1818ZM12.1023 30.9318C12.1932 29.5739 13.1534 28.3636 14.6875 28.3636C16.142 28.3636 17.0739 29.4545 17.0739 30.9318H12.1023ZM26.6591 29.2273C26.2386 27.9886 25.2955 27.1591 23.5682 27.1591C21.7273 27.1591 20.3636 28.2045 20.3636 29.6818C20.3636 30.8864 21.0795 31.6932 22.6818 32.0682L24.1364 32.4091C25.017 32.6136 25.4318 33.0341 25.4318 33.6364C25.4318 34.3864 24.6364 35 23.3864 35C22.2898 35 21.6023 34.5284 21.3636 33.5909L20.0909 33.9091C20.4034 35.392 21.625 36.1818 23.4091 36.1818C25.4375 36.1818 26.8182 35.0739 26.8182 33.5682C26.8182 32.3523 26.0568 31.5852 24.5 31.2045L23.2045 30.8864C22.1705 30.6307 21.7045 30.2841 21.7045 29.6136C21.7045 28.8636 22.5 28.3182 23.5682 28.3182C24.7386 28.3182 25.2216 28.9659 25.4545 29.5682L26.6591 29.2273ZM32.6321 27.2727H30.7685V25.1818H29.4276V27.2727H28.1094V28.4091H29.4276V33.8636C29.4276 35.3864 30.6548 36.1136 31.7912 36.1136C32.2912 36.1136 32.6094 36.0227 32.7912 35.9545L32.5185 34.75C32.4048 34.7727 32.223 34.8182 31.9276 34.8182C31.3366 34.8182 30.7685 34.6364 30.7685 33.5V28.4091H32.6321V27.2727ZM39.1491 39.2727H40.4901V34.6591H40.6037C40.8991 35.1364 41.4673 36.1818 43.1491 36.1818C45.331 36.1818 46.8537 34.4318 46.8537 31.6591C46.8537 28.9091 45.331 27.1591 43.1264 27.1591C41.4219 27.1591 40.8991 28.2045 40.6037 28.6591H40.4446V27.2727H39.1491V39.2727ZM40.4673 31.6364C40.4673 29.6818 41.331 28.3636 42.9673 28.3636C44.6719 28.3636 45.5128 29.7955 45.5128 31.6364C45.5128 33.5 44.6491 34.9773 42.9673 34.9773C41.3537 34.9773 40.4673 33.6136 40.4673 31.6364ZM48.8991 36H50.2401V30.4773C50.2401 29.2955 51.1719 28.4318 52.4446 28.4318C52.8026 28.4318 53.1719 28.5 53.2628 28.5227V27.1591C53.1094 27.1477 52.7571 27.1364 52.5582 27.1364C51.5128 27.1364 50.6037 27.7273 50.2855 28.5909H50.1946V27.2727H48.8991V36ZM57.4205 36.2045C58.9432 36.2045 59.7386 35.3864 60.0114 34.8182H60.0795V36H61.4205V30.25C61.4205 27.4773 59.3068 27.1591 58.1932 27.1591C56.875 27.1591 55.375 27.6136 54.6932 29.2045L55.9659 29.6591C56.2614 29.0227 56.9602 28.3409 58.2386 28.3409C59.4716 28.3409 60.0795 28.9943 60.0795 30.1136V30.1591C60.0795 30.8068 59.4205 30.75 57.8295 30.9545C56.2102 31.1648 54.4432 31.5227 54.4432 33.5227C54.4432 35.2273 55.7614 36.2045 57.4205 36.2045ZM57.625 35C56.5568 35 55.7841 34.5227 55.7841 33.5909C55.7841 32.5682 56.7159 32.25 57.7614 32.1136C58.3295 32.0455 59.8523 31.8864 60.0795 31.6136V32.8409C60.0795 33.9318 59.2159 35 57.625 35ZM67.4134 36.1818C69.3452 36.1818 70.6179 35 70.8452 33.4545H69.5043C69.2543 34.4091 68.4588 34.9773 67.4134 34.9773C65.8224 34.9773 64.7997 33.6591 64.7997 31.6364C64.7997 29.6591 65.8452 28.3636 67.4134 28.3636C68.5952 28.3636 69.2997 29.0909 69.5043 29.8864H70.8452C70.6179 28.25 69.2315 27.1591 67.3906 27.1591C65.027 27.1591 63.4588 29.0227 63.4588 31.6818C63.4588 34.2955 64.9588 36.1818 67.4134 36.1818ZM76.6009 27.2727H74.7372V25.1818H73.3963V27.2727H72.0781V28.4091H73.3963V33.8636C73.3963 35.3864 74.6236 36.1136 75.7599 36.1136C76.2599 36.1136 76.5781 36.0227 76.7599 35.9545L76.4872 34.75C76.3736 34.7727 76.1918 34.8182 75.8963 34.8182C75.3054 34.8182 74.7372 34.6364 74.7372 33.5V28.4091H76.6009V27.2727ZM78.6179 36H79.9588V27.2727H78.6179V36ZM79.2997 25.8182C79.8224 25.8182 80.2543 25.4091 80.2543 24.9091C80.2543 24.4091 79.8224 24 79.2997 24C78.777 24 78.3452 24.4091 78.3452 24.9091C78.3452 25.4091 78.777 25.8182 79.2997 25.8182ZM85.9602 36.1818C87.892 36.1818 89.1648 35 89.392 33.4545H88.0511C87.8011 34.4091 87.0057 34.9773 85.9602 34.9773C84.3693 34.9773 83.3466 33.6591 83.3466 31.6364C83.3466 29.6591 84.392 28.3636 85.9602 28.3636C87.142 28.3636 87.8466 29.0909 88.0511 29.8864H89.392C89.1648 28.25 87.7784 27.1591 85.9375 27.1591C83.5739 27.1591 82.0057 29.0227 82.0057 31.6818C82.0057 34.2955 83.5057 36.1818 85.9602 36.1818ZM95.0114 36.1818C96.7841 36.1818 98.0795 35.2955 98.4886 33.9773L97.1932 33.6136C96.8523 34.5227 96.0625 34.9773 95.0114 34.9773C93.4375 34.9773 92.3523 33.9602 92.2898 32.0909H98.625V31.5227C98.625 28.2727 96.6932 27.1591 94.875 27.1591C92.5114 27.1591 90.9432 29.0227 90.9432 31.7045C90.9432 34.3864 92.4886 36.1818 95.0114 36.1818ZM92.2898 30.9318C92.3807 29.5739 93.3409 28.3636 94.875 28.3636C96.3295 28.3636 97.2614 29.4545 97.2614 30.9318H92.2898ZM106.847 29.2273C106.426 27.9886 105.483 27.1591 103.756 27.1591C101.915 27.1591 100.551 28.2045 100.551 29.6818C100.551 30.8864 101.267 31.6932 102.869 32.0682L104.324 32.4091C105.205 32.6136 105.619 33.0341 105.619 33.6364C105.619 34.3864 104.824 35 103.574 35C102.477 35 101.79 34.5284 101.551 33.5909L100.278 33.9091C100.591 35.392 101.812 36.1818 103.597 36.1818C105.625 36.1818 107.006 35.0739 107.006 33.5682C107.006 32.3523 106.244 31.5852 104.688 31.2045L103.392 30.8864C102.358 30.6307 101.892 30.2841 101.892 29.6136C101.892 28.8636 102.688 28.3182 103.756 28.3182C104.926 28.3182 105.409 28.9659 105.642 29.5682L106.847 29.2273ZM117.411 27.2727H115.456V26.3864C115.456 25.5227 115.82 25.0682 116.706 25.0682C117.092 25.0682 117.32 25.1591 117.456 25.2045L117.842 24.0455C117.638 23.9545 117.229 23.8182 116.57 23.8182C115.32 23.8182 114.115 24.5682 114.115 26.0682V27.2727H112.706V28.4091H114.115V36H115.456V28.4091H117.411V27.2727ZM119.29 36H120.631V30.4773C120.631 29.2955 121.562 28.4318 122.835 28.4318C123.193 28.4318 123.562 28.5 123.653 28.5227V27.1591C123.5 27.1477 123.148 27.1364 122.949 27.1364C121.903 27.1364 120.994 27.7273 120.676 28.5909H120.585V27.2727H119.29V36ZM128.523 36.1818C130.886 36.1818 132.477 34.3864 132.477 31.6818C132.477 28.9545 130.886 27.1591 128.523 27.1591C126.159 27.1591 124.568 28.9545 124.568 31.6818C124.568 34.3864 126.159 36.1818 128.523 36.1818ZM128.523 34.9773C126.727 34.9773 125.909 33.4318 125.909 31.6818C125.909 29.9318 126.727 28.3636 128.523 28.3636C130.318 28.3636 131.136 29.9318 131.136 31.6818C131.136 33.4318 130.318 34.9773 128.523 34.9773ZM134.524 36H135.865V30.5455C135.865 29.267 136.797 28.3636 137.842 28.3636C138.859 28.3636 139.57 29.0284 139.57 30.0227V36H140.933V30.3182C140.933 29.1932 141.638 28.3636 142.865 28.3636C143.82 28.3636 144.638 28.8693 144.638 30.1591V36H145.979V30.1591C145.979 28.108 144.876 27.1591 143.32 27.1591C142.07 27.1591 141.155 27.733 140.706 28.6364H140.615C140.183 27.7045 139.422 27.1591 138.274 27.1591C137.138 27.1591 136.297 27.7045 135.933 28.6364H135.82V27.2727H134.524V36ZM156.476 36.1818C158.839 36.1818 160.43 34.3864 160.43 31.6818C160.43 28.9545 158.839 27.1591 156.476 27.1591C154.112 27.1591 152.521 28.9545 152.521 31.6818C152.521 34.3864 154.112 36.1818 156.476 36.1818ZM156.476 34.9773C154.68 34.9773 153.862 33.4318 153.862 31.6818C153.862 29.9318 154.68 28.3636 156.476 28.3636C158.271 28.3636 159.089 29.9318 159.089 31.6818C159.089 33.4318 158.271 34.9773 156.476 34.9773ZM167.977 32.4318C167.977 34.0682 166.727 34.8182 165.727 34.8182C164.614 34.8182 163.818 34 163.818 32.7273V27.2727H162.477V32.8182C162.477 35.0455 163.659 36.1136 165.295 36.1136C166.614 36.1136 167.477 35.4091 167.886 34.5227H167.977V36H169.318V27.2727H167.977V32.4318ZM171.774 36H173.115V30.4773C173.115 29.2955 174.047 28.4318 175.32 28.4318C175.678 28.4318 176.047 28.5 176.138 28.5227V27.1591C175.984 27.1477 175.632 27.1364 175.433 27.1364C174.388 27.1364 173.479 27.7273 173.161 28.5909H173.07V27.2727H171.774V36ZM186.023 27.2727H184.159V25.1818H182.818V27.2727H181.5V28.4091H182.818V33.8636C182.818 35.3864 184.045 36.1136 185.182 36.1136C185.682 36.1136 186 36.0227 186.182 35.9545L185.909 34.75C185.795 34.7727 185.614 34.8182 185.318 34.8182C184.727 34.8182 184.159 34.6364 184.159 33.5V28.4091H186.023V27.2727ZM191.605 36.1818C193.378 36.1818 194.673 35.2955 195.082 33.9773L193.787 33.6136C193.446 34.5227 192.656 34.9773 191.605 34.9773C190.031 34.9773 188.946 33.9602 188.884 32.0909H195.219V31.5227C195.219 28.2727 193.287 27.1591 191.469 27.1591C189.105 27.1591 187.537 29.0227 187.537 31.7045C187.537 34.3864 189.082 36.1818 191.605 36.1818ZM188.884 30.9318C188.974 29.5739 189.935 28.3636 191.469 28.3636C192.923 28.3636 193.855 29.4545 193.855 30.9318H188.884ZM199.827 36.2045C201.349 36.2045 202.145 35.3864 202.418 34.8182H202.486V36H203.827V30.25C203.827 27.4773 201.713 27.1591 200.599 27.1591C199.281 27.1591 197.781 27.6136 197.099 29.2045L198.372 29.6591C198.668 29.0227 199.366 28.3409 200.645 28.3409C201.878 28.3409 202.486 28.9943 202.486 30.1136V30.1591C202.486 30.8068 201.827 30.75 200.236 30.9545C198.616 31.1648 196.849 31.5227 196.849 33.5227C196.849 35.2273 198.168 36.2045 199.827 36.2045ZM200.031 35C198.963 35 198.19 34.5227 198.19 33.5909C198.19 32.5682 199.122 32.25 200.168 32.1136C200.736 32.0455 202.259 31.8864 202.486 31.6136V32.8409C202.486 33.9318 201.622 35 200.031 35ZM206.274 36H207.615V30.5455C207.615 29.267 208.547 28.3636 209.592 28.3636C210.609 28.3636 211.32 29.0284 211.32 30.0227V36H212.683V30.3182C212.683 29.1932 213.388 28.3636 214.615 28.3636C215.57 28.3636 216.388 28.8693 216.388 30.1591V36H217.729V30.1591C217.729 28.108 216.626 27.1591 215.07 27.1591C213.82 27.1591 212.905 27.733 212.456 28.6364H212.365C211.933 27.7045 211.172 27.1591 210.024 27.1591C208.888 27.1591 208.047 27.7045 207.683 28.6364H207.57V27.2727H206.274V36ZM228.226 36.1818C230.589 36.1818 232.18 34.3864 232.18 31.6818C232.18 28.9545 230.589 27.1591 228.226 27.1591C225.862 27.1591 224.271 28.9545 224.271 31.6818C224.271 34.3864 225.862 36.1818 228.226 36.1818ZM228.226 34.9773C226.43 34.9773 225.612 33.4318 225.612 31.6818C225.612 29.9318 226.43 28.3636 228.226 28.3636C230.021 28.3636 230.839 29.9318 230.839 31.6818C230.839 33.4318 230.021 34.9773 228.226 34.9773ZM238.114 27.2727H236.159V26.3864C236.159 25.5227 236.523 25.0682 237.409 25.0682C237.795 25.0682 238.023 25.1591 238.159 25.2045L238.545 24.0455C238.341 23.9545 237.932 23.8182 237.273 23.8182C236.023 23.8182 234.818 24.5682 234.818 26.0682V27.2727H233.409V28.4091H234.818V36H236.159V28.4091H238.114V27.2727ZM248.152 36.1818C249.925 36.1818 251.22 35.2955 251.629 33.9773L250.334 33.6136C249.993 34.5227 249.203 34.9773 248.152 34.9773C246.578 34.9773 245.493 33.9602 245.43 32.0909H251.766V31.5227C251.766 28.2727 249.834 27.1591 248.016 27.1591C245.652 27.1591 244.084 29.0227 244.084 31.7045C244.084 34.3864 245.629 36.1818 248.152 36.1818ZM245.43 30.9318C245.521 29.5739 246.482 28.3636 248.016 28.3636C249.47 28.3636 250.402 29.4545 250.402 30.9318H245.43ZM254.571 27.2727H253.026L255.798 31.6364L253.026 36H254.571L256.662 32.6136L258.753 36H260.298L257.48 31.6364L260.298 27.2727H258.753L256.662 30.8409L254.571 27.2727ZM262.212 39.2727H263.553V34.6591H263.666C263.962 35.1364 264.53 36.1818 266.212 36.1818C268.393 36.1818 269.916 34.4318 269.916 31.6591C269.916 28.9091 268.393 27.1591 266.189 27.1591C264.484 27.1591 263.962 28.2045 263.666 28.6591H263.507V27.2727H262.212V39.2727ZM263.53 31.6364C263.53 29.6818 264.393 28.3636 266.03 28.3636C267.734 28.3636 268.575 29.7955 268.575 31.6364C268.575 33.5 267.712 34.9773 266.03 34.9773C264.416 34.9773 263.53 33.6136 263.53 31.6364ZM275.621 36.1818C277.393 36.1818 278.689 35.2955 279.098 33.9773L277.803 33.6136C277.462 34.5227 276.672 34.9773 275.621 34.9773C274.047 34.9773 272.962 33.9602 272.899 32.0909H279.234V31.5227C279.234 28.2727 277.303 27.1591 275.484 27.1591C273.121 27.1591 271.553 29.0227 271.553 31.7045C271.553 34.3864 273.098 36.1818 275.621 36.1818ZM272.899 30.9318C272.99 29.5739 273.95 28.3636 275.484 28.3636C276.939 28.3636 277.871 29.4545 277.871 30.9318H272.899ZM281.274 36H282.615V30.4773C282.615 29.2955 283.547 28.4318 284.82 28.4318C285.178 28.4318 285.547 28.5 285.638 28.5227V27.1591C285.484 27.1477 285.132 27.1364 284.933 27.1364C283.888 27.1364 282.979 27.7273 282.661 28.5909H282.57V27.2727H281.274V36ZM291.57 27.2727H289.706V25.1818H288.365V27.2727H287.047V28.4091H288.365V33.8636C288.365 35.3864 289.592 36.1136 290.729 36.1136C291.229 36.1136 291.547 36.0227 291.729 35.9545L291.456 34.75C291.342 34.7727 291.161 34.8182 290.865 34.8182C290.274 34.8182 289.706 34.6364 289.706 33.5V28.4091H291.57V27.2727ZM299.612 29.2273C299.192 27.9886 298.249 27.1591 296.521 27.1591C294.68 27.1591 293.317 28.2045 293.317 29.6818C293.317 30.8864 294.033 31.6932 295.635 32.0682L297.089 32.4091C297.97 32.6136 298.385 33.0341 298.385 33.6364C298.385 34.3864 297.589 35 296.339 35C295.243 35 294.555 34.5284 294.317 33.5909L293.044 33.9091C293.357 35.392 294.578 36.1818 296.362 36.1818C298.391 36.1818 299.771 35.0739 299.771 33.5682C299.771 32.3523 299.01 31.5852 297.453 31.2045L296.158 30.8864C295.124 30.6307 294.658 30.2841 294.658 29.6136C294.658 28.8636 295.453 28.3182 296.521 28.3182C297.692 28.3182 298.175 28.9659 298.408 29.5682L299.612 29.2273ZM302.767 36.0909C303.33 36.0909 303.79 35.6307 303.79 35.0682C303.79 34.5057 303.33 34.0455 302.767 34.0455C302.205 34.0455 301.744 34.5057 301.744 35.0682C301.744 35.6307 302.205 36.0909 302.767 36.0909Z" fill="#4E5A65"/>
</svg>
