<svg width="283" height="40" viewBox="0 0 283 40" fill="none" xmlns="http://www.w3.org/2000/svg">
<path d="M1.88636 12L3.05682 8.70455H7.76136L8.93182 12H10.4091L6.13636 0.363636H4.68182L0.409091 12H1.88636ZM3.5 7.45455L5.36364 2.20455H5.45455L7.31818 7.45455H3.5ZM13.3807 6.75C13.3807 5.22727 14.3239 4.36364 15.608 4.36364C16.8523 4.36364 17.608 5.17614 17.608 6.54545V12H18.9489V6.45455C18.9489 4.22727 17.7614 3.15909 15.9943 3.15909C14.6761 3.15909 13.858 3.75 13.4489 4.63636H13.3352V3.27273H12.0398V12H13.3807V6.75ZM24.9446 12.1818C27.3082 12.1818 28.8991 10.3864 28.8991 7.68182C28.8991 4.95455 27.3082 3.15909 24.9446 3.15909C22.581 3.15909 20.9901 4.95455 20.9901 7.68182C20.9901 10.3864 22.581 12.1818 24.9446 12.1818ZM24.9446 10.9773C23.1491 10.9773 22.331 9.43182 22.331 7.68182C22.331 5.93182 23.1491 4.36364 24.9446 4.36364C26.7401 4.36364 27.5582 5.93182 27.5582 7.68182C27.5582 9.43182 26.7401 10.9773 24.9446 10.9773ZM32.2869 6.75C32.2869 5.22727 33.2301 4.36364 34.5142 4.36364C35.7585 4.36364 36.5142 5.17614 36.5142 6.54545V12H37.8551V6.45455C37.8551 4.22727 36.6676 3.15909 34.9006 3.15909C33.5824 3.15909 32.7642 3.75 32.3551 4.63636H32.2415V3.27273H30.946V12H32.2869V6.75ZM40.8565 15.2727C42.0668 15.2727 42.919 14.6307 43.4247 13.2727L47.1406 3.29545L45.6747 3.27273L43.2656 10.2273H43.1747L40.7656 3.27273H39.3111L42.5384 12.0455L42.2884 12.7273C41.7997 14.0568 41.1974 14.1818 40.2202 13.9318L39.8793 15.1136C40.0156 15.1818 40.402 15.2727 40.8565 15.2727ZM48.9148 12H50.2557V6.54545C50.2557 5.26705 51.1875 4.36364 52.233 4.36364C53.25 4.36364 53.9602 5.02841 53.9602 6.02273V12H55.3239V6.31818C55.3239 5.19318 56.0284 4.36364 57.2557 4.36364C58.2102 4.36364 59.0284 4.86932 59.0284 6.15909V12H60.3693V6.15909C60.3693 4.10795 59.267 3.15909 57.7102 3.15909C56.4602 3.15909 55.5455 3.73295 55.0966 4.63636H55.0057C54.5739 3.70455 53.8125 3.15909 52.6648 3.15909C51.5284 3.15909 50.6875 3.70455 50.3239 4.63636H50.2102V3.27273H48.9148V12ZM66.3665 12.1818C68.7301 12.1818 70.321 10.3864 70.321 7.68182C70.321 4.95455 68.7301 3.15909 66.3665 3.15909C64.0028 3.15909 62.4119 4.95455 62.4119 7.68182C62.4119 10.3864 64.0028 12.1818 66.3665 12.1818ZM66.3665 10.9773C64.571 10.9773 63.7528 9.43182 63.7528 7.68182C63.7528 5.93182 64.571 4.36364 66.3665 4.36364C68.1619 4.36364 68.9801 5.93182 68.9801 7.68182C68.9801 9.43182 68.1619 10.9773 66.3665 10.9773ZM77.8679 8.43182C77.8679 10.0682 76.6179 10.8182 75.6179 10.8182C74.5043 10.8182 73.7088 10 73.7088 8.72727V3.27273H72.3679V8.81818C72.3679 11.0455 73.5497 12.1136 75.1861 12.1136C76.5043 12.1136 77.3679 11.4091 77.777 10.5227H77.8679V12H79.2088V3.27273H77.8679V8.43182ZM87.8466 5.22727C87.4261 3.98864 86.483 3.15909 84.7557 3.15909C82.9148 3.15909 81.5511 4.20455 81.5511 5.68182C81.5511 6.88636 82.267 7.69318 83.8693 8.06818L85.3239 8.40909C86.2045 8.61364 86.6193 9.03409 86.6193 9.63636C86.6193 10.3864 85.8239 11 84.5739 11C83.4773 11 82.7898 10.5284 82.5511 9.59091L81.2784 9.90909C81.5909 11.392 82.8125 12.1818 84.5966 12.1818C86.625 12.1818 88.0057 11.0739 88.0057 9.56818C88.0057 8.35227 87.2443 7.58523 85.6875 7.20455L84.392 6.88636C83.358 6.63068 82.892 6.28409 82.892 5.61364C82.892 4.86364 83.6875 4.31818 84.7557 4.31818C85.9261 4.31818 86.4091 4.96591 86.642 5.56818L87.8466 5.22727ZM94.5241 12H95.8651V6.54545C95.8651 5.26705 96.7969 4.36364 97.8423 4.36364C98.8594 4.36364 99.5696 5.02841 99.5696 6.02273V12H100.933V6.31818C100.933 5.19318 101.638 4.36364 102.865 4.36364C103.82 4.36364 104.638 4.86932 104.638 6.15909V12H105.979V6.15909C105.979 4.10795 104.876 3.15909 103.32 3.15909C102.07 3.15909 101.155 3.73295 100.706 4.63636H100.615C100.183 3.70455 99.4219 3.15909 98.2741 3.15909C97.1378 3.15909 96.2969 3.70455 95.9332 4.63636H95.8196V3.27273H94.5241V12ZM112.089 12.1818C113.862 12.1818 115.158 11.2955 115.567 9.97727L114.271 9.61364C113.93 10.5227 113.141 10.9773 112.089 10.9773C110.516 10.9773 109.43 9.96023 109.368 8.09091H115.703V7.52273C115.703 4.27273 113.771 3.15909 111.953 3.15909C109.589 3.15909 108.021 5.02273 108.021 7.70455C108.021 10.3864 109.567 12.1818 112.089 12.1818ZM109.368 6.93182C109.459 5.57386 110.419 4.36364 111.953 4.36364C113.408 4.36364 114.339 5.45455 114.339 6.93182H109.368ZM123.925 5.22727C123.504 3.98864 122.561 3.15909 120.834 3.15909C118.993 3.15909 117.629 4.20455 117.629 5.68182C117.629 6.88636 118.345 7.69318 119.947 8.06818L121.402 8.40909C122.283 8.61364 122.697 9.03409 122.697 9.63636C122.697 10.3864 121.902 11 120.652 11C119.555 11 118.868 10.5284 118.629 9.59091L117.357 9.90909C117.669 11.392 118.891 12.1818 120.675 12.1818C122.703 12.1818 124.084 11.0739 124.084 9.56818C124.084 8.35227 123.322 7.58523 121.766 7.20455L120.47 6.88636C119.436 6.63068 118.97 6.28409 118.97 5.61364C118.97 4.86364 119.766 4.31818 120.834 4.31818C122.004 4.31818 122.487 4.96591 122.72 5.56818L123.925 5.22727ZM132.284 5.22727C131.864 3.98864 130.92 3.15909 129.193 3.15909C127.352 3.15909 125.989 4.20455 125.989 5.68182C125.989 6.88636 126.705 7.69318 128.307 8.06818L129.761 8.40909C130.642 8.61364 131.057 9.03409 131.057 9.63636C131.057 10.3864 130.261 11 129.011 11C127.915 11 127.227 10.5284 126.989 9.59091L125.716 9.90909C126.028 11.392 127.25 12.1818 129.034 12.1818C131.062 12.1818 132.443 11.0739 132.443 9.56818C132.443 8.35227 131.682 7.58523 130.125 7.20455L128.83 6.88636C127.795 6.63068 127.33 6.28409 127.33 5.61364C127.33 4.86364 128.125 4.31818 129.193 4.31818C130.364 4.31818 130.847 4.96591 131.08 5.56818L132.284 5.22727ZM137.03 12.2045C138.553 12.2045 139.348 11.3864 139.621 10.8182H139.689V12H141.03V6.25C141.03 3.47727 138.916 3.15909 137.803 3.15909C136.484 3.15909 134.984 3.61364 134.303 5.20455L135.575 5.65909C135.871 5.02273 136.57 4.34091 137.848 4.34091C139.081 4.34091 139.689 4.99432 139.689 6.11364V6.15909C139.689 6.80682 139.03 6.75 137.439 6.95455C135.82 7.16477 134.053 7.52273 134.053 9.52273C134.053 11.2273 135.371 12.2045 137.03 12.2045ZM137.234 11C136.166 11 135.393 10.5227 135.393 9.59091C135.393 8.56818 136.325 8.25 137.371 8.11364C137.939 8.04545 139.462 7.88636 139.689 7.61364V8.84091C139.689 9.93182 138.825 11 137.234 11ZM147 15.4545C149.091 15.4545 150.773 14.5 150.773 12.25V3.27273H149.477V4.65909H149.341C149.045 4.20455 148.5 3.15909 146.795 3.15909C144.591 3.15909 143.068 4.90909 143.068 7.59091C143.068 10.3182 144.659 11.8636 146.773 11.8636C148.477 11.8636 149.023 10.8636 149.318 10.3864H149.432V12.1591C149.432 13.6136 148.409 14.2727 147 14.2727C145.415 14.2727 144.858 13.4375 144.5 12.9545L143.432 13.7045C143.977 14.6193 145.051 15.4545 147 15.4545ZM146.955 10.6591C145.273 10.6591 144.409 9.38636 144.409 7.56818C144.409 5.79545 145.25 4.36364 146.955 4.36364C148.591 4.36364 149.455 5.68182 149.455 7.56818C149.455 9.5 148.568 10.6591 146.955 10.6591ZM153.227 12H154.568V3.27273H153.227V12ZM153.909 1.81818C154.432 1.81818 154.864 1.40909 154.864 0.909091C154.864 0.409091 154.432 0 153.909 0C153.386 0 152.955 0.409091 152.955 0.909091C152.955 1.40909 153.386 1.81818 153.909 1.81818ZM158.365 6.75C158.365 5.22727 159.308 4.36364 160.592 4.36364C161.837 4.36364 162.592 5.17614 162.592 6.54545V12H163.933V6.45455C163.933 4.22727 162.746 3.15909 160.979 3.15909C159.661 3.15909 158.842 3.75 158.433 4.63636H158.32V3.27273H157.024V12H158.365V6.75ZM169.906 15.4545C171.997 15.4545 173.679 14.5 173.679 12.25V3.27273H172.384V4.65909H172.247C171.952 4.20455 171.406 3.15909 169.702 3.15909C167.497 3.15909 165.974 4.90909 165.974 7.59091C165.974 10.3182 167.565 11.8636 169.679 11.8636C171.384 11.8636 171.929 10.8636 172.224 10.3864H172.338V12.1591C172.338 13.6136 171.315 14.2727 169.906 14.2727C168.321 14.2727 167.764 13.4375 167.406 12.9545L166.338 13.7045C166.884 14.6193 167.957 15.4545 169.906 15.4545ZM169.861 10.6591C168.179 10.6591 167.315 9.38636 167.315 7.56818C167.315 5.79545 168.156 4.36364 169.861 4.36364C171.497 4.36364 172.361 5.68182 172.361 7.56818C172.361 9.5 171.474 10.6591 169.861 10.6591ZM184.429 3.27273H182.565V1.18182H181.224V3.27273H179.906V4.40909H181.224V9.86364C181.224 11.3864 182.452 12.1136 183.588 12.1136C184.088 12.1136 184.406 12.0227 184.588 11.9545L184.315 10.75C184.202 10.7727 184.02 10.8182 183.724 10.8182C183.134 10.8182 182.565 10.6364 182.565 9.5V4.40909H184.429V3.27273ZM187.974 6.75C187.974 5.22727 188.946 4.36364 190.27 4.36364C191.531 4.36364 192.293 5.15909 192.293 6.54545V12H193.634V6.45455C193.634 4.21023 192.44 3.15909 190.656 3.15909C189.281 3.15909 188.497 3.73295 188.088 4.63636H187.974V0.363636H186.634V12H187.974V6.75ZM198.655 12.2045C200.178 12.2045 200.973 11.3864 201.246 10.8182H201.314V12H202.655V6.25C202.655 3.47727 200.541 3.15909 199.428 3.15909C198.109 3.15909 196.609 3.61364 195.928 5.20455L197.2 5.65909C197.496 5.02273 198.195 4.34091 199.473 4.34091C200.706 4.34091 201.314 4.99432 201.314 6.11364V6.15909C201.314 6.80682 200.655 6.75 199.064 6.95455C197.445 7.16477 195.678 7.52273 195.678 9.52273C195.678 11.2273 196.996 12.2045 198.655 12.2045ZM198.859 11C197.791 11 197.018 10.5227 197.018 9.59091C197.018 8.56818 197.95 8.25 198.996 8.11364C199.564 8.04545 201.087 7.88636 201.314 7.61364V8.84091C201.314 9.93182 200.45 11 198.859 11ZM208.898 3.27273H207.034V1.18182H205.693V3.27273H204.375V4.40909H205.693V9.86364C205.693 11.3864 206.92 12.1136 208.057 12.1136C208.557 12.1136 208.875 12.0227 209.057 11.9545L208.784 10.75C208.67 10.7727 208.489 10.8182 208.193 10.8182C207.602 10.8182 207.034 10.6364 207.034 9.5V4.40909H208.898V3.27273ZM218.96 12.1818C220.892 12.1818 222.165 11 222.392 9.45455H221.051C220.801 10.4091 220.006 10.9773 218.96 10.9773C217.369 10.9773 216.347 9.65909 216.347 7.63636C216.347 5.65909 217.392 4.36364 218.96 4.36364C220.142 4.36364 220.847 5.09091 221.051 5.88636H222.392C222.165 4.25 220.778 3.15909 218.938 3.15909C216.574 3.15909 215.006 5.02273 215.006 7.68182C215.006 10.2955 216.506 12.1818 218.96 12.1818ZM227.898 12.1818C230.261 12.1818 231.852 10.3864 231.852 7.68182C231.852 4.95455 230.261 3.15909 227.898 3.15909C225.534 3.15909 223.943 4.95455 223.943 7.68182C223.943 10.3864 225.534 12.1818 227.898 12.1818ZM227.898 10.9773C226.102 10.9773 225.284 9.43182 225.284 7.68182C225.284 5.93182 226.102 4.36364 227.898 4.36364C229.693 4.36364 230.511 5.93182 230.511 7.68182C230.511 9.43182 229.693 10.9773 227.898 10.9773ZM235.24 6.75C235.24 5.22727 236.183 4.36364 237.467 4.36364C238.712 4.36364 239.467 5.17614 239.467 6.54545V12H240.808V6.45455C240.808 4.22727 239.621 3.15909 237.854 3.15909C236.536 3.15909 235.717 3.75 235.308 4.63636H235.195V3.27273H233.899V12H235.24V6.75ZM244.599 6.75C244.599 5.22727 245.543 4.36364 246.827 4.36364C248.071 4.36364 248.827 5.17614 248.827 6.54545V12H250.168V6.45455C250.168 4.22727 248.98 3.15909 247.213 3.15909C245.895 3.15909 245.077 3.75 244.668 4.63636H244.554V3.27273H243.259V12H244.599V6.75ZM256.277 12.1818C258.05 12.1818 259.345 11.2955 259.754 9.97727L258.459 9.61364C258.118 10.5227 257.328 10.9773 256.277 10.9773C254.703 10.9773 253.618 9.96023 253.555 8.09091H259.891V7.52273C259.891 4.27273 257.959 3.15909 256.141 3.15909C253.777 3.15909 252.209 5.02273 252.209 7.70455C252.209 10.3864 253.754 12.1818 256.277 12.1818ZM253.555 6.93182C253.646 5.57386 254.607 4.36364 256.141 4.36364C257.595 4.36364 258.527 5.45455 258.527 6.93182H253.555ZM265.476 12.1818C267.408 12.1818 268.68 11 268.908 9.45455H267.567C267.317 10.4091 266.521 10.9773 265.476 10.9773C263.885 10.9773 262.862 9.65909 262.862 7.63636C262.862 5.65909 263.908 4.36364 265.476 4.36364C266.658 4.36364 267.362 5.09091 267.567 5.88636H268.908C268.68 4.25 267.294 3.15909 265.453 3.15909C263.089 3.15909 261.521 5.02273 261.521 7.68182C261.521 10.2955 263.021 12.1818 265.476 12.1818ZM274.663 3.27273H272.8V1.18182H271.459V3.27273H270.141V4.40909H271.459V9.86364C271.459 11.3864 272.686 12.1136 273.822 12.1136C274.322 12.1136 274.641 12.0227 274.822 11.9545L274.55 10.75C274.436 10.7727 274.254 10.8182 273.959 10.8182C273.368 10.8182 272.8 10.6364 272.8 9.5V4.40909H274.663V3.27273ZM282.706 5.22727C282.286 3.98864 281.342 3.15909 279.615 3.15909C277.774 3.15909 276.411 4.20455 276.411 5.68182C276.411 6.88636 277.126 7.69318 278.729 8.06818L280.183 8.40909C281.064 8.61364 281.479 9.03409 281.479 9.63636C281.479 10.3864 280.683 11 279.433 11C278.337 11 277.649 10.5284 277.411 9.59091L276.138 9.90909C276.45 11.392 277.672 12.1818 279.456 12.1818C281.484 12.1818 282.865 11.0739 282.865 9.56818C282.865 8.35227 282.104 7.58523 280.547 7.20455L279.251 6.88636C278.217 6.63068 277.751 6.28409 277.751 5.61364C277.751 4.86364 278.547 4.31818 279.615 4.31818C280.786 4.31818 281.268 4.96591 281.501 5.56818L282.706 5.22727ZM1.22727 36H2.56818V30.5455C2.56818 29.267 3.5 28.3636 4.54545 28.3636C5.5625 28.3636 6.27273 29.0284 6.27273 30.0227V36H7.63636V30.3182C7.63636 29.1932 8.34091 28.3636 9.56818 28.3636C10.5227 28.3636 11.3409 28.8693 11.3409 30.1591V36H12.6818V30.1591C12.6818 28.108 11.5795 27.1591 10.0227 27.1591C8.77273 27.1591 7.85795 27.733 7.40909 28.6364H7.31818C6.88636 27.7045 6.125 27.1591 4.97727 27.1591C3.84091 27.1591 3 27.7045 2.63636 28.6364H2.52273V27.2727H1.22727V36ZM17.7017 36.2045C19.2244 36.2045 20.0199 35.3864 20.2926 34.8182H20.3608V36H21.7017V30.25C21.7017 27.4773 19.5881 27.1591 18.4744 27.1591C17.1562 27.1591 15.6562 27.6136 14.9744 29.2045L16.2472 29.6591C16.5426 29.0227 17.2415 28.3409 18.5199 28.3409C19.7528 28.3409 20.3608 28.9943 20.3608 30.1136V30.1591C20.3608 30.8068 19.7017 30.75 18.1108 30.9545C16.4915 31.1648 14.7244 31.5227 14.7244 33.5227C14.7244 35.2273 16.0426 36.2045 17.7017 36.2045ZM17.9062 35C16.8381 35 16.0653 34.5227 16.0653 33.5909C16.0653 32.5682 16.9972 32.25 18.0426 32.1136C18.6108 32.0455 20.1335 31.8864 20.3608 31.6136V32.8409C20.3608 33.9318 19.4972 35 17.9062 35ZM25.4901 30.75C25.4901 29.2273 26.4332 28.3636 27.7173 28.3636C28.9616 28.3636 29.7173 29.1761 29.7173 30.5455V36H31.0582V30.4545C31.0582 28.2273 29.8707 27.1591 28.1037 27.1591C26.7855 27.1591 25.9673 27.75 25.5582 28.6364H25.4446V27.2727H24.1491V36H25.4901V30.75ZM36.0767 36.2045C37.5994 36.2045 38.3949 35.3864 38.6676 34.8182H38.7358V36H40.0767V30.25C40.0767 27.4773 37.9631 27.1591 36.8494 27.1591C35.5312 27.1591 34.0312 27.6136 33.3494 29.2045L34.6222 29.6591C34.9176 29.0227 35.6165 28.3409 36.8949 28.3409C38.1278 28.3409 38.7358 28.9943 38.7358 30.1136V30.1591C38.7358 30.8068 38.0767 30.75 36.4858 30.9545C34.8665 31.1648 33.0994 31.5227 33.0994 33.5227C33.0994 35.2273 34.4176 36.2045 36.0767 36.2045ZM36.2812 35C35.2131 35 34.4403 34.5227 34.4403 33.5909C34.4403 32.5682 35.3722 32.25 36.4176 32.1136C36.9858 32.0455 38.5085 31.8864 38.7358 31.6136V32.8409C38.7358 33.9318 37.8722 35 36.2812 35ZM46.0469 39.4545C48.1378 39.4545 49.8196 38.5 49.8196 36.25V27.2727H48.5241V28.6591H48.3878C48.0923 28.2045 47.5469 27.1591 45.8423 27.1591C43.6378 27.1591 42.1151 28.9091 42.1151 31.5909C42.1151 34.3182 43.706 35.8636 45.8196 35.8636C47.5241 35.8636 48.0696 34.8636 48.3651 34.3864H48.4787V36.1591C48.4787 37.6136 47.456 38.2727 46.0469 38.2727C44.4616 38.2727 43.9048 37.4375 43.5469 36.9545L42.4787 37.7045C43.0241 38.6193 44.098 39.4545 46.0469 39.4545ZM46.0014 34.6591C44.3196 34.6591 43.456 33.3864 43.456 31.5682C43.456 29.7955 44.2969 28.3636 46.0014 28.3636C47.6378 28.3636 48.5014 29.6818 48.5014 31.5682C48.5014 33.5 47.6151 34.6591 46.0014 34.6591ZM55.9332 36.1818C57.706 36.1818 59.0014 35.2955 59.4105 33.9773L58.1151 33.6136C57.7741 34.5227 56.9844 34.9773 55.9332 34.9773C54.3594 34.9773 53.2741 33.9602 53.2116 32.0909H59.5469V31.5227C59.5469 28.2727 57.6151 27.1591 55.7969 27.1591C53.4332 27.1591 51.8651 29.0227 51.8651 31.7045C51.8651 34.3864 53.4105 36.1818 55.9332 36.1818ZM53.2116 30.9318C53.3026 29.5739 54.2628 28.3636 55.7969 28.3636C57.2514 28.3636 58.1832 29.4545 58.1832 30.9318H53.2116ZM61.5866 36H62.9276V30.4773C62.9276 29.2955 63.8594 28.4318 65.1321 28.4318C65.4901 28.4318 65.8594 28.5 65.9503 28.5227V27.1591C65.7969 27.1477 65.4446 27.1364 65.2457 27.1364C64.2003 27.1364 63.2912 27.7273 62.973 28.5909H62.8821V27.2727H61.5866V36ZM73.7216 29.2273C73.3011 27.9886 72.358 27.1591 70.6307 27.1591C68.7898 27.1591 67.4261 28.2045 67.4261 29.6818C67.4261 30.8864 68.142 31.6932 69.7443 32.0682L71.1989 32.4091C72.0795 32.6136 72.4943 33.0341 72.4943 33.6364C72.4943 34.3864 71.6989 35 70.4489 35C69.3523 35 68.6648 34.5284 68.4261 33.5909L67.1534 33.9091C67.4659 35.392 68.6875 36.1818 70.4716 36.1818C72.5 36.1818 73.8807 35.0739 73.8807 33.5682C73.8807 32.3523 73.1193 31.5852 71.5625 31.2045L70.267 30.8864C69.233 30.6307 68.767 30.2841 68.767 29.6136C68.767 28.8636 69.5625 28.3182 70.6307 28.3182C71.8011 28.3182 72.2841 28.9659 72.517 29.5682L73.7216 29.2273ZM82.9673 36.2045C84.4901 36.2045 85.2855 35.3864 85.5582 34.8182H85.6264V36H86.9673V30.25C86.9673 27.4773 84.8537 27.1591 83.7401 27.1591C82.4219 27.1591 80.9219 27.6136 80.2401 29.2045L81.5128 29.6591C81.8082 29.0227 82.5071 28.3409 83.7855 28.3409C85.0185 28.3409 85.6264 28.9943 85.6264 30.1136V30.1591C85.6264 30.8068 84.9673 30.75 83.3764 30.9545C81.7571 31.1648 79.9901 31.5227 79.9901 33.5227C79.9901 35.2273 81.3082 36.2045 82.9673 36.2045ZM83.1719 35C82.1037 35 81.331 34.5227 81.331 33.5909C81.331 32.5682 82.2628 32.25 83.3082 32.1136C83.8764 32.0455 85.3991 31.8864 85.6264 31.6136V32.8409C85.6264 33.9318 84.7628 35 83.1719 35ZM90.7557 30.75C90.7557 29.2273 91.6989 28.3636 92.983 28.3636C94.2273 28.3636 94.983 29.1761 94.983 30.5455V36H96.3239V30.4545C96.3239 28.2273 95.1364 27.1591 93.3693 27.1591C92.0511 27.1591 91.233 27.75 90.8239 28.6364H90.7102V27.2727H89.4148V36H90.7557V30.75ZM102.07 36.1818C103.751 36.1818 104.32 35.1364 104.615 34.6591H104.774V36H106.07V24.3636H104.729V28.6591H104.615C104.32 28.2045 103.797 27.1591 102.092 27.1591C99.8878 27.1591 98.3651 28.9091 98.3651 31.6591C98.3651 34.4318 99.8878 36.1818 102.07 36.1818ZM102.251 34.9773C100.57 34.9773 99.706 33.5 99.706 31.6364C99.706 29.7955 100.547 28.3636 102.251 28.3636C103.888 28.3636 104.751 29.6818 104.751 31.6364C104.751 33.6136 103.865 34.9773 102.251 34.9773ZM116.871 36.1818C118.643 36.1818 119.939 35.2955 120.348 33.9773L119.053 33.6136C118.712 34.5227 117.922 34.9773 116.871 34.9773C115.297 34.9773 114.212 33.9602 114.149 32.0909H120.484V31.5227C120.484 28.2727 118.553 27.1591 116.734 27.1591C114.371 27.1591 112.803 29.0227 112.803 31.7045C112.803 34.3864 114.348 36.1818 116.871 36.1818ZM114.149 30.9318C114.24 29.5739 115.2 28.3636 116.734 28.3636C118.189 28.3636 119.121 29.4545 119.121 30.9318H114.149ZM122.524 36H123.865V30.5455C123.865 29.267 124.797 28.3636 125.842 28.3636C126.859 28.3636 127.57 29.0284 127.57 30.0227V36H128.933V30.3182C128.933 29.1932 129.638 28.3636 130.865 28.3636C131.82 28.3636 132.638 28.8693 132.638 30.1591V36H133.979V30.1591C133.979 28.108 132.876 27.1591 131.32 27.1591C130.07 27.1591 129.155 27.733 128.706 28.6364H128.615C128.183 27.7045 127.422 27.1591 126.274 27.1591C125.138 27.1591 124.297 27.7045 123.933 28.6364H123.82V27.2727H122.524V36ZM136.43 39.2727H137.771V34.6591H137.885C138.18 35.1364 138.749 36.1818 140.43 36.1818C142.612 36.1818 144.135 34.4318 144.135 31.6591C144.135 28.9091 142.612 27.1591 140.408 27.1591C138.703 27.1591 138.18 28.2045 137.885 28.6591H137.726V27.2727H136.43V39.2727ZM137.749 31.6364C137.749 29.6818 138.612 28.3636 140.249 28.3636C141.953 28.3636 142.794 29.7955 142.794 31.6364C142.794 33.5 141.93 34.9773 140.249 34.9773C138.635 34.9773 137.749 33.6136 137.749 31.6364ZM147.521 24.3636H146.18V36H147.521V24.3636ZM153.523 36.1818C155.886 36.1818 157.477 34.3864 157.477 31.6818C157.477 28.9545 155.886 27.1591 153.523 27.1591C151.159 27.1591 149.568 28.9545 149.568 31.6818C149.568 34.3864 151.159 36.1818 153.523 36.1818ZM153.523 34.9773C151.727 34.9773 150.909 33.4318 150.909 31.6818C150.909 29.9318 151.727 28.3636 153.523 28.3636C155.318 28.3636 156.136 29.9318 156.136 31.6818C156.136 33.4318 155.318 34.9773 153.523 34.9773ZM160.075 39.2727C161.286 39.2727 162.138 38.6307 162.643 37.2727L166.359 27.2955L164.893 27.2727L162.484 34.2273H162.393L159.984 27.2727H158.53L161.757 36.0455L161.507 36.7273C161.018 38.0568 160.416 38.1818 159.439 37.9318L159.098 39.1136C159.234 39.1818 159.621 39.2727 160.075 39.2727ZM171.48 36.1818C173.253 36.1818 174.548 35.2955 174.957 33.9773L173.662 33.6136C173.321 34.5227 172.531 34.9773 171.48 34.9773C169.906 34.9773 168.821 33.9602 168.759 32.0909H175.094V31.5227C175.094 28.2727 173.162 27.1591 171.344 27.1591C168.98 27.1591 167.412 29.0227 167.412 31.7045C167.412 34.3864 168.957 36.1818 171.48 36.1818ZM168.759 30.9318C168.849 29.5739 169.81 28.3636 171.344 28.3636C172.798 28.3636 173.73 29.4545 173.73 30.9318H168.759ZM180.793 36.1818C182.565 36.1818 183.861 35.2955 184.27 33.9773L182.974 33.6136C182.634 34.5227 181.844 34.9773 180.793 34.9773C179.219 34.9773 178.134 33.9602 178.071 32.0909H184.406V31.5227C184.406 28.2727 182.474 27.1591 180.656 27.1591C178.293 27.1591 176.724 29.0227 176.724 31.7045C176.724 34.3864 178.27 36.1818 180.793 36.1818ZM178.071 30.9318C178.162 29.5739 179.122 28.3636 180.656 28.3636C182.111 28.3636 183.043 29.4545 183.043 30.9318H178.071ZM192.628 29.2273C192.207 27.9886 191.264 27.1591 189.537 27.1591C187.696 27.1591 186.332 28.2045 186.332 29.6818C186.332 30.8864 187.048 31.6932 188.651 32.0682L190.105 32.4091C190.986 32.6136 191.401 33.0341 191.401 33.6364C191.401 34.3864 190.605 35 189.355 35C188.259 35 187.571 34.5284 187.332 33.5909L186.06 33.9091C186.372 35.392 187.594 36.1818 189.378 36.1818C191.406 36.1818 192.787 35.0739 192.787 33.5682C192.787 32.3523 192.026 31.5852 190.469 31.2045L189.173 30.8864C188.139 30.6307 187.673 30.2841 187.673 29.6136C187.673 28.8636 188.469 28.3182 189.537 28.3182C190.707 28.3182 191.19 28.9659 191.423 29.5682L192.628 29.2273ZM195.783 36.0909C196.345 36.0909 196.805 35.6307 196.805 35.0682C196.805 34.5057 196.345 34.0455 195.783 34.0455C195.22 34.0455 194.76 34.5057 194.76 35.0682C194.76 35.6307 195.22 36.0909 195.783 36.0909Z" fill="#4E5A65"/>
</svg>
