<svg width="203" height="18" viewBox="0 0 203 18" fill="none" xmlns="http://www.w3.org/2000/svg">
<path d="M2.9723 14L4.05256 10.772H8.97443L10.0611 14H12.5923L7.97727 0.909091H5.04972L0.441051 14H2.9723ZM4.69176 8.86719L6.46236 3.59375H6.56463L8.33523 8.86719H4.69176ZM16.5282 8.24716C16.5282 6.82812 17.3848 6.00994 18.6056 6.00994C19.801 6.00994 20.5169 6.79616 20.5169 8.10653V14H22.8308V7.74858C22.8372 5.39631 21.4949 4.05398 19.4686 4.05398C17.9984 4.05398 16.9885 4.7571 16.541 5.85014H16.426V4.18182H14.2143V14H16.5282V8.24716ZM29.4657 14.1918C32.3422 14.1918 34.1703 12.1655 34.1703 9.12926C34.1703 6.08665 32.3422 4.05398 29.4657 4.05398C26.5893 4.05398 24.7612 6.08665 24.7612 9.12926C24.7612 12.1655 26.5893 14.1918 29.4657 14.1918ZM29.4785 12.3381C27.8869 12.3381 27.1071 10.919 27.1071 9.12287C27.1071 7.3267 27.8869 5.88849 29.4785 5.88849C31.0446 5.88849 31.8244 7.3267 31.8244 9.12287C31.8244 10.919 31.0446 12.3381 29.4785 12.3381ZM38.4482 8.24716C38.4482 6.82812 39.3047 6.00994 40.5256 6.00994C41.7209 6.00994 42.4368 6.79616 42.4368 8.10653V14H44.7507V7.74858C44.7571 5.39631 43.4148 4.05398 41.3885 4.05398C39.9183 4.05398 38.9084 4.7571 38.4609 5.85014H38.3459V4.18182H36.1342V14H38.4482V8.24716ZM48.1896 17.6818C49.9922 17.6818 51.0341 16.755 51.5902 15.1889L55.5341 4.1946L53.0604 4.18182L50.7912 11.5966H50.6889L48.4261 4.18182H45.9716L49.532 14.2045L49.3338 14.7351C48.9055 15.8537 48.228 15.9304 47.218 15.6364L46.6811 17.4389C46.9943 17.5668 47.5568 17.6818 48.1896 17.6818ZM57.1401 14H59.454V8.02983C59.454 6.82173 60.2594 6.00355 61.2566 6.00355C62.2346 6.00355 62.9057 6.66193 62.9057 7.67188V14H65.1749V7.87642C65.1749 6.7706 65.8333 6.00355 66.9519 6.00355C67.8851 6.00355 68.6266 6.55327 68.6266 7.76776V14H70.9469V7.4098C70.9469 5.21733 69.6813 4.05398 67.8787 4.05398C66.4533 4.05398 65.3667 4.7571 64.932 5.85014H64.8297C64.4526 4.73793 63.5002 4.05398 62.177 4.05398C60.8603 4.05398 59.8759 4.73153 59.4668 5.85014H59.3517V4.18182H57.1401V14ZM77.5771 14.1918C80.4535 14.1918 82.2816 12.1655 82.2816 9.12926C82.2816 6.08665 80.4535 4.05398 77.5771 4.05398C74.7006 4.05398 72.8725 6.08665 72.8725 9.12926C72.8725 12.1655 74.7006 14.1918 77.5771 14.1918ZM77.5898 12.3381C75.9982 12.3381 75.2184 10.919 75.2184 9.12287C75.2184 7.3267 75.9982 5.88849 77.5898 5.88849C79.1559 5.88849 79.9357 7.3267 79.9357 9.12287C79.9357 10.919 79.1559 12.3381 77.5898 12.3381ZM90.5034 9.87074C90.5034 11.3665 89.4359 12.108 88.4132 12.108C87.301 12.108 86.5595 11.3217 86.5595 10.0753V4.18182H84.2456V10.4332C84.2456 12.7919 85.5879 14.1278 87.5183 14.1278C88.9885 14.1278 90.024 13.3544 90.4714 12.255H90.5737V14H92.8173V4.18182H90.5034V9.87074ZM102.957 6.77699C102.637 5.11506 101.308 4.05398 99.0064 4.05398C96.6413 4.05398 95.0305 5.21733 95.0369 7.03267C95.0305 8.46449 95.9126 9.41051 97.7983 9.80043L99.473 10.152C100.374 10.3501 100.796 10.7145 100.796 11.2706C100.796 11.9418 100.067 12.4467 98.968 12.4467C97.907 12.4467 97.2166 11.9865 97.0185 11.1044L94.7621 11.3217C95.0497 13.1243 96.5646 14.1918 98.9744 14.1918C101.429 14.1918 103.161 12.9197 103.168 11.0597C103.161 9.6598 102.26 8.80327 100.406 8.40057L98.7315 8.04261C97.7344 7.81889 97.3381 7.47372 97.3445 6.90483C97.3381 6.24006 98.0732 5.77983 99.0384 5.77983C100.106 5.77983 100.668 6.36151 100.847 7.0071L102.957 6.77699ZM109.643 0.909091V14H111.918V4.98722H112.04L115.658 13.9616H117.358L120.976 5.00639H121.097V14H123.373V0.909091H120.471L116.585 10.3949H116.431L112.545 0.909091H109.643ZM130.2 14.1918C132.488 14.1918 134.06 13.0732 134.469 11.3665L132.309 11.1236C131.996 11.9545 131.229 12.3892 130.232 12.3892C128.736 12.3892 127.745 11.4048 127.726 9.72372H134.565V9.0142C134.565 5.56889 132.494 4.05398 130.078 4.05398C127.266 4.05398 125.431 6.11861 125.431 9.14844C125.431 12.2294 127.24 14.1918 130.2 14.1918ZM127.732 8.16406C127.803 6.91122 128.729 5.85653 130.11 5.85653C131.44 5.85653 132.335 6.82812 132.347 8.16406H127.732ZM144.283 6.77699C143.963 5.11506 142.634 4.05398 140.333 4.05398C137.968 4.05398 136.357 5.21733 136.363 7.03267C136.357 8.46449 137.239 9.41051 139.124 9.80043L140.799 10.152C141.7 10.3501 142.122 10.7145 142.122 11.2706C142.122 11.9418 141.394 12.4467 140.294 12.4467C139.233 12.4467 138.543 11.9865 138.345 11.1044L136.088 11.3217C136.376 13.1243 137.891 14.1918 140.301 14.1918C142.755 14.1918 144.487 12.9197 144.494 11.0597C144.487 9.6598 143.586 8.80327 141.732 8.40057L140.058 8.04261C139.061 7.81889 138.664 7.47372 138.671 6.90483C138.664 6.24006 139.399 5.77983 140.365 5.77983C141.432 5.77983 141.994 6.36151 142.173 7.0071L144.283 6.77699ZM154.162 6.77699C153.842 5.11506 152.513 4.05398 150.211 4.05398C147.846 4.05398 146.236 5.21733 146.242 7.03267C146.236 8.46449 147.118 9.41051 149.003 9.80043L150.678 10.152C151.579 10.3501 152.001 10.7145 152.001 11.2706C152.001 11.9418 151.273 12.4467 150.173 12.4467C149.112 12.4467 148.422 11.9865 148.224 11.1044L145.967 11.3217C146.255 13.1243 147.77 14.1918 150.18 14.1918C152.634 14.1918 154.366 12.9197 154.373 11.0597C154.366 9.6598 153.465 8.80327 151.611 8.40057L149.937 8.04261C148.939 7.81889 148.543 7.47372 148.55 6.90483C148.543 6.24006 149.278 5.77983 150.243 5.77983C151.311 5.77983 151.873 6.36151 152.052 7.0071L154.162 6.77699ZM159.106 14.1982C160.646 14.1982 161.567 13.4759 161.989 12.6513H162.066V14H164.29V7.42898C164.29 4.83381 162.174 4.05398 160.301 4.05398C158.237 4.05398 156.651 4.97443 156.14 6.7642L158.301 7.07102C158.531 6.39986 159.183 5.82457 160.314 5.82457C161.388 5.82457 161.976 6.37429 161.976 7.33949V7.37784C161.976 8.04261 161.279 8.07457 159.547 8.25994C157.642 8.46449 155.82 9.03338 155.82 11.245C155.82 13.1754 157.233 14.1982 159.106 14.1982ZM159.707 12.4979C158.742 12.4979 158.051 12.0568 158.051 11.2067C158.051 10.3182 158.825 9.94744 159.86 9.80043C160.468 9.71733 161.682 9.56392 161.982 9.32102V10.478C161.982 11.571 161.1 12.4979 159.707 12.4979ZM170.887 17.8864C173.539 17.8864 175.495 16.6719 175.495 14.1598V4.18182H173.213V5.8054H173.085C172.734 5.09588 171.999 4.05398 170.267 4.05398C167.997 4.05398 166.214 5.83097 166.214 9.05895C166.214 12.2614 167.997 13.8594 170.26 13.8594C171.941 13.8594 172.727 12.9581 173.085 12.2358H173.2V14.0959C173.2 15.5405 172.242 16.1349 170.925 16.1349C169.531 16.1349 168.918 15.4766 168.637 14.9013L166.553 15.4062C166.975 16.7805 168.387 17.8864 170.887 17.8864ZM170.906 12.044C169.378 12.044 168.573 10.8551 168.573 9.04616C168.573 7.26278 169.365 5.95241 170.906 5.95241C172.395 5.95241 173.213 7.18608 173.213 9.04616C173.213 10.919 172.382 12.044 170.906 12.044ZM177.867 14H180.181V4.18182H177.867V14ZM179.03 2.78835C179.765 2.78835 180.366 2.22585 180.366 1.53551C180.366 0.838778 179.765 0.276278 179.03 0.276278C178.289 0.276278 177.688 0.838778 177.688 1.53551C177.688 2.22585 178.289 2.78835 179.03 2.78835ZM184.874 8.24716C184.874 6.82812 185.73 6.00994 186.951 6.00994C188.147 6.00994 188.863 6.79616 188.863 8.10653V14H191.176V7.74858C191.183 5.39631 189.841 4.05398 187.814 4.05398C186.344 4.05398 185.334 4.7571 184.887 5.85014H184.772V4.18182H182.56V14H184.874V8.24716ZM197.799 17.8864C200.451 17.8864 202.407 16.6719 202.407 14.1598V4.18182H200.125V5.8054H199.998C199.646 5.09588 198.911 4.05398 197.179 4.05398C194.909 4.05398 193.126 5.83097 193.126 9.05895C193.126 12.2614 194.909 13.8594 197.172 13.8594C198.853 13.8594 199.64 12.9581 199.998 12.2358H200.113V14.0959C200.113 15.5405 199.154 16.1349 197.837 16.1349C196.444 16.1349 195.83 15.4766 195.549 14.9013L193.465 15.4062C193.887 16.7805 195.299 17.8864 197.799 17.8864ZM197.818 12.044C196.29 12.044 195.485 10.8551 195.485 9.04616C195.485 7.26278 196.277 5.95241 197.818 5.95241C199.307 5.95241 200.125 7.18608 200.125 9.04616C200.125 10.919 199.294 12.044 197.818 12.044Z" fill="#35414B"/>
</svg>
