<svg width="66" height="13" viewBox="0 0 66 13" fill="none" xmlns="http://www.w3.org/2000/svg">
<path d="M0.147727 12H4.85795C7.52273 12 8.82955 10.642 8.82955 8.82955C8.82955 7.06818 7.57955 6.03409 6.34091 5.97159V5.85795C7.47727 5.59091 8.375 4.79545 8.375 3.38068C8.375 1.64773 7.125 0.363636 4.60227 0.363636H0.147727V12ZM2.25568 10.2386V6.82955H4.57955C5.88068 6.82955 6.6875 7.625 6.6875 8.66477C6.6875 9.59091 6.05114 10.2386 4.52273 10.2386H2.25568ZM2.25568 5.3125V2.10227H4.38636C5.625 2.10227 6.26705 2.75568 6.26705 3.65341C6.26705 4.67614 5.4375 5.3125 4.34091 5.3125H2.25568ZM14.4361 12.1705C16.4702 12.1705 17.8679 11.1761 18.2315 9.65909L16.3111 9.44318C16.0327 10.1818 15.3509 10.5682 14.4645 10.5682C13.1349 10.5682 12.2543 9.69318 12.2372 8.19886H18.3168V7.56818C18.3168 4.50568 16.4759 3.15909 14.3281 3.15909C11.8281 3.15909 10.1974 4.99432 10.1974 7.6875C10.1974 10.4261 11.8054 12.1705 14.4361 12.1705ZM12.2429 6.8125C12.3054 5.69886 13.1293 4.76136 14.3565 4.76136C15.5384 4.76136 16.3338 5.625 16.3452 6.8125H12.2429ZM24.4148 3.27273H22.6932V1.18182H20.6364V3.27273H19.3977V4.86364H20.6364V9.71591C20.625 11.358 21.8182 12.1648 23.3636 12.1193C23.9489 12.1023 24.3523 11.9886 24.5739 11.9148L24.2273 10.3068C24.1136 10.3352 23.8807 10.3864 23.625 10.3864C23.108 10.3864 22.6932 10.2045 22.6932 9.375V4.86364H24.4148V3.27273ZM28.3793 6.88636C28.3793 5.625 29.1634 4.89773 30.2656 4.89773C31.3452 4.89773 31.9815 5.58523 31.9815 6.76136V12H34.0384V6.44318C34.0384 4.33523 32.8452 3.15909 31.0327 3.15909C29.6918 3.15909 28.8395 3.76705 28.4361 4.75568H28.3338V0.363636H26.3224V12H28.3793V6.88636ZM40.1946 12H42.3026V7.05682H47.1378V5.28977H42.3026V2.13068H47.6491V0.363636H40.1946V12ZM52.6449 12.1705C55.2017 12.1705 56.8267 10.3693 56.8267 7.67045C56.8267 4.96591 55.2017 3.15909 52.6449 3.15909C50.0881 3.15909 48.4631 4.96591 48.4631 7.67045C48.4631 10.3693 50.0881 12.1705 52.6449 12.1705ZM52.6562 10.5227C51.2415 10.5227 50.5483 9.26136 50.5483 7.66477C50.5483 6.06818 51.2415 4.78977 52.6562 4.78977C54.0483 4.78977 54.7415 6.06818 54.7415 7.66477C54.7415 9.26136 54.0483 10.5227 52.6562 10.5227ZM59.9261 3.27273H57.7443L60.3352 7.63636L57.6761 12H59.858L61.6875 8.85795L63.5341 12H65.6989L63.0227 7.63636L65.6534 3.27273H63.4773L61.6875 6.49432L59.9261 3.27273Z" fill="#4E5A65"/>
</svg>
