<svg width="229" height="40" viewBox="0 0 229 40" fill="none" xmlns="http://www.w3.org/2000/svg">
<path d="M1.40909 12H5.61364C8.36364 12 9.5 10.6591 9.5 8.90909C9.5 7.06818 8.22727 6.06818 7.15909 6V5.88636C8.15909 5.61364 9.04545 4.95455 9.04545 3.45455C9.04545 1.75 7.90909 0.363636 5.47727 0.363636H1.40909V12ZM2.81818 10.75V6.70455H5.68182C7.20455 6.70455 8.15909 7.72727 8.15909 8.90909C8.15909 9.93182 7.45455 10.75 5.61364 10.75H2.81818ZM2.81818 5.47727V1.61364H5.47727C7.02273 1.61364 7.70455 2.43182 7.70455 3.45455C7.70455 4.68182 6.70455 5.47727 5.43182 5.47727H2.81818ZM17.1335 8.43182C17.1335 10.0682 15.8835 10.8182 14.8835 10.8182C13.7699 10.8182 12.9744 10 12.9744 8.72727V3.27273H11.6335V8.81818C11.6335 11.0455 12.8153 12.1136 14.4517 12.1136C15.7699 12.1136 16.6335 11.4091 17.0426 10.5227H17.1335V12H18.4744V3.27273H17.1335V8.43182ZM20.9304 12H22.2713V3.27273H20.9304V12ZM21.6122 1.81818C22.1349 1.81818 22.5668 1.40909 22.5668 0.909091C22.5668 0.409091 22.1349 0 21.6122 0C21.0895 0 20.6577 0.409091 20.6577 0.909091C20.6577 1.40909 21.0895 1.81818 21.6122 1.81818ZM26.0682 0.363636H24.7273V12H26.0682V0.363636ZM31.8196 12.1818C33.5014 12.1818 34.0696 11.1364 34.3651 10.6591H34.5241V12H35.8196V0.363636H34.4787V4.65909H34.3651C34.0696 4.20455 33.5469 3.15909 31.8423 3.15909C29.6378 3.15909 28.1151 4.90909 28.1151 7.65909C28.1151 10.4318 29.6378 12.1818 31.8196 12.1818ZM32.0014 10.9773C30.3196 10.9773 29.456 9.5 29.456 7.63636C29.456 5.79545 30.2969 4.36364 32.0014 4.36364C33.6378 4.36364 34.5014 5.68182 34.5014 7.63636C34.5014 9.61364 33.6151 10.9773 32.0014 10.9773ZM42.9616 12H44.3026V6.47727C44.3026 5.29545 45.2344 4.43182 46.5071 4.43182C46.8651 4.43182 47.2344 4.5 47.3253 4.52273V3.15909C47.1719 3.14773 46.8196 3.13636 46.6207 3.13636C45.5753 3.13636 44.6662 3.72727 44.348 4.59091H44.2571V3.27273H42.9616V12ZM52.3082 12.1818C54.081 12.1818 55.3764 11.2955 55.7855 9.97727L54.4901 9.61364C54.1491 10.5227 53.3594 10.9773 52.3082 10.9773C50.7344 10.9773 49.6491 9.96023 49.5866 8.09091H55.9219V7.52273C55.9219 4.27273 53.9901 3.15909 52.1719 3.15909C49.8082 3.15909 48.2401 5.02273 48.2401 7.70455C48.2401 10.3864 49.7855 12.1818 52.3082 12.1818ZM49.5866 6.93182C49.6776 5.57386 50.6378 4.36364 52.1719 4.36364C53.6264 4.36364 54.5582 5.45455 54.5582 6.93182H49.5866ZM59.3026 0.363636H57.9616V12H59.3026V0.363636ZM64.3267 12.2045C65.8494 12.2045 66.6449 11.3864 66.9176 10.8182H66.9858V12H68.3267V6.25C68.3267 3.47727 66.2131 3.15909 65.0994 3.15909C63.7812 3.15909 62.2812 3.61364 61.5994 5.20455L62.8722 5.65909C63.1676 5.02273 63.8665 4.34091 65.1449 4.34091C66.3778 4.34091 66.9858 4.99432 66.9858 6.11364V6.15909C66.9858 6.80682 66.3267 6.75 64.7358 6.95455C63.1165 7.16477 61.3494 7.52273 61.3494 9.52273C61.3494 11.2273 62.6676 12.2045 64.3267 12.2045ZM64.5312 11C63.4631 11 62.6903 10.5227 62.6903 9.59091C62.6903 8.56818 63.6222 8.25 64.6676 8.11364C65.2358 8.04545 66.7585 7.88636 66.9858 7.61364V8.84091C66.9858 9.93182 66.1222 11 64.5312 11ZM74.5696 3.27273H72.706V1.18182H71.3651V3.27273H70.0469V4.40909H71.3651V9.86364C71.3651 11.3864 72.5923 12.1136 73.7287 12.1136C74.2287 12.1136 74.5469 12.0227 74.7287 11.9545L74.456 10.75C74.3423 10.7727 74.1605 10.8182 73.8651 10.8182C73.2741 10.8182 72.706 10.6364 72.706 9.5V4.40909H74.5696V3.27273ZM76.5866 12H77.9276V3.27273H76.5866V12ZM77.2685 1.81818C77.7912 1.81818 78.223 1.40909 78.223 0.909091C78.223 0.409091 77.7912 0 77.2685 0C76.7457 0 76.3139 0.409091 76.3139 0.909091C76.3139 1.40909 76.7457 1.81818 77.2685 1.81818ZM83.929 12.1818C86.2926 12.1818 87.8835 10.3864 87.8835 7.68182C87.8835 4.95455 86.2926 3.15909 83.929 3.15909C81.5653 3.15909 79.9744 4.95455 79.9744 7.68182C79.9744 10.3864 81.5653 12.1818 83.929 12.1818ZM83.929 10.9773C82.1335 10.9773 81.3153 9.43182 81.3153 7.68182C81.3153 5.93182 82.1335 4.36364 83.929 4.36364C85.7244 4.36364 86.5426 5.93182 86.5426 7.68182C86.5426 9.43182 85.7244 10.9773 83.929 10.9773ZM91.2713 6.75C91.2713 5.22727 92.2145 4.36364 93.4986 4.36364C94.7429 4.36364 95.4986 5.17614 95.4986 6.54545V12H96.8395V6.45455C96.8395 4.22727 95.652 3.15909 93.8849 3.15909C92.5668 3.15909 91.7486 3.75 91.3395 4.63636H91.2259V3.27273H89.9304V12H91.2713V6.75ZM105.472 5.22727C105.051 3.98864 104.108 3.15909 102.381 3.15909C100.54 3.15909 99.1761 4.20455 99.1761 5.68182C99.1761 6.88636 99.892 7.69318 101.494 8.06818L102.949 8.40909C103.83 8.61364 104.244 9.03409 104.244 9.63636C104.244 10.3864 103.449 11 102.199 11C101.102 11 100.415 10.5284 100.176 9.59091L98.9034 9.90909C99.2159 11.392 100.438 12.1818 102.222 12.1818C104.25 12.1818 105.631 11.0739 105.631 9.56818C105.631 8.35227 104.869 7.58523 103.312 7.20455L102.017 6.88636C100.983 6.63068 100.517 6.28409 100.517 5.61364C100.517 4.86364 101.312 4.31818 102.381 4.31818C103.551 4.31818 104.034 4.96591 104.267 5.56818L105.472 5.22727ZM108.99 6.75C108.99 5.22727 109.962 4.36364 111.286 4.36364C112.547 4.36364 113.308 5.15909 113.308 6.54545V12H114.649V6.45455C114.649 4.21023 113.456 3.15909 111.672 3.15909C110.297 3.15909 109.513 3.73295 109.104 4.63636H108.99V0.363636H107.649V12H108.99V6.75ZM117.102 12H118.443V3.27273H117.102V12ZM117.784 1.81818C118.307 1.81818 118.739 1.40909 118.739 0.909091C118.739 0.409091 118.307 0 117.784 0C117.261 0 116.83 0.409091 116.83 0.909091C116.83 1.40909 117.261 1.81818 117.784 1.81818ZM120.899 15.2727H122.24V10.6591H122.354C122.649 11.1364 123.217 12.1818 124.899 12.1818C127.081 12.1818 128.604 10.4318 128.604 7.65909C128.604 4.90909 127.081 3.15909 124.876 3.15909C123.172 3.15909 122.649 4.20455 122.354 4.65909H122.195V3.27273H120.899V15.2727ZM122.217 7.63636C122.217 5.68182 123.081 4.36364 124.717 4.36364C126.422 4.36364 127.263 5.79545 127.263 7.63636C127.263 9.5 126.399 10.9773 124.717 10.9773C123.104 10.9773 122.217 9.61364 122.217 7.63636ZM136.831 5.22727C136.411 3.98864 135.467 3.15909 133.74 3.15909C131.899 3.15909 130.536 4.20455 130.536 5.68182C130.536 6.88636 131.251 7.69318 132.854 8.06818L134.308 8.40909C135.189 8.61364 135.604 9.03409 135.604 9.63636C135.604 10.3864 134.808 11 133.558 11C132.462 11 131.774 10.5284 131.536 9.59091L130.263 9.90909C130.575 11.392 131.797 12.1818 133.581 12.1818C135.609 12.1818 136.99 11.0739 136.99 9.56818C136.99 8.35227 136.229 7.58523 134.672 7.20455L133.376 6.88636C132.342 6.63068 131.876 6.28409 131.876 5.61364C131.876 4.86364 132.672 4.31818 133.74 4.31818C134.911 4.31818 135.393 4.96591 135.626 5.56818L136.831 5.22727ZM143.69 12H144.986V10.6591H145.145C145.44 11.1364 146.009 12.1818 147.69 12.1818C149.872 12.1818 151.395 10.4318 151.395 7.65909C151.395 4.90909 149.872 3.15909 147.668 3.15909C145.963 3.15909 145.44 4.20455 145.145 4.65909H145.031V0.363636H143.69V12ZM145.009 7.63636C145.009 5.68182 145.872 4.36364 147.509 4.36364C149.213 4.36364 150.054 5.79545 150.054 7.63636C150.054 9.5 149.19 10.9773 147.509 10.9773C145.895 10.9773 145.009 9.61364 145.009 7.63636ZM153.997 15.2727C155.207 15.2727 156.06 14.6307 156.565 13.2727L160.281 3.29545L158.815 3.27273L156.406 10.2273H156.315L153.906 3.27273H152.452L155.679 12.0455L155.429 12.7273C154.94 14.0568 154.338 14.1818 153.361 13.9318L153.02 15.1136C153.156 15.1818 153.543 15.2727 153.997 15.2727ZM166.555 15.2727H167.896V10.6591H168.01C168.305 11.1364 168.874 12.1818 170.555 12.1818C172.737 12.1818 174.26 10.4318 174.26 7.65909C174.26 4.90909 172.737 3.15909 170.533 3.15909C168.828 3.15909 168.305 4.20455 168.01 4.65909H167.851V3.27273H166.555V15.2727ZM167.874 7.63636C167.874 5.68182 168.737 4.36364 170.374 4.36364C172.078 4.36364 172.919 5.79545 172.919 7.63636C172.919 9.5 172.055 10.9773 170.374 10.9773C168.76 10.9773 167.874 9.61364 167.874 7.63636ZM177.646 0.363636H176.305V12H177.646V0.363636ZM182.67 12.2045C184.193 12.2045 184.989 11.3864 185.261 10.8182H185.33V12H186.67V6.25C186.67 3.47727 184.557 3.15909 183.443 3.15909C182.125 3.15909 180.625 3.61364 179.943 5.20455L181.216 5.65909C181.511 5.02273 182.21 4.34091 183.489 4.34091C184.722 4.34091 185.33 4.99432 185.33 6.11364V6.15909C185.33 6.80682 184.67 6.75 183.08 6.95455C181.46 7.16477 179.693 7.52273 179.693 9.52273C179.693 11.2273 181.011 12.2045 182.67 12.2045ZM182.875 11C181.807 11 181.034 10.5227 181.034 9.59091C181.034 8.56818 181.966 8.25 183.011 8.11364C183.58 8.04545 185.102 7.88636 185.33 7.61364V8.84091C185.33 9.93182 184.466 11 182.875 11ZM190.459 6.75C190.459 5.22727 191.402 4.36364 192.686 4.36364C193.93 4.36364 194.686 5.17614 194.686 6.54545V12H196.027V6.45455C196.027 4.22727 194.839 3.15909 193.072 3.15909C191.754 3.15909 190.936 3.75 190.527 4.63636H190.413V3.27273H189.118V12H190.459V6.75ZM199.818 6.75C199.818 5.22727 200.761 4.36364 202.045 4.36364C203.29 4.36364 204.045 5.17614 204.045 6.54545V12H205.386V6.45455C205.386 4.22727 204.199 3.15909 202.432 3.15909C201.114 3.15909 200.295 3.75 199.886 4.63636H199.773V3.27273H198.477V12H199.818V6.75ZM207.837 12H209.178V3.27273H207.837V12ZM208.518 1.81818C209.041 1.81818 209.473 1.40909 209.473 0.909091C209.473 0.409091 209.041 0 208.518 0C207.996 0 207.564 0.409091 207.564 0.909091C207.564 1.40909 207.996 1.81818 208.518 1.81818ZM212.974 6.75C212.974 5.22727 213.918 4.36364 215.202 4.36364C216.446 4.36364 217.202 5.17614 217.202 6.54545V12H218.543V6.45455C218.543 4.22727 217.355 3.15909 215.588 3.15909C214.27 3.15909 213.452 3.75 213.043 4.63636H212.929V3.27273H211.634V12H212.974V6.75ZM224.516 15.4545C226.607 15.4545 228.288 14.5 228.288 12.25V3.27273H226.993V4.65909H226.857C226.561 4.20455 226.016 3.15909 224.311 3.15909C222.107 3.15909 220.584 4.90909 220.584 7.59091C220.584 10.3182 222.175 11.8636 224.288 11.8636C225.993 11.8636 226.538 10.8636 226.834 10.3864H226.947V12.1591C226.947 13.6136 225.925 14.2727 224.516 14.2727C222.93 14.2727 222.374 13.4375 222.016 12.9545L220.947 13.7045C221.493 14.6193 222.567 15.4545 224.516 15.4545ZM224.47 10.6591C222.788 10.6591 221.925 9.38636 221.925 7.56818C221.925 5.79545 222.766 4.36364 224.47 4.36364C226.107 4.36364 226.97 5.68182 226.97 7.56818C226.97 9.5 226.084 10.6591 224.47 10.6591ZM5.29545 24.3636H3.88636L0.977273 26.2955V27.7273L3.81818 25.8409H3.88636V36H5.29545V24.3636ZM13.6648 30.3864H8.57386V31.6364H13.6648V30.3864ZM19.5696 36.1818C21.9332 36.1818 23.5241 34.3864 23.5241 31.6818C23.5241 28.9545 21.9332 27.1591 19.5696 27.1591C17.206 27.1591 15.6151 28.9545 15.6151 31.6818C15.6151 34.3864 17.206 36.1818 19.5696 36.1818ZM19.5696 34.9773C17.7741 34.9773 16.956 33.4318 16.956 31.6818C16.956 29.9318 17.7741 28.3636 19.5696 28.3636C21.3651 28.3636 22.1832 29.9318 22.1832 31.6818C22.1832 33.4318 21.3651 34.9773 19.5696 34.9773ZM26.9119 30.75C26.9119 29.2273 27.8551 28.3636 29.1392 28.3636C30.3835 28.3636 31.1392 29.1761 31.1392 30.5455V36H32.4801V30.4545C32.4801 28.2273 31.2926 27.1591 29.5256 27.1591C28.2074 27.1591 27.3892 27.75 26.9801 28.6364H26.8665V27.2727H25.571V36H26.9119V30.75ZM39.9304 30.3864H34.8395V31.6364H39.9304V30.3864ZM46.358 24.3636H44.9489L42.0398 26.2955V27.7273L44.8807 25.8409H44.9489V36H46.358V24.3636ZM55.9091 29.2273C55.4886 27.9886 54.5455 27.1591 52.8182 27.1591C50.9773 27.1591 49.6136 28.2045 49.6136 29.6818C49.6136 30.8864 50.3295 31.6932 51.9318 32.0682L53.3864 32.4091C54.267 32.6136 54.6818 33.0341 54.6818 33.6364C54.6818 34.3864 53.8864 35 52.6364 35C51.5398 35 50.8523 34.5284 50.6136 33.5909L49.3409 33.9091C49.6534 35.392 50.875 36.1818 52.6591 36.1818C54.6875 36.1818 56.0682 35.0739 56.0682 33.5682C56.0682 32.3523 55.3068 31.5852 53.75 31.2045L52.4545 30.8864C51.4205 30.6307 50.9545 30.2841 50.9545 29.6136C50.9545 28.8636 51.75 28.3182 52.8182 28.3182C53.9886 28.3182 54.4716 28.9659 54.7045 29.5682L55.9091 29.2273ZM65.1548 36.2045C66.6776 36.2045 67.473 35.3864 67.7457 34.8182H67.8139V36H69.1548V30.25C69.1548 27.4773 67.0412 27.1591 65.9276 27.1591C64.6094 27.1591 63.1094 27.6136 62.4276 29.2045L63.7003 29.6591C63.9957 29.0227 64.6946 28.3409 65.973 28.3409C67.206 28.3409 67.8139 28.9943 67.8139 30.1136V30.1591C67.8139 30.8068 67.1548 30.75 65.5639 30.9545C63.9446 31.1648 62.1776 31.5227 62.1776 33.5227C62.1776 35.2273 63.4957 36.2045 65.1548 36.2045ZM65.3594 35C64.2912 35 63.5185 34.5227 63.5185 33.5909C63.5185 32.5682 64.4503 32.25 65.4957 32.1136C66.0639 32.0455 67.5866 31.8864 67.8139 31.6136V32.8409C67.8139 33.9318 66.9503 35 65.3594 35ZM72.9432 30.75C72.9432 29.2273 73.8864 28.3636 75.1705 28.3636C76.4148 28.3636 77.1705 29.1761 77.1705 30.5455V36H78.5114V30.4545C78.5114 28.2273 77.3239 27.1591 75.5568 27.1591C74.2386 27.1591 73.4205 27.75 73.0114 28.6364H72.8977V27.2727H71.6023V36H72.9432V30.75ZM84.2571 36.1818C85.9389 36.1818 86.5071 35.1364 86.8026 34.6591H86.9616V36H88.2571V24.3636H86.9162V28.6591H86.8026C86.5071 28.2045 85.9844 27.1591 84.2798 27.1591C82.0753 27.1591 80.5526 28.9091 80.5526 31.6591C80.5526 34.4318 82.0753 36.1818 84.2571 36.1818ZM84.4389 34.9773C82.7571 34.9773 81.8935 33.5 81.8935 31.6364C81.8935 29.7955 82.7344 28.3636 84.4389 28.3636C86.0753 28.3636 86.9389 29.6818 86.9389 31.6364C86.9389 33.6136 86.0526 34.9773 84.4389 34.9773ZM101.581 29.2273C101.161 27.9886 100.217 27.1591 98.4901 27.1591C96.6491 27.1591 95.2855 28.2045 95.2855 29.6818C95.2855 30.8864 96.0014 31.6932 97.6037 32.0682L99.0582 32.4091C99.9389 32.6136 100.354 33.0341 100.354 33.6364C100.354 34.3864 99.5582 35 98.3082 35C97.2116 35 96.5241 34.5284 96.2855 33.5909L95.0128 33.9091C95.3253 35.392 96.5469 36.1818 98.331 36.1818C100.359 36.1818 101.74 35.0739 101.74 33.5682C101.74 32.3523 100.979 31.5852 99.4219 31.2045L98.1264 30.8864C97.0923 30.6307 96.6264 30.2841 96.6264 29.6136C96.6264 28.8636 97.4219 28.3182 98.4901 28.3182C99.6605 28.3182 100.143 28.9659 100.376 29.5682L101.581 29.2273ZM107.554 27.2727H105.69V25.1818H104.349V27.2727H103.031V28.4091H104.349V33.8636C104.349 35.3864 105.577 36.1136 106.713 36.1136C107.213 36.1136 107.531 36.0227 107.713 35.9545L107.44 34.75C107.327 34.7727 107.145 34.8182 106.849 34.8182C106.259 34.8182 105.69 34.6364 105.69 33.5V28.4091H107.554V27.2727ZM112.139 36.2045C113.662 36.2045 114.457 35.3864 114.73 34.8182H114.798V36H116.139V30.25C116.139 27.4773 114.026 27.1591 112.912 27.1591C111.594 27.1591 110.094 27.6136 109.412 29.2045L110.685 29.6591C110.98 29.0227 111.679 28.3409 112.957 28.3409C114.19 28.3409 114.798 28.9943 114.798 30.1136V30.1591C114.798 30.8068 114.139 30.75 112.548 30.9545C110.929 31.1648 109.162 31.5227 109.162 33.5227C109.162 35.2273 110.48 36.2045 112.139 36.2045ZM112.344 35C111.276 35 110.503 34.5227 110.503 33.5909C110.503 32.5682 111.435 32.25 112.48 32.1136C113.048 32.0455 114.571 31.8864 114.798 31.6136V32.8409C114.798 33.9318 113.935 35 112.344 35ZM118.587 36H119.928V30.4773C119.928 29.2955 120.859 28.4318 122.132 28.4318C122.49 28.4318 122.859 28.5 122.95 28.5227V27.1591C122.797 27.1477 122.445 27.1364 122.246 27.1364C121.2 27.1364 120.291 27.7273 119.973 28.5909H119.882V27.2727H118.587V36ZM128.882 27.2727H127.018V25.1818H125.678V27.2727H124.359V28.4091H125.678V33.8636C125.678 35.3864 126.905 36.1136 128.041 36.1136C128.541 36.1136 128.859 36.0227 129.041 35.9545L128.768 34.75C128.655 34.7727 128.473 34.8182 128.178 34.8182C127.587 34.8182 127.018 34.6364 127.018 33.5V28.4091H128.882V27.2727ZM135.399 36H136.74V30.5455C136.74 29.267 137.672 28.3636 138.717 28.3636C139.734 28.3636 140.445 29.0284 140.445 30.0227V36H141.808V30.3182C141.808 29.1932 142.513 28.3636 143.74 28.3636C144.695 28.3636 145.513 28.8693 145.513 30.1591V36H146.854V30.1591C146.854 28.108 145.751 27.1591 144.195 27.1591C142.945 27.1591 142.03 27.733 141.581 28.6364H141.49C141.058 27.7045 140.297 27.1591 139.149 27.1591C138.013 27.1591 137.172 27.7045 136.808 28.6364H136.695V27.2727H135.399V36ZM152.964 36.1818C154.737 36.1818 156.033 35.2955 156.442 33.9773L155.146 33.6136C154.805 34.5227 154.016 34.9773 152.964 34.9773C151.391 34.9773 150.305 33.9602 150.243 32.0909H156.578V31.5227C156.578 28.2727 154.646 27.1591 152.828 27.1591C150.464 27.1591 148.896 29.0227 148.896 31.7045C148.896 34.3864 150.442 36.1818 152.964 36.1818ZM150.243 30.9318C150.334 29.5739 151.294 28.3636 152.828 28.3636C154.283 28.3636 155.214 29.4545 155.214 30.9318H150.243ZM162.277 36.1818C164.05 36.1818 165.345 35.2955 165.754 33.9773L164.459 33.6136C164.118 34.5227 163.328 34.9773 162.277 34.9773C160.703 34.9773 159.618 33.9602 159.555 32.0909H165.891V31.5227C165.891 28.2727 163.959 27.1591 162.141 27.1591C159.777 27.1591 158.209 29.0227 158.209 31.7045C158.209 34.3864 159.754 36.1818 162.277 36.1818ZM159.555 30.9318C159.646 29.5739 160.607 28.3636 162.141 28.3636C163.595 28.3636 164.527 29.4545 164.527 30.9318H159.555ZM171.726 27.2727H169.862V25.1818H168.521V27.2727H167.203V28.4091H168.521V33.8636C168.521 35.3864 169.749 36.1136 170.885 36.1136C171.385 36.1136 171.703 36.0227 171.885 35.9545L171.612 34.75C171.499 34.7727 171.317 34.8182 171.021 34.8182C170.43 34.8182 169.862 34.6364 169.862 33.5V28.4091H171.726V27.2727ZM173.743 36H175.084V27.2727H173.743V36ZM174.425 25.8182C174.947 25.8182 175.379 25.4091 175.379 24.9091C175.379 24.4091 174.947 24 174.425 24C173.902 24 173.47 24.4091 173.47 24.9091C173.47 25.4091 173.902 25.8182 174.425 25.8182ZM178.881 30.75C178.881 29.2273 179.824 28.3636 181.108 28.3636C182.352 28.3636 183.108 29.1761 183.108 30.5455V36H184.449V30.4545C184.449 28.2273 183.261 27.1591 181.494 27.1591C180.176 27.1591 179.358 27.75 178.949 28.6364H178.835V27.2727H177.54V36H178.881V30.75ZM190.422 39.4545C192.513 39.4545 194.195 38.5 194.195 36.25V27.2727H192.899V28.6591H192.763C192.467 28.2045 191.922 27.1591 190.217 27.1591C188.013 27.1591 186.49 28.9091 186.49 31.5909C186.49 34.3182 188.081 35.8636 190.195 35.8636C191.899 35.8636 192.445 34.8636 192.74 34.3864H192.854V36.1591C192.854 37.6136 191.831 38.2727 190.422 38.2727C188.837 38.2727 188.28 37.4375 187.922 36.9545L186.854 37.7045C187.399 38.6193 188.473 39.4545 190.422 39.4545ZM190.376 34.6591C188.695 34.6591 187.831 33.3864 187.831 31.5682C187.831 29.7955 188.672 28.3636 190.376 28.3636C192.013 28.3636 192.876 29.6818 192.876 31.5682C192.876 33.5 191.99 34.6591 190.376 34.6591ZM202.831 29.2273C202.411 27.9886 201.467 27.1591 199.74 27.1591C197.899 27.1591 196.536 28.2045 196.536 29.6818C196.536 30.8864 197.251 31.6932 198.854 32.0682L200.308 32.4091C201.189 32.6136 201.604 33.0341 201.604 33.6364C201.604 34.3864 200.808 35 199.558 35C198.462 35 197.774 34.5284 197.536 33.5909L196.263 33.9091C196.575 35.392 197.797 36.1818 199.581 36.1818C201.609 36.1818 202.99 35.0739 202.99 33.5682C202.99 32.3523 202.229 31.5852 200.672 31.2045L199.376 30.8864C198.342 30.6307 197.876 30.2841 197.876 29.6136C197.876 28.8636 198.672 28.3182 199.74 28.3182C200.911 28.3182 201.393 28.9659 201.626 29.5682L202.831 29.2273ZM205.986 36.0909C206.548 36.0909 207.009 35.6307 207.009 35.0682C207.009 34.5057 206.548 34.0455 205.986 34.0455C205.423 34.0455 204.963 34.5057 204.963 35.0682C204.963 35.6307 205.423 36.0909 205.986 36.0909Z" fill="#4E5A65"/>
</svg>
