<svg width="141" height="15" viewBox="0 0 141 15" fill="none" xmlns="http://www.w3.org/2000/svg">
<path d="M12.4964 5.32599C12.0938 2.41761 9.85653 0.730113 6.95455 0.730113C3.5348 0.730113 0.958807 3.22301 0.958807 7.45455C0.958807 11.6797 3.50284 14.179 6.95455 14.179C10.0675 14.179 12.1321 12.1655 12.4964 9.66619L10.1058 9.65341C9.8054 11.1875 8.55256 12.0504 6.98651 12.0504C4.86435 12.0504 3.34304 10.4588 3.34304 7.45455C3.34304 4.50142 4.85156 2.85866 6.9929 2.85866C8.58452 2.85866 9.83097 3.75994 10.1058 5.32599H12.4964ZM18.8485 14.1918C21.725 14.1918 23.5531 12.1655 23.5531 9.12926C23.5531 6.08665 21.725 4.05398 18.8485 4.05398C15.9721 4.05398 14.144 6.08665 14.144 9.12926C14.144 12.1655 15.9721 14.1918 18.8485 14.1918ZM18.8613 12.3381C17.2697 12.3381 16.4899 10.919 16.4899 9.12287C16.4899 7.3267 17.2697 5.88849 18.8613 5.88849C20.4274 5.88849 21.2072 7.3267 21.2072 9.12287C21.2072 10.919 20.4274 12.3381 18.8613 12.3381ZM27.831 0.909091H25.517V14H27.831V0.909091ZM32.5243 0.909091H30.2104V14H32.5243V0.909091ZM37.729 14.1982C39.2695 14.1982 40.19 13.4759 40.6119 12.6513H40.6886V14H42.913V7.42898C42.913 4.83381 40.7972 4.05398 38.9244 4.05398C36.8597 4.05398 35.2745 4.97443 34.7631 6.7642L36.9237 7.07102C37.1538 6.39986 37.8058 5.82457 38.9371 5.82457C40.011 5.82457 40.5991 6.37429 40.5991 7.33949V7.37784C40.5991 8.04261 39.9023 8.07457 38.1701 8.25994C36.2653 8.46449 34.4435 9.03338 34.4435 11.245C34.4435 13.1754 35.8562 14.1982 37.729 14.1982ZM38.3299 12.4979C37.3647 12.4979 36.6744 12.0568 36.6744 11.2067C36.6744 10.3182 37.4478 9.94744 38.4833 9.80043C39.0906 9.71733 40.305 9.56392 40.6055 9.32102V10.478C40.6055 11.571 39.7234 12.4979 38.3299 12.4979ZM45.342 14H47.6175V12.4531H47.7518C48.1161 13.169 48.8768 14.1726 50.5643 14.1726C52.8782 14.1726 54.6104 12.3381 54.6104 9.10369C54.6104 5.83097 52.8271 4.05398 50.5579 4.05398C48.8256 4.05398 48.1033 5.09588 47.7518 5.8054H47.6559V0.909091H45.342V14ZM47.6112 9.09091C47.6112 7.18608 48.4293 5.95241 49.9187 5.95241C51.4592 5.95241 52.2518 7.26278 52.2518 9.09091C52.2518 10.9318 51.4464 12.2741 49.9187 12.2741C48.4421 12.2741 47.6112 10.9957 47.6112 9.09091ZM60.8603 14.1918C63.7367 14.1918 65.5648 12.1655 65.5648 9.12926C65.5648 6.08665 63.7367 4.05398 60.8603 4.05398C57.9838 4.05398 56.1557 6.08665 56.1557 9.12926C56.1557 12.1655 57.9838 14.1918 60.8603 14.1918ZM60.873 12.3381C59.2814 12.3381 58.5016 10.919 58.5016 9.12287C58.5016 7.3267 59.2814 5.88849 60.873 5.88849C62.4391 5.88849 63.2189 7.3267 63.2189 9.12287C63.2189 10.919 62.4391 12.3381 60.873 12.3381ZM67.5288 14H69.8427V8.22798C69.8427 6.98153 70.7823 6.09943 72.0543 6.09943C72.4442 6.09943 72.93 6.16974 73.1282 6.23366V4.10511C72.9173 4.06676 72.5529 4.04119 72.2972 4.04119C71.1722 4.04119 70.2326 4.6804 69.8746 5.81818H69.7724V4.18182H67.5288V14ZM77.2974 14.1982C78.8379 14.1982 79.7583 13.4759 80.1802 12.6513H80.2569V14H82.4814V7.42898C82.4814 4.83381 80.3656 4.05398 78.4927 4.05398C76.4281 4.05398 74.8429 4.97443 74.3315 6.7642L76.492 7.07102C76.7221 6.39986 77.3741 5.82457 78.5055 5.82457C79.5794 5.82457 80.1674 6.37429 80.1674 7.33949V7.37784C80.1674 8.04261 79.4707 8.07457 77.7385 8.25994C75.8336 8.46449 74.0119 9.03338 74.0119 11.245C74.0119 13.1754 75.4245 14.1982 77.2974 14.1982ZM77.8983 12.4979C76.9331 12.4979 76.2427 12.0568 76.2427 11.2067C76.2427 10.3182 77.0162 9.94744 78.0517 9.80043C78.6589 9.71733 79.8734 9.56392 80.1738 9.32102V10.478C80.1738 11.571 79.2917 12.4979 77.8983 12.4979ZM89.7108 4.18182H87.774V1.82955H85.46V4.18182H84.0666V5.97159H85.46V11.4304C85.4473 13.2777 86.7896 14.1854 88.5282 14.1342C89.1866 14.1151 89.6404 13.9872 89.8897 13.9041L89.4998 12.0952C89.372 12.1271 89.1099 12.1847 88.8223 12.1847C88.2406 12.1847 87.774 11.9801 87.774 11.0469V5.97159H89.7108V4.18182ZM91.646 14H93.9599V4.18182H91.646V14ZM92.8093 2.78835C93.5444 2.78835 94.1452 2.22585 94.1452 1.53551C94.1452 0.838778 93.5444 0.276278 92.8093 0.276278C92.0678 0.276278 91.467 0.838778 91.467 1.53551C91.467 2.22585 92.0678 2.78835 92.8093 2.78835ZM105.109 4.18182H102.648L100.385 11.4751H100.283L98.0268 4.18182H95.5595L99.0559 14H101.613L105.109 4.18182ZM110.723 14.1918C113.011 14.1918 114.584 13.0732 114.993 11.3665L112.832 11.1236C112.519 11.9545 111.752 12.3892 110.755 12.3892C109.259 12.3892 108.268 11.4048 108.249 9.72372H115.089V9.0142C115.089 5.56889 113.018 4.05398 110.602 4.05398C107.789 4.05398 105.955 6.11861 105.955 9.14844C105.955 12.2294 107.763 14.1918 110.723 14.1918ZM108.256 8.16406C108.326 6.91122 109.253 5.85653 110.634 5.85653C111.963 5.85653 112.858 6.82812 112.871 8.16406H108.256ZM126.81 0.909091H124.554L121.3 2.99929V5.17259L124.362 3.21662H124.439V14H126.81V0.909091ZM131.585 12.4276C132.339 12.4276 132.985 11.8011 132.991 11.0213C132.985 10.2543 132.339 9.62784 131.585 9.62784C130.805 9.62784 130.172 10.2543 130.179 11.0213C130.172 11.8011 130.805 12.4276 131.585 12.4276ZM131.585 5.93324C132.339 5.93324 132.985 5.30682 132.991 4.52699C132.985 3.75994 132.339 3.13352 131.585 3.13352C130.805 3.13352 130.172 3.75994 130.179 4.52699C130.172 5.30682 130.805 5.93324 131.585 5.93324ZM140.679 0.909091H138.423L135.169 2.99929V5.17259L138.231 3.21662H138.308V14H140.679V0.909091Z" fill="#35414B"/>
</svg>
