<svg width="230" height="41" viewBox="0 0 230 41" fill="none" xmlns="http://www.w3.org/2000/svg">
<path d="M10.7727 5C10.3409 2.61364 8.43182 1.20455 6.09091 1.20455C3.11364 1.20455 0.954545 3.5 0.954545 7.18182C0.954545 10.8636 3.11364 13.1591 6.09091 13.1591C8.43182 13.1591 10.3409 11.75 10.7727 9.36364H9.36364C9.02273 10.9773 7.63636 11.8409 6.09091 11.8409C3.97727 11.8409 2.31818 10.2045 2.31818 7.18182C2.31818 4.15909 3.97727 2.52273 6.09091 2.52273C7.63636 2.52273 9.02273 3.38636 9.36364 5H10.7727ZM16.4134 13.1818C18.777 13.1818 20.3679 11.3864 20.3679 8.68182C20.3679 5.95455 18.777 4.15909 16.4134 4.15909C14.0497 4.15909 12.4588 5.95455 12.4588 8.68182C12.4588 11.3864 14.0497 13.1818 16.4134 13.1818ZM16.4134 11.9773C14.6179 11.9773 13.7997 10.4318 13.7997 8.68182C13.7997 6.93182 14.6179 5.36364 16.4134 5.36364C18.2088 5.36364 19.027 6.93182 19.027 8.68182C19.027 10.4318 18.2088 11.9773 16.4134 11.9773ZM22.4148 13H23.7557V7.54545C23.7557 6.26705 24.6875 5.36364 25.733 5.36364C26.75 5.36364 27.4602 6.02841 27.4602 7.02273V13H28.8239V7.31818C28.8239 6.19318 29.5284 5.36364 30.7557 5.36364C31.7102 5.36364 32.5284 5.86932 32.5284 7.15909V13H33.8693V7.15909C33.8693 5.10795 32.767 4.15909 31.2102 4.15909C29.9602 4.15909 29.0455 4.73295 28.5966 5.63636H28.5057C28.0739 4.70455 27.3125 4.15909 26.1648 4.15909C25.0284 4.15909 24.1875 4.70455 23.8239 5.63636H23.7102V4.27273H22.4148V13ZM36.321 13H37.6619V7.54545C37.6619 6.26705 38.5938 5.36364 39.6392 5.36364C40.6562 5.36364 41.3665 6.02841 41.3665 7.02273V13H42.7301V7.31818C42.7301 6.19318 43.4347 5.36364 44.6619 5.36364C45.6165 5.36364 46.4347 5.86932 46.4347 7.15909V13H47.7756V7.15909C47.7756 5.10795 46.6733 4.15909 45.1165 4.15909C43.8665 4.15909 42.9517 4.73295 42.5028 5.63636H42.4119C41.9801 4.70455 41.2188 4.15909 40.071 4.15909C38.9347 4.15909 38.0938 4.70455 37.7301 5.63636H37.6165V4.27273H36.321V13ZM55.7273 9.43182C55.7273 11.0682 54.4773 11.8182 53.4773 11.8182C52.3636 11.8182 51.5682 11 51.5682 9.72727V4.27273H50.2273V9.81818C50.2273 12.0455 51.4091 13.1136 53.0455 13.1136C54.3636 13.1136 55.2273 12.4091 55.6364 11.5227H55.7273V13H57.0682V4.27273H55.7273V9.43182ZM60.8651 7.75C60.8651 6.22727 61.8082 5.36364 63.0923 5.36364C64.3366 5.36364 65.0923 6.17614 65.0923 7.54545V13H66.4332V7.45455C66.4332 5.22727 65.2457 4.15909 63.4787 4.15909C62.1605 4.15909 61.3423 4.75 60.9332 5.63636H60.8196V4.27273H59.5241V13H60.8651V7.75ZM68.8835 13H70.2244V4.27273H68.8835V13ZM69.5653 2.81818C70.0881 2.81818 70.5199 2.40909 70.5199 1.90909C70.5199 1.40909 70.0881 1 69.5653 1C69.0426 1 68.6108 1.40909 68.6108 1.90909C68.6108 2.40909 69.0426 2.81818 69.5653 2.81818ZM76.2259 13.1818C78.1577 13.1818 79.4304 12 79.6577 10.4545H78.3168C78.0668 11.4091 77.2713 11.9773 76.2259 11.9773C74.6349 11.9773 73.6122 10.6591 73.6122 8.63636C73.6122 6.65909 74.6577 5.36364 76.2259 5.36364C77.4077 5.36364 78.1122 6.09091 78.3168 6.88636H79.6577C79.4304 5.25 78.044 4.15909 76.2031 4.15909C73.8395 4.15909 72.2713 6.02273 72.2713 8.68182C72.2713 11.2955 73.7713 13.1818 76.2259 13.1818ZM84.1861 13.2045C85.7088 13.2045 86.5043 12.3864 86.777 11.8182H86.8452V13H88.1861V7.25C88.1861 4.47727 86.0724 4.15909 84.9588 4.15909C83.6406 4.15909 82.1406 4.61364 81.4588 6.20455L82.7315 6.65909C83.027 6.02273 83.7259 5.34091 85.0043 5.34091C86.2372 5.34091 86.8452 5.99432 86.8452 7.11364V7.15909C86.8452 7.80682 86.1861 7.75 84.5952 7.95455C82.9759 8.16477 81.2088 8.52273 81.2088 10.5227C81.2088 12.2273 82.527 13.2045 84.1861 13.2045ZM84.3906 12C83.3224 12 82.5497 11.5227 82.5497 10.5909C82.5497 9.56818 83.4815 9.25 84.527 9.11364C85.0952 9.04545 86.6179 8.88636 86.8452 8.61364V9.84091C86.8452 10.9318 85.9815 12 84.3906 12ZM94.429 4.27273H92.5653V2.18182H91.2244V4.27273H89.9062V5.40909H91.2244V10.8636C91.2244 12.3864 92.4517 13.1136 93.5881 13.1136C94.0881 13.1136 94.4062 13.0227 94.5881 12.9545L94.3153 11.75C94.2017 11.7727 94.0199 11.8182 93.7244 11.8182C93.1335 11.8182 92.5653 11.6364 92.5653 10.5V5.40909H94.429V4.27273ZM100.011 13.1818C101.784 13.1818 103.08 12.2955 103.489 10.9773L102.193 10.6136C101.852 11.5227 101.062 11.9773 100.011 11.9773C98.4375 11.9773 97.3523 10.9602 97.2898 9.09091H103.625V8.52273C103.625 5.27273 101.693 4.15909 99.875 4.15909C97.5114 4.15909 95.9432 6.02273 95.9432 8.70455C95.9432 11.3864 97.4886 13.1818 100.011 13.1818ZM97.2898 7.93182C97.3807 6.57386 98.3409 5.36364 99.875 5.36364C101.33 5.36364 102.261 6.45455 102.261 7.93182H97.2898ZM113.71 13.1818C115.642 13.1818 116.915 12 117.142 10.4545H115.801C115.551 11.4091 114.756 11.9773 113.71 11.9773C112.119 11.9773 111.097 10.6591 111.097 8.63636C111.097 6.65909 112.142 5.36364 113.71 5.36364C114.892 5.36364 115.597 6.09091 115.801 6.88636H117.142C116.915 5.25 115.528 4.15909 113.688 4.15909C111.324 4.15909 109.756 6.02273 109.756 8.68182C109.756 11.2955 111.256 13.1818 113.71 13.1818ZM122.648 13.1818C125.011 13.1818 126.602 11.3864 126.602 8.68182C126.602 5.95455 125.011 4.15909 122.648 4.15909C120.284 4.15909 118.693 5.95455 118.693 8.68182C118.693 11.3864 120.284 13.1818 122.648 13.1818ZM122.648 11.9773C120.852 11.9773 120.034 10.4318 120.034 8.68182C120.034 6.93182 120.852 5.36364 122.648 5.36364C124.443 5.36364 125.261 6.93182 125.261 8.68182C125.261 10.4318 124.443 11.9773 122.648 11.9773ZM129.99 7.75C129.99 6.22727 130.933 5.36364 132.217 5.36364C133.462 5.36364 134.217 6.17614 134.217 7.54545V13H135.558V7.45455C135.558 5.22727 134.371 4.15909 132.604 4.15909C131.286 4.15909 130.467 4.75 130.058 5.63636H129.945V4.27273H128.649V13H129.99V7.75ZM141.895 4.27273H139.94V3.38636C139.94 2.52273 140.304 2.06818 141.19 2.06818C141.577 2.06818 141.804 2.15909 141.94 2.20455L142.327 1.04545C142.122 0.954545 141.713 0.818181 141.054 0.818181C139.804 0.818181 138.599 1.56818 138.599 3.06818V4.27273H137.19V5.40909H138.599V13H139.94V5.40909H141.895V4.27273ZM143.774 13H145.115V4.27273H143.774V13ZM144.456 2.81818C144.979 2.81818 145.411 2.40909 145.411 1.90909C145.411 1.40909 144.979 1 144.456 1C143.933 1 143.501 1.40909 143.501 1.90909C143.501 2.40909 143.933 2.81818 144.456 2.81818ZM150.866 13.1818C152.548 13.1818 153.116 12.1364 153.412 11.6591H153.571V13H154.866V1.36364H153.526V5.65909H153.412C153.116 5.20455 152.594 4.15909 150.889 4.15909C148.685 4.15909 147.162 5.90909 147.162 8.65909C147.162 11.4318 148.685 13.1818 150.866 13.1818ZM151.048 11.9773C149.366 11.9773 148.503 10.5 148.503 8.63636C148.503 6.79545 149.344 5.36364 151.048 5.36364C152.685 5.36364 153.548 6.68182 153.548 8.63636C153.548 10.6136 152.662 11.9773 151.048 11.9773ZM161.168 13.1818C162.94 13.1818 164.236 12.2955 164.645 10.9773L163.349 10.6136C163.009 11.5227 162.219 11.9773 161.168 11.9773C159.594 11.9773 158.509 10.9602 158.446 9.09091H164.781V8.52273C164.781 5.27273 162.849 4.15909 161.031 4.15909C158.668 4.15909 157.099 6.02273 157.099 8.70455C157.099 11.3864 158.645 13.1818 161.168 13.1818ZM158.446 7.93182C158.537 6.57386 159.497 5.36364 161.031 5.36364C162.486 5.36364 163.418 6.45455 163.418 7.93182H158.446ZM168.162 7.75C168.162 6.22727 169.105 5.36364 170.389 5.36364C171.634 5.36364 172.389 6.17614 172.389 7.54545V13H173.73V7.45455C173.73 5.22727 172.543 4.15909 170.776 4.15909C169.457 4.15909 168.639 4.75 168.23 5.63636H168.116V4.27273H166.821V13H168.162V7.75ZM179.976 4.27273H178.112V2.18182H176.771V4.27273H175.453V5.40909H176.771V10.8636C176.771 12.3864 177.999 13.1136 179.135 13.1136C179.635 13.1136 179.953 13.0227 180.135 12.9545L179.862 11.75C179.749 11.7727 179.567 11.8182 179.271 11.8182C178.68 11.8182 178.112 11.6364 178.112 10.5V5.40909H179.976V4.27273ZM183.521 1.36364H182.18V13H183.521V1.36364ZM186.841 16.2727C188.051 16.2727 188.903 15.6307 189.409 14.2727L193.125 4.29545L191.659 4.27273L189.25 11.2273H189.159L186.75 4.27273H185.295L188.523 13.0455L188.273 13.7273C187.784 15.0568 187.182 15.1818 186.205 14.9318L185.864 16.1136C186 16.1818 186.386 16.2727 186.841 16.2727ZM201.376 13H202.695L204.604 6.29545H204.74L206.649 13H207.967L210.626 4.27273H209.217L207.331 10.9318H207.24L205.399 4.27273H203.967L202.104 10.9545H202.013L200.126 4.27273H198.717L201.376 13ZM212.399 13H213.74V4.27273H212.399V13ZM213.081 2.81818C213.604 2.81818 214.036 2.40909 214.036 1.90909C214.036 1.40909 213.604 1 213.081 1C212.558 1 212.126 1.40909 212.126 1.90909C212.126 2.40909 212.558 2.81818 213.081 2.81818ZM219.991 4.27273H218.128V2.18182H216.787V4.27273H215.469V5.40909H216.787V10.8636C216.787 12.3864 218.014 13.1136 219.151 13.1136C219.651 13.1136 219.969 13.0227 220.151 12.9545L219.878 11.75C219.764 11.7727 219.582 11.8182 219.287 11.8182C218.696 11.8182 218.128 11.6364 218.128 10.5V5.40909H219.991V4.27273ZM223.537 7.75C223.537 6.22727 224.509 5.36364 225.832 5.36364C227.094 5.36364 227.855 6.15909 227.855 7.54545V13H229.196V7.45455C229.196 5.21023 228.003 4.15909 226.219 4.15909C224.844 4.15909 224.06 4.73295 223.651 5.63636H223.537V1.36364H222.196V13H223.537V7.75ZM1.22727 37H2.56818V31.4773C2.56818 30.2955 3.5 29.4318 4.77273 29.4318C5.13068 29.4318 5.5 29.5 5.59091 29.5227V28.1591C5.4375 28.1477 5.08523 28.1364 4.88636 28.1364C3.84091 28.1364 2.93182 28.7273 2.61364 29.5909H2.52273V28.2727H1.22727V37ZM10.5739 37.1818C12.3466 37.1818 13.642 36.2955 14.0511 34.9773L12.7557 34.6136C12.4148 35.5227 11.625 35.9773 10.5739 35.9773C9 35.9773 7.91477 34.9602 7.85227 33.0909H14.1875V32.5227C14.1875 29.2727 12.2557 28.1591 10.4375 28.1591C8.07386 28.1591 6.50568 30.0227 6.50568 32.7045C6.50568 35.3864 8.05114 37.1818 10.5739 37.1818ZM7.85227 31.9318C7.94318 30.5739 8.90341 29.3636 10.4375 29.3636C11.892 29.3636 12.8239 30.4545 12.8239 31.9318H7.85227ZM19.7727 37.1818C21.7045 37.1818 22.9773 36 23.2045 34.4545H21.8636C21.6136 35.4091 20.8182 35.9773 19.7727 35.9773C18.1818 35.9773 17.1591 34.6591 17.1591 32.6364C17.1591 30.6591 18.2045 29.3636 19.7727 29.3636C20.9545 29.3636 21.6591 30.0909 21.8636 30.8864H23.2045C22.9773 29.25 21.5909 28.1591 19.75 28.1591C17.3864 28.1591 15.8182 30.0227 15.8182 32.6818C15.8182 35.2955 17.3182 37.1818 19.7727 37.1818ZM28.7102 37.1818C31.0739 37.1818 32.6648 35.3864 32.6648 32.6818C32.6648 29.9545 31.0739 28.1591 28.7102 28.1591C26.3466 28.1591 24.7557 29.9545 24.7557 32.6818C24.7557 35.3864 26.3466 37.1818 28.7102 37.1818ZM28.7102 35.9773C26.9148 35.9773 26.0966 34.4318 26.0966 32.6818C26.0966 30.9318 26.9148 29.3636 28.7102 29.3636C30.5057 29.3636 31.3239 30.9318 31.3239 32.6818C31.3239 34.4318 30.5057 35.9773 28.7102 35.9773ZM34.7116 37H36.0526V31.5455C36.0526 30.267 36.9844 29.3636 38.0298 29.3636C39.0469 29.3636 39.7571 30.0284 39.7571 31.0227V37H41.1207V31.3182C41.1207 30.1932 41.8253 29.3636 43.0526 29.3636C44.0071 29.3636 44.8253 29.8693 44.8253 31.1591V37H46.1662V31.1591C46.1662 29.108 45.0639 28.1591 43.5071 28.1591C42.2571 28.1591 41.3423 28.733 40.8935 29.6364H40.8026C40.3707 28.7045 39.6094 28.1591 38.4616 28.1591C37.3253 28.1591 36.4844 28.7045 36.1207 29.6364H36.0071V28.2727H34.7116V37ZM48.6179 37H49.9588V31.5455C49.9588 30.267 50.8906 29.3636 51.9361 29.3636C52.9531 29.3636 53.6634 30.0284 53.6634 31.0227V37H55.027V31.3182C55.027 30.1932 55.7315 29.3636 56.9588 29.3636C57.9134 29.3636 58.7315 29.8693 58.7315 31.1591V37H60.0724V31.1591C60.0724 29.108 58.9702 28.1591 57.4134 28.1591C56.1634 28.1591 55.2486 28.733 54.7997 29.6364H54.7088C54.277 28.7045 53.5156 28.1591 52.3679 28.1591C51.2315 28.1591 50.3906 28.7045 50.027 29.6364H49.9134V28.2727H48.6179V37ZM66.1832 37.1818C67.956 37.1818 69.2514 36.2955 69.6605 34.9773L68.3651 34.6136C68.0241 35.5227 67.2344 35.9773 66.1832 35.9773C64.6094 35.9773 63.5241 34.9602 63.4616 33.0909H69.7969V32.5227C69.7969 29.2727 67.8651 28.1591 66.0469 28.1591C63.6832 28.1591 62.1151 30.0227 62.1151 32.7045C62.1151 35.3864 63.6605 37.1818 66.1832 37.1818ZM63.4616 31.9318C63.5526 30.5739 64.5128 29.3636 66.0469 29.3636C67.5014 29.3636 68.4332 30.4545 68.4332 31.9318H63.4616ZM73.1776 31.75C73.1776 30.2273 74.1207 29.3636 75.4048 29.3636C76.6491 29.3636 77.4048 30.1761 77.4048 31.5455V37H78.7457V31.4545C78.7457 29.2273 77.5582 28.1591 75.7912 28.1591C74.473 28.1591 73.6548 28.75 73.2457 29.6364H73.1321V28.2727H71.8366V37H73.1776V31.75ZM84.4915 37.1818C86.1733 37.1818 86.7415 36.1364 87.0369 35.6591H87.196V37H88.4915V25.3636H87.1506V29.6591H87.0369C86.7415 29.2045 86.2188 28.1591 84.5142 28.1591C82.3097 28.1591 80.7869 29.9091 80.7869 32.6591C80.7869 35.4318 82.3097 37.1818 84.4915 37.1818ZM84.6733 35.9773C82.9915 35.9773 82.1278 34.5 82.1278 32.6364C82.1278 30.7955 82.9688 29.3636 84.6733 29.3636C86.3097 29.3636 87.1733 30.6818 87.1733 32.6364C87.1733 34.6136 86.2869 35.9773 84.6733 35.9773ZM94.7926 37.1818C96.5653 37.1818 97.8608 36.2955 98.2699 34.9773L96.9744 34.6136C96.6335 35.5227 95.8438 35.9773 94.7926 35.9773C93.2188 35.9773 92.1335 34.9602 92.071 33.0909H98.4062V32.5227C98.4062 29.2727 96.4744 28.1591 94.6562 28.1591C92.2926 28.1591 90.7244 30.0227 90.7244 32.7045C90.7244 35.3864 92.2699 37.1818 94.7926 37.1818ZM92.071 31.9318C92.1619 30.5739 93.1222 29.3636 94.6562 29.3636C96.1108 29.3636 97.0426 30.4545 97.0426 31.9318H92.071ZM103.741 37.1818C105.423 37.1818 105.991 36.1364 106.287 35.6591H106.446V37H107.741V25.3636H106.401V29.6591H106.287C105.991 29.2045 105.469 28.1591 103.764 28.1591C101.56 28.1591 100.037 29.9091 100.037 32.6591C100.037 35.4318 101.56 37.1818 103.741 37.1818ZM103.923 35.9773C102.241 35.9773 101.378 34.5 101.378 32.6364C101.378 30.7955 102.219 29.3636 103.923 29.3636C105.56 29.3636 106.423 30.6818 106.423 32.6364C106.423 34.6136 105.537 35.9773 103.923 35.9773ZM118.679 28.2727H116.815V26.1818H115.474V28.2727H114.156V29.4091H115.474V34.8636C115.474 36.3864 116.702 37.1136 117.838 37.1136C118.338 37.1136 118.656 37.0227 118.838 36.9545L118.565 35.75C118.452 35.7727 118.27 35.8182 117.974 35.8182C117.384 35.8182 116.815 35.6364 116.815 34.5V29.4091H118.679V28.2727ZM123.264 37.2045C124.787 37.2045 125.582 36.3864 125.855 35.8182H125.923V37H127.264V31.25C127.264 28.4773 125.151 28.1591 124.037 28.1591C122.719 28.1591 121.219 28.6136 120.537 30.2045L121.81 30.6591C122.105 30.0227 122.804 29.3409 124.082 29.3409C125.315 29.3409 125.923 29.9943 125.923 31.1136V31.1591C125.923 31.8068 125.264 31.75 123.673 31.9545C122.054 32.1648 120.287 32.5227 120.287 34.5227C120.287 36.2273 121.605 37.2045 123.264 37.2045ZM123.469 36C122.401 36 121.628 35.5227 121.628 34.5909C121.628 33.5682 122.56 33.25 123.605 33.1136C124.173 33.0455 125.696 32.8864 125.923 32.6136V33.8409C125.923 34.9318 125.06 36 123.469 36ZM131.053 25.3636H129.712V37H131.053V25.3636ZM133.509 37H134.849V33.733L135.787 32.8636L139.054 37H140.759L136.798 32L140.486 28.2727H138.827L135.009 32.1591H134.849V25.3636H133.509V37ZM142.212 37H143.553V28.2727H142.212V37ZM142.893 26.8182C143.416 26.8182 143.848 26.4091 143.848 25.9091C143.848 25.4091 143.416 25 142.893 25C142.371 25 141.939 25.4091 141.939 25.9091C141.939 26.4091 142.371 26.8182 142.893 26.8182ZM147.349 31.75C147.349 30.2273 148.293 29.3636 149.577 29.3636C150.821 29.3636 151.577 30.1761 151.577 31.5455V37H152.918V31.4545C152.918 29.2273 151.73 28.1591 149.963 28.1591C148.645 28.1591 147.827 28.75 147.418 29.6364H147.304V28.2727H146.009V37H147.349V31.75ZM158.891 40.4545C160.982 40.4545 162.663 39.5 162.663 37.25V28.2727H161.368V29.6591H161.232C160.936 29.2045 160.391 28.1591 158.686 28.1591C156.482 28.1591 154.959 29.9091 154.959 32.5909C154.959 35.3182 156.55 36.8636 158.663 36.8636C160.368 36.8636 160.913 35.8636 161.209 35.3864H161.322V37.1591C161.322 38.6136 160.3 39.2727 158.891 39.2727C157.305 39.2727 156.749 38.4375 156.391 37.9545L155.322 38.7045C155.868 39.6193 156.942 40.4545 158.891 40.4545ZM158.845 35.6591C157.163 35.6591 156.3 34.3864 156.3 32.5682C156.3 30.7955 157.141 29.3636 158.845 29.3636C160.482 29.3636 161.345 30.6818 161.345 32.5682C161.345 34.5 160.459 35.6591 158.845 35.6591ZM169.618 40.2727H170.959V35.6591H171.072C171.368 36.1364 171.936 37.1818 173.618 37.1818C175.8 37.1818 177.322 35.4318 177.322 32.6591C177.322 29.9091 175.8 28.1591 173.595 28.1591C171.891 28.1591 171.368 29.2045 171.072 29.6591H170.913V28.2727H169.618V40.2727ZM170.936 32.6364C170.936 30.6818 171.8 29.3636 173.436 29.3636C175.141 29.3636 175.982 30.7955 175.982 32.6364C175.982 34.5 175.118 35.9773 173.436 35.9773C171.822 35.9773 170.936 34.6136 170.936 32.6364ZM182.913 37.1818C185.277 37.1818 186.868 35.3864 186.868 32.6818C186.868 29.9545 185.277 28.1591 182.913 28.1591C180.55 28.1591 178.959 29.9545 178.959 32.6818C178.959 35.3864 180.55 37.1818 182.913 37.1818ZM182.913 35.9773C181.118 35.9773 180.3 34.4318 180.3 32.6818C180.3 30.9318 181.118 29.3636 182.913 29.3636C184.709 29.3636 185.527 30.9318 185.527 32.6818C185.527 34.4318 184.709 35.9773 182.913 35.9773ZM188.915 37H190.256V28.2727H188.915V37ZM189.597 26.8182C190.119 26.8182 190.551 26.4091 190.551 25.9091C190.551 25.4091 190.119 25 189.597 25C189.074 25 188.642 25.4091 188.642 25.9091C188.642 26.4091 189.074 26.8182 189.597 26.8182ZM194.053 31.75C194.053 30.2273 194.996 29.3636 196.28 29.3636C197.524 29.3636 198.28 30.1761 198.28 31.5455V37H199.621V31.4545C199.621 29.2273 198.433 28.1591 196.666 28.1591C195.348 28.1591 194.53 28.75 194.121 29.6364H194.007V28.2727H192.712V37H194.053V31.75ZM205.866 28.2727H204.003V26.1818H202.662V28.2727H201.344V29.4091H202.662V34.8636C202.662 36.3864 203.889 37.1136 205.026 37.1136C205.526 37.1136 205.844 37.0227 206.026 36.9545L205.753 35.75C205.639 35.7727 205.457 35.8182 205.162 35.8182C204.571 35.8182 204.003 35.6364 204.003 34.5V29.4091H205.866V28.2727ZM213.909 30.2273C213.489 28.9886 212.545 28.1591 210.818 28.1591C208.977 28.1591 207.614 29.2045 207.614 30.6818C207.614 31.8864 208.33 32.6932 209.932 33.0682L211.386 33.4091C212.267 33.6136 212.682 34.0341 212.682 34.6364C212.682 35.3864 211.886 36 210.636 36C209.54 36 208.852 35.5284 208.614 34.5909L207.341 34.9091C207.653 36.392 208.875 37.1818 210.659 37.1818C212.688 37.1818 214.068 36.0739 214.068 34.5682C214.068 33.3523 213.307 32.5852 211.75 32.2045L210.455 31.8864C209.42 31.6307 208.955 31.2841 208.955 30.6136C208.955 29.8636 209.75 29.3182 210.818 29.3182C211.989 29.3182 212.472 29.9659 212.705 30.5682L213.909 30.2273ZM217.064 37.0909C217.626 37.0909 218.087 36.6307 218.087 36.0682C218.087 35.5057 217.626 35.0455 217.064 35.0455C216.501 35.0455 216.041 35.5057 216.041 36.0682C216.041 36.6307 216.501 37.0909 217.064 37.0909Z" fill="#4E5A65"/>
</svg>
