<svg width="99" height="16" viewBox="0 0 99 16" fill="none" xmlns="http://www.w3.org/2000/svg">
<path d="M10.7727 4C10.3409 1.61364 8.43182 0.204545 6.09091 0.204545C3.11364 0.204545 0.954545 2.5 0.954545 6.18182C0.954545 9.86364 3.11364 12.1591 6.09091 12.1591C8.43182 12.1591 10.3409 10.75 10.7727 8.36364H9.36364C9.02273 9.97727 7.63636 10.8409 6.09091 10.8409C3.97727 10.8409 2.31818 9.20455 2.31818 6.18182C2.31818 3.15909 3.97727 1.52273 6.09091 1.52273C7.63636 1.52273 9.02273 2.38636 9.36364 4H10.7727ZM19.4134 3.27273H20.777C20.7145 1.51705 19.0952 0.204545 16.8452 0.204545C14.6179 0.204545 12.8679 1.5 12.8679 3.45455C12.8679 5.02273 14.0043 5.95455 15.8224 6.47727L17.2543 6.88636C18.4815 7.22727 19.5724 7.65909 19.5724 8.81818C19.5724 10.0909 18.3452 10.9318 16.7315 10.9318C15.3452 10.9318 14.1179 10.3182 14.0043 9H12.5497C12.6861 10.9091 14.2315 12.2045 16.7315 12.2045C19.4134 12.2045 20.9361 10.7273 20.9361 8.84091C20.9361 6.65909 18.8679 5.95455 17.6634 5.63636L16.4815 5.31818C15.6179 5.09091 14.2315 4.63636 14.2315 3.38636C14.2315 2.27273 15.2543 1.45455 16.7997 1.45455C18.2088 1.45455 19.277 2.125 19.4134 3.27273ZM30.1392 12.2045C31.6619 12.2045 32.4574 11.3864 32.7301 10.8182H32.7983V12H34.1392V6.25C34.1392 3.47727 32.0256 3.15909 30.9119 3.15909C29.5938 3.15909 28.0938 3.61364 27.4119 5.20455L28.6847 5.65909C28.9801 5.02273 29.679 4.34091 30.9574 4.34091C32.1903 4.34091 32.7983 4.99432 32.7983 6.11364V6.15909C32.7983 6.80682 32.1392 6.75 30.5483 6.95455C28.929 7.16477 27.1619 7.52273 27.1619 9.52273C27.1619 11.2273 28.4801 12.2045 30.1392 12.2045ZM30.3438 11C29.2756 11 28.5028 10.5227 28.5028 9.59091C28.5028 8.56818 29.4347 8.25 30.4801 8.11364C31.0483 8.04545 32.571 7.88636 32.7983 7.61364V8.84091C32.7983 9.93182 31.9347 11 30.3438 11ZM40.3821 3.27273H38.5185V1.18182H37.1776V3.27273H35.8594V4.40909H37.1776V9.86364C37.1776 11.3864 38.4048 12.1136 39.5412 12.1136C40.0412 12.1136 40.3594 12.0227 40.5412 11.9545L40.2685 10.75C40.1548 10.7727 39.973 10.8182 39.6776 10.8182C39.0866 10.8182 38.5185 10.6364 38.5185 9.5V4.40909H40.3821V3.27273ZM55.0355 4H56.4901C56.0582 1.75 54.1719 0.204545 51.7173 0.204545C48.7344 0.204545 46.6264 2.5 46.6264 6.18182C46.6264 9.86364 48.7173 12.1591 51.8082 12.1591C54.581 12.1591 56.5582 10.3125 56.5582 7.43182V6.18182H52.1264V7.43182H55.1946C55.1548 9.52273 53.7798 10.8409 51.8082 10.8409C49.6491 10.8409 47.9901 9.20455 47.9901 6.18182C47.9901 3.15909 49.6491 1.52273 51.7173 1.52273C53.3991 1.52273 54.5412 2.47159 55.0355 4ZM62.3352 12.1818C64.6989 12.1818 66.2898 10.3864 66.2898 7.68182C66.2898 4.95455 64.6989 3.15909 62.3352 3.15909C59.9716 3.15909 58.3807 4.95455 58.3807 7.68182C58.3807 10.3864 59.9716 12.1818 62.3352 12.1818ZM62.3352 10.9773C60.5398 10.9773 59.7216 9.43182 59.7216 7.68182C59.7216 5.93182 60.5398 4.36364 62.3352 4.36364C64.1307 4.36364 64.9489 5.93182 64.9489 7.68182C64.9489 9.43182 64.1307 10.9773 62.3352 10.9773ZM71.8821 12.1818C74.2457 12.1818 75.8366 10.3864 75.8366 7.68182C75.8366 4.95455 74.2457 3.15909 71.8821 3.15909C69.5185 3.15909 67.9276 4.95455 67.9276 7.68182C67.9276 10.3864 69.5185 12.1818 71.8821 12.1818ZM71.8821 10.9773C70.0866 10.9773 69.2685 9.43182 69.2685 7.68182C69.2685 5.93182 70.0866 4.36364 71.8821 4.36364C73.6776 4.36364 74.4957 5.93182 74.4957 7.68182C74.4957 9.43182 73.6776 10.9773 71.8821 10.9773ZM81.4062 15.4545C83.4972 15.4545 85.179 14.5 85.179 12.25V3.27273H83.8835V4.65909H83.7472C83.4517 4.20455 82.9062 3.15909 81.2017 3.15909C78.9972 3.15909 77.4744 4.90909 77.4744 7.59091C77.4744 10.3182 79.0653 11.8636 81.179 11.8636C82.8835 11.8636 83.429 10.8636 83.7244 10.3864H83.8381V12.1591C83.8381 13.6136 82.8153 14.2727 81.4062 14.2727C79.821 14.2727 79.2642 13.4375 78.9062 12.9545L77.8381 13.7045C78.3835 14.6193 79.4574 15.4545 81.4062 15.4545ZM81.3608 10.6591C79.679 10.6591 78.8153 9.38636 78.8153 7.56818C78.8153 5.79545 79.6562 4.36364 81.3608 4.36364C82.9972 4.36364 83.8608 5.68182 83.8608 7.56818C83.8608 9.5 82.9744 10.6591 81.3608 10.6591ZM88.9744 0.363636H87.6335V12H88.9744V0.363636ZM95.0895 12.1818C96.8622 12.1818 98.1577 11.2955 98.5668 9.97727L97.2713 9.61364C96.9304 10.5227 96.1406 10.9773 95.0895 10.9773C93.5156 10.9773 92.4304 9.96023 92.3679 8.09091H98.7031V7.52273C98.7031 4.27273 96.7713 3.15909 94.9531 3.15909C92.5895 3.15909 91.0213 5.02273 91.0213 7.70455C91.0213 10.3864 92.5668 12.1818 95.0895 12.1818ZM92.3679 6.93182C92.4588 5.57386 93.419 4.36364 94.9531 4.36364C96.4077 4.36364 97.3395 5.45455 97.3395 6.93182H92.3679Z" fill="#4E5A65"/>
</svg>
