<svg width="162" height="17" viewBox="0 0 162 17" fill="none" xmlns="http://www.w3.org/2000/svg">
<path d="M4 13C7.54545 13 9.54545 10.7955 9.54545 7.15909C9.54545 3.54545 7.54545 1.36364 4.15909 1.36364H0.409091V13H4ZM1.81818 11.75V2.61364H4.06818C6.79545 2.61364 8.18182 4.34091 8.18182 7.15909C8.18182 10 6.79545 11.75 3.90909 11.75H1.81818ZM15.3864 13.1818C17.1591 13.1818 18.4545 12.2955 18.8636 10.9773L17.5682 10.6136C17.2273 11.5227 16.4375 11.9773 15.3864 11.9773C13.8125 11.9773 12.7273 10.9602 12.6648 9.09091H19V8.52273C19 5.27273 17.0682 4.15909 15.25 4.15909C12.8864 4.15909 11.3182 6.02273 11.3182 8.70455C11.3182 11.3864 12.8636 13.1818 15.3864 13.1818ZM12.6648 7.93182C12.7557 6.57386 13.7159 5.36364 15.25 5.36364C16.7045 5.36364 17.6364 6.45455 17.6364 7.93182H12.6648ZM27.2216 6.22727C26.8011 4.98864 25.858 4.15909 24.1307 4.15909C22.2898 4.15909 20.9261 5.20455 20.9261 6.68182C20.9261 7.88636 21.642 8.69318 23.2443 9.06818L24.6989 9.40909C25.5795 9.61364 25.9943 10.0341 25.9943 10.6364C25.9943 11.3864 25.1989 12 23.9489 12C22.8523 12 22.1648 11.5284 21.9261 10.5909L20.6534 10.9091C20.9659 12.392 22.1875 13.1818 23.9716 13.1818C26 13.1818 27.3807 12.0739 27.3807 10.5682C27.3807 9.35227 26.6193 8.58523 25.0625 8.20455L23.767 7.88636C22.733 7.63068 22.267 7.28409 22.267 6.61364C22.267 5.86364 23.0625 5.31818 24.1307 5.31818C25.3011 5.31818 25.7841 5.96591 26.017 6.56818L27.2216 6.22727ZM29.3991 13H30.7401V4.27273H29.3991V13ZM30.081 2.81818C30.6037 2.81818 31.0355 2.40909 31.0355 1.90909C31.0355 1.40909 30.6037 1 30.081 1C29.5582 1 29.1264 1.40909 29.1264 1.90909C29.1264 2.40909 29.5582 2.81818 30.081 2.81818ZM36.7188 16.4545C38.8097 16.4545 40.4915 15.5 40.4915 13.25V4.27273H39.196V5.65909H39.0597C38.7642 5.20455 38.2188 4.15909 36.5142 4.15909C34.3097 4.15909 32.7869 5.90909 32.7869 8.59091C32.7869 11.3182 34.3778 12.8636 36.4915 12.8636C38.196 12.8636 38.7415 11.8636 39.0369 11.3864H39.1506V13.1591C39.1506 14.6136 38.1278 15.2727 36.7188 15.2727C35.1335 15.2727 34.5767 14.4375 34.2188 13.9545L33.1506 14.7045C33.696 15.6193 34.7699 16.4545 36.7188 16.4545ZM36.6733 11.6591C34.9915 11.6591 34.1278 10.3864 34.1278 8.56818C34.1278 6.79545 34.9688 5.36364 36.6733 5.36364C38.3097 5.36364 39.1733 6.68182 39.1733 8.56818C39.1733 10.5 38.2869 11.6591 36.6733 11.6591ZM44.2869 7.75C44.2869 6.22727 45.2301 5.36364 46.5142 5.36364C47.7585 5.36364 48.5142 6.17614 48.5142 7.54545V13H49.8551V7.45455C49.8551 5.22727 48.6676 4.15909 46.9006 4.15909C45.5824 4.15909 44.7642 4.75 44.3551 5.63636H44.2415V4.27273H42.946V13H44.2869V7.75ZM55.9645 13.1818C57.7372 13.1818 59.0327 12.2955 59.4418 10.9773L58.1463 10.6136C57.8054 11.5227 57.0156 11.9773 55.9645 11.9773C54.3906 11.9773 53.3054 10.9602 53.2429 9.09091H59.5781V8.52273C59.5781 5.27273 57.6463 4.15909 55.8281 4.15909C53.4645 4.15909 51.8963 6.02273 51.8963 8.70455C51.8963 11.3864 53.4418 13.1818 55.9645 13.1818ZM53.2429 7.93182C53.3338 6.57386 54.294 5.36364 55.8281 5.36364C57.2827 5.36364 58.2145 6.45455 58.2145 7.93182H53.2429ZM61.6179 13H62.9588V7.47727C62.9588 6.29545 63.8906 5.43182 65.1634 5.43182C65.5213 5.43182 65.8906 5.5 65.9815 5.52273V4.15909C65.8281 4.14773 65.4759 4.13636 65.277 4.13636C64.2315 4.13636 63.3224 4.72727 63.0043 5.59091H62.9134V4.27273H61.6179V13ZM74.6392 13.2045C76.1619 13.2045 76.9574 12.3864 77.2301 11.8182H77.2983V13H78.6392V7.25C78.6392 4.47727 76.5256 4.15909 75.4119 4.15909C74.0938 4.15909 72.5938 4.61364 71.9119 6.20455L73.1847 6.65909C73.4801 6.02273 74.179 5.34091 75.4574 5.34091C76.6903 5.34091 77.2983 5.99432 77.2983 7.11364V7.15909C77.2983 7.80682 76.6392 7.75 75.0483 7.95455C73.429 8.16477 71.6619 8.52273 71.6619 10.5227C71.6619 12.2273 72.9801 13.2045 74.6392 13.2045ZM74.8438 12C73.7756 12 73.0028 11.5227 73.0028 10.5909C73.0028 9.56818 73.9347 9.25 74.9801 9.11364C75.5483 9.04545 77.071 8.88636 77.2983 8.61364V9.84091C77.2983 10.9318 76.4347 12 74.8438 12ZM84.8821 4.27273H83.0185V2.18182H81.6776V4.27273H80.3594V5.40909H81.6776V10.8636C81.6776 12.3864 82.9048 13.1136 84.0412 13.1136C84.5412 13.1136 84.8594 13.0227 85.0412 12.9545L84.7685 11.75C84.6548 11.7727 84.473 11.8182 84.1776 11.8182C83.5866 11.8182 83.0185 11.6364 83.0185 10.5V5.40909H84.8821V4.27273ZM91.581 1.36364V13H92.8991V4.15909H93.0128L96.6491 13H97.9219L101.558 4.15909H101.672V13H102.99V1.36364H101.308L97.3537 11.0227H97.2173L93.2628 1.36364H91.581ZM105.634 13H106.974V4.27273H105.634V13ZM106.315 2.81818C106.838 2.81818 107.27 2.40909 107.27 1.90909C107.27 1.40909 106.838 1 106.315 1C105.793 1 105.361 1.40909 105.361 1.90909C105.361 2.40909 105.793 2.81818 106.315 2.81818ZM112.976 13.1818C114.908 13.1818 116.18 12 116.408 10.4545H115.067C114.817 11.4091 114.021 11.9773 112.976 11.9773C111.385 11.9773 110.362 10.6591 110.362 8.63636C110.362 6.65909 111.408 5.36364 112.976 5.36364C114.158 5.36364 114.862 6.09091 115.067 6.88636H116.408C116.18 5.25 114.794 4.15909 112.953 4.15909C110.589 4.15909 109.021 6.02273 109.021 8.68182C109.021 11.2955 110.521 13.1818 112.976 13.1818ZM118.368 13H119.709V7.47727C119.709 6.29545 120.641 5.43182 121.913 5.43182C122.271 5.43182 122.641 5.5 122.732 5.52273V4.15909C122.578 4.14773 122.226 4.13636 122.027 4.13636C120.982 4.13636 120.072 4.72727 119.754 5.59091H119.663V4.27273H118.368V13ZM127.601 13.1818C129.964 13.1818 131.555 11.3864 131.555 8.68182C131.555 5.95455 129.964 4.15909 127.601 4.15909C125.237 4.15909 123.646 5.95455 123.646 8.68182C123.646 11.3864 125.237 13.1818 127.601 13.1818ZM127.601 11.9773C125.805 11.9773 124.987 10.4318 124.987 8.68182C124.987 6.93182 125.805 5.36364 127.601 5.36364C129.396 5.36364 130.214 6.93182 130.214 8.68182C130.214 10.4318 129.396 11.9773 127.601 11.9773ZM139.784 6.22727C139.364 4.98864 138.42 4.15909 136.693 4.15909C134.852 4.15909 133.489 5.20455 133.489 6.68182C133.489 7.88636 134.205 8.69318 135.807 9.06818L137.261 9.40909C138.142 9.61364 138.557 10.0341 138.557 10.6364C138.557 11.3864 137.761 12 136.511 12C135.415 12 134.727 11.5284 134.489 10.5909L133.216 10.9091C133.528 12.392 134.75 13.1818 136.534 13.1818C138.562 13.1818 139.943 12.0739 139.943 10.5682C139.943 9.35227 139.182 8.58523 137.625 8.20455L136.33 7.88636C135.295 7.63068 134.83 7.28409 134.83 6.61364C134.83 5.86364 135.625 5.31818 136.693 5.31818C137.864 5.31818 138.347 5.96591 138.58 6.56818L139.784 6.22727ZM145.507 13.1818C147.871 13.1818 149.462 11.3864 149.462 8.68182C149.462 5.95455 147.871 4.15909 145.507 4.15909C143.143 4.15909 141.553 5.95455 141.553 8.68182C141.553 11.3864 143.143 13.1818 145.507 13.1818ZM145.507 11.9773C143.712 11.9773 142.893 10.4318 142.893 8.68182C142.893 6.93182 143.712 5.36364 145.507 5.36364C147.303 5.36364 148.121 6.93182 148.121 8.68182C148.121 10.4318 147.303 11.9773 145.507 11.9773ZM155.395 4.27273H153.44V3.38636C153.44 2.52273 153.804 2.06818 154.69 2.06818C155.077 2.06818 155.304 2.15909 155.44 2.20455L155.827 1.04545C155.622 0.954545 155.213 0.818181 154.554 0.818181C153.304 0.818181 152.099 1.56818 152.099 3.06818V4.27273H150.69V5.40909H152.099V13H153.44V5.40909H155.395V4.27273ZM161.07 4.27273H159.206V2.18182H157.865V4.27273H156.547V5.40909H157.865V10.8636C157.865 12.3864 159.092 13.1136 160.229 13.1136C160.729 13.1136 161.047 13.0227 161.229 12.9545L160.956 11.75C160.842 11.7727 160.661 11.8182 160.365 11.8182C159.774 11.8182 159.206 11.6364 159.206 10.5V5.40909H161.07V4.27273Z" fill="#4E5A65"/>
</svg>
