<svg width="149" height="16" viewBox="0 0 149 16" fill="none" xmlns="http://www.w3.org/2000/svg">
<path d="M4 12C7.54545 12 9.54545 9.79545 9.54545 6.15909C9.54545 2.54545 7.54545 0.363636 4.15909 0.363636H0.409091V12H4ZM1.81818 10.75V1.61364H4.06818C6.79545 1.61364 8.18182 3.34091 8.18182 6.15909C8.18182 9 6.79545 10.75 3.90909 10.75H1.81818ZM15.3864 12.1818C17.1591 12.1818 18.4545 11.2955 18.8636 9.97727L17.5682 9.61364C17.2273 10.5227 16.4375 10.9773 15.3864 10.9773C13.8125 10.9773 12.7273 9.96023 12.6648 8.09091H19V7.52273C19 4.27273 17.0682 3.15909 15.25 3.15909C12.8864 3.15909 11.3182 5.02273 11.3182 7.70455C11.3182 10.3864 12.8636 12.1818 15.3864 12.1818ZM12.6648 6.93182C12.7557 5.57386 13.7159 4.36364 15.25 4.36364C16.7045 4.36364 17.6364 5.45455 17.6364 6.93182H12.6648ZM27.9105 3.27273H26.456L24.0469 10.2273H23.956L21.5469 3.27273H20.0923L23.3196 12H24.6832L27.9105 3.27273ZM33.027 12.1818C34.7997 12.1818 36.0952 11.2955 36.5043 9.97727L35.2088 9.61364C34.8679 10.5227 34.0781 10.9773 33.027 10.9773C31.4531 10.9773 30.3679 9.96023 30.3054 8.09091H36.6406V7.52273C36.6406 4.27273 34.7088 3.15909 32.8906 3.15909C30.527 3.15909 28.9588 5.02273 28.9588 7.70455C28.9588 10.3864 30.5043 12.1818 33.027 12.1818ZM30.3054 6.93182C30.3963 5.57386 31.3565 4.36364 32.8906 4.36364C34.3452 4.36364 35.277 5.45455 35.277 6.93182H30.3054ZM40.0213 0.363636H38.6804V12H40.0213V0.363636ZM46.0227 12.1818C48.3864 12.1818 49.9773 10.3864 49.9773 7.68182C49.9773 4.95455 48.3864 3.15909 46.0227 3.15909C43.6591 3.15909 42.0682 4.95455 42.0682 7.68182C42.0682 10.3864 43.6591 12.1818 46.0227 12.1818ZM46.0227 10.9773C44.2273 10.9773 43.4091 9.43182 43.4091 7.68182C43.4091 5.93182 44.2273 4.36364 46.0227 4.36364C47.8182 4.36364 48.6364 5.93182 48.6364 7.68182C48.6364 9.43182 47.8182 10.9773 46.0227 10.9773ZM52.0241 15.2727H53.3651V10.6591H53.4787C53.7741 11.1364 54.3423 12.1818 56.0241 12.1818C58.206 12.1818 59.7287 10.4318 59.7287 7.65909C59.7287 4.90909 58.206 3.15909 56.0014 3.15909C54.2969 3.15909 53.7741 4.20455 53.4787 4.65909H53.3196V3.27273H52.0241V15.2727ZM53.3423 7.63636C53.3423 5.68182 54.206 4.36364 55.8423 4.36364C57.5469 4.36364 58.3878 5.79545 58.3878 7.63636C58.3878 9.5 57.5241 10.9773 55.8423 10.9773C54.2287 10.9773 53.3423 9.61364 53.3423 7.63636ZM65.4332 12.1818C67.206 12.1818 68.5014 11.2955 68.9105 9.97727L67.6151 9.61364C67.2741 10.5227 66.4844 10.9773 65.4332 10.9773C63.8594 10.9773 62.7741 9.96023 62.7116 8.09091H69.0469V7.52273C69.0469 4.27273 67.1151 3.15909 65.2969 3.15909C62.9332 3.15909 61.3651 5.02273 61.3651 7.70455C61.3651 10.3864 62.9105 12.1818 65.4332 12.1818ZM62.7116 6.93182C62.8026 5.57386 63.7628 4.36364 65.2969 4.36364C66.7514 4.36364 67.6832 5.45455 67.6832 6.93182H62.7116ZM71.0866 12H72.4276V6.47727C72.4276 5.29545 73.3594 4.43182 74.6321 4.43182C74.9901 4.43182 75.3594 4.5 75.4503 4.52273V3.15909C75.2969 3.14773 74.9446 3.13636 74.7457 3.13636C73.7003 3.13636 72.7912 3.72727 72.473 4.59091H72.3821V3.27273H71.0866V12ZM84.108 12.2045C85.6307 12.2045 86.4261 11.3864 86.6989 10.8182H86.767V12H88.108V6.25C88.108 3.47727 85.9943 3.15909 84.8807 3.15909C83.5625 3.15909 82.0625 3.61364 81.3807 5.20455L82.6534 5.65909C82.9489 5.02273 83.6477 4.34091 84.9261 4.34091C86.1591 4.34091 86.767 4.99432 86.767 6.11364V6.15909C86.767 6.80682 86.108 6.75 84.517 6.95455C82.8977 7.16477 81.1307 7.52273 81.1307 9.52273C81.1307 11.2273 82.4489 12.2045 84.108 12.2045ZM84.3125 11C83.2443 11 82.4716 10.5227 82.4716 9.59091C82.4716 8.56818 83.4034 8.25 84.4489 8.11364C85.017 8.04545 86.5398 7.88636 86.767 7.61364V8.84091C86.767 9.93182 85.9034 11 84.3125 11ZM94.3509 3.27273H92.4872V1.18182H91.1463V3.27273H89.8281V4.40909H91.1463V9.86364C91.1463 11.3864 92.3736 12.1136 93.5099 12.1136C94.0099 12.1136 94.3281 12.0227 94.5099 11.9545L94.2372 10.75C94.1236 10.7727 93.9418 10.8182 93.6463 10.8182C93.0554 10.8182 92.4872 10.6364 92.4872 9.5V4.40909H94.3509V3.27273ZM101.527 12L102.697 8.70455H107.402L108.572 12H110.05L105.777 0.363636H104.322L100.05 12H101.527ZM103.141 7.45455L105.004 2.20455H105.095L106.959 7.45455H103.141ZM111.774 12H113.115V3.27273H111.774V12ZM112.456 1.81818C112.979 1.81818 113.411 1.40909 113.411 0.909091C113.411 0.409091 112.979 0 112.456 0C111.933 0 111.501 0.409091 111.501 0.909091C111.501 1.40909 111.933 1.81818 112.456 1.81818ZM115.571 12H116.912V6.47727C116.912 5.29545 117.844 4.43182 119.116 4.43182C119.474 4.43182 119.844 4.5 119.935 4.52273V3.15909C119.781 3.14773 119.429 3.13636 119.23 3.13636C118.185 3.13636 117.276 3.72727 116.957 4.59091H116.866V3.27273H115.571V12ZM121.706 12H123.001V10.6591H123.161C123.456 11.1364 124.024 12.1818 125.706 12.1818C127.888 12.1818 129.411 10.4318 129.411 7.65909C129.411 4.90909 127.888 3.15909 125.683 3.15909C123.979 3.15909 123.456 4.20455 123.161 4.65909H123.047V0.363636H121.706V12ZM123.024 7.63636C123.024 5.68182 123.888 4.36364 125.524 4.36364C127.229 4.36364 128.07 5.79545 128.07 7.63636C128.07 9.5 127.206 10.9773 125.524 10.9773C123.911 10.9773 123.024 9.61364 123.024 7.63636ZM132.803 6.75C132.803 5.22727 133.746 4.36364 135.03 4.36364C136.274 4.36364 137.03 5.17614 137.03 6.54545V12H138.371V6.45455C138.371 4.22727 137.183 3.15909 135.416 3.15909C134.098 3.15909 133.28 3.75 132.871 4.63636H132.757V3.27273H131.462V12H132.803V6.75ZM141.003 12H142.298V10.6591H142.457C142.753 11.1364 143.321 12.1818 145.003 12.1818C147.185 12.1818 148.707 10.4318 148.707 7.65909C148.707 4.90909 147.185 3.15909 144.98 3.15909C143.276 3.15909 142.753 4.20455 142.457 4.65909H142.344V0.363636H141.003V12ZM142.321 7.63636C142.321 5.68182 143.185 4.36364 144.821 4.36364C146.526 4.36364 147.366 5.79545 147.366 7.63636C147.366 9.5 146.503 10.9773 144.821 10.9773C143.207 10.9773 142.321 9.61364 142.321 7.63636Z" fill="#4E5A65"/>
</svg>
