<svg width="260" height="40" viewBox="0 0 260 40" fill="none" xmlns="http://www.w3.org/2000/svg">
<path d="M0.409091 12H7.52273V10.75H1.81818V6.79545H7.06818V5.54545H1.81818V1.61364H7.43182V0.363636H0.409091V12ZM12.358 12.2045C13.8807 12.2045 14.6761 11.3864 14.9489 10.8182H15.017V12H16.358V6.25C16.358 3.47727 14.2443 3.15909 13.1307 3.15909C11.8125 3.15909 10.3125 3.61364 9.63068 5.20455L10.9034 5.65909C11.1989 5.02273 11.8977 4.34091 13.1761 4.34091C14.4091 4.34091 15.017 4.99432 15.017 6.11364V6.15909C15.017 6.80682 14.358 6.75 12.767 6.95455C11.1477 7.16477 9.38068 7.52273 9.38068 9.52273C9.38068 11.2273 10.6989 12.2045 12.358 12.2045ZM12.5625 11C11.4943 11 10.7216 10.5227 10.7216 9.59091C10.7216 8.56818 11.6534 8.25 12.6989 8.11364C13.267 8.04545 14.7898 7.88636 15.017 7.61364V8.84091C15.017 9.93182 14.1534 11 12.5625 11ZM24.9872 5.22727C24.5668 3.98864 23.6236 3.15909 21.8963 3.15909C20.0554 3.15909 18.6918 4.20455 18.6918 5.68182C18.6918 6.88636 19.4077 7.69318 21.0099 8.06818L22.4645 8.40909C23.3452 8.61364 23.7599 9.03409 23.7599 9.63636C23.7599 10.3864 22.9645 11 21.7145 11C20.6179 11 19.9304 10.5284 19.6918 9.59091L18.419 9.90909C18.7315 11.392 19.9531 12.1818 21.7372 12.1818C23.7656 12.1818 25.1463 11.0739 25.1463 9.56818C25.1463 8.35227 24.3849 7.58523 22.8281 7.20455L21.5327 6.88636C20.4986 6.63068 20.0327 6.28409 20.0327 5.61364C20.0327 4.86364 20.8281 4.31818 21.8963 4.31818C23.0668 4.31818 23.5497 4.96591 23.7827 5.56818L24.9872 5.22727ZM28.0284 15.2727C29.2386 15.2727 30.0909 14.6307 30.5966 13.2727L34.3125 3.29545L32.8466 3.27273L30.4375 10.2273H30.3466L27.9375 3.27273H26.483L29.7102 12.0455L29.4602 12.7273C28.9716 14.0568 28.3693 14.1818 27.392 13.9318L27.0511 15.1136C27.1875 15.1818 27.5739 15.2727 28.0284 15.2727ZM41.0866 6.38636H35.9957V7.63636H41.0866V6.38636ZM47.2415 3.27273H45.3778V1.18182H44.0369V3.27273H42.7188V4.40909H44.0369V9.86364C44.0369 11.3864 45.2642 12.1136 46.4006 12.1136C46.9006 12.1136 47.2188 12.0227 47.4006 11.9545L47.1278 10.75C47.0142 10.7727 46.8324 10.8182 46.5369 10.8182C45.946 10.8182 45.3778 10.6364 45.3778 9.5V4.40909H47.2415V3.27273ZM52.7102 12.1818C55.0739 12.1818 56.6648 10.3864 56.6648 7.68182C56.6648 4.95455 55.0739 3.15909 52.7102 3.15909C50.3466 3.15909 48.7557 4.95455 48.7557 7.68182C48.7557 10.3864 50.3466 12.1818 52.7102 12.1818ZM52.7102 10.9773C50.9148 10.9773 50.0966 9.43182 50.0966 7.68182C50.0966 5.93182 50.9148 4.36364 52.7102 4.36364C54.5057 4.36364 55.3239 5.93182 55.3239 7.68182C55.3239 9.43182 54.5057 10.9773 52.7102 10.9773ZM63.7116 6.38636H58.6207V7.63636H63.7116V6.38636ZM66.071 12H67.4119V6.47727C67.4119 5.29545 68.3438 4.43182 69.6165 4.43182C69.9744 4.43182 70.3438 4.5 70.4347 4.52273V3.15909C70.2812 3.14773 69.929 3.13636 69.7301 3.13636C68.6847 3.13636 67.7756 3.72727 67.4574 4.59091H67.3665V3.27273H66.071V12ZM75.4176 12.1818C77.1903 12.1818 78.4858 11.2955 78.8949 9.97727L77.5994 9.61364C77.2585 10.5227 76.4688 10.9773 75.4176 10.9773C73.8438 10.9773 72.7585 9.96023 72.696 8.09091H79.0312V7.52273C79.0312 4.27273 77.0994 3.15909 75.2812 3.15909C72.9176 3.15909 71.3494 5.02273 71.3494 7.70455C71.3494 10.3864 72.8949 12.1818 75.4176 12.1818ZM72.696 6.93182C72.7869 5.57386 73.7472 4.36364 75.2812 4.36364C76.7358 4.36364 77.6676 5.45455 77.6676 6.93182H72.696ZM83.6392 12.2045C85.1619 12.2045 85.9574 11.3864 86.2301 10.8182H86.2983V12H87.6392V6.25C87.6392 3.47727 85.5256 3.15909 84.4119 3.15909C83.0938 3.15909 81.5938 3.61364 80.9119 5.20455L82.1847 5.65909C82.4801 5.02273 83.179 4.34091 84.4574 4.34091C85.6903 4.34091 86.2983 4.99432 86.2983 6.11364V6.15909C86.2983 6.80682 85.6392 6.75 84.0483 6.95455C82.429 7.16477 80.6619 7.52273 80.6619 9.52273C80.6619 11.2273 81.9801 12.2045 83.6392 12.2045ZM83.8438 11C82.7756 11 82.0028 10.5227 82.0028 9.59091C82.0028 8.56818 82.9347 8.25 83.9801 8.11364C84.5483 8.04545 86.071 7.88636 86.2983 7.61364V8.84091C86.2983 9.93182 85.4347 11 83.8438 11ZM93.3821 12.1818C95.0639 12.1818 95.6321 11.1364 95.9276 10.6591H96.0866V12H97.3821V0.363636H96.0412V4.65909H95.9276C95.6321 4.20455 95.1094 3.15909 93.4048 3.15909C91.2003 3.15909 89.6776 4.90909 89.6776 7.65909C89.6776 10.4318 91.2003 12.1818 93.3821 12.1818ZM93.5639 10.9773C91.8821 10.9773 91.0185 9.5 91.0185 7.63636C91.0185 5.79545 91.8594 4.36364 93.5639 4.36364C95.2003 4.36364 96.0639 5.68182 96.0639 7.63636C96.0639 9.61364 95.1776 10.9773 93.5639 10.9773ZM104.524 12H105.865V6.47727C105.865 5.29545 106.797 4.43182 108.07 4.43182C108.428 4.43182 108.797 4.5 108.888 4.52273V3.15909C108.734 3.14773 108.382 3.13636 108.183 3.13636C107.138 3.13636 106.229 3.72727 105.911 4.59091H105.82V3.27273H104.524V12ZM113.871 12.1818C115.643 12.1818 116.939 11.2955 117.348 9.97727L116.053 9.61364C115.712 10.5227 114.922 10.9773 113.871 10.9773C112.297 10.9773 111.212 9.96023 111.149 8.09091H117.484V7.52273C117.484 4.27273 115.553 3.15909 113.734 3.15909C111.371 3.15909 109.803 5.02273 109.803 7.70455C109.803 10.3864 111.348 12.1818 113.871 12.1818ZM111.149 6.93182C111.24 5.57386 112.2 4.36364 113.734 4.36364C115.189 4.36364 116.121 5.45455 116.121 6.93182H111.149ZM119.524 15.2727H120.865V10.6591H120.979C121.274 11.1364 121.842 12.1818 123.524 12.1818C125.706 12.1818 127.229 10.4318 127.229 7.65909C127.229 4.90909 125.706 3.15909 123.501 3.15909C121.797 3.15909 121.274 4.20455 120.979 4.65909H120.82V3.27273H119.524V15.2727ZM120.842 7.63636C120.842 5.68182 121.706 4.36364 123.342 4.36364C125.047 4.36364 125.888 5.79545 125.888 7.63636C125.888 9.5 125.024 10.9773 123.342 10.9773C121.729 10.9773 120.842 9.61364 120.842 7.63636ZM132.82 12.1818C135.183 12.1818 136.774 10.3864 136.774 7.68182C136.774 4.95455 135.183 3.15909 132.82 3.15909C130.456 3.15909 128.865 4.95455 128.865 7.68182C128.865 10.3864 130.456 12.1818 132.82 12.1818ZM132.82 10.9773C131.024 10.9773 130.206 9.43182 130.206 7.68182C130.206 5.93182 131.024 4.36364 132.82 4.36364C134.615 4.36364 135.433 5.93182 135.433 7.68182C135.433 9.43182 134.615 10.9773 132.82 10.9773ZM138.821 12H140.162V6.47727C140.162 5.29545 141.094 4.43182 142.366 4.43182C142.724 4.43182 143.094 4.5 143.185 4.52273V3.15909C143.031 3.14773 142.679 3.13636 142.48 3.13636C141.435 3.13636 140.526 3.72727 140.207 4.59091H140.116V3.27273H138.821V12ZM149.116 3.27273H147.253V1.18182H145.912V3.27273H144.594V4.40909H145.912V9.86364C145.912 11.3864 147.139 12.1136 148.276 12.1136C148.776 12.1136 149.094 12.0227 149.276 11.9545L149.003 10.75C148.889 10.7727 148.707 10.8182 148.412 10.8182C147.821 10.8182 147.253 10.6364 147.253 9.5V4.40909H149.116V3.27273ZM157.159 5.22727C156.739 3.98864 155.795 3.15909 154.068 3.15909C152.227 3.15909 150.864 4.20455 150.864 5.68182C150.864 6.88636 151.58 7.69318 153.182 8.06818L154.636 8.40909C155.517 8.61364 155.932 9.03409 155.932 9.63636C155.932 10.3864 155.136 11 153.886 11C152.79 11 152.102 10.5284 151.864 9.59091L150.591 9.90909C150.903 11.392 152.125 12.1818 153.909 12.1818C155.938 12.1818 157.318 11.0739 157.318 9.56818C157.318 8.35227 156.557 7.58523 155 7.20455L153.705 6.88636C152.67 6.63068 152.205 6.28409 152.205 5.61364C152.205 4.86364 153 4.31818 154.068 4.31818C155.239 4.31818 155.722 4.96591 155.955 5.56818L157.159 5.22727ZM166.405 12.2045C167.928 12.2045 168.723 11.3864 168.996 10.8182H169.064V12H170.405V6.25C170.405 3.47727 168.291 3.15909 167.178 3.15909C165.859 3.15909 164.359 3.61364 163.678 5.20455L164.95 5.65909C165.246 5.02273 165.945 4.34091 167.223 4.34091C168.456 4.34091 169.064 4.99432 169.064 6.11364V6.15909C169.064 6.80682 168.405 6.75 166.814 6.95455C165.195 7.16477 163.428 7.52273 163.428 9.52273C163.428 11.2273 164.746 12.2045 166.405 12.2045ZM166.609 11C165.541 11 164.768 10.5227 164.768 9.59091C164.768 8.56818 165.7 8.25 166.746 8.11364C167.314 8.04545 168.837 7.88636 169.064 7.61364V8.84091C169.064 9.93182 168.2 11 166.609 11ZM174.193 6.75C174.193 5.22727 175.136 4.36364 176.42 4.36364C177.665 4.36364 178.42 5.17614 178.42 6.54545V12H179.761V6.45455C179.761 4.22727 178.574 3.15909 176.807 3.15909C175.489 3.15909 174.67 3.75 174.261 4.63636H174.148V3.27273H172.852V12H174.193V6.75ZM185.507 12.1818C187.189 12.1818 187.757 11.1364 188.053 10.6591H188.212V12H189.507V0.363636H188.166V4.65909H188.053C187.757 4.20455 187.234 3.15909 185.53 3.15909C183.325 3.15909 181.803 4.90909 181.803 7.65909C181.803 10.4318 183.325 12.1818 185.507 12.1818ZM185.689 10.9773C184.007 10.9773 183.143 9.5 183.143 7.63636C183.143 5.79545 183.984 4.36364 185.689 4.36364C187.325 4.36364 188.189 5.68182 188.189 7.63636C188.189 9.61364 187.303 10.9773 185.689 10.9773ZM202.831 5.22727C202.411 3.98864 201.467 3.15909 199.74 3.15909C197.899 3.15909 196.536 4.20455 196.536 5.68182C196.536 6.88636 197.251 7.69318 198.854 8.06818L200.308 8.40909C201.189 8.61364 201.604 9.03409 201.604 9.63636C201.604 10.3864 200.808 11 199.558 11C198.462 11 197.774 10.5284 197.536 9.59091L196.263 9.90909C196.575 11.392 197.797 12.1818 199.581 12.1818C201.609 12.1818 202.99 11.0739 202.99 9.56818C202.99 8.35227 202.229 7.58523 200.672 7.20455L199.376 6.88636C198.342 6.63068 197.876 6.28409 197.876 5.61364C197.876 4.86364 198.672 4.31818 199.74 4.31818C200.911 4.31818 201.393 4.96591 201.626 5.56818L202.831 5.22727ZM206.349 6.75C206.349 5.22727 207.321 4.36364 208.645 4.36364C209.906 4.36364 210.668 5.15909 210.668 6.54545V12H212.009V6.45455C212.009 4.21023 210.815 3.15909 209.031 3.15909C207.656 3.15909 206.872 3.73295 206.463 4.63636H206.349V0.363636H205.009V12H206.349V6.75ZM217.03 12.2045C218.553 12.2045 219.348 11.3864 219.621 10.8182H219.689V12H221.03V6.25C221.03 3.47727 218.916 3.15909 217.803 3.15909C216.484 3.15909 214.984 3.61364 214.303 5.20455L215.575 5.65909C215.871 5.02273 216.57 4.34091 217.848 4.34091C219.081 4.34091 219.689 4.99432 219.689 6.11364V6.15909C219.689 6.80682 219.03 6.75 217.439 6.95455C215.82 7.16477 214.053 7.52273 214.053 9.52273C214.053 11.2273 215.371 12.2045 217.03 12.2045ZM217.234 11C216.166 11 215.393 10.5227 215.393 9.59091C215.393 8.56818 216.325 8.25 217.371 8.11364C217.939 8.04545 219.462 7.88636 219.689 7.61364V8.84091C219.689 9.93182 218.825 11 217.234 11ZM223.477 12H224.818V6.47727C224.818 5.29545 225.75 4.43182 227.023 4.43182C227.381 4.43182 227.75 4.5 227.841 4.52273V3.15909C227.688 3.14773 227.335 3.13636 227.136 3.13636C226.091 3.13636 225.182 3.72727 224.864 4.59091H224.773V3.27273H223.477V12ZM231.999 12.2045C233.521 12.2045 234.317 11.3864 234.589 10.8182H234.658V12H235.999V6.25C235.999 3.47727 233.885 3.15909 232.771 3.15909C231.453 3.15909 229.953 3.61364 229.271 5.20455L230.544 5.65909C230.839 5.02273 231.538 4.34091 232.817 4.34091C234.05 4.34091 234.658 4.99432 234.658 6.11364V6.15909C234.658 6.80682 233.999 6.75 232.408 6.95455C230.788 7.16477 229.021 7.52273 229.021 9.52273C229.021 11.2273 230.339 12.2045 231.999 12.2045ZM232.203 11C231.135 11 230.362 10.5227 230.362 9.59091C230.362 8.56818 231.294 8.25 232.339 8.11364C232.908 8.04545 234.43 7.88636 234.658 7.61364V8.84091C234.658 9.93182 233.794 11 232.203 11ZM238.628 12H239.923V10.6591H240.082C240.378 11.1364 240.946 12.1818 242.628 12.1818C244.81 12.1818 246.332 10.4318 246.332 7.65909C246.332 4.90909 244.81 3.15909 242.605 3.15909C240.901 3.15909 240.378 4.20455 240.082 4.65909H239.969V0.363636H238.628V12ZM239.946 7.63636C239.946 5.68182 240.81 4.36364 242.446 4.36364C244.151 4.36364 244.991 5.79545 244.991 7.63636C244.991 9.5 244.128 10.9773 242.446 10.9773C240.832 10.9773 239.946 9.61364 239.946 7.63636ZM249.724 0.363636H248.384V12H249.724V0.363636ZM255.839 12.1818C257.612 12.1818 258.908 11.2955 259.317 9.97727L258.021 9.61364C257.68 10.5227 256.891 10.9773 255.839 10.9773C254.266 10.9773 253.18 9.96023 253.118 8.09091H259.453V7.52273C259.453 4.27273 257.521 3.15909 255.703 3.15909C253.339 3.15909 251.771 5.02273 251.771 7.70455C251.771 10.3864 253.317 12.1818 255.839 12.1818ZM253.118 6.93182C253.209 5.57386 254.169 4.36364 255.703 4.36364C257.158 4.36364 258.089 5.45455 258.089 6.93182H253.118ZM0.227273 36H1.56818V30.4773C1.56818 29.2955 2.5 28.4318 3.77273 28.4318C4.13068 28.4318 4.5 28.5 4.59091 28.5227V27.1591C4.4375 27.1477 4.08523 27.1364 3.88636 27.1364C2.84091 27.1364 1.93182 27.7273 1.61364 28.5909H1.52273V27.2727H0.227273V36ZM9.57386 36.1818C11.3466 36.1818 12.642 35.2955 13.0511 33.9773L11.7557 33.6136C11.4148 34.5227 10.625 34.9773 9.57386 34.9773C8 34.9773 6.91477 33.9602 6.85227 32.0909H13.1875V31.5227C13.1875 28.2727 11.2557 27.1591 9.4375 27.1591C7.07386 27.1591 5.50568 29.0227 5.50568 31.7045C5.50568 34.3864 7.05114 36.1818 9.57386 36.1818ZM6.85227 30.9318C6.94318 29.5739 7.90341 28.3636 9.4375 28.3636C10.892 28.3636 11.8239 29.4545 11.8239 30.9318H6.85227ZM21.4091 29.2273C20.9886 27.9886 20.0455 27.1591 18.3182 27.1591C16.4773 27.1591 15.1136 28.2045 15.1136 29.6818C15.1136 30.8864 15.8295 31.6932 17.4318 32.0682L18.8864 32.4091C19.767 32.6136 20.1818 33.0341 20.1818 33.6364C20.1818 34.3864 19.3864 35 18.1364 35C17.0398 35 16.3523 34.5284 16.1136 33.5909L14.8409 33.9091C15.1534 35.392 16.375 36.1818 18.1591 36.1818C20.1875 36.1818 21.5682 35.0739 21.5682 33.5682C21.5682 32.3523 20.8068 31.5852 19.25 31.2045L17.9545 30.8864C16.9205 30.6307 16.4545 30.2841 16.4545 29.6136C16.4545 28.8636 17.25 28.3182 18.3182 28.3182C19.4886 28.3182 19.9716 28.9659 20.2045 29.5682L21.4091 29.2273ZM29.0866 32.4318C29.0866 34.0682 27.8366 34.8182 26.8366 34.8182C25.723 34.8182 24.9276 34 24.9276 32.7273V27.2727H23.5866V32.8182C23.5866 35.0455 24.7685 36.1136 26.4048 36.1136C27.723 36.1136 28.5866 35.4091 28.9957 34.5227H29.0866V36H30.4276V27.2727H29.0866V32.4318ZM34.2244 24.3636H32.8835V36H34.2244V24.3636ZM40.4759 27.2727H38.6122V25.1818H37.2713V27.2727H35.9531V28.4091H37.2713V33.8636C37.2713 35.3864 38.4986 36.1136 39.6349 36.1136C40.1349 36.1136 40.4531 36.0227 40.6349 35.9545L40.3622 34.75C40.2486 34.7727 40.0668 34.8182 39.7713 34.8182C39.1804 34.8182 38.6122 34.6364 38.6122 33.5V28.4091H40.4759V27.2727ZM48.5185 29.2273C48.098 27.9886 47.1548 27.1591 45.4276 27.1591C43.5866 27.1591 42.223 28.2045 42.223 29.6818C42.223 30.8864 42.9389 31.6932 44.5412 32.0682L45.9957 32.4091C46.8764 32.6136 47.2912 33.0341 47.2912 33.6364C47.2912 34.3864 46.4957 35 45.2457 35C44.1491 35 43.4616 34.5284 43.223 33.5909L41.9503 33.9091C42.2628 35.392 43.4844 36.1818 45.2685 36.1818C47.2969 36.1818 48.6776 35.0739 48.6776 33.5682C48.6776 32.3523 47.9162 31.5852 46.3594 31.2045L45.0639 30.8864C44.0298 30.6307 43.5639 30.2841 43.5639 29.6136C43.5639 28.8636 44.3594 28.3182 45.4276 28.3182C46.598 28.3182 47.081 28.9659 47.3139 29.5682L48.5185 29.2273ZM56.5369 30.75C56.5369 29.2273 57.5085 28.3636 58.8324 28.3636C60.0938 28.3636 60.8551 29.1591 60.8551 30.5455V36H62.196V30.4545C62.196 28.2102 61.0028 27.1591 59.2188 27.1591C57.8438 27.1591 57.0597 27.733 56.6506 28.6364H56.5369V24.3636H55.196V36H56.5369V30.75ZM68.3082 36.1818C70.081 36.1818 71.3764 35.2955 71.7855 33.9773L70.4901 33.6136C70.1491 34.5227 69.3594 34.9773 68.3082 34.9773C66.7344 34.9773 65.6491 33.9602 65.5866 32.0909H71.9219V31.5227C71.9219 28.2727 69.9901 27.1591 68.1719 27.1591C65.8082 27.1591 64.2401 29.0227 64.2401 31.7045C64.2401 34.3864 65.7855 36.1818 68.3082 36.1818ZM65.5866 30.9318C65.6776 29.5739 66.6378 28.3636 68.1719 28.3636C69.6264 28.3636 70.5582 29.4545 70.5582 30.9318H65.5866ZM75.3026 24.3636H73.9616V36H75.3026V24.3636ZM77.7585 39.2727H79.0994V34.6591H79.2131C79.5085 35.1364 80.0767 36.1818 81.7585 36.1818C83.9403 36.1818 85.4631 34.4318 85.4631 31.6591C85.4631 28.9091 83.9403 27.1591 81.7358 27.1591C80.0312 27.1591 79.5085 28.2045 79.2131 28.6591H79.054V27.2727H77.7585V39.2727ZM79.0767 31.6364C79.0767 29.6818 79.9403 28.3636 81.5767 28.3636C83.2812 28.3636 84.1222 29.7955 84.1222 31.6364C84.1222 33.5 83.2585 34.9773 81.5767 34.9773C79.9631 34.9773 79.0767 33.6136 79.0767 31.6364ZM92.0085 36H93.3494V30.5455C93.3494 29.267 94.2812 28.3636 95.3267 28.3636C96.3438 28.3636 97.054 29.0284 97.054 30.0227V36H98.4176V30.3182C98.4176 29.1932 99.1222 28.3636 100.349 28.3636C101.304 28.3636 102.122 28.8693 102.122 30.1591V36H103.463V30.1591C103.463 28.108 102.361 27.1591 100.804 27.1591C99.554 27.1591 98.6392 27.733 98.1903 28.6364H98.0994C97.6676 27.7045 96.9062 27.1591 95.7585 27.1591C94.6222 27.1591 93.7812 27.7045 93.4176 28.6364H93.304V27.2727H92.0085V36ZM108.483 36.2045C110.006 36.2045 110.801 35.3864 111.074 34.8182H111.142V36H112.483V30.25C112.483 27.4773 110.369 27.1591 109.256 27.1591C107.938 27.1591 106.438 27.6136 105.756 29.2045L107.028 29.6591C107.324 29.0227 108.023 28.3409 109.301 28.3409C110.534 28.3409 111.142 28.9943 111.142 30.1136V30.1591C111.142 30.8068 110.483 30.75 108.892 30.9545C107.273 31.1648 105.506 31.5227 105.506 33.5227C105.506 35.2273 106.824 36.2045 108.483 36.2045ZM108.688 35C107.619 35 106.847 34.5227 106.847 33.5909C106.847 32.5682 107.778 32.25 108.824 32.1136C109.392 32.0455 110.915 31.8864 111.142 31.6136V32.8409C111.142 33.9318 110.278 35 108.688 35ZM116.271 30.75C116.271 29.2273 117.214 28.3636 118.499 28.3636C119.743 28.3636 120.499 29.1761 120.499 30.5455V36H121.839V30.4545C121.839 28.2273 120.652 27.1591 118.885 27.1591C117.567 27.1591 116.749 27.75 116.339 28.6364H116.226V27.2727H114.93V36H116.271V30.75ZM126.858 36.2045C128.381 36.2045 129.176 35.3864 129.449 34.8182H129.517V36H130.858V30.25C130.858 27.4773 128.744 27.1591 127.631 27.1591C126.312 27.1591 124.812 27.6136 124.131 29.2045L125.403 29.6591C125.699 29.0227 126.398 28.3409 127.676 28.3409C128.909 28.3409 129.517 28.9943 129.517 30.1136V30.1591C129.517 30.8068 128.858 30.75 127.267 30.9545C125.648 31.1648 123.881 31.5227 123.881 33.5227C123.881 35.2273 125.199 36.2045 126.858 36.2045ZM127.062 35C125.994 35 125.222 34.5227 125.222 33.5909C125.222 32.5682 126.153 32.25 127.199 32.1136C127.767 32.0455 129.29 31.8864 129.517 31.6136V32.8409C129.517 33.9318 128.653 35 127.062 35ZM136.828 39.4545C138.919 39.4545 140.601 38.5 140.601 36.25V27.2727H139.305V28.6591H139.169C138.874 28.2045 138.328 27.1591 136.624 27.1591C134.419 27.1591 132.896 28.9091 132.896 31.5909C132.896 34.3182 134.487 35.8636 136.601 35.8636C138.305 35.8636 138.851 34.8636 139.146 34.3864H139.26V36.1591C139.26 37.6136 138.237 38.2727 136.828 38.2727C135.243 38.2727 134.686 37.4375 134.328 36.9545L133.26 37.7045C133.805 38.6193 134.879 39.4545 136.828 39.4545ZM136.783 34.6591C135.101 34.6591 134.237 33.3864 134.237 31.5682C134.237 29.7955 135.078 28.3636 136.783 28.3636C138.419 28.3636 139.283 29.6818 139.283 31.5682C139.283 33.5 138.396 34.6591 136.783 34.6591ZM146.714 36.1818C148.487 36.1818 149.783 35.2955 150.192 33.9773L148.896 33.6136C148.555 34.5227 147.766 34.9773 146.714 34.9773C145.141 34.9773 144.055 33.9602 143.993 32.0909H150.328V31.5227C150.328 28.2727 148.396 27.1591 146.578 27.1591C144.214 27.1591 142.646 29.0227 142.646 31.7045C142.646 34.3864 144.192 36.1818 146.714 36.1818ZM143.993 30.9318C144.084 29.5739 145.044 28.3636 146.578 28.3636C148.033 28.3636 148.964 29.4545 148.964 30.9318H143.993ZM152.368 36H153.709V30.4773C153.709 29.2955 154.641 28.4318 155.913 28.4318C156.271 28.4318 156.641 28.5 156.732 28.5227V27.1591C156.578 27.1477 156.226 27.1364 156.027 27.1364C154.982 27.1364 154.072 27.7273 153.754 28.5909H153.663V27.2727H152.368V36ZM164.503 29.2273C164.082 27.9886 163.139 27.1591 161.412 27.1591C159.571 27.1591 158.207 28.2045 158.207 29.6818C158.207 30.8864 158.923 31.6932 160.526 32.0682L161.98 32.4091C162.861 32.6136 163.276 33.0341 163.276 33.6364C163.276 34.3864 162.48 35 161.23 35C160.134 35 159.446 34.5284 159.207 33.5909L157.935 33.9091C158.247 35.392 159.469 36.1818 161.253 36.1818C163.281 36.1818 164.662 35.0739 164.662 33.5682C164.662 32.3523 163.901 31.5852 162.344 31.2045L161.048 30.8864C160.014 30.6307 159.548 30.2841 159.548 29.6136C159.548 28.8636 160.344 28.3182 161.412 28.3182C162.582 28.3182 163.065 28.9659 163.298 29.5682L164.503 29.2273ZM173.749 36.2045C175.271 36.2045 176.067 35.3864 176.339 34.8182H176.408V36H177.749V30.25C177.749 27.4773 175.635 27.1591 174.521 27.1591C173.203 27.1591 171.703 27.6136 171.021 29.2045L172.294 29.6591C172.589 29.0227 173.288 28.3409 174.567 28.3409C175.8 28.3409 176.408 28.9943 176.408 30.1136V30.1591C176.408 30.8068 175.749 30.75 174.158 30.9545C172.538 31.1648 170.771 31.5227 170.771 33.5227C170.771 35.2273 172.089 36.2045 173.749 36.2045ZM173.953 35C172.885 35 172.112 34.5227 172.112 33.5909C172.112 32.5682 173.044 32.25 174.089 32.1136C174.658 32.0455 176.18 31.8864 176.408 31.6136V32.8409C176.408 33.9318 175.544 35 173.953 35ZM181.537 30.75C181.537 29.2273 182.48 28.3636 183.764 28.3636C185.009 28.3636 185.764 29.1761 185.764 30.5455V36H187.105V30.4545C187.105 28.2273 185.918 27.1591 184.151 27.1591C182.832 27.1591 182.014 27.75 181.605 28.6364H181.491V27.2727H180.196V36H181.537V30.75ZM192.851 36.1818C194.533 36.1818 195.101 35.1364 195.396 34.6591H195.555V36H196.851V24.3636H195.51V28.6591H195.396C195.101 28.2045 194.578 27.1591 192.874 27.1591C190.669 27.1591 189.146 28.9091 189.146 31.6591C189.146 34.4318 190.669 36.1818 192.851 36.1818ZM193.033 34.9773C191.351 34.9773 190.487 33.5 190.487 31.6364C190.487 29.7955 191.328 28.3636 193.033 28.3636C194.669 28.3636 195.533 29.6818 195.533 31.6364C195.533 33.6136 194.646 34.9773 193.033 34.9773ZM207.788 27.2727H205.925V25.1818H204.584V27.2727H203.266V28.4091H204.584V33.8636C204.584 35.3864 205.811 36.1136 206.947 36.1136C207.447 36.1136 207.766 36.0227 207.947 35.9545L207.675 34.75C207.561 34.7727 207.379 34.8182 207.084 34.8182C206.493 34.8182 205.925 34.6364 205.925 33.5V28.4091H207.788V27.2727ZM213.371 36.1818C215.143 36.1818 216.439 35.2955 216.848 33.9773L215.553 33.6136C215.212 34.5227 214.422 34.9773 213.371 34.9773C211.797 34.9773 210.712 33.9602 210.649 32.0909H216.984V31.5227C216.984 28.2727 215.053 27.1591 213.234 27.1591C210.871 27.1591 209.303 29.0227 209.303 31.7045C209.303 34.3864 210.848 36.1818 213.371 36.1818ZM210.649 30.9318C210.74 29.5739 211.7 28.3636 213.234 28.3636C214.689 28.3636 215.621 29.4545 215.621 30.9318H210.649ZM221.592 36.2045C223.115 36.2045 223.911 35.3864 224.183 34.8182H224.251V36H225.592V30.25C225.592 27.4773 223.479 27.1591 222.365 27.1591C221.047 27.1591 219.547 27.6136 218.865 29.2045L220.138 29.6591C220.433 29.0227 221.132 28.3409 222.411 28.3409C223.643 28.3409 224.251 28.9943 224.251 30.1136V30.1591C224.251 30.8068 223.592 30.75 222.001 30.9545C220.382 31.1648 218.615 31.5227 218.615 33.5227C218.615 35.2273 219.933 36.2045 221.592 36.2045ZM221.797 35C220.729 35 219.956 34.5227 219.956 33.5909C219.956 32.5682 220.888 32.25 221.933 32.1136C222.501 32.0455 224.024 31.8864 224.251 31.6136V32.8409C224.251 33.9318 223.388 35 221.797 35ZM228.04 36H229.381V30.5455C229.381 29.267 230.312 28.3636 231.358 28.3636C232.375 28.3636 233.085 29.0284 233.085 30.0227V36H234.449V30.3182C234.449 29.1932 235.153 28.3636 236.381 28.3636C237.335 28.3636 238.153 28.8693 238.153 30.1591V36H239.494V30.1591C239.494 28.108 238.392 27.1591 236.835 27.1591C235.585 27.1591 234.67 27.733 234.222 28.6364H234.131C233.699 27.7045 232.938 27.1591 231.79 27.1591C230.653 27.1591 229.812 27.7045 229.449 28.6364H229.335V27.2727H228.04V36ZM248.128 29.2273C247.707 27.9886 246.764 27.1591 245.037 27.1591C243.196 27.1591 241.832 28.2045 241.832 29.6818C241.832 30.8864 242.548 31.6932 244.151 32.0682L245.605 32.4091C246.486 32.6136 246.901 33.0341 246.901 33.6364C246.901 34.3864 246.105 35 244.855 35C243.759 35 243.071 34.5284 242.832 33.5909L241.56 33.9091C241.872 35.392 243.094 36.1818 244.878 36.1818C246.906 36.1818 248.287 35.0739 248.287 33.5682C248.287 32.3523 247.526 31.5852 245.969 31.2045L244.673 30.8864C243.639 30.6307 243.173 30.2841 243.173 29.6136C243.173 28.8636 243.969 28.3182 245.037 28.3182C246.207 28.3182 246.69 28.9659 246.923 29.5682L248.128 29.2273ZM251.283 36.0909C251.845 36.0909 252.305 35.6307 252.305 35.0682C252.305 34.5057 251.845 34.0455 251.283 34.0455C250.72 34.0455 250.26 34.5057 250.26 35.0682C250.26 35.6307 250.72 36.0909 251.283 36.0909Z" fill="#4E5A65"/>
</svg>
