<svg width="173" height="18" viewBox="0 0 173 18" fill="none" xmlns="http://www.w3.org/2000/svg">
<path d="M0.291193 14H8.85653V12.0121H2.66264V8.43892H8.36435V6.45099H2.66264V2.89702H8.8054V0.909091H0.291193V14ZM13.0146 4.18182H10.56L13.4748 9.09091L10.4833 14H12.9379L14.9961 10.4652L17.0735 14H19.5089L16.4982 9.09091L19.4577 4.18182H17.0096L14.9961 7.80611L13.0146 4.18182ZM25.161 14.1918C27.6284 14.1918 29.2008 12.728 29.367 10.6442H27.1554C26.9572 11.6989 26.1966 12.3061 25.1802 12.3061C23.7356 12.3061 22.8024 11.098 22.8024 9.09091C22.8024 7.10938 23.7548 5.92045 25.1802 5.92045C26.2924 5.92045 26.9764 6.63636 27.1554 7.58239H29.367C29.2072 5.45384 27.5453 4.05398 25.1483 4.05398C22.2718 4.05398 20.4565 6.13139 20.4565 9.12926C20.4565 12.1016 22.2271 14.1918 25.161 14.1918ZM33.581 0.909091H31.267V14H33.581V0.909091ZM42.2182 9.87074C42.2182 11.3665 41.1507 12.108 40.128 12.108C39.0158 12.108 38.2743 11.3217 38.2743 10.0753V4.18182H35.9604V10.4332C35.9604 12.7919 37.3027 14.1278 39.2331 14.1278C40.7033 14.1278 41.7388 13.3544 42.1863 12.255H42.2885V14H44.5321V4.18182H42.2182V9.87074ZM54.6715 6.77699C54.3519 5.11506 53.0224 4.05398 50.7212 4.05398C48.3562 4.05398 46.7454 5.21733 46.7518 7.03267C46.7454 8.46449 47.6275 9.41051 49.5131 9.80043L51.1879 10.152C52.0891 10.3501 52.511 10.7145 52.511 11.2706C52.511 11.9418 51.7823 12.4467 50.6829 12.4467C49.6218 12.4467 48.9315 11.9865 48.7333 11.1044L46.4769 11.3217C46.7646 13.1243 48.2795 14.1918 50.6893 14.1918C53.1438 14.1918 54.8761 12.9197 54.8825 11.0597C54.8761 9.6598 53.9748 8.80327 52.1211 8.40057L50.4464 8.04261C49.4492 7.81889 49.0529 7.47372 49.0593 6.90483C49.0529 6.24006 49.788 5.77983 50.7532 5.77983C51.8207 5.77983 52.3832 6.36151 52.5621 7.0071L54.6715 6.77699ZM56.7905 14H59.1044V4.18182H56.7905V14ZM57.9538 2.78835C58.6889 2.78835 59.2898 2.22585 59.2898 1.53551C59.2898 0.838778 58.6889 0.276278 57.9538 0.276278C57.2124 0.276278 56.6115 0.838778 56.6115 1.53551C56.6115 2.22585 57.2124 2.78835 57.9538 2.78835ZM70.2537 4.18182H67.7928L65.53 11.4751H65.4277L63.1713 4.18182H60.704L64.2005 14H66.7573L70.2537 4.18182ZM75.8675 14.1918C78.1559 14.1918 79.7283 13.0732 80.1374 11.3665L77.9769 11.1236C77.6637 11.9545 76.8967 12.3892 75.8995 12.3892C74.4038 12.3892 73.413 11.4048 73.3938 9.72372H80.2333V9.0142C80.2333 5.56889 78.1623 4.05398 75.7461 4.05398C72.9336 4.05398 71.0991 6.11861 71.0991 9.14844C71.0991 12.2294 72.908 14.1918 75.8675 14.1918ZM73.4002 8.16406C73.4705 6.91122 74.3974 5.85653 75.7781 5.85653C77.1076 5.85653 78.0025 6.82812 78.0153 8.16406H73.4002ZM89.9508 6.77699C89.6312 5.11506 88.3017 4.05398 86.0005 4.05398C83.6355 4.05398 82.0247 5.21733 82.0311 7.03267C82.0247 8.46449 82.9068 9.41051 84.7924 9.80043L86.4672 10.152C87.3684 10.3501 87.7903 10.7145 87.7903 11.2706C87.7903 11.9418 87.0616 12.4467 85.9622 12.4467C84.9011 12.4467 84.2108 11.9865 84.0126 11.1044L81.7562 11.3217C82.0439 13.1243 83.5588 14.1918 85.9686 14.1918C88.4231 14.1918 90.1554 12.9197 90.1618 11.0597C90.1554 9.6598 89.2541 8.80327 87.4004 8.40057L85.7257 8.04261C84.7285 7.81889 84.3322 7.47372 84.3386 6.90483C84.3322 6.24006 85.0673 5.77983 86.0325 5.77983C87.1 5.77983 87.6625 6.36151 87.8414 7.0071L89.9508 6.77699ZM96.6369 0.909091V14H98.9125V4.98722H99.0339L102.652 13.9616H104.352L107.97 5.00639H108.091V14H110.367V0.909091H107.465L103.579 10.3949H103.425L99.5389 0.909091H96.6369ZM115.672 14.1982C117.213 14.1982 118.133 13.4759 118.555 12.6513H118.632V14H120.856V7.42898C120.856 4.83381 118.741 4.05398 116.868 4.05398C114.803 4.05398 113.218 4.97443 112.706 6.7642L114.867 7.07102C115.097 6.39986 115.749 5.82457 116.881 5.82457C117.954 5.82457 118.542 6.37429 118.542 7.33949V7.37784C118.542 8.04261 117.846 8.07457 116.113 8.25994C114.209 8.46449 112.387 9.03338 112.387 11.245C112.387 13.1754 113.8 14.1982 115.672 14.1982ZM116.273 12.4979C115.308 12.4979 114.618 12.0568 114.618 11.2067C114.618 10.3182 115.391 9.94744 116.427 9.80043C117.034 9.71733 118.248 9.56392 118.549 9.32102V10.478C118.549 11.571 117.667 12.4979 116.273 12.4979ZM125.497 8.24716C125.497 6.82812 126.354 6.00994 127.574 6.00994C128.77 6.00994 129.486 6.79616 129.486 8.10653V14H131.8V7.74858C131.806 5.39631 130.464 4.05398 128.437 4.05398C126.967 4.05398 125.957 4.7571 125.51 5.85014H125.395V4.18182H123.183V14H125.497V8.24716ZM136.977 14.1982C138.518 14.1982 139.438 13.4759 139.86 12.6513H139.937V14H142.161V7.42898C142.161 4.83381 140.045 4.05398 138.172 4.05398C136.108 4.05398 134.523 4.97443 134.011 6.7642L136.172 7.07102C136.402 6.39986 137.054 5.82457 138.185 5.82457C139.259 5.82457 139.847 6.37429 139.847 7.33949V7.37784C139.847 8.04261 139.15 8.07457 137.418 8.25994C135.513 8.46449 133.692 9.03338 133.692 11.245C133.692 13.1754 135.104 14.1982 136.977 14.1982ZM137.578 12.4979C136.613 12.4979 135.922 12.0568 135.922 11.2067C135.922 10.3182 136.696 9.94744 137.731 9.80043C138.339 9.71733 139.553 9.56392 139.854 9.32102V10.478C139.854 11.571 138.971 12.4979 137.578 12.4979ZM148.758 17.8864C151.41 17.8864 153.366 16.6719 153.366 14.1598V4.18182H151.084V5.8054H150.956C150.605 5.09588 149.87 4.05398 148.138 4.05398C145.868 4.05398 144.085 5.83097 144.085 9.05895C144.085 12.2614 145.868 13.8594 148.131 13.8594C149.812 13.8594 150.599 12.9581 150.956 12.2358H151.072V14.0959C151.072 15.5405 150.113 16.1349 148.796 16.1349C147.403 16.1349 146.789 15.4766 146.508 14.9013L144.424 15.4062C144.846 16.7805 146.258 17.8864 148.758 17.8864ZM148.777 12.044C147.249 12.044 146.444 10.8551 146.444 9.04616C146.444 7.26278 147.236 5.95241 148.777 5.95241C150.266 5.95241 151.084 7.18608 151.084 9.04616C151.084 10.919 150.253 12.044 148.777 12.044ZM160.084 14.1918C162.373 14.1918 163.945 13.0732 164.354 11.3665L162.194 11.1236C161.881 11.9545 161.113 12.3892 160.116 12.3892C158.621 12.3892 157.63 11.4048 157.611 9.72372H164.45V9.0142C164.45 5.56889 162.379 4.05398 159.963 4.05398C157.15 4.05398 155.316 6.11861 155.316 9.14844C155.316 12.2294 157.125 14.1918 160.084 14.1918ZM157.617 8.16406C157.687 6.91122 158.614 5.85653 159.995 5.85653C161.324 5.85653 162.219 6.82812 162.232 8.16406H157.617ZM166.408 14H168.722V8.22798C168.722 6.98153 169.661 6.09943 170.933 6.09943C171.323 6.09943 171.809 6.16974 172.007 6.23366V4.10511C171.796 4.06676 171.432 4.04119 171.176 4.04119C170.051 4.04119 169.112 4.6804 168.754 5.81818H168.651V4.18182H166.408V14Z" fill="#35414B"/>
</svg>
