<svg width="106" height="14" viewBox="0 0 106 14" fill="none" xmlns="http://www.w3.org/2000/svg">
<path d="M0.147727 13H2.25568V8.05682H7.09091V6.28977H2.25568V3.13068H7.60227V1.36364H0.147727V13ZM9.30682 13H11.3636V7.86932C11.3636 6.76136 12.1989 5.97727 13.3295 5.97727C13.6761 5.97727 14.108 6.03977 14.2841 6.09659V4.20455C14.0966 4.17045 13.7727 4.14773 13.5455 4.14773C12.5455 4.14773 11.7102 4.71591 11.392 5.72727H11.3011V4.27273H9.30682V13ZM17.9901 13.1761C19.3594 13.1761 20.1776 12.5341 20.5526 11.8011H20.6207V13H22.598V7.15909C22.598 4.85227 20.7173 4.15909 19.0526 4.15909C17.2173 4.15909 15.8082 4.97727 15.3537 6.56818L17.2741 6.84091C17.4787 6.24432 18.0582 5.73295 19.0639 5.73295C20.0185 5.73295 20.5412 6.22159 20.5412 7.07955V7.11364C20.5412 7.70455 19.9219 7.73295 18.3821 7.89773C16.6889 8.07955 15.0696 8.58523 15.0696 10.5511C15.0696 12.267 16.3253 13.1761 17.9901 13.1761ZM18.5241 11.6648C17.6662 11.6648 17.0526 11.2727 17.0526 10.517C17.0526 9.72727 17.7401 9.39773 18.6605 9.26705C19.2003 9.19318 20.2798 9.05682 20.5469 8.84091V9.86932C20.5469 10.8409 19.7628 11.6648 18.5241 11.6648ZM26.723 7.88636C26.723 6.625 27.4844 5.89773 28.5696 5.89773C29.6321 5.89773 30.2685 6.59659 30.2685 7.76136V13H32.3253V7.44318C32.331 5.35227 31.1378 4.15909 29.3366 4.15909C28.0298 4.15909 27.1321 4.78409 26.7344 5.75568H26.6321V4.27273H24.6662V13H26.723V7.88636ZM38.223 13.1705C40.4162 13.1705 41.8139 11.8693 41.9616 10.017H39.9957C39.8196 10.9545 39.1435 11.4943 38.2401 11.4943C36.956 11.4943 36.1264 10.4205 36.1264 8.63636C36.1264 6.875 36.973 5.81818 38.2401 5.81818C39.2287 5.81818 39.8366 6.45455 39.9957 7.29545H41.9616C41.8196 5.40341 40.3423 4.15909 38.2116 4.15909C35.6548 4.15909 34.0412 6.00568 34.0412 8.67045C34.0412 11.3125 35.6151 13.1705 38.223 13.1705ZM43.6506 13H45.7074V4.27273H43.6506V13ZM44.6847 3.03409C45.3381 3.03409 45.8722 2.53409 45.8722 1.92045C45.8722 1.30114 45.3381 0.801136 44.6847 0.801136C44.0256 0.801136 43.4915 1.30114 43.4915 1.92045C43.4915 2.53409 44.0256 3.03409 44.6847 3.03409ZM54.7202 6.57955C54.4361 5.10227 53.2543 4.15909 51.2088 4.15909C49.1065 4.15909 47.6747 5.19318 47.6804 6.80682C47.6747 8.07955 48.4588 8.92045 50.1349 9.26705L51.6236 9.57955C52.4247 9.75568 52.7997 10.0795 52.7997 10.5739C52.7997 11.1705 52.152 11.6193 51.1747 11.6193C50.2315 11.6193 49.6179 11.2102 49.4418 10.4261L47.4361 10.6193C47.6918 12.2216 49.0384 13.1705 51.1804 13.1705C53.3622 13.1705 54.902 12.0398 54.9077 10.3864C54.902 9.14205 54.1009 8.38068 52.4531 8.02273L50.9645 7.70455C50.0781 7.50568 49.7259 7.19886 49.7315 6.69318C49.7259 6.10227 50.3793 5.69318 51.2372 5.69318C52.1861 5.69318 52.6861 6.21023 52.8452 6.78409L54.7202 6.57955ZM60.4105 13.1705C62.6037 13.1705 64.0014 11.8693 64.1491 10.017H62.1832C62.0071 10.9545 61.331 11.4943 60.4276 11.4943C59.1435 11.4943 58.3139 10.4205 58.3139 8.63636C58.3139 6.875 59.1605 5.81818 60.4276 5.81818C61.4162 5.81818 62.0241 6.45455 62.1832 7.29545H64.1491C64.0071 5.40341 62.5298 4.15909 60.3991 4.15909C57.8423 4.15909 56.2287 6.00568 56.2287 8.67045C56.2287 11.3125 57.8026 13.1705 60.4105 13.1705ZM69.6449 13.1705C72.2017 13.1705 73.8267 11.3693 73.8267 8.67045C73.8267 5.96591 72.2017 4.15909 69.6449 4.15909C67.0881 4.15909 65.4631 5.96591 65.4631 8.67045C65.4631 11.3693 67.0881 13.1705 69.6449 13.1705ZM69.6562 11.5227C68.2415 11.5227 67.5483 10.2614 67.5483 8.66477C67.5483 7.06818 68.2415 5.78977 69.6562 5.78977C71.0483 5.78977 71.7415 7.06818 71.7415 8.66477C71.7415 10.2614 71.0483 11.5227 69.6562 11.5227ZM79.6321 13H84.3423C87.0071 13 88.3139 11.642 88.3139 9.82955C88.3139 8.06818 87.0639 7.03409 85.8253 6.97159V6.85795C86.9616 6.59091 87.8594 5.79545 87.8594 4.38068C87.8594 2.64773 86.6094 1.36364 84.0866 1.36364H79.6321V13ZM81.7401 11.2386V7.82955H84.0639C85.3651 7.82955 86.1719 8.625 86.1719 9.66477C86.1719 10.5909 85.5355 11.2386 84.0071 11.2386H81.7401ZM81.7401 6.3125V3.10227H83.8707C85.1094 3.10227 85.7514 3.75568 85.7514 4.65341C85.7514 5.67614 84.9219 6.3125 83.8253 6.3125H81.7401ZM93.9205 13.1705C95.9545 13.1705 97.3523 12.1761 97.7159 10.6591L95.7955 10.4432C95.517 11.1818 94.8352 11.5682 93.9489 11.5682C92.6193 11.5682 91.7386 10.6932 91.7216 9.19886H97.8011V8.56818C97.8011 5.50568 95.9602 4.15909 93.8125 4.15909C91.3125 4.15909 89.6818 5.99432 89.6818 8.6875C89.6818 11.4261 91.2898 13.1705 93.9205 13.1705ZM91.7273 7.8125C91.7898 6.69886 92.6136 5.76136 93.8409 5.76136C95.0227 5.76136 95.8182 6.625 95.8295 7.8125H91.7273ZM101.598 1.36364H99.5412V13H101.598V1.36364ZM105.77 1.36364H103.713V13H105.77V1.36364Z" fill="#4E5A65"/>
</svg>
