<svg width="122" height="14" viewBox="0 0 122 14" fill="none" xmlns="http://www.w3.org/2000/svg">
<path d="M9.21591 5.03977H11.017C10.625 2.77273 8.6875 1.20455 6.17614 1.20455C3.16477 1.20455 0.965909 3.47159 0.965909 7.1875C0.965909 10.8693 3.10227 13.1591 6.25568 13.1591C9.07955 13.1591 11.0966 11.3068 11.0966 8.36932V7.04545H6.52273V8.49432H9.39773C9.35795 10.3693 8.11932 11.5568 6.25568 11.5568C4.20455 11.5568 2.71023 10.0057 2.71023 7.17614C2.71023 4.35795 4.21591 2.80682 6.1875 2.80682C7.73295 2.80682 8.77841 3.65909 9.21591 5.03977ZM16.9503 13.1761C18.8537 13.1761 20.2003 12.2386 20.5866 10.8182L18.9787 10.5284C18.6719 11.3523 17.9332 11.7727 16.9673 11.7727C15.5128 11.7727 14.5355 10.8295 14.4901 9.14773H20.6946V8.54545C20.6946 5.39205 18.8082 4.15909 16.831 4.15909C14.3991 4.15909 12.7969 6.01136 12.7969 8.69318C12.7969 11.4034 14.3764 13.1761 16.9503 13.1761ZM14.4957 7.875C14.5639 6.63636 15.4616 5.5625 16.8423 5.5625C18.1605 5.5625 19.0241 6.53977 19.0298 7.875H14.4957ZM26.6534 4.27273H24.8636V2.18182H23.1648V4.27273H21.8864V5.63636H23.1648V10.7898C23.1591 12.375 24.3693 13.142 25.7102 13.1136C26.25 13.108 26.6136 13.0057 26.8125 12.9318L26.5057 11.5284C26.392 11.5511 26.1818 11.6023 25.9091 11.6023C25.358 11.6023 24.8636 11.4205 24.8636 10.4375V5.63636H26.6534V4.27273ZM39.3068 6.40341C38.9545 5.04545 37.892 4.15909 36.0057 4.15909C34.0341 4.15909 32.6364 5.19886 32.6364 6.74432C32.6364 7.98295 33.3864 8.80682 35.0227 9.17045L36.5 9.49432C37.3409 9.68182 37.733 10.0568 37.733 10.6023C37.733 11.2784 37.0114 11.8068 35.8977 11.8068C34.8807 11.8068 34.2273 11.3693 34.0227 10.5114L32.3807 10.7614C32.6648 12.3068 33.9489 13.1761 35.9091 13.1761C38.017 13.1761 39.4773 12.0568 39.4773 10.4773C39.4773 9.24432 38.6932 8.48295 37.0909 8.11364L35.7045 7.79545C34.7443 7.56818 34.3295 7.24432 34.3352 6.65341C34.3295 5.98295 35.0568 5.50568 36.0227 5.50568C37.0795 5.50568 37.5682 6.09091 37.767 6.67614L39.3068 6.40341ZM45.419 4.27273H43.6293V2.18182H41.9304V4.27273H40.652V5.63636H41.9304V10.7898C41.9247 12.375 43.1349 13.142 44.4759 13.1136C45.0156 13.108 45.3793 13.0057 45.5781 12.9318L45.2713 11.5284C45.1577 11.5511 44.9474 11.6023 44.6747 11.6023C44.1236 11.6023 43.6293 11.4205 43.6293 10.4375V5.63636H45.419V4.27273ZM49.8381 13.1932C51.2812 13.1932 52.0938 12.4602 52.4176 11.8068H52.4858V13H54.1449V7.20455C54.1449 4.66477 52.1449 4.15909 50.7585 4.15909C49.179 4.15909 47.7244 4.79545 47.1562 6.38636L48.7528 6.75C49.0028 6.13068 49.6392 5.53409 50.7812 5.53409C51.8778 5.53409 52.4403 6.10795 52.4403 7.09659V7.13636C52.4403 7.75568 51.804 7.74432 50.2358 7.92614C48.5824 8.11932 46.8892 8.55114 46.8892 10.5341C46.8892 12.25 48.179 13.1932 49.8381 13.1932ZM50.2074 11.8295C49.2472 11.8295 48.554 11.3977 48.554 10.5568C48.554 9.64773 49.3608 9.32386 50.3438 9.19318C50.8949 9.11932 52.2017 8.97159 52.446 8.72727V9.85227C52.446 10.8864 51.6222 11.8295 50.2074 11.8295ZM56.4077 13H58.1065V7.67045C58.1065 6.52841 58.9872 5.70455 60.1918 5.70455C60.544 5.70455 60.9418 5.76705 61.0781 5.80682V4.18182C60.9077 4.15909 60.5724 4.14205 60.3565 4.14205C59.3338 4.14205 58.4588 4.72159 58.1406 5.65909H58.0497V4.27273H56.4077V13ZM67.1378 4.27273H65.348V2.18182H63.6491V4.27273H62.3707V5.63636H63.6491V10.7898C63.6435 12.375 64.8537 13.142 66.1946 13.1136C66.7344 13.108 67.098 13.0057 67.2969 12.9318L66.9901 11.5284C66.8764 11.5511 66.6662 11.6023 66.3935 11.6023C65.8423 11.6023 65.348 11.4205 65.348 10.4375V5.63636H67.1378V4.27273ZM72.6847 13.1761C74.5881 13.1761 75.9347 12.2386 76.321 10.8182L74.7131 10.5284C74.4062 11.3523 73.6676 11.7727 72.7017 11.7727C71.2472 11.7727 70.2699 10.8295 70.2244 9.14773H76.429V8.54545C76.429 5.39205 74.5426 4.15909 72.5653 4.15909C70.1335 4.15909 68.5312 6.01136 68.5312 8.69318C68.5312 11.4034 70.1108 13.1761 72.6847 13.1761ZM70.2301 7.875C70.2983 6.63636 71.196 5.5625 72.5767 5.5625C73.8949 5.5625 74.7585 6.53977 74.7642 7.875H70.2301ZM81.581 13.1705C83.1719 13.1705 83.7969 12.1989 84.1037 11.642H84.2457V13H85.9048V1.36364H84.206V5.6875H84.1037C83.7969 5.14773 83.2173 4.15909 81.5923 4.15909C79.4844 4.15909 77.9332 5.82386 77.9332 8.65341C77.9332 11.4773 79.4616 13.1705 81.581 13.1705ZM81.956 11.7216C80.4389 11.7216 79.6491 10.3864 79.6491 8.63636C79.6491 6.90341 80.4219 5.60227 81.956 5.60227C83.4389 5.60227 84.2344 6.8125 84.2344 8.63636C84.2344 10.4716 83.4219 11.7216 81.956 11.7216ZM96.7173 4.27273H94.8366V3.48864C94.8366 2.71591 95.1548 2.29545 95.9844 2.29545C96.3366 2.29545 96.5866 2.375 96.7457 2.42614L97.1435 1.05114C96.9048 0.960227 96.4105 0.818181 95.723 0.818181C94.3423 0.818181 93.1321 1.625 93.1321 3.26136V4.27273H91.7855V5.63636H93.1321V13H94.8366V5.63636H96.7173V4.27273ZM98.4702 13H100.169V7.67045C100.169 6.52841 101.05 5.70455 102.254 5.70455C102.607 5.70455 103.004 5.76705 103.141 5.80682V4.18182C102.97 4.15909 102.635 4.14205 102.419 4.14205C101.396 4.14205 100.521 4.72159 100.203 5.65909H100.112V4.27273H98.4702V13ZM108.06 13.1761C109.963 13.1761 111.31 12.2386 111.696 10.8182L110.088 10.5284C109.781 11.3523 109.043 11.7727 108.077 11.7727C106.622 11.7727 105.645 10.8295 105.599 9.14773H111.804V8.54545C111.804 5.39205 109.918 4.15909 107.94 4.15909C105.509 4.15909 103.906 6.01136 103.906 8.69318C103.906 11.4034 105.486 13.1761 108.06 13.1761ZM105.605 7.875C105.673 6.63636 106.571 5.5625 107.952 5.5625C109.27 5.5625 110.134 6.53977 110.139 7.875H105.605ZM117.45 13.1761C119.354 13.1761 120.7 12.2386 121.087 10.8182L119.479 10.5284C119.172 11.3523 118.433 11.7727 117.467 11.7727C116.013 11.7727 115.036 10.8295 114.99 9.14773H121.195V8.54545C121.195 5.39205 119.308 4.15909 117.331 4.15909C114.899 4.15909 113.297 6.01136 113.297 8.69318C113.297 11.4034 114.876 13.1761 117.45 13.1761ZM114.996 7.875C115.064 6.63636 115.962 5.5625 117.342 5.5625C118.661 5.5625 119.524 6.53977 119.53 7.875H114.996Z" fill="white"/>
</svg>
