<svg width="128" height="16" viewBox="0 0 128 16" fill="none" xmlns="http://www.w3.org/2000/svg">
<path d="M5.73864 0.363636V8.54545C5.73295 9.77273 5.16477 10.4261 4.15341 10.4261C3.21023 10.4261 2.57955 9.85227 2.5625 8.90909H0.465909C0.465909 11.0568 2.03409 12.1591 4.07386 12.1591C6.31818 12.1591 7.82386 10.7955 7.82955 8.54545V0.363636H5.73864ZM13.8324 12.1705C16.3892 12.1705 18.0142 10.3693 18.0142 7.67045C18.0142 4.96591 16.3892 3.15909 13.8324 3.15909C11.2756 3.15909 9.65057 4.96591 9.65057 7.67045C9.65057 10.3693 11.2756 12.1705 13.8324 12.1705ZM13.8438 10.5227C12.429 10.5227 11.7358 9.26136 11.7358 7.66477C11.7358 6.06818 12.429 4.78977 13.8438 4.78977C15.2358 4.78977 15.929 6.06818 15.929 7.66477C15.929 9.26136 15.2358 10.5227 13.8438 10.5227ZM19.7599 12H21.8168V6.86932C21.8168 5.76136 22.652 4.97727 23.7827 4.97727C24.1293 4.97727 24.5611 5.03977 24.7372 5.09659V3.20455C24.5497 3.17045 24.2259 3.14773 23.9986 3.14773C22.9986 3.14773 22.1634 3.71591 21.8452 4.72727H21.7543V3.27273H19.7599V12ZM29.5398 15.4545C31.8977 15.4545 33.6364 14.375 33.6364 12.142V3.27273H31.608V4.71591H31.4943C31.1818 4.08523 30.5284 3.15909 28.9886 3.15909C26.9716 3.15909 25.3864 4.73864 25.3864 7.60795C25.3864 10.4545 26.9716 11.875 28.983 11.875C30.4773 11.875 31.1761 11.0739 31.4943 10.4318H31.5966V12.0852C31.5966 13.3693 30.7443 13.8977 29.5739 13.8977C28.3352 13.8977 27.7898 13.3125 27.5398 12.8011L25.6875 13.25C26.0625 14.4716 27.3182 15.4545 29.5398 15.4545ZM29.5568 10.2614C28.1989 10.2614 27.483 9.20455 27.483 7.59659C27.483 6.01136 28.1875 4.84659 29.5568 4.84659C30.8807 4.84659 31.608 5.94318 31.608 7.59659C31.608 9.26136 30.8693 10.2614 29.5568 10.2614ZM39.608 12.1705C41.642 12.1705 43.0398 11.1761 43.4034 9.65909L41.483 9.44318C41.2045 10.1818 40.5227 10.5682 39.6364 10.5682C38.3068 10.5682 37.4261 9.69318 37.4091 8.19886H43.4886V7.56818C43.4886 4.50568 41.6477 3.15909 39.5 3.15909C37 3.15909 35.3693 4.99432 35.3693 7.6875C35.3693 10.4261 36.9773 12.1705 39.608 12.1705ZM37.4148 6.8125C37.4773 5.69886 38.3011 4.76136 39.5284 4.76136C40.7102 4.76136 41.5057 5.625 41.517 6.8125H37.4148ZM49.2884 12H51.3963V7.73864H53.544L55.8281 12H58.1804L55.6634 7.38636C57.0327 6.83523 57.7543 5.66477 57.7543 4.08523C57.7543 1.86364 56.3224 0.363636 53.652 0.363636H49.2884V12ZM51.3963 5.98864V2.125H53.3281C54.902 2.125 55.6065 2.84659 55.6065 4.08523C55.6065 5.32386 54.902 5.98864 53.3395 5.98864H51.3963ZM63.2855 12.1705C65.8423 12.1705 67.4673 10.3693 67.4673 7.67045C67.4673 4.96591 65.8423 3.15909 63.2855 3.15909C60.7287 3.15909 59.1037 4.96591 59.1037 7.67045C59.1037 10.3693 60.7287 12.1705 63.2855 12.1705ZM63.2969 10.5227C61.8821 10.5227 61.1889 9.26136 61.1889 7.66477C61.1889 6.06818 61.8821 4.78977 63.2969 4.78977C64.6889 4.78977 65.3821 6.06818 65.3821 7.66477C65.3821 9.26136 64.6889 10.5227 63.2969 10.5227ZM69.304 12H71.3267V10.625H71.446C71.7699 11.2614 72.446 12.1534 73.946 12.1534C76.0028 12.1534 77.5426 10.5227 77.5426 7.64773C77.5426 4.73864 75.9574 3.15909 73.9403 3.15909C72.4006 3.15909 71.7585 4.08523 71.446 4.71591H71.3608V0.363636H69.304V12ZM71.321 7.63636C71.321 5.94318 72.0483 4.84659 73.3722 4.84659C74.7415 4.84659 75.446 6.01136 75.446 7.63636C75.446 9.27273 74.7301 10.4659 73.3722 10.4659C72.0597 10.4659 71.321 9.32955 71.321 7.63636ZM83.1548 12.1705C85.1889 12.1705 86.5866 11.1761 86.9503 9.65909L85.0298 9.44318C84.7514 10.1818 84.0696 10.5682 83.1832 10.5682C81.8537 10.5682 80.973 9.69318 80.956 8.19886H87.0355V7.56818C87.0355 4.50568 85.1946 3.15909 83.0469 3.15909C80.5469 3.15909 78.9162 4.99432 78.9162 7.6875C78.9162 10.4261 80.5241 12.1705 83.1548 12.1705ZM80.9616 6.8125C81.0241 5.69886 81.848 4.76136 83.0753 4.76136C84.2571 4.76136 85.0526 5.625 85.0639 6.8125H80.9616ZM88.7756 12H90.8324V6.86932C90.8324 5.76136 91.6676 4.97727 92.7983 4.97727C93.1449 4.97727 93.5767 5.03977 93.7528 5.09659V3.20455C93.5653 3.17045 93.2415 3.14773 93.0142 3.14773C92.0142 3.14773 91.179 3.71591 90.8608 4.72727H90.7699V3.27273H88.7756V12ZM99.946 3.27273H98.2244V1.18182H96.1676V3.27273H94.929V4.86364H96.1676V9.71591C96.1562 11.358 97.3494 12.1648 98.8949 12.1193C99.4801 12.1023 99.8835 11.9886 100.105 11.9148L99.7585 10.3068C99.6449 10.3352 99.4119 10.3864 99.1562 10.3864C98.6392 10.3864 98.2244 10.2045 98.2244 9.375V4.86364H99.946V3.27273ZM108.439 5.57955C108.155 4.10227 106.973 3.15909 104.928 3.15909C102.825 3.15909 101.393 4.19318 101.399 5.80682C101.393 7.07955 102.178 7.92045 103.854 8.26705L105.342 8.57955C106.143 8.75568 106.518 9.07955 106.518 9.57386C106.518 10.1705 105.871 10.6193 104.893 10.6193C103.95 10.6193 103.337 10.2102 103.161 9.42614L101.155 9.61932C101.411 11.2216 102.757 12.1705 104.899 12.1705C107.081 12.1705 108.621 11.0398 108.626 9.38636C108.621 8.14205 107.82 7.38068 106.172 7.02273L104.683 6.70455C103.797 6.50568 103.445 6.19886 103.45 5.69318C103.445 5.10227 104.098 4.69318 104.956 4.69318C105.905 4.69318 106.405 5.21023 106.564 5.78409L108.439 5.57955ZM114.129 12.1705C116.686 12.1705 118.311 10.3693 118.311 7.67045C118.311 4.96591 116.686 3.15909 114.129 3.15909C111.572 3.15909 109.947 4.96591 109.947 7.67045C109.947 10.3693 111.572 12.1705 114.129 12.1705ZM114.141 10.5227C112.726 10.5227 112.033 9.26136 112.033 7.66477C112.033 6.06818 112.726 4.78977 114.141 4.78977C115.533 4.78977 116.226 6.06818 116.226 7.66477C116.226 9.26136 115.533 10.5227 114.141 10.5227ZM122.114 6.88636C122.114 5.625 122.875 4.89773 123.96 4.89773C125.023 4.89773 125.659 5.59659 125.659 6.76136V12H127.716V6.44318C127.722 4.35227 126.528 3.15909 124.727 3.15909C123.42 3.15909 122.523 3.78409 122.125 4.75568H122.023V3.27273H120.057V12H122.114V6.88636Z" fill="#4E5A65"/>
</svg>
