<svg width="139" height="18" viewBox="0 0 139 18" fill="none" xmlns="http://www.w3.org/2000/svg">
<path d="M0.291193 14H8.42827V12.0121H2.66264V0.909091H0.291193V14ZM14.7308 14.1918C17.0192 14.1918 18.5916 13.0732 19.0007 11.3665L16.8402 11.1236C16.527 11.9545 15.7599 12.3892 14.7628 12.3892C13.267 12.3892 12.2763 11.4048 12.2571 9.72372H19.0966V9.0142C19.0966 5.56889 17.0256 4.05398 14.6094 4.05398C11.7969 4.05398 9.96236 6.11861 9.96236 9.14844C9.96236 12.2294 11.7713 14.1918 14.7308 14.1918ZM12.2635 8.16406C12.3338 6.91122 13.2607 5.85653 14.6413 5.85653C15.9709 5.85653 16.8658 6.82812 16.8786 8.16406H12.2635ZM23.8794 14.1982C25.4199 14.1982 26.3404 13.4759 26.7623 12.6513H26.839V14H29.0634V7.42898C29.0634 4.83381 26.9476 4.05398 25.0748 4.05398C23.0101 4.05398 21.4249 4.97443 20.9135 6.7642L23.074 7.07102C23.3042 6.39986 23.9561 5.82457 25.0875 5.82457C26.1614 5.82457 26.7495 6.37429 26.7495 7.33949V7.37784C26.7495 8.04261 26.0527 8.07457 24.3205 8.25994C22.4157 8.46449 20.5939 9.03338 20.5939 11.245C20.5939 13.1754 22.0066 14.1982 23.8794 14.1982ZM24.4803 12.4979C23.5151 12.4979 22.8248 12.0568 22.8248 11.2067C22.8248 10.3182 23.5982 9.94744 24.6337 9.80043C25.2409 9.71733 26.4554 9.56392 26.7559 9.32102V10.478C26.7559 11.571 25.8738 12.4979 24.4803 12.4979ZM31.3901 14H33.704V8.22798C33.704 6.98153 34.6436 6.09943 35.9157 6.09943C36.3056 6.09943 36.7914 6.16974 36.9895 6.23366V4.10511C36.7786 4.06676 36.4142 4.04119 36.1586 4.04119C35.0336 4.04119 34.0939 4.6804 33.736 5.81818H33.6337V4.18182H31.3901V14ZM40.8407 8.24716C40.8407 6.82812 41.6973 6.00994 42.9181 6.00994C44.1135 6.00994 44.8294 6.79616 44.8294 8.10653V14H47.1433V7.74858C47.1497 5.39631 45.8074 4.05398 43.7811 4.05398C42.3109 4.05398 41.301 4.7571 40.8535 5.85014H40.7385V4.18182H38.5268V14H40.8407V8.24716ZM49.4956 14H51.8095V4.18182H49.4956V14ZM50.6589 2.78835C51.394 2.78835 51.9949 2.22585 51.9949 1.53551C51.9949 0.838778 51.394 0.276278 50.6589 0.276278C49.9174 0.276278 49.3166 0.838778 49.3166 1.53551C49.3166 2.22585 49.9174 2.78835 50.6589 2.78835ZM56.5028 8.24716C56.5028 6.82812 57.3594 6.00994 58.5803 6.00994C59.7756 6.00994 60.4915 6.79616 60.4915 8.10653V14H62.8054V7.74858C62.8118 5.39631 61.4695 4.05398 59.4432 4.05398C57.973 4.05398 56.9631 4.7571 56.5156 5.85014H56.4006V4.18182H54.1889V14H56.5028V8.24716ZM69.4276 17.8864C72.0803 17.8864 74.0362 16.6719 74.0362 14.1598V4.18182H71.7543V5.8054H71.6264C71.2749 5.09588 70.5398 4.05398 68.8075 4.05398C66.5384 4.05398 64.755 5.83097 64.755 9.05895C64.755 12.2614 66.5384 13.8594 68.8011 13.8594C70.4822 13.8594 71.2685 12.9581 71.6264 12.2358H71.7415V14.0959C71.7415 15.5405 70.7827 16.1349 69.4659 16.1349C68.0724 16.1349 67.4588 15.4766 67.1776 14.9013L65.0938 15.4062C65.5156 16.7805 66.9283 17.8864 69.4276 17.8864ZM69.4467 12.044C67.919 12.044 67.1136 10.8551 67.1136 9.04616C67.1136 7.26278 67.9062 5.95241 69.4467 5.95241C70.9361 5.95241 71.7543 7.18608 71.7543 9.04616C71.7543 10.919 70.9233 12.044 69.4467 12.044ZM92.18 5.32599C91.7773 2.41761 89.5401 0.730113 86.6381 0.730113C83.2184 0.730113 80.6424 3.22301 80.6424 7.45455C80.6424 11.6797 83.1864 14.179 86.6381 14.179C89.7511 14.179 91.8157 12.1655 92.18 9.66619L89.7894 9.65341C89.489 11.1875 88.2362 12.0504 86.6701 12.0504C84.5479 12.0504 83.0266 10.4588 83.0266 7.45455C83.0266 4.50142 84.5352 2.85866 86.6765 2.85866C88.2681 2.85866 89.5146 3.75994 89.7894 5.32599H92.18ZM98.5961 14.1918C100.884 14.1918 102.457 13.0732 102.866 11.3665L100.705 11.1236C100.392 11.9545 99.6252 12.3892 98.628 12.3892C97.1323 12.3892 96.1415 11.4048 96.1223 9.72372H102.962V9.0142C102.962 5.56889 100.891 4.05398 98.4746 4.05398C95.6621 4.05398 93.8276 6.11861 93.8276 9.14844C93.8276 12.2294 95.6365 14.1918 98.5961 14.1918ZM96.1287 8.16406C96.199 6.91122 97.1259 5.85653 98.5066 5.85653C99.8361 5.85653 100.731 6.82812 100.744 8.16406H96.1287ZM107.233 8.24716C107.233 6.82812 108.09 6.00994 109.311 6.00994C110.506 6.00994 111.222 6.79616 111.222 8.10653V14H113.536V7.74858C113.542 5.39631 112.2 4.05398 110.174 4.05398C108.703 4.05398 107.694 4.7571 107.246 5.85014H107.131V4.18182H104.919V14H107.233V8.24716ZM120.791 4.18182H118.854V1.82955H116.54V4.18182H115.147V5.97159H116.54V11.4304C116.527 13.2777 117.87 14.1854 119.608 14.1342C120.267 14.1151 120.721 13.9872 120.97 13.9041L120.58 12.0952C120.452 12.1271 120.19 12.1847 119.902 12.1847C119.321 12.1847 118.854 11.9801 118.854 11.0469V5.97159H120.791V4.18182ZM126.967 14.1918C129.256 14.1918 130.828 13.0732 131.237 11.3665L129.077 11.1236C128.763 11.9545 127.996 12.3892 126.999 12.3892C125.503 12.3892 124.513 11.4048 124.493 9.72372H131.333V9.0142C131.333 5.56889 129.262 4.05398 126.846 4.05398C124.033 4.05398 122.199 6.11861 122.199 9.14844C122.199 12.2294 124.008 14.1918 126.967 14.1918ZM124.5 8.16406C124.57 6.91122 125.497 5.85653 126.878 5.85653C128.207 5.85653 129.102 6.82812 129.115 8.16406H124.5ZM133.29 14H135.604V8.22798C135.604 6.98153 136.544 6.09943 137.816 6.09943C138.206 6.09943 138.692 6.16974 138.89 6.23366V4.10511C138.679 4.06676 138.315 4.04119 138.059 4.04119C136.934 4.04119 135.994 4.6804 135.636 5.81818H135.534V4.18182H133.29V14Z" fill="#35414B"/>
</svg>
