<svg width="434" height="40" viewBox="0 0 434 40" fill="none" xmlns="http://www.w3.org/2000/svg">
<path d="M0.900568 1.90909V31H5.95739V10.9716H6.22727L14.267 30.9148H18.0455L26.0852 11.0142H26.3551V31H31.4119V1.90909H24.9631L16.3267 22.9886H15.9858L7.34943 1.90909H0.900568ZM43.2017 31.4403C46.625 31.4403 48.6705 29.8352 49.608 28.0028H49.7784V31H54.7216V16.3977C54.7216 10.6307 50.0199 8.89773 45.858 8.89773C41.2699 8.89773 37.7472 10.9432 36.6108 14.9205L41.4119 15.6023C41.9233 14.1108 43.3722 12.8324 45.8864 12.8324C48.2727 12.8324 49.5795 14.054 49.5795 16.1989V16.2841C49.5795 17.7614 48.0312 17.8324 44.1818 18.2443C39.9489 18.6989 35.9006 19.9631 35.9006 24.8778C35.9006 29.1676 39.0398 31.4403 43.2017 31.4403ZM44.5369 27.6619C42.392 27.6619 40.858 26.6818 40.858 24.7926C40.858 22.8182 42.5767 21.9943 44.8778 21.6676C46.2273 21.483 48.9261 21.142 49.5938 20.6023V23.1733C49.5938 25.6023 47.6335 27.6619 44.5369 27.6619ZM59.892 31H65.0341V23.6705L66.9091 21.6676L73.5852 31H79.7358L70.7869 18.5994L79.2386 9.18182H73.2301L65.3892 17.946H65.0341V1.90909H59.892V31ZM91.4261 31.4261C96.5114 31.4261 100.006 28.9403 100.915 25.1477L96.1136 24.608C95.4176 26.4545 93.7131 27.4205 91.4972 27.4205C88.1733 27.4205 85.9716 25.233 85.929 21.4972H101.128V19.9205C101.128 12.2642 96.5256 8.89773 91.1562 8.89773C84.9062 8.89773 80.8295 13.4858 80.8295 20.2188C80.8295 27.0653 84.8494 31.4261 91.4261 31.4261ZM85.9432 18.0312C86.0994 15.2472 88.1591 12.9034 91.2273 12.9034C94.1818 12.9034 96.1705 15.0625 96.1989 18.0312H85.9432ZM118.596 39.1818C122.602 39.1818 124.917 37.1222 126.153 33.642L134.917 9.21023L129.42 9.18182L124.377 25.6591H124.15L119.121 9.18182H113.667L121.579 31.4545L121.138 32.6335C120.187 35.1193 118.681 35.2898 116.437 34.6364L115.244 38.642C115.94 38.9261 117.19 39.1818 118.596 39.1818ZM147.261 31.4261C153.653 31.4261 157.715 26.9233 157.715 20.1761C157.715 13.4148 153.653 8.89773 147.261 8.89773C140.869 8.89773 136.806 13.4148 136.806 20.1761C136.806 26.9233 140.869 31.4261 147.261 31.4261ZM147.289 27.3068C143.752 27.3068 142.019 24.1534 142.019 20.1619C142.019 16.1705 143.752 12.9744 147.289 12.9744C150.769 12.9744 152.502 16.1705 152.502 20.1619C152.502 24.1534 150.769 27.3068 147.289 27.3068ZM175.986 21.8239C175.986 25.1477 173.614 26.7955 171.341 26.7955C168.869 26.7955 167.222 25.0483 167.222 22.2784V9.18182H162.08V23.0739C162.08 28.3153 165.062 31.2841 169.352 31.2841C172.619 31.2841 174.92 29.5653 175.915 27.1222H176.142V31H181.128V9.18182H175.986V21.8239ZM186.415 31H191.558V18.1733C191.558 15.4034 193.646 13.4432 196.472 13.4432C197.339 13.4432 198.418 13.5994 198.859 13.7415V9.01136C198.39 8.92614 197.58 8.86932 197.012 8.86932C194.512 8.86932 192.424 10.2898 191.629 12.8182H191.401V9.18182H186.415V31ZM216.7 31H222.069L226.16 16.2557H226.458L230.549 31H235.904L242.083 9.18182H236.827L233.049 24.4375H232.836L228.915 9.18182H223.731L219.81 24.5227H219.612L215.776 9.18182H210.535L216.7 31ZM254.604 31.4261C260.996 31.4261 265.059 26.9233 265.059 20.1761C265.059 13.4148 260.996 8.89773 254.604 8.89773C248.212 8.89773 244.15 13.4148 244.15 20.1761C244.15 26.9233 248.212 31.4261 254.604 31.4261ZM254.633 27.3068C251.096 27.3068 249.363 24.1534 249.363 20.1619C249.363 16.1705 251.096 12.9744 254.633 12.9744C258.113 12.9744 259.846 16.1705 259.846 20.1619C259.846 24.1534 258.113 27.3068 254.633 27.3068ZM269.423 31H274.565V18.1733C274.565 15.4034 276.653 13.4432 279.48 13.4432C280.347 13.4432 281.426 13.5994 281.866 13.7415V9.01136C281.398 8.92614 280.588 8.86932 280.02 8.86932C277.52 8.86932 275.432 10.2898 274.636 12.8182H274.409V9.18182H269.423V31ZM285.283 31H290.425V23.6705L292.3 21.6676L298.976 31H305.126L296.178 18.5994L304.629 9.18182H298.621L290.78 17.946H290.425V1.90909H285.283V31ZM327.637 31.4261C332.722 31.4261 336.217 28.9403 337.126 25.1477L332.325 24.608C331.629 26.4545 329.924 27.4205 327.708 27.4205C324.384 27.4205 322.183 25.233 322.14 21.4972H337.339V19.9205C337.339 12.2642 332.737 8.89773 327.367 8.89773C321.117 8.89773 317.04 13.4858 317.04 20.2188C317.04 27.0653 321.06 31.4261 327.637 31.4261ZM322.154 18.0312C322.31 15.2472 324.37 12.9034 327.438 12.9034C330.393 12.9034 332.381 15.0625 332.41 18.0312H322.154ZM347.967 31.4403C351.391 31.4403 353.436 29.8352 354.374 28.0028H354.544V31H359.487V16.3977C359.487 10.6307 354.786 8.89773 350.624 8.89773C346.036 8.89773 342.513 10.9432 341.376 14.9205L346.178 15.6023C346.689 14.1108 348.138 12.8324 350.652 12.8324C353.038 12.8324 354.345 14.054 354.345 16.1989V16.2841C354.345 17.7614 352.797 17.8324 348.947 18.2443C344.714 18.6989 340.666 19.9631 340.666 24.8778C340.666 29.1676 343.805 31.4403 347.967 31.4403ZM349.303 27.6619C347.158 27.6619 345.624 26.6818 345.624 24.7926C345.624 22.8182 347.342 21.9943 349.643 21.6676C350.993 21.483 353.692 21.142 354.359 20.6023V23.1733C354.359 25.6023 352.399 27.6619 349.303 27.6619ZM381.902 14.9489C381.192 11.2557 378.237 8.89773 373.124 8.89773C367.868 8.89773 364.288 11.483 364.303 15.517C364.288 18.6989 366.249 20.8011 370.439 21.6676L374.161 22.4489C376.163 22.8892 377.101 23.6989 377.101 24.9347C377.101 26.4261 375.482 27.5483 373.038 27.5483C370.68 27.5483 369.146 26.5256 368.706 24.5653L363.692 25.0483C364.331 29.054 367.697 31.4261 373.053 31.4261C378.507 31.4261 382.357 28.5994 382.371 24.4659C382.357 21.3551 380.354 19.4517 376.234 18.5568L372.513 17.7614C370.297 17.2642 369.416 16.4972 369.43 15.233C369.416 13.7557 371.05 12.733 373.195 12.733C375.567 12.733 376.817 14.0256 377.214 15.4602L381.902 14.9489ZM386.611 31H391.753V9.18182H386.611V31ZM389.196 6.08523C390.83 6.08523 392.165 4.83523 392.165 3.30114C392.165 1.75284 390.83 0.50284 389.196 0.50284C387.548 0.50284 386.213 1.75284 386.213 3.30114C386.213 4.83523 387.548 6.08523 389.196 6.08523ZM406.7 31.4261C411.785 31.4261 415.279 28.9403 416.188 25.1477L411.387 24.608C410.691 26.4545 408.987 27.4205 406.771 27.4205C403.447 27.4205 401.245 25.233 401.202 21.4972H416.401V19.9205C416.401 12.2642 411.799 8.89773 406.43 8.89773C400.18 8.89773 396.103 13.4858 396.103 20.2188C396.103 27.0653 400.123 31.4261 406.7 31.4261ZM401.217 18.0312C401.373 15.2472 403.433 12.9034 406.501 12.9034C409.455 12.9034 411.444 15.0625 411.472 18.0312H401.217ZM420.751 31H425.893V18.1733C425.893 15.4034 427.982 13.4432 430.808 13.4432C431.675 13.4432 432.754 13.5994 433.195 13.7415V9.01136C432.726 8.92614 431.916 8.86932 431.348 8.86932C428.848 8.86932 426.76 10.2898 425.964 12.8182H425.737V9.18182H420.751V31Z" fill="#35414B"/>
</svg>
