<svg width="150" height="18" viewBox="0 0 150 18" fill="none" xmlns="http://www.w3.org/2000/svg">
<path d="M0.291193 14H2.66264V9.5767H5.16832C8.19176 9.5767 9.81534 7.76136 9.81534 5.2429C9.81534 2.74361 8.21094 0.909091 5.20028 0.909091H0.291193V14ZM2.66264 7.62713V2.89062H4.83594C6.61293 2.89062 7.39915 3.84943 7.39915 5.2429C7.39915 6.63636 6.61293 7.62713 4.84872 7.62713H2.66264ZM14.0868 0.909091H11.7729V14H14.0868V0.909091ZM19.2915 14.1982C20.832 14.1982 21.7525 13.4759 22.1744 12.6513H22.2511V14H24.4755V7.42898C24.4755 4.83381 22.3597 4.05398 20.4869 4.05398C18.4222 4.05398 16.837 4.97443 16.3256 6.7642L18.4862 7.07102C18.7163 6.39986 19.3683 5.82457 20.4996 5.82457C21.5735 5.82457 22.1616 6.37429 22.1616 7.33949V7.37784C22.1616 8.04261 21.4648 8.07457 19.7326 8.25994C17.8278 8.46449 16.006 9.03338 16.006 11.245C16.006 13.1754 17.4187 14.1982 19.2915 14.1982ZM19.8924 12.4979C18.9272 12.4979 18.2369 12.0568 18.2369 11.2067C18.2369 10.3182 19.0103 9.94744 20.0458 9.80043C20.6531 9.71733 21.8675 9.56392 22.168 9.32102V10.478C22.168 11.571 21.2859 12.4979 19.8924 12.4979ZM29.1161 8.24716C29.1161 6.82812 29.9727 6.00994 31.1935 6.00994C32.3888 6.00994 33.1048 6.79616 33.1048 8.10653V14H35.4187V7.74858C35.4251 5.39631 34.0827 4.05398 32.0565 4.05398C30.5863 4.05398 29.5763 4.7571 29.1289 5.85014H29.0138V4.18182H26.8022V14H29.1161V8.24716ZM43.674 17.6818C45.4766 17.6818 46.5185 16.755 47.0746 15.1889L51.0185 4.1946L48.5447 4.18182L46.2756 11.5966H46.1733L43.9105 4.18182H41.456L45.0163 14.2045L44.8182 14.7351C44.3899 15.8537 43.7124 15.9304 42.7024 15.6364L42.1655 17.4389C42.4787 17.5668 43.0412 17.6818 43.674 17.6818ZM56.5732 14.1918C59.4496 14.1918 61.2777 12.1655 61.2777 9.12926C61.2777 6.08665 59.4496 4.05398 56.5732 4.05398C53.6967 4.05398 51.8686 6.08665 51.8686 9.12926C51.8686 12.1655 53.6967 14.1918 56.5732 14.1918ZM56.5859 12.3381C54.9943 12.3381 54.2145 10.919 54.2145 9.12287C54.2145 7.3267 54.9943 5.88849 56.5859 5.88849C58.152 5.88849 58.9318 7.3267 58.9318 9.12287C58.9318 10.919 58.152 12.3381 56.5859 12.3381ZM69.4995 9.87074C69.4995 11.3665 68.432 12.108 67.4093 12.108C66.2971 12.108 65.5556 11.3217 65.5556 10.0753V4.18182H63.2417V10.4332C63.2417 12.7919 64.584 14.1278 66.5144 14.1278C67.9846 14.1278 69.0201 13.3544 69.4675 12.255H69.5698V14H71.8134V4.18182H69.4995V9.87074ZM74.1928 14H76.5067V8.22798C76.5067 6.98153 77.4464 6.09943 78.7184 6.09943C79.1083 6.09943 79.5941 6.16974 79.7923 6.23366V4.10511C79.5813 4.06676 79.217 4.04119 78.9613 4.04119C77.8363 4.04119 76.8967 4.6804 76.5387 5.81818H76.4364V4.18182H74.1928V14ZM91.0934 0.909091H88.837L85.5835 2.99929V5.17259L88.6452 3.21662H88.7219V14H91.0934V0.909091ZM100.394 7.59517H94.5004V9.5H100.394V7.59517ZM107.11 14.1918C109.987 14.1918 111.815 12.1655 111.815 9.12926C111.815 6.08665 109.987 4.05398 107.11 4.05398C104.234 4.05398 102.406 6.08665 102.406 9.12926C102.406 12.1655 104.234 14.1918 107.11 14.1918ZM107.123 12.3381C105.531 12.3381 104.752 10.919 104.752 9.12287C104.752 7.3267 105.531 5.88849 107.123 5.88849C108.689 5.88849 109.469 7.3267 109.469 9.12287C109.469 10.919 108.689 12.3381 107.123 12.3381ZM116.093 8.24716C116.093 6.82812 116.949 6.00994 118.17 6.00994C119.365 6.00994 120.081 6.79616 120.081 8.10653V14H122.395V7.74858C122.402 5.39631 121.059 4.05398 119.033 4.05398C117.563 4.05398 116.553 4.7571 116.105 5.85014H115.99V4.18182H113.779V14H116.093V8.24716ZM130.699 7.59517H124.805V9.5H130.699V7.59517ZM138.431 0.909091H136.175L132.921 2.99929V5.17259L135.983 3.21662H136.06V14H138.431V0.909091ZM149.541 6.77699C149.221 5.11506 147.892 4.05398 145.59 4.05398C143.225 4.05398 141.615 5.21733 141.621 7.03267C141.615 8.46449 142.497 9.41051 144.382 9.80043L146.057 10.152C146.958 10.3501 147.38 10.7145 147.38 11.2706C147.38 11.9418 146.651 12.4467 145.552 12.4467C144.491 12.4467 143.801 11.9865 143.602 11.1044L141.346 11.3217C141.634 13.1243 143.149 14.1918 145.558 14.1918C148.013 14.1918 149.745 12.9197 149.752 11.0597C149.745 9.6598 148.844 8.80327 146.99 8.40057L145.316 8.04261C144.318 7.81889 143.922 7.47372 143.928 6.90483C143.922 6.24006 144.657 5.77983 145.622 5.77983C146.69 5.77983 147.252 6.36151 147.431 7.0071L149.541 6.77699Z" fill="#35414B"/>
</svg>
