<svg width="303" height="40" viewBox="0 0 303 40" fill="none" xmlns="http://www.w3.org/2000/svg">
<path d="M1.40909 12H2.81818V7.75H5.36364C8.07386 7.75 9.29545 6.10227 9.29545 4.04545C9.29545 1.98864 8.07386 0.363636 5.34091 0.363636H1.40909V12ZM2.81818 6.5V1.61364H5.29545C7.1875 1.61364 7.90909 2.64773 7.90909 4.04545C7.90909 5.44318 7.1875 6.5 5.31818 6.5H2.81818ZM12.7244 0.363636H11.3835V12H12.7244V0.363636ZM17.7486 12.2045C19.2713 12.2045 20.0668 11.3864 20.3395 10.8182H20.4077V12H21.7486V6.25C21.7486 3.47727 19.6349 3.15909 18.5213 3.15909C17.2031 3.15909 15.7031 3.61364 15.0213 5.20455L16.294 5.65909C16.5895 5.02273 17.2884 4.34091 18.5668 4.34091C19.7997 4.34091 20.4077 4.99432 20.4077 6.11364V6.15909C20.4077 6.80682 19.7486 6.75 18.1577 6.95455C16.5384 7.16477 14.7713 7.52273 14.7713 9.52273C14.7713 11.2273 16.0895 12.2045 17.7486 12.2045ZM17.9531 11C16.8849 11 16.1122 10.5227 16.1122 9.59091C16.1122 8.56818 17.044 8.25 18.0895 8.11364C18.6577 8.04545 20.1804 7.88636 20.4077 7.61364V8.84091C20.4077 9.93182 19.544 11 17.9531 11ZM25.5369 6.75C25.5369 5.22727 26.4801 4.36364 27.7642 4.36364C29.0085 4.36364 29.7642 5.17614 29.7642 6.54545V12H31.1051V6.45455C31.1051 4.22727 29.9176 3.15909 28.1506 3.15909C26.8324 3.15909 26.0142 3.75 25.6051 4.63636H25.4915V3.27273H24.196V12H25.5369V6.75ZM38.0554 12H39.3963V6.54545C39.3963 5.26705 40.3281 4.36364 41.3736 4.36364C42.3906 4.36364 43.1009 5.02841 43.1009 6.02273V12H44.4645V6.31818C44.4645 5.19318 45.169 4.36364 46.3963 4.36364C47.3509 4.36364 48.169 4.86932 48.169 6.15909V12H49.5099V6.15909C49.5099 4.10795 48.4077 3.15909 46.8509 3.15909C45.6009 3.15909 44.6861 3.73295 44.2372 4.63636H44.1463C43.7145 3.70455 42.9531 3.15909 41.8054 3.15909C40.669 3.15909 39.8281 3.70455 39.4645 4.63636H39.3509V3.27273H38.0554V12ZM55.6207 12.1818C57.3935 12.1818 58.6889 11.2955 59.098 9.97727L57.8026 9.61364C57.4616 10.5227 56.6719 10.9773 55.6207 10.9773C54.0469 10.9773 52.9616 9.96023 52.8991 8.09091H59.2344V7.52273C59.2344 4.27273 57.3026 3.15909 55.4844 3.15909C53.1207 3.15909 51.5526 5.02273 51.5526 7.70455C51.5526 10.3864 53.098 12.1818 55.6207 12.1818ZM52.8991 6.93182C52.9901 5.57386 53.9503 4.36364 55.4844 4.36364C56.9389 4.36364 57.8707 5.45455 57.8707 6.93182H52.8991ZM64.9332 12.1818C66.706 12.1818 68.0014 11.2955 68.4105 9.97727L67.1151 9.61364C66.7741 10.5227 65.9844 10.9773 64.9332 10.9773C63.3594 10.9773 62.2741 9.96023 62.2116 8.09091H68.5469V7.52273C68.5469 4.27273 66.6151 3.15909 64.7969 3.15909C62.4332 3.15909 60.8651 5.02273 60.8651 7.70455C60.8651 10.3864 62.4105 12.1818 64.9332 12.1818ZM62.2116 6.93182C62.3026 5.57386 63.2628 4.36364 64.7969 4.36364C66.2514 4.36364 67.1832 5.45455 67.1832 6.93182H62.2116ZM74.3821 3.27273H72.5185V1.18182H71.1776V3.27273H69.8594V4.40909H71.1776V9.86364C71.1776 11.3864 72.4048 12.1136 73.5412 12.1136C74.0412 12.1136 74.3594 12.0227 74.5412 11.9545L74.2685 10.75C74.1548 10.7727 73.973 10.8182 73.6776 10.8182C73.0866 10.8182 72.5185 10.6364 72.5185 9.5V4.40909H74.3821V3.27273ZM76.3991 12H77.7401V3.27273H76.3991V12ZM77.081 1.81818C77.6037 1.81818 78.0355 1.40909 78.0355 0.909091C78.0355 0.409091 77.6037 0 77.081 0C76.5582 0 76.1264 0.409091 76.1264 0.909091C76.1264 1.40909 76.5582 1.81818 77.081 1.81818ZM81.5369 6.75C81.5369 5.22727 82.4801 4.36364 83.7642 4.36364C85.0085 4.36364 85.7642 5.17614 85.7642 6.54545V12H87.1051V6.45455C87.1051 4.22727 85.9176 3.15909 84.1506 3.15909C82.8324 3.15909 82.0142 3.75 81.6051 4.63636H81.4915V3.27273H80.196V12H81.5369V6.75ZM93.0781 15.4545C95.169 15.4545 96.8509 14.5 96.8509 12.25V3.27273H95.5554V4.65909H95.419C95.1236 4.20455 94.5781 3.15909 92.8736 3.15909C90.669 3.15909 89.1463 4.90909 89.1463 7.59091C89.1463 10.3182 90.7372 11.8636 92.8509 11.8636C94.5554 11.8636 95.1009 10.8636 95.3963 10.3864H95.5099V12.1591C95.5099 13.6136 94.4872 14.2727 93.0781 14.2727C91.4929 14.2727 90.9361 13.4375 90.5781 12.9545L89.5099 13.7045C90.0554 14.6193 91.1293 15.4545 93.0781 15.4545ZM93.0327 10.6591C91.3509 10.6591 90.4872 9.38636 90.4872 7.56818C90.4872 5.79545 91.3281 4.36364 93.0327 4.36364C94.669 4.36364 95.5327 5.68182 95.5327 7.56818C95.5327 9.5 94.6463 10.6591 93.0327 10.6591ZM105.487 5.22727C105.067 3.98864 104.124 3.15909 102.396 3.15909C100.555 3.15909 99.1918 4.20455 99.1918 5.68182C99.1918 6.88636 99.9077 7.69318 101.51 8.06818L102.964 8.40909C103.845 8.61364 104.26 9.03409 104.26 9.63636C104.26 10.3864 103.464 11 102.214 11C101.118 11 100.43 10.5284 100.192 9.59091L98.919 9.90909C99.2315 11.392 100.453 12.1818 102.237 12.1818C104.266 12.1818 105.646 11.0739 105.646 9.56818C105.646 8.35227 104.885 7.58523 103.328 7.20455L102.033 6.88636C100.999 6.63068 100.533 6.28409 100.533 5.61364C100.533 4.86364 101.328 4.31818 102.396 4.31818C103.567 4.31818 104.05 4.96591 104.283 5.56818L105.487 5.22727ZM115.96 3.27273H114.097V1.18182H112.756V3.27273H111.438V4.40909H112.756V9.86364C112.756 11.3864 113.983 12.1136 115.119 12.1136C115.619 12.1136 115.938 12.0227 116.119 11.9545L115.847 10.75C115.733 10.7727 115.551 10.8182 115.256 10.8182C114.665 10.8182 114.097 10.6364 114.097 9.5V4.40909H115.96V3.27273ZM121.429 12.1818C123.793 12.1818 125.384 10.3864 125.384 7.68182C125.384 4.95455 123.793 3.15909 121.429 3.15909C119.065 3.15909 117.474 4.95455 117.474 7.68182C117.474 10.3864 119.065 12.1818 121.429 12.1818ZM121.429 10.9773C119.634 10.9773 118.815 9.43182 118.815 7.68182C118.815 5.93182 119.634 4.36364 121.429 4.36364C123.224 4.36364 124.043 5.93182 124.043 7.68182C124.043 9.43182 123.224 10.9773 121.429 10.9773ZM130.953 15.4545C133.044 15.4545 134.726 14.5 134.726 12.25V3.27273H133.43V4.65909H133.294C132.999 4.20455 132.453 3.15909 130.749 3.15909C128.544 3.15909 127.021 4.90909 127.021 7.59091C127.021 10.3182 128.612 11.8636 130.726 11.8636C132.43 11.8636 132.976 10.8636 133.271 10.3864H133.385V12.1591C133.385 13.6136 132.362 14.2727 130.953 14.2727C129.368 14.2727 128.811 13.4375 128.453 12.9545L127.385 13.7045C127.93 14.6193 129.004 15.4545 130.953 15.4545ZM130.908 10.6591C129.226 10.6591 128.362 9.38636 128.362 7.56818C128.362 5.79545 129.203 4.36364 130.908 4.36364C132.544 4.36364 133.408 5.68182 133.408 7.56818C133.408 9.5 132.521 10.6591 130.908 10.6591ZM140.839 12.1818C142.612 12.1818 143.908 11.2955 144.317 9.97727L143.021 9.61364C142.68 10.5227 141.891 10.9773 140.839 10.9773C139.266 10.9773 138.18 9.96023 138.118 8.09091H144.453V7.52273C144.453 4.27273 142.521 3.15909 140.703 3.15909C138.339 3.15909 136.771 5.02273 136.771 7.70455C136.771 10.3864 138.317 12.1818 140.839 12.1818ZM138.118 6.93182C138.209 5.57386 139.169 4.36364 140.703 4.36364C142.158 4.36364 143.089 5.45455 143.089 6.93182H138.118ZM150.288 3.27273H148.425V1.18182H147.084V3.27273H145.766V4.40909H147.084V9.86364C147.084 11.3864 148.311 12.1136 149.447 12.1136C149.947 12.1136 150.266 12.0227 150.447 11.9545L150.175 10.75C150.061 10.7727 149.879 10.8182 149.584 10.8182C148.993 10.8182 148.425 10.6364 148.425 9.5V4.40909H150.288V3.27273ZM153.834 6.75C153.834 5.22727 154.805 4.36364 156.129 4.36364C157.391 4.36364 158.152 5.15909 158.152 6.54545V12H159.493V6.45455C159.493 4.21023 158.3 3.15909 156.516 3.15909C155.141 3.15909 154.357 3.73295 153.947 4.63636H153.834V0.363636H152.493V12H153.834V6.75ZM165.605 12.1818C167.378 12.1818 168.673 11.2955 169.082 9.97727L167.787 9.61364C167.446 10.5227 166.656 10.9773 165.605 10.9773C164.031 10.9773 162.946 9.96023 162.884 8.09091H169.219V7.52273C169.219 4.27273 167.287 3.15909 165.469 3.15909C163.105 3.15909 161.537 5.02273 161.537 7.70455C161.537 10.3864 163.082 12.1818 165.605 12.1818ZM162.884 6.93182C162.974 5.57386 163.935 4.36364 165.469 4.36364C166.923 4.36364 167.855 5.45455 167.855 6.93182H162.884ZM171.259 12H172.599V6.47727C172.599 5.29545 173.531 4.43182 174.804 4.43182C175.162 4.43182 175.531 4.5 175.622 4.52273V3.15909C175.469 3.14773 175.116 3.13636 174.918 3.13636C173.872 3.13636 172.963 3.72727 172.645 4.59091H172.554V3.27273H171.259V12ZM184.28 12.2045C185.803 12.2045 186.598 11.3864 186.871 10.8182H186.939V12H188.28V6.25C188.28 3.47727 186.166 3.15909 185.053 3.15909C183.734 3.15909 182.234 3.61364 181.553 5.20455L182.825 5.65909C183.121 5.02273 183.82 4.34091 185.098 4.34091C186.331 4.34091 186.939 4.99432 186.939 6.11364V6.15909C186.939 6.80682 186.28 6.75 184.689 6.95455C183.07 7.16477 181.303 7.52273 181.303 9.52273C181.303 11.2273 182.621 12.2045 184.28 12.2045ZM184.484 11C183.416 11 182.643 10.5227 182.643 9.59091C182.643 8.56818 183.575 8.25 184.621 8.11364C185.189 8.04545 186.712 7.88636 186.939 7.61364V8.84091C186.939 9.93182 186.075 11 184.484 11ZM192.068 6.75C192.068 5.22727 193.011 4.36364 194.295 4.36364C195.54 4.36364 196.295 5.17614 196.295 6.54545V12H197.636V6.45455C197.636 4.22727 196.449 3.15909 194.682 3.15909C193.364 3.15909 192.545 3.75 192.136 4.63636H192.023V3.27273H190.727V12H192.068V6.75ZM203.382 12.1818C205.064 12.1818 205.632 11.1364 205.928 10.6591H206.087V12H207.382V0.363636H206.041V4.65909H205.928C205.632 4.20455 205.109 3.15909 203.405 3.15909C201.2 3.15909 199.678 4.90909 199.678 7.65909C199.678 10.4318 201.2 12.1818 203.382 12.1818ZM203.564 10.9773C201.882 10.9773 201.018 9.5 201.018 7.63636C201.018 5.79545 201.859 4.36364 203.564 4.36364C205.2 4.36364 206.064 5.68182 206.064 7.63636C206.064 9.61364 205.178 10.9773 203.564 10.9773ZM218.047 15.4545C220.138 15.4545 221.82 14.5 221.82 12.25V3.27273H220.524V4.65909H220.388C220.092 4.20455 219.547 3.15909 217.842 3.15909C215.638 3.15909 214.115 4.90909 214.115 7.59091C214.115 10.3182 215.706 11.8636 217.82 11.8636C219.524 11.8636 220.07 10.8636 220.365 10.3864H220.479V12.1591C220.479 13.6136 219.456 14.2727 218.047 14.2727C216.462 14.2727 215.905 13.4375 215.547 12.9545L214.479 13.7045C215.024 14.6193 216.098 15.4545 218.047 15.4545ZM218.001 10.6591C216.32 10.6591 215.456 9.38636 215.456 7.56818C215.456 5.79545 216.297 4.36364 218.001 4.36364C219.638 4.36364 220.501 5.68182 220.501 7.56818C220.501 9.5 219.615 10.6591 218.001 10.6591ZM224.274 12H225.615V3.27273H224.274V12ZM224.956 1.81818C225.479 1.81818 225.911 1.40909 225.911 0.909091C225.911 0.409091 225.479 0 224.956 0C224.433 0 224.001 0.409091 224.001 0.909091C224.001 1.40909 224.433 1.81818 224.956 1.81818ZM235.207 3.27273H233.753L231.344 10.2273H231.253L228.844 3.27273H227.389L230.616 12H231.98L235.207 3.27273ZM240.324 12.1818C242.097 12.1818 243.392 11.2955 243.801 9.97727L242.506 9.61364C242.165 10.5227 241.375 10.9773 240.324 10.9773C238.75 10.9773 237.665 9.96023 237.602 8.09091H243.938V7.52273C243.938 4.27273 242.006 3.15909 240.188 3.15909C237.824 3.15909 236.256 5.02273 236.256 7.70455C236.256 10.3864 237.801 12.1818 240.324 12.1818ZM237.602 6.93182C237.693 5.57386 238.653 4.36364 240.188 4.36364C241.642 4.36364 242.574 5.45455 242.574 6.93182H237.602ZM253.045 12.2045C254.568 12.2045 255.364 11.3864 255.636 10.8182H255.705V12H257.045V6.25C257.045 3.47727 254.932 3.15909 253.818 3.15909C252.5 3.15909 251 3.61364 250.318 5.20455L251.591 5.65909C251.886 5.02273 252.585 4.34091 253.864 4.34091C255.097 4.34091 255.705 4.99432 255.705 6.11364V6.15909C255.705 6.80682 255.045 6.75 253.455 6.95455C251.835 7.16477 250.068 7.52273 250.068 9.52273C250.068 11.2273 251.386 12.2045 253.045 12.2045ZM253.25 11C252.182 11 251.409 10.5227 251.409 9.59091C251.409 8.56818 252.341 8.25 253.386 8.11364C253.955 8.04545 255.477 7.88636 255.705 7.61364V8.84091C255.705 9.93182 254.841 11 253.25 11ZM270.175 5.22727C269.754 3.98864 268.811 3.15909 267.084 3.15909C265.243 3.15909 263.879 4.20455 263.879 5.68182C263.879 6.88636 264.595 7.69318 266.197 8.06818L267.652 8.40909C268.533 8.61364 268.947 9.03409 268.947 9.63636C268.947 10.3864 268.152 11 266.902 11C265.805 11 265.118 10.5284 264.879 9.59091L263.607 9.90909C263.919 11.392 265.141 12.1818 266.925 12.1818C268.953 12.1818 270.334 11.0739 270.334 9.56818C270.334 8.35227 269.572 7.58523 268.016 7.20455L266.72 6.88636C265.686 6.63068 265.22 6.28409 265.22 5.61364C265.22 4.86364 266.016 4.31818 267.084 4.31818C268.254 4.31818 268.737 4.96591 268.97 5.56818L270.175 5.22727ZM276.148 3.27273H274.284V1.18182H272.943V3.27273H271.625V4.40909H272.943V9.86364C272.943 11.3864 274.17 12.1136 275.307 12.1136C275.807 12.1136 276.125 12.0227 276.307 11.9545L276.034 10.75C275.92 10.7727 275.739 10.8182 275.443 10.8182C274.852 10.8182 274.284 10.6364 274.284 9.5V4.40909H276.148V3.27273ZM280.733 12.2045C282.256 12.2045 283.051 11.3864 283.324 10.8182H283.392V12H284.733V6.25C284.733 3.47727 282.619 3.15909 281.506 3.15909C280.188 3.15909 278.688 3.61364 278.006 5.20455L279.278 5.65909C279.574 5.02273 280.273 4.34091 281.551 4.34091C282.784 4.34091 283.392 4.99432 283.392 6.11364V6.15909C283.392 6.80682 282.733 6.75 281.142 6.95455C279.523 7.16477 277.756 7.52273 277.756 9.52273C277.756 11.2273 279.074 12.2045 280.733 12.2045ZM280.938 11C279.869 11 279.097 10.5227 279.097 9.59091C279.097 8.56818 280.028 8.25 281.074 8.11364C281.642 8.04545 283.165 7.88636 283.392 7.61364V8.84091C283.392 9.93182 282.528 11 280.938 11ZM287.18 12H288.521V8.73295L289.459 7.86364L292.726 12H294.43L290.47 7L294.158 3.27273H292.499L288.68 7.15909H288.521V0.363636H287.18V12ZM299.183 12.1818C300.956 12.1818 302.251 11.2955 302.661 9.97727L301.365 9.61364C301.024 10.5227 300.234 10.9773 299.183 10.9773C297.609 10.9773 296.524 9.96023 296.462 8.09091H302.797V7.52273C302.797 4.27273 300.865 3.15909 299.047 3.15909C296.683 3.15909 295.115 5.02273 295.115 7.70455C295.115 10.3864 296.661 12.1818 299.183 12.1818ZM296.462 6.93182C296.553 5.57386 297.513 4.36364 299.047 4.36364C300.501 4.36364 301.433 5.45455 301.433 6.93182H296.462ZM4.88636 36.1818C6.65909 36.1818 7.95455 35.2955 8.36364 33.9773L7.06818 33.6136C6.72727 34.5227 5.9375 34.9773 4.88636 34.9773C3.3125 34.9773 2.22727 33.9602 2.16477 32.0909H8.5V31.5227C8.5 28.2727 6.56818 27.1591 4.75 27.1591C2.38636 27.1591 0.818182 29.0227 0.818182 31.7045C0.818182 34.3864 2.36364 36.1818 4.88636 36.1818ZM2.16477 30.9318C2.25568 29.5739 3.21591 28.3636 4.75 28.3636C6.20455 28.3636 7.13636 29.4545 7.13636 30.9318H2.16477ZM10.5398 36H11.8807V30.5455C11.8807 29.267 12.8125 28.3636 13.858 28.3636C14.875 28.3636 15.5852 29.0284 15.5852 30.0227V36H16.9489V30.3182C16.9489 29.1932 17.6534 28.3636 18.8807 28.3636C19.8352 28.3636 20.6534 28.8693 20.6534 30.1591V36H21.9943V30.1591C21.9943 28.108 20.892 27.1591 19.3352 27.1591C18.0852 27.1591 17.1705 27.733 16.7216 28.6364H16.6307C16.1989 27.7045 15.4375 27.1591 14.2898 27.1591C13.1534 27.1591 12.3125 27.7045 11.9489 28.6364H11.8352V27.2727H10.5398V36ZM24.446 39.2727H25.7869V34.6591H25.9006C26.196 35.1364 26.7642 36.1818 28.446 36.1818C30.6278 36.1818 32.1506 34.4318 32.1506 31.6591C32.1506 28.9091 30.6278 27.1591 28.4233 27.1591C26.7188 27.1591 26.196 28.2045 25.9006 28.6591H25.7415V27.2727H24.446V39.2727ZM25.7642 31.6364C25.7642 29.6818 26.6278 28.3636 28.2642 28.3636C29.9688 28.3636 30.8097 29.7955 30.8097 31.6364C30.8097 33.5 29.946 34.9773 28.2642 34.9773C26.6506 34.9773 25.7642 33.6136 25.7642 31.6364ZM35.5369 24.3636H34.196V36H35.5369V24.3636ZM41.5384 36.1818C43.902 36.1818 45.4929 34.3864 45.4929 31.6818C45.4929 28.9545 43.902 27.1591 41.5384 27.1591C39.1747 27.1591 37.5838 28.9545 37.5838 31.6818C37.5838 34.3864 39.1747 36.1818 41.5384 36.1818ZM41.5384 34.9773C39.7429 34.9773 38.9247 33.4318 38.9247 31.6818C38.9247 29.9318 39.7429 28.3636 41.5384 28.3636C43.3338 28.3636 44.152 29.9318 44.152 31.6818C44.152 33.4318 43.3338 34.9773 41.5384 34.9773ZM48.0909 39.2727C49.3011 39.2727 50.1534 38.6307 50.6591 37.2727L54.375 27.2955L52.9091 27.2727L50.5 34.2273H50.4091L48 27.2727H46.5455L49.7727 36.0455L49.5227 36.7273C49.0341 38.0568 48.4318 38.1818 47.4545 37.9318L47.1136 39.1136C47.25 39.1818 47.6364 39.2727 48.0909 39.2727ZM59.4957 36.1818C61.2685 36.1818 62.5639 35.2955 62.973 33.9773L61.6776 33.6136C61.3366 34.5227 60.5469 34.9773 59.4957 34.9773C57.9219 34.9773 56.8366 33.9602 56.7741 32.0909H63.1094V31.5227C63.1094 28.2727 61.1776 27.1591 59.3594 27.1591C56.9957 27.1591 55.4276 29.0227 55.4276 31.7045C55.4276 34.3864 56.973 36.1818 59.4957 36.1818ZM56.7741 30.9318C56.8651 29.5739 57.8253 28.3636 59.3594 28.3636C60.8139 28.3636 61.7457 29.4545 61.7457 30.9318H56.7741ZM68.8082 36.1818C70.581 36.1818 71.8764 35.2955 72.2855 33.9773L70.9901 33.6136C70.6491 34.5227 69.8594 34.9773 68.8082 34.9773C67.2344 34.9773 66.1491 33.9602 66.0866 32.0909H72.4219V31.5227C72.4219 28.2727 70.4901 27.1591 68.6719 27.1591C66.3082 27.1591 64.7401 29.0227 64.7401 31.7045C64.7401 34.3864 66.2855 36.1818 68.8082 36.1818ZM66.0866 30.9318C66.1776 29.5739 67.1378 28.3636 68.6719 28.3636C70.1264 28.3636 71.0582 29.4545 71.0582 30.9318H66.0866ZM80.6435 29.2273C80.223 27.9886 79.2798 27.1591 77.5526 27.1591C75.7116 27.1591 74.348 28.2045 74.348 29.6818C74.348 30.8864 75.0639 31.6932 76.6662 32.0682L78.1207 32.4091C79.0014 32.6136 79.4162 33.0341 79.4162 33.6364C79.4162 34.3864 78.6207 35 77.3707 35C76.2741 35 75.5866 34.5284 75.348 33.5909L74.0753 33.9091C74.3878 35.392 75.6094 36.1818 77.3935 36.1818C79.4219 36.1818 80.8026 35.0739 80.8026 33.5682C80.8026 32.3523 80.0412 31.5852 78.4844 31.2045L77.1889 30.8864C76.1548 30.6307 75.6889 30.2841 75.6889 29.6136C75.6889 28.8636 76.4844 28.3182 77.5526 28.3182C78.723 28.3182 79.206 28.9659 79.4389 29.5682L80.6435 29.2273ZM89.8892 36.2045C91.4119 36.2045 92.2074 35.3864 92.4801 34.8182H92.5483V36H93.8892V30.25C93.8892 27.4773 91.7756 27.1591 90.6619 27.1591C89.3438 27.1591 87.8438 27.6136 87.1619 29.2045L88.4347 29.6591C88.7301 29.0227 89.429 28.3409 90.7074 28.3409C91.9403 28.3409 92.5483 28.9943 92.5483 30.1136V30.1591C92.5483 30.8068 91.8892 30.75 90.2983 30.9545C88.679 31.1648 86.9119 31.5227 86.9119 33.5227C86.9119 35.2273 88.2301 36.2045 89.8892 36.2045ZM90.0938 35C89.0256 35 88.2528 34.5227 88.2528 33.5909C88.2528 32.5682 89.1847 32.25 90.2301 32.1136C90.7983 32.0455 92.321 31.8864 92.5483 31.6136V32.8409C92.5483 33.9318 91.6847 35 90.0938 35ZM97.6776 30.75C97.6776 29.2273 98.6207 28.3636 99.9048 28.3636C101.149 28.3636 101.905 29.1761 101.905 30.5455V36H103.246V30.4545C103.246 28.2273 102.058 27.1591 100.291 27.1591C98.973 27.1591 98.1548 27.75 97.7457 28.6364H97.6321V27.2727H96.3366V36H97.6776V30.75ZM108.991 36.1818C110.673 36.1818 111.241 35.1364 111.537 34.6591H111.696V36H112.991V24.3636H111.651V28.6591H111.537C111.241 28.2045 110.719 27.1591 109.014 27.1591C106.81 27.1591 105.287 28.9091 105.287 31.6591C105.287 34.4318 106.81 36.1818 108.991 36.1818ZM109.173 34.9773C107.491 34.9773 106.628 33.5 106.628 31.6364C106.628 29.7955 107.469 28.3636 109.173 28.3636C110.81 28.3636 111.673 29.6818 111.673 31.6364C111.673 33.6136 110.787 34.9773 109.173 34.9773ZM123.929 27.2727H122.065V25.1818H120.724V27.2727H119.406V28.4091H120.724V33.8636C120.724 35.3864 121.952 36.1136 123.088 36.1136C123.588 36.1136 123.906 36.0227 124.088 35.9545L123.815 34.75C123.702 34.7727 123.52 34.8182 123.224 34.8182C122.634 34.8182 122.065 34.6364 122.065 33.5V28.4091H123.929V27.2727ZM129.511 36.1818C131.284 36.1818 132.58 35.2955 132.989 33.9773L131.693 33.6136C131.352 34.5227 130.562 34.9773 129.511 34.9773C127.938 34.9773 126.852 33.9602 126.79 32.0909H133.125V31.5227C133.125 28.2727 131.193 27.1591 129.375 27.1591C127.011 27.1591 125.443 29.0227 125.443 31.7045C125.443 34.3864 126.989 36.1818 129.511 36.1818ZM126.79 30.9318C126.881 29.5739 127.841 28.3636 129.375 28.3636C130.83 28.3636 131.761 29.4545 131.761 30.9318H126.79ZM137.733 36.2045C139.256 36.2045 140.051 35.3864 140.324 34.8182H140.392V36H141.733V30.25C141.733 27.4773 139.619 27.1591 138.506 27.1591C137.188 27.1591 135.688 27.6136 135.006 29.2045L136.278 29.6591C136.574 29.0227 137.273 28.3409 138.551 28.3409C139.784 28.3409 140.392 28.9943 140.392 30.1136V30.1591C140.392 30.8068 139.733 30.75 138.142 30.9545C136.523 31.1648 134.756 31.5227 134.756 33.5227C134.756 35.2273 136.074 36.2045 137.733 36.2045ZM137.938 35C136.869 35 136.097 34.5227 136.097 33.5909C136.097 32.5682 137.028 32.25 138.074 32.1136C138.642 32.0455 140.165 31.8864 140.392 31.6136V32.8409C140.392 33.9318 139.528 35 137.938 35ZM144.18 36H145.521V30.5455C145.521 29.267 146.453 28.3636 147.499 28.3636C148.516 28.3636 149.226 29.0284 149.226 30.0227V36H150.589V30.3182C150.589 29.1932 151.294 28.3636 152.521 28.3636C153.476 28.3636 154.294 28.8693 154.294 30.1591V36H155.635V30.1591C155.635 28.108 154.533 27.1591 152.976 27.1591C151.726 27.1591 150.811 27.733 150.362 28.6364H150.271C149.839 27.7045 149.078 27.1591 147.93 27.1591C146.794 27.1591 145.953 27.7045 145.589 28.6364H145.476V27.2727H144.18V36ZM164.268 29.2273C163.848 27.9886 162.905 27.1591 161.178 27.1591C159.337 27.1591 157.973 28.2045 157.973 29.6818C157.973 30.8864 158.689 31.6932 160.291 32.0682L161.746 32.4091C162.626 32.6136 163.041 33.0341 163.041 33.6364C163.041 34.3864 162.246 35 160.996 35C159.899 35 159.212 34.5284 158.973 33.5909L157.7 33.9091C158.013 35.392 159.234 36.1818 161.018 36.1818C163.047 36.1818 164.428 35.0739 164.428 33.5682C164.428 32.3523 163.666 31.5852 162.109 31.2045L160.814 30.8864C159.78 30.6307 159.314 30.2841 159.314 29.6136C159.314 28.8636 160.109 28.3182 161.178 28.3182C162.348 28.3182 162.831 28.9659 163.064 29.5682L164.268 29.2273ZM167.423 36.0909C167.986 36.0909 168.446 35.6307 168.446 35.0682C168.446 34.5057 167.986 34.0455 167.423 34.0455C166.861 34.0455 166.401 34.5057 166.401 35.0682C166.401 35.6307 166.861 36.0909 167.423 36.0909Z" fill="#4E5A65"/>
</svg>
