<svg width="302" height="41" viewBox="0 0 302 41" fill="none" xmlns="http://www.w3.org/2000/svg">
<path d="M1.40909 13H2.81818V8.75H5.36364C8.07386 8.75 9.29545 7.10227 9.29545 5.04545C9.29545 2.98864 8.07386 1.36364 5.34091 1.36364H1.40909V13ZM2.81818 7.5V2.61364H5.29545C7.1875 2.61364 7.90909 3.64773 7.90909 5.04545C7.90909 6.44318 7.1875 7.5 5.31818 7.5H2.81818ZM14.8352 13.1818C17.1989 13.1818 18.7898 11.3864 18.7898 8.68182C18.7898 5.95455 17.1989 4.15909 14.8352 4.15909C12.4716 4.15909 10.8807 5.95455 10.8807 8.68182C10.8807 11.3864 12.4716 13.1818 14.8352 13.1818ZM14.8352 11.9773C13.0398 11.9773 12.2216 10.4318 12.2216 8.68182C12.2216 6.93182 13.0398 5.36364 14.8352 5.36364C16.6307 5.36364 17.4489 6.93182 17.4489 8.68182C17.4489 10.4318 16.6307 11.9773 14.8352 11.9773ZM22.517 13H23.8352L25.7443 6.29545H25.8807L27.7898 13H29.108L31.767 4.27273H30.358L28.4716 10.9318H28.3807L26.5398 4.27273H25.108L23.2443 10.9545H23.1534L21.267 4.27273H19.858L22.517 13ZM36.902 13.1818C38.6747 13.1818 39.9702 12.2955 40.3793 10.9773L39.0838 10.6136C38.7429 11.5227 37.9531 11.9773 36.902 11.9773C35.3281 11.9773 34.2429 10.9602 34.1804 9.09091H40.5156V8.52273C40.5156 5.27273 38.5838 4.15909 36.7656 4.15909C34.402 4.15909 32.8338 6.02273 32.8338 8.70455C32.8338 11.3864 34.3793 13.1818 36.902 13.1818ZM34.1804 7.93182C34.2713 6.57386 35.2315 5.36364 36.7656 5.36364C38.2202 5.36364 39.152 6.45455 39.152 7.93182H34.1804ZM42.5554 13H43.8963V7.47727C43.8963 6.29545 44.8281 5.43182 46.1009 5.43182C46.4588 5.43182 46.8281 5.5 46.919 5.52273V4.15909C46.7656 4.14773 46.4134 4.13636 46.2145 4.13636C45.169 4.13636 44.2599 4.72727 43.9418 5.59091H43.8509V4.27273H42.5554V13ZM52.9418 4.27273H50.9872V3.38636C50.9872 2.52273 51.3509 2.06818 52.2372 2.06818C52.6236 2.06818 52.8509 2.15909 52.9872 2.20455L53.3736 1.04545C53.169 0.954545 52.7599 0.818181 52.1009 0.818181C50.8509 0.818181 49.6463 1.56818 49.6463 3.06818V4.27273H48.2372V5.40909H49.6463V13H50.9872V5.40909H52.9418V4.27273ZM60.321 9.43182C60.321 11.0682 59.071 11.8182 58.071 11.8182C56.9574 11.8182 56.1619 11 56.1619 9.72727V4.27273H54.821V9.81818C54.821 12.0455 56.0028 13.1136 57.6392 13.1136C58.9574 13.1136 59.821 12.4091 60.2301 11.5227H60.321V13H61.6619V4.27273H60.321V9.43182ZM65.4588 1.36364H64.1179V13H65.4588V1.36364ZM79.7102 16.2727V4.27273H78.4148V5.65909H78.2557C77.9602 5.20455 77.4375 4.15909 75.733 4.15909C73.5284 4.15909 72.0057 5.90909 72.0057 8.65909C72.0057 11.4318 73.5284 13.1818 75.7102 13.1818C77.392 13.1818 77.9602 12.1364 78.2557 11.6591H78.3693V16.2727H79.7102ZM78.392 8.63636C78.392 10.6136 77.5057 11.9773 75.892 11.9773C74.2102 11.9773 73.3466 10.5 73.3466 8.63636C73.3466 6.79545 74.1875 5.36364 75.892 5.36364C77.5284 5.36364 78.392 6.68182 78.392 8.63636ZM87.6648 9.43182C87.6648 11.0682 86.4148 11.8182 85.4148 11.8182C84.3011 11.8182 83.5057 11 83.5057 9.72727V4.27273H82.1648V9.81818C82.1648 12.0455 83.3466 13.1136 84.983 13.1136C86.3011 13.1136 87.1648 12.4091 87.5739 11.5227H87.6648V13H89.0057V4.27273H87.6648V9.43182ZM95.1207 13.1818C96.8935 13.1818 98.1889 12.2955 98.598 10.9773L97.3026 10.6136C96.9616 11.5227 96.1719 11.9773 95.1207 11.9773C93.5469 11.9773 92.4616 10.9602 92.3991 9.09091H98.7344V8.52273C98.7344 5.27273 96.8026 4.15909 94.9844 4.15909C92.6207 4.15909 91.0526 6.02273 91.0526 8.70455C91.0526 11.3864 92.598 13.1818 95.1207 13.1818ZM92.3991 7.93182C92.4901 6.57386 93.4503 5.36364 94.9844 5.36364C96.4389 5.36364 97.3707 6.45455 97.3707 7.93182H92.3991ZM106.956 6.22727C106.536 4.98864 105.592 4.15909 103.865 4.15909C102.024 4.15909 100.661 5.20455 100.661 6.68182C100.661 7.88636 101.376 8.69318 102.979 9.06818L104.433 9.40909C105.314 9.61364 105.729 10.0341 105.729 10.6364C105.729 11.3864 104.933 12 103.683 12C102.587 12 101.899 11.5284 101.661 10.5909L100.388 10.9091C100.7 12.392 101.922 13.1818 103.706 13.1818C105.734 13.1818 107.115 12.0739 107.115 10.5682C107.115 9.35227 106.354 8.58523 104.797 8.20455L103.501 7.88636C102.467 7.63068 102.001 7.28409 102.001 6.61364C102.001 5.86364 102.797 5.31818 103.865 5.31818C105.036 5.31818 105.518 5.96591 105.751 6.56818L106.956 6.22727ZM112.929 4.27273H111.065V2.18182H109.724V4.27273H108.406V5.40909H109.724V10.8636C109.724 12.3864 110.952 13.1136 112.088 13.1136C112.588 13.1136 112.906 13.0227 113.088 12.9545L112.815 11.75C112.702 11.7727 112.52 11.8182 112.224 11.8182C111.634 11.8182 111.065 11.6364 111.065 10.5V5.40909H112.929V4.27273ZM114.946 13H116.287V4.27273H114.946V13ZM115.628 2.81818C116.151 2.81818 116.582 2.40909 116.582 1.90909C116.582 1.40909 116.151 1 115.628 1C115.105 1 114.673 1.40909 114.673 1.90909C114.673 2.40909 115.105 2.81818 115.628 2.81818ZM122.288 13.1818C124.652 13.1818 126.243 11.3864 126.243 8.68182C126.243 5.95455 124.652 4.15909 122.288 4.15909C119.925 4.15909 118.334 5.95455 118.334 8.68182C118.334 11.3864 119.925 13.1818 122.288 13.1818ZM122.288 11.9773C120.493 11.9773 119.675 10.4318 119.675 8.68182C119.675 6.93182 120.493 5.36364 122.288 5.36364C124.084 5.36364 124.902 6.93182 124.902 8.68182C124.902 10.4318 124.084 11.9773 122.288 11.9773ZM129.631 7.75C129.631 6.22727 130.574 5.36364 131.858 5.36364C133.102 5.36364 133.858 6.17614 133.858 7.54545V13H135.199V7.45455C135.199 5.22727 134.011 4.15909 132.244 4.15909C130.926 4.15909 130.108 4.75 129.699 5.63636H129.585V4.27273H128.29V13H129.631V7.75ZM143.831 6.22727C143.411 4.98864 142.467 4.15909 140.74 4.15909C138.899 4.15909 137.536 5.20455 137.536 6.68182C137.536 7.88636 138.251 8.69318 139.854 9.06818L141.308 9.40909C142.189 9.61364 142.604 10.0341 142.604 10.6364C142.604 11.3864 141.808 12 140.558 12C139.462 12 138.774 11.5284 138.536 10.5909L137.263 10.9091C137.575 12.392 138.797 13.1818 140.581 13.1818C142.609 13.1818 143.99 12.0739 143.99 10.5682C143.99 9.35227 143.229 8.58523 141.672 8.20455L140.376 7.88636C139.342 7.63068 138.876 7.28409 138.876 6.61364C138.876 5.86364 139.672 5.31818 140.74 5.31818C141.911 5.31818 142.393 5.96591 142.626 6.56818L143.831 6.22727ZM154.304 4.27273H152.44V2.18182H151.099V4.27273H149.781V5.40909H151.099V10.8636C151.099 12.3864 152.327 13.1136 153.463 13.1136C153.963 13.1136 154.281 13.0227 154.463 12.9545L154.19 11.75C154.077 11.7727 153.895 11.8182 153.599 11.8182C153.009 11.8182 152.44 11.6364 152.44 10.5V5.40909H154.304V4.27273ZM157.849 7.75C157.849 6.22727 158.821 5.36364 160.145 5.36364C161.406 5.36364 162.168 6.15909 162.168 7.54545V13H163.509V7.45455C163.509 5.21023 162.315 4.15909 160.531 4.15909C159.156 4.15909 158.372 4.73295 157.963 5.63636H157.849V1.36364H156.509V13H157.849V7.75ZM168.53 13.2045C170.053 13.2045 170.848 12.3864 171.121 11.8182H171.189V13H172.53V7.25C172.53 4.47727 170.416 4.15909 169.303 4.15909C167.984 4.15909 166.484 4.61364 165.803 6.20455L167.075 6.65909C167.371 6.02273 168.07 5.34091 169.348 5.34091C170.581 5.34091 171.189 5.99432 171.189 7.11364V7.15909C171.189 7.80682 170.53 7.75 168.939 7.95455C167.32 8.16477 165.553 8.52273 165.553 10.5227C165.553 12.2273 166.871 13.2045 168.53 13.2045ZM168.734 12C167.666 12 166.893 11.5227 166.893 10.5909C166.893 9.56818 167.825 9.25 168.871 9.11364C169.439 9.04545 170.962 8.88636 171.189 8.61364V9.84091C171.189 10.9318 170.325 12 168.734 12ZM178.773 4.27273H176.909V2.18182H175.568V4.27273H174.25V5.40909H175.568V10.8636C175.568 12.3864 176.795 13.1136 177.932 13.1136C178.432 13.1136 178.75 13.0227 178.932 12.9545L178.659 11.75C178.545 11.7727 178.364 11.8182 178.068 11.8182C177.477 11.8182 176.909 11.6364 176.909 10.5V5.40909H178.773V4.27273ZM188.812 16.4545C190.903 16.4545 192.585 15.5 192.585 13.25V4.27273H191.29V5.65909H191.153C190.858 5.20455 190.312 4.15909 188.608 4.15909C186.403 4.15909 184.881 5.90909 184.881 8.59091C184.881 11.3182 186.472 12.8636 188.585 12.8636C190.29 12.8636 190.835 11.8636 191.131 11.3864H191.244V13.1591C191.244 14.6136 190.222 15.2727 188.812 15.2727C187.227 15.2727 186.67 14.4375 186.312 13.9545L185.244 14.7045C185.79 15.6193 186.864 16.4545 188.812 16.4545ZM188.767 11.6591C187.085 11.6591 186.222 10.3864 186.222 8.56818C186.222 6.79545 187.062 5.36364 188.767 5.36364C190.403 5.36364 191.267 6.68182 191.267 8.56818C191.267 10.5 190.381 11.6591 188.767 11.6591ZM198.699 13.1818C200.472 13.1818 201.767 12.2955 202.176 10.9773L200.881 10.6136C200.54 11.5227 199.75 11.9773 198.699 11.9773C197.125 11.9773 196.04 10.9602 195.977 9.09091H202.312V8.52273C202.312 5.27273 200.381 4.15909 198.562 4.15909C196.199 4.15909 194.631 6.02273 194.631 8.70455C194.631 11.3864 196.176 13.1818 198.699 13.1818ZM195.977 7.93182C196.068 6.57386 197.028 5.36364 198.562 5.36364C200.017 5.36364 200.949 6.45455 200.949 7.93182H195.977ZM208.148 4.27273H206.284V2.18182H204.943V4.27273H203.625V5.40909H204.943V10.8636C204.943 12.3864 206.17 13.1136 207.307 13.1136C207.807 13.1136 208.125 13.0227 208.307 12.9545L208.034 11.75C207.92 11.7727 207.739 11.8182 207.443 11.8182C206.852 11.8182 206.284 11.6364 206.284 10.5V5.40909H208.148V4.27273ZM218.46 4.27273H216.597V2.18182H215.256V4.27273H213.938V5.40909H215.256V10.8636C215.256 12.3864 216.483 13.1136 217.619 13.1136C218.119 13.1136 218.438 13.0227 218.619 12.9545L218.347 11.75C218.233 11.7727 218.051 11.8182 217.756 11.8182C217.165 11.8182 216.597 11.6364 216.597 10.5V5.40909H218.46V4.27273ZM223.929 13.1818C226.293 13.1818 227.884 11.3864 227.884 8.68182C227.884 5.95455 226.293 4.15909 223.929 4.15909C221.565 4.15909 219.974 5.95455 219.974 8.68182C219.974 11.3864 221.565 13.1818 223.929 13.1818ZM223.929 11.9773C222.134 11.9773 221.315 10.4318 221.315 8.68182C221.315 6.93182 222.134 5.36364 223.929 5.36364C225.724 5.36364 226.543 6.93182 226.543 8.68182C226.543 10.4318 225.724 11.9773 223.929 11.9773ZM238.226 4.27273H236.362V2.18182H235.021V4.27273H233.703V5.40909H235.021V10.8636C235.021 12.3864 236.249 13.1136 237.385 13.1136C237.885 13.1136 238.203 13.0227 238.385 12.9545L238.112 11.75C237.999 11.7727 237.817 11.8182 237.521 11.8182C236.93 11.8182 236.362 11.6364 236.362 10.5V5.40909H238.226V4.27273ZM241.771 7.75C241.771 6.22727 242.743 5.36364 244.067 5.36364C245.328 5.36364 246.089 6.15909 246.089 7.54545V13H247.43V7.45455C247.43 5.21023 246.237 4.15909 244.453 4.15909C243.078 4.15909 242.294 4.73295 241.885 5.63636H241.771V1.36364H240.43V13H241.771V7.75ZM253.543 13.1818C255.315 13.1818 256.611 12.2955 257.02 10.9773L255.724 10.6136C255.384 11.5227 254.594 11.9773 253.543 11.9773C251.969 11.9773 250.884 10.9602 250.821 9.09091H257.156V8.52273C257.156 5.27273 255.224 4.15909 253.406 4.15909C251.043 4.15909 249.474 6.02273 249.474 8.70455C249.474 11.3864 251.02 13.1818 253.543 13.1818ZM250.821 7.93182C250.912 6.57386 251.872 5.36364 253.406 5.36364C254.861 5.36364 255.793 6.45455 255.793 7.93182H250.821ZM265.037 7.75C265.037 6.22727 266.009 5.36364 267.332 5.36364C268.594 5.36364 269.355 6.15909 269.355 7.54545V13H270.696V7.45455C270.696 5.21023 269.503 4.15909 267.719 4.15909C266.344 4.15909 265.56 4.73295 265.151 5.63636H265.037V1.36364H263.696V13H265.037V7.75ZM276.808 13.1818C278.581 13.1818 279.876 12.2955 280.286 10.9773L278.99 10.6136C278.649 11.5227 277.859 11.9773 276.808 11.9773C275.234 11.9773 274.149 10.9602 274.087 9.09091H280.422V8.52273C280.422 5.27273 278.49 4.15909 276.672 4.15909C274.308 4.15909 272.74 6.02273 272.74 8.70455C272.74 11.3864 274.286 13.1818 276.808 13.1818ZM274.087 7.93182C274.178 6.57386 275.138 5.36364 276.672 5.36364C278.126 5.36364 279.058 6.45455 279.058 7.93182H274.087ZM285.03 13.2045C286.553 13.2045 287.348 12.3864 287.621 11.8182H287.689V13H289.03V7.25C289.03 4.47727 286.916 4.15909 285.803 4.15909C284.484 4.15909 282.984 4.61364 282.303 6.20455L283.575 6.65909C283.871 6.02273 284.57 5.34091 285.848 5.34091C287.081 5.34091 287.689 5.99432 287.689 7.11364V7.15909C287.689 7.80682 287.03 7.75 285.439 7.95455C283.82 8.16477 282.053 8.52273 282.053 10.5227C282.053 12.2273 283.371 13.2045 285.03 13.2045ZM285.234 12C284.166 12 283.393 11.5227 283.393 10.5909C283.393 9.56818 284.325 9.25 285.371 9.11364C285.939 9.04545 287.462 8.88636 287.689 8.61364V9.84091C287.689 10.9318 286.825 12 285.234 12ZM291.477 13H292.818V7.47727C292.818 6.29545 293.75 5.43182 295.023 5.43182C295.381 5.43182 295.75 5.5 295.841 5.52273V4.15909C295.688 4.14773 295.335 4.13636 295.136 4.13636C294.091 4.13636 293.182 4.72727 292.864 5.59091H292.773V4.27273H291.477V13ZM301.773 4.27273H299.909V2.18182H298.568V4.27273H297.25V5.40909H298.568V10.8636C298.568 12.3864 299.795 13.1136 300.932 13.1136C301.432 13.1136 301.75 13.0227 301.932 12.9545L301.659 11.75C301.545 11.7727 301.364 11.8182 301.068 11.8182C300.477 11.8182 299.909 11.6364 299.909 10.5V5.40909H301.773V4.27273ZM4.77273 37.1818C7.13636 37.1818 8.72727 35.3864 8.72727 32.6818C8.72727 29.9545 7.13636 28.1591 4.77273 28.1591C2.40909 28.1591 0.818182 29.9545 0.818182 32.6818C0.818182 35.3864 2.40909 37.1818 4.77273 37.1818ZM4.77273 35.9773C2.97727 35.9773 2.15909 34.4318 2.15909 32.6818C2.15909 30.9318 2.97727 29.3636 4.77273 29.3636C6.56818 29.3636 7.38636 30.9318 7.38636 32.6818C7.38636 34.4318 6.56818 35.9773 4.77273 35.9773ZM14.6605 28.2727H12.706V27.3864C12.706 26.5227 13.0696 26.0682 13.956 26.0682C14.3423 26.0682 14.5696 26.1591 14.706 26.2045L15.0923 25.0455C14.8878 24.9545 14.4787 24.8182 13.8196 24.8182C12.5696 24.8182 11.3651 25.5682 11.3651 27.0682V28.2727H9.95597V29.4091H11.3651V37H12.706V29.4091H14.6605V28.2727ZM22.3807 31.75C22.3807 30.2273 23.3523 29.3636 24.6761 29.3636C25.9375 29.3636 26.6989 30.1591 26.6989 31.5455V37H28.0398V31.4545C28.0398 29.2102 26.8466 28.1591 25.0625 28.1591C23.6875 28.1591 22.9034 28.733 22.4943 29.6364H22.3807V25.3636H21.0398V37H22.3807V31.75ZM34.0384 37.1818C36.402 37.1818 37.9929 35.3864 37.9929 32.6818C37.9929 29.9545 36.402 28.1591 34.0384 28.1591C31.6747 28.1591 30.0838 29.9545 30.0838 32.6818C30.0838 35.3864 31.6747 37.1818 34.0384 37.1818ZM34.0384 35.9773C32.2429 35.9773 31.4247 34.4318 31.4247 32.6818C31.4247 30.9318 32.2429 29.3636 34.0384 29.3636C35.8338 29.3636 36.652 30.9318 36.652 32.6818C36.652 34.4318 35.8338 35.9773 34.0384 35.9773ZM41.7202 37H43.0384L44.9474 30.2955H45.0838L46.9929 37H48.3111L50.9702 28.2727H49.5611L47.6747 34.9318H47.5838L45.7429 28.2727H44.3111L42.4474 34.9545H42.3565L40.4702 28.2727H39.0611L41.7202 37ZM61.0384 28.2727H59.1747V26.1818H57.8338V28.2727H56.5156V29.4091H57.8338V34.8636C57.8338 36.3864 59.0611 37.1136 60.1974 37.1136C60.6974 37.1136 61.0156 37.0227 61.1974 36.9545L60.9247 35.75C60.8111 35.7727 60.6293 35.8182 60.3338 35.8182C59.7429 35.8182 59.1747 35.6364 59.1747 34.5V29.4091H61.0384V28.2727ZM66.6207 37.1818C68.3935 37.1818 69.6889 36.2955 70.098 34.9773L68.8026 34.6136C68.4616 35.5227 67.6719 35.9773 66.6207 35.9773C65.0469 35.9773 63.9616 34.9602 63.8991 33.0909H70.2344V32.5227C70.2344 29.2727 68.3026 28.1591 66.4844 28.1591C64.1207 28.1591 62.5526 30.0227 62.5526 32.7045C62.5526 35.3864 64.098 37.1818 66.6207 37.1818ZM63.8991 31.9318C63.9901 30.5739 64.9503 29.3636 66.4844 29.3636C67.9389 29.3636 68.8707 30.4545 68.8707 31.9318H63.8991ZM74.8423 37.2045C76.3651 37.2045 77.1605 36.3864 77.4332 35.8182H77.5014V37H78.8423V31.25C78.8423 28.4773 76.7287 28.1591 75.6151 28.1591C74.2969 28.1591 72.7969 28.6136 72.1151 30.2045L73.3878 30.6591C73.6832 30.0227 74.3821 29.3409 75.6605 29.3409C76.8935 29.3409 77.5014 29.9943 77.5014 31.1136V31.1591C77.5014 31.8068 76.8423 31.75 75.2514 31.9545C73.6321 32.1648 71.8651 32.5227 71.8651 34.5227C71.8651 36.2273 73.1832 37.2045 74.8423 37.2045ZM75.0469 36C73.9787 36 73.206 35.5227 73.206 34.5909C73.206 33.5682 74.1378 33.25 75.1832 33.1136C75.7514 33.0455 77.2741 32.8864 77.5014 32.6136V33.8409C77.5014 34.9318 76.6378 36 75.0469 36ZM81.2898 37H82.6307V31.5455C82.6307 30.267 83.5625 29.3636 84.608 29.3636C85.625 29.3636 86.3352 30.0284 86.3352 31.0227V37H87.6989V31.3182C87.6989 30.1932 88.4034 29.3636 89.6307 29.3636C90.5852 29.3636 91.4034 29.8693 91.4034 31.1591V37H92.7443V31.1591C92.7443 29.108 91.642 28.1591 90.0852 28.1591C88.8352 28.1591 87.9205 28.733 87.4716 29.6364H87.3807C86.9489 28.7045 86.1875 28.1591 85.0398 28.1591C83.9034 28.1591 83.0625 28.7045 82.6989 29.6364H82.5852V28.2727H81.2898V37ZM99.696 37H101.037V31.5455C101.037 30.267 101.969 29.3636 103.014 29.3636C104.031 29.3636 104.741 30.0284 104.741 31.0227V37H106.105V31.3182C106.105 30.1932 106.81 29.3636 108.037 29.3636C108.991 29.3636 109.81 29.8693 109.81 31.1591V37H111.151V31.1591C111.151 29.108 110.048 28.1591 108.491 28.1591C107.241 28.1591 106.327 28.733 105.878 29.6364H105.787C105.355 28.7045 104.594 28.1591 103.446 28.1591C102.31 28.1591 101.469 28.7045 101.105 29.6364H100.991V28.2727H99.696V37ZM117.261 37.1818C119.034 37.1818 120.33 36.2955 120.739 34.9773L119.443 34.6136C119.102 35.5227 118.312 35.9773 117.261 35.9773C115.688 35.9773 114.602 34.9602 114.54 33.0909H120.875V32.5227C120.875 29.2727 118.943 28.1591 117.125 28.1591C114.761 28.1591 113.193 30.0227 113.193 32.7045C113.193 35.3864 114.739 37.1818 117.261 37.1818ZM114.54 31.9318C114.631 30.5739 115.591 29.3636 117.125 29.3636C118.58 29.3636 119.511 30.4545 119.511 31.9318H114.54ZM122.915 37H124.256V31.5455C124.256 30.267 125.188 29.3636 126.233 29.3636C127.25 29.3636 127.96 30.0284 127.96 31.0227V37H129.324V31.3182C129.324 30.1932 130.028 29.3636 131.256 29.3636C132.21 29.3636 133.028 29.8693 133.028 31.1591V37H134.369V31.1591C134.369 29.108 133.267 28.1591 131.71 28.1591C130.46 28.1591 129.545 28.733 129.097 29.6364H129.006C128.574 28.7045 127.812 28.1591 126.665 28.1591C125.528 28.1591 124.688 28.7045 124.324 29.6364H124.21V28.2727H122.915V37ZM137.003 37H138.298V35.6591H138.457C138.753 36.1364 139.321 37.1818 141.003 37.1818C143.185 37.1818 144.707 35.4318 144.707 32.6591C144.707 29.9091 143.185 28.1591 140.98 28.1591C139.276 28.1591 138.753 29.2045 138.457 29.6591H138.344V25.3636H137.003V37ZM138.321 32.6364C138.321 30.6818 139.185 29.3636 140.821 29.3636C142.526 29.3636 143.366 30.7955 143.366 32.6364C143.366 34.5 142.503 35.9773 140.821 35.9773C139.207 35.9773 138.321 34.6136 138.321 32.6364ZM150.418 37.1818C152.19 37.1818 153.486 36.2955 153.895 34.9773L152.599 34.6136C152.259 35.5227 151.469 35.9773 150.418 35.9773C148.844 35.9773 147.759 34.9602 147.696 33.0909H154.031V32.5227C154.031 29.2727 152.099 28.1591 150.281 28.1591C147.918 28.1591 146.349 30.0227 146.349 32.7045C146.349 35.3864 147.895 37.1818 150.418 37.1818ZM147.696 31.9318C147.787 30.5739 148.747 29.3636 150.281 29.3636C151.736 29.3636 152.668 30.4545 152.668 31.9318H147.696ZM156.071 37H157.412V31.4773C157.412 30.2955 158.344 29.4318 159.616 29.4318C159.974 29.4318 160.344 29.5 160.435 29.5227V28.1591C160.281 28.1477 159.929 28.1364 159.73 28.1364C158.685 28.1364 157.776 28.7273 157.457 29.5909H157.366V28.2727H156.071V37ZM168.206 30.2273C167.786 28.9886 166.842 28.1591 165.115 28.1591C163.274 28.1591 161.911 29.2045 161.911 30.6818C161.911 31.8864 162.626 32.6932 164.229 33.0682L165.683 33.4091C166.564 33.6136 166.979 34.0341 166.979 34.6364C166.979 35.3864 166.183 36 164.933 36C163.837 36 163.149 35.5284 162.911 34.5909L161.638 34.9091C161.95 36.392 163.172 37.1818 164.956 37.1818C166.984 37.1818 168.365 36.0739 168.365 34.5682C168.365 33.3523 167.604 32.5852 166.047 32.2045L164.751 31.8864C163.717 31.6307 163.251 31.2841 163.251 30.6136C163.251 29.8636 164.047 29.3182 165.115 29.3182C166.286 29.3182 166.768 29.9659 167.001 30.5682L168.206 30.2273ZM174.884 37H176.224V31.4773C176.224 30.2955 177.156 29.4318 178.429 29.4318C178.787 29.4318 179.156 29.5 179.247 29.5227V28.1591C179.094 28.1477 178.741 28.1364 178.543 28.1364C177.497 28.1364 176.588 28.7273 176.27 29.5909H176.179V28.2727H174.884V37ZM184.23 37.1818C186.003 37.1818 187.298 36.2955 187.707 34.9773L186.412 34.6136C186.071 35.5227 185.281 35.9773 184.23 35.9773C182.656 35.9773 181.571 34.9602 181.509 33.0909H187.844V32.5227C187.844 29.2727 185.912 28.1591 184.094 28.1591C181.73 28.1591 180.162 30.0227 180.162 32.7045C180.162 35.3864 181.707 37.1818 184.23 37.1818ZM181.509 31.9318C181.599 30.5739 182.56 29.3636 184.094 29.3636C185.548 29.3636 186.48 30.4545 186.48 31.9318H181.509ZM192.452 37.2045C193.974 37.2045 194.77 36.3864 195.043 35.8182H195.111V37H196.452V31.25C196.452 28.4773 194.338 28.1591 193.224 28.1591C191.906 28.1591 190.406 28.6136 189.724 30.2045L190.997 30.6591C191.293 30.0227 191.991 29.3409 193.27 29.3409C194.503 29.3409 195.111 29.9943 195.111 31.1136V31.1591C195.111 31.8068 194.452 31.75 192.861 31.9545C191.241 32.1648 189.474 32.5227 189.474 34.5227C189.474 36.2273 190.793 37.2045 192.452 37.2045ZM192.656 36C191.588 36 190.815 35.5227 190.815 34.5909C190.815 33.5682 191.747 33.25 192.793 33.1136C193.361 33.0455 194.884 32.8864 195.111 32.6136V33.8409C195.111 34.9318 194.247 36 192.656 36ZM200.24 25.3636H198.899V37H200.24V25.3636ZM204.037 25.3636H202.696V37H204.037V25.3636ZM207.357 40.2727C208.567 40.2727 209.419 39.6307 209.925 38.2727L213.641 28.2955L212.175 28.2727L209.766 35.2273H209.675L207.266 28.2727H205.811L209.038 37.0455L208.788 37.7273C208.3 39.0568 207.697 39.1818 206.72 38.9318L206.379 40.1136C206.516 40.1818 206.902 40.2727 207.357 40.2727ZM223.801 28.2727H221.847V27.3864C221.847 26.5227 222.21 26.0682 223.097 26.0682C223.483 26.0682 223.71 26.1591 223.847 26.2045L224.233 25.0455C224.028 24.9545 223.619 24.8182 222.96 24.8182C221.71 24.8182 220.506 25.5682 220.506 27.0682V28.2727H219.097V29.4091H220.506V37H221.847V29.4091H223.801V28.2727ZM228.98 37.1818C230.753 37.1818 232.048 36.2955 232.457 34.9773L231.162 34.6136C230.821 35.5227 230.031 35.9773 228.98 35.9773C227.406 35.9773 226.321 34.9602 226.259 33.0909H232.594V32.5227C232.594 29.2727 230.662 28.1591 228.844 28.1591C226.48 28.1591 224.912 30.0227 224.912 32.7045C224.912 35.3864 226.457 37.1818 228.98 37.1818ZM226.259 31.9318C226.349 30.5739 227.31 29.3636 228.844 29.3636C230.298 29.3636 231.23 30.4545 231.23 31.9318H226.259ZM238.293 37.1818C240.065 37.1818 241.361 36.2955 241.77 34.9773L240.474 34.6136C240.134 35.5227 239.344 35.9773 238.293 35.9773C236.719 35.9773 235.634 34.9602 235.571 33.0909H241.906V32.5227C241.906 29.2727 239.974 28.1591 238.156 28.1591C235.793 28.1591 234.224 30.0227 234.224 32.7045C234.224 35.3864 235.77 37.1818 238.293 37.1818ZM235.571 31.9318C235.662 30.5739 236.622 29.3636 238.156 29.3636C239.611 29.3636 240.543 30.4545 240.543 31.9318H235.571ZM245.287 25.3636H243.946V37H245.287V25.3636ZM248.72 37.0909C249.283 37.0909 249.743 36.6307 249.743 36.0682C249.743 35.5057 249.283 35.0455 248.72 35.0455C248.158 35.0455 247.697 35.5057 247.697 36.0682C247.697 36.6307 248.158 37.0909 248.72 37.0909Z" fill="#4E5A65"/>
</svg>
