<svg width="293" height="40" viewBox="0 0 293 40" fill="none" xmlns="http://www.w3.org/2000/svg">
<path d="M11.2273 6.18182C11.2273 2.5 9.06818 0.204545 6.09091 0.204545C3.11364 0.204545 0.954545 2.5 0.954545 6.18182C0.954545 9.86364 3.11364 12.1591 6.09091 12.1591C6.85227 12.1591 7.55682 12.0114 8.1875 11.7273L9.20455 13.0909H10.75L9.23295 11.0739C10.4716 10.0568 11.2273 8.36364 11.2273 6.18182ZM5.63636 8.36364L7.36364 10.625C6.96591 10.767 6.53977 10.8409 6.09091 10.8409C3.97727 10.8409 2.31818 9.20455 2.31818 6.18182C2.31818 3.15909 3.97727 1.52273 6.09091 1.52273C8.20455 1.52273 9.86364 3.15909 9.86364 6.18182C9.86364 7.9375 9.30682 9.22159 8.42045 9.99432L7.18182 8.36364H5.63636ZM18.9148 8.43182C18.9148 10.0682 17.6648 10.8182 16.6648 10.8182C15.5511 10.8182 14.7557 10 14.7557 8.72727V3.27273H13.4148V8.81818C13.4148 11.0455 14.5966 12.1136 16.233 12.1136C17.5511 12.1136 18.4148 11.4091 18.8239 10.5227H18.9148V12H20.2557V3.27273H18.9148V8.43182ZM22.7116 12H24.0526V3.27273H22.7116V12ZM23.3935 1.81818C23.9162 1.81818 24.348 1.40909 24.348 0.909091C24.348 0.409091 23.9162 0 23.3935 0C22.8707 0 22.4389 0.409091 22.4389 0.909091C22.4389 1.40909 22.8707 1.81818 23.3935 1.81818ZM30.054 12.1818C31.9858 12.1818 33.2585 11 33.4858 9.45455H32.1449C31.8949 10.4091 31.0994 10.9773 30.054 10.9773C28.4631 10.9773 27.4403 9.65909 27.4403 7.63636C27.4403 5.65909 28.4858 4.36364 30.054 4.36364C31.2358 4.36364 31.9403 5.09091 32.1449 5.88636H33.4858C33.2585 4.25 31.8722 3.15909 30.0312 3.15909C27.6676 3.15909 26.0994 5.02273 26.0994 7.68182C26.0994 10.2955 27.5994 12.1818 30.054 12.1818ZM35.446 12H36.7869V8.73295L37.7244 7.86364L40.9915 12H42.696L38.7358 7L42.4233 3.27273H40.7642L36.946 7.15909H36.7869V0.363636H35.446V12ZM45.4901 0.363636H44.1491V12H45.4901V0.363636ZM48.8097 15.2727C50.0199 15.2727 50.8722 14.6307 51.3778 13.2727L55.0938 3.29545L53.6278 3.27273L51.2188 10.2273H51.1278L48.7188 3.27273H47.2642L50.4915 12.0455L50.2415 12.7273C49.7528 14.0568 49.1506 14.1818 48.1733 13.9318L47.8324 15.1136C47.9688 15.1818 48.3551 15.2727 48.8097 15.2727ZM64.8906 15.4545C66.9815 15.4545 68.6634 14.5 68.6634 12.25V3.27273H67.3679V4.65909H67.2315C66.9361 4.20455 66.3906 3.15909 64.6861 3.15909C62.4815 3.15909 60.9588 4.90909 60.9588 7.59091C60.9588 10.3182 62.5497 11.8636 64.6634 11.8636C66.3679 11.8636 66.9134 10.8636 67.2088 10.3864H67.3224V12.1591C67.3224 13.6136 66.2997 14.2727 64.8906 14.2727C63.3054 14.2727 62.7486 13.4375 62.3906 12.9545L61.3224 13.7045C61.8679 14.6193 62.9418 15.4545 64.8906 15.4545ZM64.8452 10.6591C63.1634 10.6591 62.2997 9.38636 62.2997 7.56818C62.2997 5.79545 63.1406 4.36364 64.8452 4.36364C66.4815 4.36364 67.3452 5.68182 67.3452 7.56818C67.3452 9.5 66.4588 10.6591 64.8452 10.6591ZM74.777 12.1818C76.5497 12.1818 77.8452 11.2955 78.2543 9.97727L76.9588 9.61364C76.6179 10.5227 75.8281 10.9773 74.777 10.9773C73.2031 10.9773 72.1179 9.96023 72.0554 8.09091H78.3906V7.52273C78.3906 4.27273 76.4588 3.15909 74.6406 3.15909C72.277 3.15909 70.7088 5.02273 70.7088 7.70455C70.7088 10.3864 72.2543 12.1818 74.777 12.1818ZM72.0554 6.93182C72.1463 5.57386 73.1065 4.36364 74.6406 4.36364C76.0952 4.36364 77.027 5.45455 77.027 6.93182H72.0554ZM84.2259 3.27273H82.3622V1.18182H81.0213V3.27273H79.7031V4.40909H81.0213V9.86364C81.0213 11.3864 82.2486 12.1136 83.3849 12.1136C83.8849 12.1136 84.2031 12.0227 84.3849 11.9545L84.1122 10.75C83.9986 10.7727 83.8168 10.8182 83.5213 10.8182C82.9304 10.8182 82.3622 10.6364 82.3622 9.5V4.40909H84.2259V3.27273ZM96.9247 5.22727C96.5043 3.98864 95.5611 3.15909 93.8338 3.15909C91.9929 3.15909 90.6293 4.20455 90.6293 5.68182C90.6293 6.88636 91.3452 7.69318 92.9474 8.06818L94.402 8.40909C95.2827 8.61364 95.6974 9.03409 95.6974 9.63636C95.6974 10.3864 94.902 11 93.652 11C92.5554 11 91.8679 10.5284 91.6293 9.59091L90.3565 9.90909C90.669 11.392 91.8906 12.1818 93.6747 12.1818C95.7031 12.1818 97.0838 11.0739 97.0838 9.56818C97.0838 8.35227 96.3224 7.58523 94.7656 7.20455L93.4702 6.88636C92.4361 6.63068 91.9702 6.28409 91.9702 5.61364C91.9702 4.86364 92.7656 4.31818 93.8338 4.31818C95.0043 4.31818 95.4872 4.96591 95.7202 5.56818L96.9247 5.22727ZM102.648 12.1818C105.011 12.1818 106.602 10.3864 106.602 7.68182C106.602 4.95455 105.011 3.15909 102.648 3.15909C100.284 3.15909 98.6932 4.95455 98.6932 7.68182C98.6932 10.3864 100.284 12.1818 102.648 12.1818ZM102.648 10.9773C100.852 10.9773 100.034 9.43182 100.034 7.68182C100.034 5.93182 100.852 4.36364 102.648 4.36364C104.443 4.36364 105.261 5.93182 105.261 7.68182C105.261 9.43182 104.443 10.9773 102.648 10.9773ZM109.99 0.363636H108.649V12H109.99V0.363636ZM117.946 8.43182C117.946 10.0682 116.696 10.8182 115.696 10.8182C114.582 10.8182 113.787 10 113.787 8.72727V3.27273H112.446V8.81818C112.446 11.0455 113.628 12.1136 115.264 12.1136C116.582 12.1136 117.446 11.4091 117.855 10.5227H117.946V12H119.287V3.27273H117.946V8.43182ZM125.538 3.27273H123.675V1.18182H122.334V3.27273H121.016V4.40909H122.334V9.86364C122.334 11.3864 123.561 12.1136 124.697 12.1136C125.197 12.1136 125.516 12.0227 125.697 11.9545L125.425 10.75C125.311 10.7727 125.129 10.8182 124.834 10.8182C124.243 10.8182 123.675 10.6364 123.675 9.5V4.40909H125.538V3.27273ZM127.555 12H128.896V3.27273H127.555V12ZM128.237 1.81818C128.76 1.81818 129.192 1.40909 129.192 0.909091C129.192 0.409091 128.76 0 128.237 0C127.714 0 127.283 0.409091 127.283 0.909091C127.283 1.40909 127.714 1.81818 128.237 1.81818ZM134.898 12.1818C137.261 12.1818 138.852 10.3864 138.852 7.68182C138.852 4.95455 137.261 3.15909 134.898 3.15909C132.534 3.15909 130.943 4.95455 130.943 7.68182C130.943 10.3864 132.534 12.1818 134.898 12.1818ZM134.898 10.9773C133.102 10.9773 132.284 9.43182 132.284 7.68182C132.284 5.93182 133.102 4.36364 134.898 4.36364C136.693 4.36364 137.511 5.93182 137.511 7.68182C137.511 9.43182 136.693 10.9773 134.898 10.9773ZM142.24 6.75C142.24 5.22727 143.183 4.36364 144.467 4.36364C145.712 4.36364 146.467 5.17614 146.467 6.54545V12H147.808V6.45455C147.808 4.22727 146.621 3.15909 144.854 3.15909C143.536 3.15909 142.717 3.75 142.308 4.63636H142.195V3.27273H140.899V12H142.24V6.75ZM156.44 5.22727C156.02 3.98864 155.077 3.15909 153.349 3.15909C151.509 3.15909 150.145 4.20455 150.145 5.68182C150.145 6.88636 150.861 7.69318 152.463 8.06818L153.918 8.40909C154.798 8.61364 155.213 9.03409 155.213 9.63636C155.213 10.3864 154.418 11 153.168 11C152.071 11 151.384 10.5284 151.145 9.59091L149.872 9.90909C150.185 11.392 151.406 12.1818 153.19 12.1818C155.219 12.1818 156.599 11.0739 156.599 9.56818C156.599 8.35227 155.838 7.58523 154.281 7.20455L152.986 6.88636C151.952 6.63068 151.486 6.28409 151.486 5.61364C151.486 4.86364 152.281 4.31818 153.349 4.31818C154.52 4.31818 155.003 4.96591 155.236 5.56818L156.44 5.22727ZM166.913 3.27273H165.05V1.18182H163.709V3.27273H162.391V4.40909H163.709V9.86364C163.709 11.3864 164.936 12.1136 166.072 12.1136C166.572 12.1136 166.891 12.0227 167.072 11.9545L166.8 10.75C166.686 10.7727 166.504 10.8182 166.209 10.8182C165.618 10.8182 165.05 10.6364 165.05 9.5V4.40909H166.913V3.27273ZM171.499 12.2045C173.021 12.2045 173.817 11.3864 174.089 10.8182H174.158V12H175.499V6.25C175.499 3.47727 173.385 3.15909 172.271 3.15909C170.953 3.15909 169.453 3.61364 168.771 5.20455L170.044 5.65909C170.339 5.02273 171.038 4.34091 172.317 4.34091C173.55 4.34091 174.158 4.99432 174.158 6.11364V6.15909C174.158 6.80682 173.499 6.75 171.908 6.95455C170.288 7.16477 168.521 7.52273 168.521 9.52273C168.521 11.2273 169.839 12.2045 171.499 12.2045ZM171.703 11C170.635 11 169.862 10.5227 169.862 9.59091C169.862 8.56818 170.794 8.25 171.839 8.11364C172.408 8.04545 173.93 7.88636 174.158 7.61364V8.84091C174.158 9.93182 173.294 11 171.703 11ZM177.946 12H179.287V3.27273H177.946V12ZM178.628 1.81818C179.151 1.81818 179.582 1.40909 179.582 0.909091C179.582 0.409091 179.151 0 178.628 0C178.105 0 177.673 0.409091 177.673 0.909091C177.673 1.40909 178.105 1.81818 178.628 1.81818ZM183.084 0.363636H181.743V12H183.084V0.363636ZM189.085 12.1818C191.449 12.1818 193.04 10.3864 193.04 7.68182C193.04 4.95455 191.449 3.15909 189.085 3.15909C186.722 3.15909 185.131 4.95455 185.131 7.68182C185.131 10.3864 186.722 12.1818 189.085 12.1818ZM189.085 10.9773C187.29 10.9773 186.472 9.43182 186.472 7.68182C186.472 5.93182 187.29 4.36364 189.085 4.36364C190.881 4.36364 191.699 5.93182 191.699 7.68182C191.699 9.43182 190.881 10.9773 189.085 10.9773ZM195.087 12H196.428V6.47727C196.428 5.29545 197.359 4.43182 198.632 4.43182C198.99 4.43182 199.359 4.5 199.45 4.52273V3.15909C199.297 3.14773 198.945 3.13636 198.746 3.13636C197.7 3.13636 196.791 3.72727 196.473 4.59091H196.382V3.27273H195.087V12ZM204.433 12.1818C206.206 12.1818 207.501 11.2955 207.911 9.97727L206.615 9.61364C206.274 10.5227 205.484 10.9773 204.433 10.9773C202.859 10.9773 201.774 9.96023 201.712 8.09091H208.047V7.52273C208.047 4.27273 206.115 3.15909 204.297 3.15909C201.933 3.15909 200.365 5.02273 200.365 7.70455C200.365 10.3864 201.911 12.1818 204.433 12.1818ZM201.712 6.93182C201.803 5.57386 202.763 4.36364 204.297 4.36364C205.751 4.36364 206.683 5.45455 206.683 6.93182H201.712ZM213.382 12.1818C215.064 12.1818 215.632 11.1364 215.928 10.6591H216.087V12H217.382V0.363636H216.041V4.65909H215.928C215.632 4.20455 215.109 3.15909 213.405 3.15909C211.2 3.15909 209.678 4.90909 209.678 7.65909C209.678 10.4318 211.2 12.1818 213.382 12.1818ZM213.564 10.9773C211.882 10.9773 211.018 9.5 211.018 7.63636C211.018 5.79545 211.859 4.36364 213.564 4.36364C215.2 4.36364 216.064 5.68182 216.064 7.63636C216.064 9.61364 215.178 10.9773 213.564 10.9773ZM228.32 3.27273H226.456V1.18182H225.115V3.27273H223.797V4.40909H225.115V9.86364C225.115 11.3864 226.342 12.1136 227.479 12.1136C227.979 12.1136 228.297 12.0227 228.479 11.9545L228.206 10.75C228.092 10.7727 227.911 10.8182 227.615 10.8182C227.024 10.8182 226.456 10.6364 226.456 9.5V4.40909H228.32V3.27273ZM233.788 12.1818C236.152 12.1818 237.743 10.3864 237.743 7.68182C237.743 4.95455 236.152 3.15909 233.788 3.15909C231.425 3.15909 229.834 4.95455 229.834 7.68182C229.834 10.3864 231.425 12.1818 233.788 12.1818ZM233.788 10.9773C231.993 10.9773 231.175 9.43182 231.175 7.68182C231.175 5.93182 231.993 4.36364 233.788 4.36364C235.584 4.36364 236.402 5.93182 236.402 7.68182C236.402 9.43182 235.584 10.9773 233.788 10.9773ZM245.153 15.2727C246.364 15.2727 247.216 14.6307 247.722 13.2727L251.438 3.29545L249.972 3.27273L247.562 10.2273H247.472L245.062 3.27273H243.608L246.835 12.0455L246.585 12.7273C246.097 14.0568 245.494 14.1818 244.517 13.9318L244.176 15.1136C244.312 15.1818 244.699 15.2727 245.153 15.2727ZM256.445 12.1818C258.808 12.1818 260.399 10.3864 260.399 7.68182C260.399 4.95455 258.808 3.15909 256.445 3.15909C254.081 3.15909 252.49 4.95455 252.49 7.68182C252.49 10.3864 254.081 12.1818 256.445 12.1818ZM256.445 10.9773C254.649 10.9773 253.831 9.43182 253.831 7.68182C253.831 5.93182 254.649 4.36364 256.445 4.36364C258.24 4.36364 259.058 5.93182 259.058 7.68182C259.058 9.43182 258.24 10.9773 256.445 10.9773ZM267.946 8.43182C267.946 10.0682 266.696 10.8182 265.696 10.8182C264.582 10.8182 263.787 10 263.787 8.72727V3.27273H262.446V8.81818C262.446 11.0455 263.628 12.1136 265.264 12.1136C266.582 12.1136 267.446 11.4091 267.855 10.5227H267.946V12H269.287V3.27273H267.946V8.43182ZM271.743 12H273.084V6.47727C273.084 5.29545 274.016 4.43182 275.288 4.43182C275.646 4.43182 276.016 4.5 276.107 4.52273V3.15909C275.953 3.14773 275.601 3.13636 275.402 3.13636C274.357 3.13636 273.447 3.72727 273.129 4.59091H273.038V3.27273H271.743V12ZM1.22727 39.2727H2.56818V34.6591H2.68182C2.97727 35.1364 3.54545 36.1818 5.22727 36.1818C7.40909 36.1818 8.93182 34.4318 8.93182 31.6591C8.93182 28.9091 7.40909 27.1591 5.20455 27.1591C3.5 27.1591 2.97727 28.2045 2.68182 28.6591H2.52273V27.2727H1.22727V39.2727ZM2.54545 31.6364C2.54545 29.6818 3.40909 28.3636 5.04545 28.3636C6.75 28.3636 7.59091 29.7955 7.59091 31.6364C7.59091 33.5 6.72727 34.9773 5.04545 34.9773C3.43182 34.9773 2.54545 33.6136 2.54545 31.6364ZM14.6364 36.1818C16.4091 36.1818 17.7045 35.2955 18.1136 33.9773L16.8182 33.6136C16.4773 34.5227 15.6875 34.9773 14.6364 34.9773C13.0625 34.9773 11.9773 33.9602 11.9148 32.0909H18.25V31.5227C18.25 28.2727 16.3182 27.1591 14.5 27.1591C12.1364 27.1591 10.5682 29.0227 10.5682 31.7045C10.5682 34.3864 12.1136 36.1818 14.6364 36.1818ZM11.9148 30.9318C12.0057 29.5739 12.9659 28.3636 14.5 28.3636C15.9545 28.3636 16.8864 29.4545 16.8864 30.9318H11.9148ZM20.2898 36H21.6307V30.4773C21.6307 29.2955 22.5625 28.4318 23.8352 28.4318C24.1932 28.4318 24.5625 28.5 24.6534 28.5227V27.1591C24.5 27.1477 24.1477 27.1364 23.9489 27.1364C22.9034 27.1364 21.9943 27.7273 21.6761 28.5909H21.5852V27.2727H20.2898V36ZM32.4247 29.2273C32.0043 27.9886 31.0611 27.1591 29.3338 27.1591C27.4929 27.1591 26.1293 28.2045 26.1293 29.6818C26.1293 30.8864 26.8452 31.6932 28.4474 32.0682L29.902 32.4091C30.7827 32.6136 31.1974 33.0341 31.1974 33.6364C31.1974 34.3864 30.402 35 29.152 35C28.0554 35 27.3679 34.5284 27.1293 33.5909L25.8565 33.9091C26.169 35.392 27.3906 36.1818 29.1747 36.1818C31.2031 36.1818 32.5838 35.0739 32.5838 33.5682C32.5838 32.3523 31.8224 31.5852 30.2656 31.2045L28.9702 30.8864C27.9361 30.6307 27.4702 30.2841 27.4702 29.6136C27.4702 28.8636 28.2656 28.3182 29.3338 28.3182C30.5043 28.3182 30.9872 28.9659 31.2202 29.5682L32.4247 29.2273ZM38.1477 36.1818C40.5114 36.1818 42.1023 34.3864 42.1023 31.6818C42.1023 28.9545 40.5114 27.1591 38.1477 27.1591C35.7841 27.1591 34.1932 28.9545 34.1932 31.6818C34.1932 34.3864 35.7841 36.1818 38.1477 36.1818ZM38.1477 34.9773C36.3523 34.9773 35.5341 33.4318 35.5341 31.6818C35.5341 29.9318 36.3523 28.3636 38.1477 28.3636C39.9432 28.3636 40.7614 29.9318 40.7614 31.6818C40.7614 33.4318 39.9432 34.9773 38.1477 34.9773ZM45.4901 30.75C45.4901 29.2273 46.4332 28.3636 47.7173 28.3636C48.9616 28.3636 49.7173 29.1761 49.7173 30.5455V36H51.0582V30.4545C51.0582 28.2273 49.8707 27.1591 48.1037 27.1591C46.7855 27.1591 45.9673 27.75 45.5582 28.6364H45.4446V27.2727H44.1491V36H45.4901V30.75ZM56.0767 36.2045C57.5994 36.2045 58.3949 35.3864 58.6676 34.8182H58.7358V36H60.0767V30.25C60.0767 27.4773 57.9631 27.1591 56.8494 27.1591C55.5312 27.1591 54.0312 27.6136 53.3494 29.2045L54.6222 29.6591C54.9176 29.0227 55.6165 28.3409 56.8949 28.3409C58.1278 28.3409 58.7358 28.9943 58.7358 30.1136V30.1591C58.7358 30.8068 58.0767 30.75 56.4858 30.9545C54.8665 31.1648 53.0994 31.5227 53.0994 33.5227C53.0994 35.2273 54.4176 36.2045 56.0767 36.2045ZM56.2812 35C55.2131 35 54.4403 34.5227 54.4403 33.5909C54.4403 32.5682 55.3722 32.25 56.4176 32.1136C56.9858 32.0455 58.5085 31.8864 58.7358 31.6136V32.8409C58.7358 33.9318 57.8722 35 56.2812 35ZM63.8651 24.3636H62.5241V36H63.8651V24.3636ZM74.3665 36.1818C76.2983 36.1818 77.571 35 77.7983 33.4545H76.4574C76.2074 34.4091 75.4119 34.9773 74.3665 34.9773C72.7756 34.9773 71.7528 33.6591 71.7528 31.6364C71.7528 29.6591 72.7983 28.3636 74.3665 28.3636C75.5483 28.3636 76.2528 29.0909 76.4574 29.8864H77.7983C77.571 28.25 76.1847 27.1591 74.3438 27.1591C71.9801 27.1591 70.4119 29.0227 70.4119 31.6818C70.4119 34.2955 71.9119 36.1818 74.3665 36.1818ZM81.0994 30.75C81.0994 29.2273 82.071 28.3636 83.3949 28.3636C84.6562 28.3636 85.4176 29.1591 85.4176 30.5455V36H86.7585V30.4545C86.7585 28.2102 85.5653 27.1591 83.7812 27.1591C82.4062 27.1591 81.6222 27.733 81.2131 28.6364H81.0994V24.3636H79.7585V36H81.0994V30.75ZM91.7798 36.2045C93.3026 36.2045 94.098 35.3864 94.3707 34.8182H94.4389V36H95.7798V30.25C95.7798 27.4773 93.6662 27.1591 92.5526 27.1591C91.2344 27.1591 89.7344 27.6136 89.0526 29.2045L90.3253 29.6591C90.6207 29.0227 91.3196 28.3409 92.598 28.3409C93.831 28.3409 94.4389 28.9943 94.4389 30.1136V30.1591C94.4389 30.8068 93.7798 30.75 92.1889 30.9545C90.5696 31.1648 88.8026 31.5227 88.8026 33.5227C88.8026 35.2273 90.1207 36.2045 91.7798 36.2045ZM91.9844 35C90.9162 35 90.1435 34.5227 90.1435 33.5909C90.1435 32.5682 91.0753 32.25 92.1207 32.1136C92.6889 32.0455 94.2116 31.8864 94.4389 31.6136V32.8409C94.4389 33.9318 93.5753 35 91.9844 35ZM99.5682 24.3636H98.2273V36H99.5682V24.3636ZM103.365 24.3636H102.024V36H103.365V24.3636ZM109.48 36.1818C111.253 36.1818 112.548 35.2955 112.957 33.9773L111.662 33.6136C111.321 34.5227 110.531 34.9773 109.48 34.9773C107.906 34.9773 106.821 33.9602 106.759 32.0909H113.094V31.5227C113.094 28.2727 111.162 27.1591 109.344 27.1591C106.98 27.1591 105.412 29.0227 105.412 31.7045C105.412 34.3864 106.957 36.1818 109.48 36.1818ZM106.759 30.9318C106.849 29.5739 107.81 28.3636 109.344 28.3636C110.798 28.3636 111.73 29.4545 111.73 30.9318H106.759ZM116.474 30.75C116.474 29.2273 117.418 28.3636 118.702 28.3636C119.946 28.3636 120.702 29.1761 120.702 30.5455V36H122.043V30.4545C122.043 28.2273 120.855 27.1591 119.088 27.1591C117.77 27.1591 116.952 27.75 116.543 28.6364H116.429V27.2727H115.134V36H116.474V30.75ZM128.016 39.4545C130.107 39.4545 131.788 38.5 131.788 36.25V27.2727H130.493V28.6591H130.357C130.061 28.2045 129.516 27.1591 127.811 27.1591C125.607 27.1591 124.084 28.9091 124.084 31.5909C124.084 34.3182 125.675 35.8636 127.788 35.8636C129.493 35.8636 130.038 34.8636 130.334 34.3864H130.447V36.1591C130.447 37.6136 129.425 38.2727 128.016 38.2727C126.43 38.2727 125.874 37.4375 125.516 36.9545L124.447 37.7045C124.993 38.6193 126.067 39.4545 128.016 39.4545ZM127.97 34.6591C126.288 34.6591 125.425 33.3864 125.425 31.5682C125.425 29.7955 126.266 28.3636 127.97 28.3636C129.607 28.3636 130.47 29.6818 130.47 31.5682C130.47 33.5 129.584 34.6591 127.97 34.6591ZM137.902 36.1818C139.675 36.1818 140.97 35.2955 141.379 33.9773L140.084 33.6136C139.743 34.5227 138.953 34.9773 137.902 34.9773C136.328 34.9773 135.243 33.9602 135.18 32.0909H141.516V31.5227C141.516 28.2727 139.584 27.1591 137.766 27.1591C135.402 27.1591 133.834 29.0227 133.834 31.7045C133.834 34.3864 135.379 36.1818 137.902 36.1818ZM135.18 30.9318C135.271 29.5739 136.232 28.3636 137.766 28.3636C139.22 28.3636 140.152 29.4545 140.152 30.9318H135.18ZM149.737 29.2273C149.317 27.9886 148.374 27.1591 146.646 27.1591C144.805 27.1591 143.442 28.2045 143.442 29.6818C143.442 30.8864 144.158 31.6932 145.76 32.0682L147.214 32.4091C148.095 32.6136 148.51 33.0341 148.51 33.6364C148.51 34.3864 147.714 35 146.464 35C145.368 35 144.68 34.5284 144.442 33.5909L143.169 33.9091C143.482 35.392 144.703 36.1818 146.487 36.1818C148.516 36.1818 149.896 35.0739 149.896 33.5682C149.896 32.3523 149.135 31.5852 147.578 31.2045L146.283 30.8864C145.249 30.6307 144.783 30.2841 144.783 29.6136C144.783 28.8636 145.578 28.3182 146.646 28.3182C147.817 28.3182 148.3 28.9659 148.533 29.5682L149.737 29.2273ZM160.301 27.2727H158.347V26.3864C158.347 25.5227 158.71 25.0682 159.597 25.0682C159.983 25.0682 160.21 25.1591 160.347 25.2045L160.733 24.0455C160.528 23.9545 160.119 23.8182 159.46 23.8182C158.21 23.8182 157.006 24.5682 157.006 26.0682V27.2727H155.597V28.4091H157.006V36H158.347V28.4091H160.301V27.2727ZM162.18 36H163.521V30.4773C163.521 29.2955 164.453 28.4318 165.726 28.4318C166.084 28.4318 166.453 28.5 166.544 28.5227V27.1591C166.391 27.1477 166.038 27.1364 165.839 27.1364C164.794 27.1364 163.885 27.7273 163.567 28.5909H163.476V27.2727H162.18V36ZM171.413 36.1818C173.777 36.1818 175.368 34.3864 175.368 31.6818C175.368 28.9545 173.777 27.1591 171.413 27.1591C169.05 27.1591 167.459 28.9545 167.459 31.6818C167.459 34.3864 169.05 36.1818 171.413 36.1818ZM171.413 34.9773C169.618 34.9773 168.8 33.4318 168.8 31.6818C168.8 29.9318 169.618 28.3636 171.413 28.3636C173.209 28.3636 174.027 29.9318 174.027 31.6818C174.027 33.4318 173.209 34.9773 171.413 34.9773ZM177.415 36H178.756V30.5455C178.756 29.267 179.688 28.3636 180.733 28.3636C181.75 28.3636 182.46 29.0284 182.46 30.0227V36H183.824V30.3182C183.824 29.1932 184.528 28.3636 185.756 28.3636C186.71 28.3636 187.528 28.8693 187.528 30.1591V36H188.869V30.1591C188.869 28.108 187.767 27.1591 186.21 27.1591C184.96 27.1591 184.045 27.733 183.597 28.6364H183.506C183.074 27.7045 182.312 27.1591 181.165 27.1591C180.028 27.1591 179.188 27.7045 178.824 28.6364H178.71V27.2727H177.415V36ZM199.616 27.2727H197.753V25.1818H196.412V27.2727H195.094V28.4091H196.412V33.8636C196.412 35.3864 197.639 36.1136 198.776 36.1136C199.276 36.1136 199.594 36.0227 199.776 35.9545L199.503 34.75C199.389 34.7727 199.207 34.8182 198.912 34.8182C198.321 34.8182 197.753 34.6364 197.753 33.5V28.4091H199.616V27.2727ZM203.162 30.75C203.162 29.2273 204.134 28.3636 205.457 28.3636C206.719 28.3636 207.48 29.1591 207.48 30.5455V36H208.821V30.4545C208.821 28.2102 207.628 27.1591 205.844 27.1591C204.469 27.1591 203.685 27.733 203.276 28.6364H203.162V24.3636H201.821V36H203.162V30.75ZM214.933 36.1818C216.706 36.1818 218.001 35.2955 218.411 33.9773L217.115 33.6136C216.774 34.5227 215.984 34.9773 214.933 34.9773C213.359 34.9773 212.274 33.9602 212.212 32.0909H218.547V31.5227C218.547 28.2727 216.615 27.1591 214.797 27.1591C212.433 27.1591 210.865 29.0227 210.865 31.7045C210.865 34.3864 212.411 36.1818 214.933 36.1818ZM212.212 30.9318C212.303 29.5739 213.263 28.3636 214.797 28.3636C216.251 28.3636 217.183 29.4545 217.183 30.9318H212.212ZM225.087 36H226.428V30.5455C226.428 29.267 227.359 28.3636 228.405 28.3636C229.422 28.3636 230.132 29.0284 230.132 30.0227V36H231.496V30.3182C231.496 29.1932 232.2 28.3636 233.428 28.3636C234.382 28.3636 235.2 28.8693 235.2 30.1591V36H236.541V30.1591C236.541 28.108 235.439 27.1591 233.882 27.1591C232.632 27.1591 231.717 27.733 231.268 28.6364H231.178C230.746 27.7045 229.984 27.1591 228.837 27.1591C227.7 27.1591 226.859 27.7045 226.496 28.6364H226.382V27.2727H225.087V36ZM241.561 36.2045C243.084 36.2045 243.879 35.3864 244.152 34.8182H244.22V36H245.561V30.25C245.561 27.4773 243.447 27.1591 242.334 27.1591C241.016 27.1591 239.516 27.6136 238.834 29.2045L240.107 29.6591C240.402 29.0227 241.101 28.3409 242.379 28.3409C243.612 28.3409 244.22 28.9943 244.22 30.1136V30.1591C244.22 30.8068 243.561 30.75 241.97 30.9545C240.351 31.1648 238.584 31.5227 238.584 33.5227C238.584 35.2273 239.902 36.2045 241.561 36.2045ZM241.766 35C240.697 35 239.925 34.5227 239.925 33.5909C239.925 32.5682 240.857 32.25 241.902 32.1136C242.47 32.0455 243.993 31.8864 244.22 31.6136V32.8409C244.22 33.9318 243.357 35 241.766 35ZM249.349 30.75C249.349 29.2273 250.293 28.3636 251.577 28.3636C252.821 28.3636 253.577 29.1761 253.577 30.5455V36H254.918V30.4545C254.918 28.2273 253.73 27.1591 251.963 27.1591C250.645 27.1591 249.827 27.75 249.418 28.6364H249.304V27.2727H248.009V36H249.349V30.75ZM259.936 36.2045C261.459 36.2045 262.254 35.3864 262.527 34.8182H262.595V36H263.936V30.25C263.936 27.4773 261.822 27.1591 260.709 27.1591C259.391 27.1591 257.891 27.6136 257.209 29.2045L258.482 29.6591C258.777 29.0227 259.476 28.3409 260.754 28.3409C261.987 28.3409 262.595 28.9943 262.595 30.1136V30.1591C262.595 30.8068 261.936 30.75 260.345 30.9545C258.726 31.1648 256.959 31.5227 256.959 33.5227C256.959 35.2273 258.277 36.2045 259.936 36.2045ZM260.141 35C259.072 35 258.3 34.5227 258.3 33.5909C258.3 32.5682 259.232 32.25 260.277 32.1136C260.845 32.0455 262.368 31.8864 262.595 31.6136V32.8409C262.595 33.9318 261.732 35 260.141 35ZM269.906 39.4545C271.997 39.4545 273.679 38.5 273.679 36.25V27.2727H272.384V28.6591H272.247C271.952 28.2045 271.406 27.1591 269.702 27.1591C267.497 27.1591 265.974 28.9091 265.974 31.5909C265.974 34.3182 267.565 35.8636 269.679 35.8636C271.384 35.8636 271.929 34.8636 272.224 34.3864H272.338V36.1591C272.338 37.6136 271.315 38.2727 269.906 38.2727C268.321 38.2727 267.764 37.4375 267.406 36.9545L266.338 37.7045C266.884 38.6193 267.957 39.4545 269.906 39.4545ZM269.861 34.6591C268.179 34.6591 267.315 33.3864 267.315 31.5682C267.315 29.7955 268.156 28.3636 269.861 28.3636C271.497 28.3636 272.361 29.6818 272.361 31.5682C272.361 33.5 271.474 34.6591 269.861 34.6591ZM279.793 36.1818C281.565 36.1818 282.861 35.2955 283.27 33.9773L281.974 33.6136C281.634 34.5227 280.844 34.9773 279.793 34.9773C278.219 34.9773 277.134 33.9602 277.071 32.0909H283.406V31.5227C283.406 28.2727 281.474 27.1591 279.656 27.1591C277.293 27.1591 275.724 29.0227 275.724 31.7045C275.724 34.3864 277.27 36.1818 279.793 36.1818ZM277.071 30.9318C277.162 29.5739 278.122 28.3636 279.656 28.3636C281.111 28.3636 282.043 29.4545 282.043 30.9318H277.071ZM285.446 36H286.787V30.4773C286.787 29.2955 287.719 28.4318 288.991 28.4318C289.349 28.4318 289.719 28.5 289.81 28.5227V27.1591C289.656 27.1477 289.304 27.1364 289.105 27.1364C288.06 27.1364 287.151 27.7273 286.832 28.5909H286.741V27.2727H285.446V36ZM291.376 36.0909C291.939 36.0909 292.399 35.6307 292.399 35.0682C292.399 34.5057 291.939 34.0455 291.376 34.0455C290.814 34.0455 290.354 34.5057 290.354 35.0682C290.354 35.6307 290.814 36.0909 291.376 36.0909Z" fill="#4E5A65"/>
</svg>
