<svg width="195" height="18" viewBox="0 0 195 18" fill="none" xmlns="http://www.w3.org/2000/svg">
<path d="M0.291193 14H2.66264V9.20597H5.07884L7.64844 14H10.2947L7.46307 8.80966C9.00355 8.18963 9.81534 6.87287 9.81534 5.09588C9.81534 2.59659 8.20455 0.909091 5.20028 0.909091H0.291193V14ZM2.66264 7.23722V2.89062H4.83594C6.60653 2.89062 7.39915 3.70241 7.39915 5.09588C7.39915 6.48935 6.60653 7.23722 4.84872 7.23722H2.66264ZM16.1019 14.1918C18.3903 14.1918 19.9627 13.0732 20.3718 11.3665L18.2113 11.1236C17.8981 11.9545 17.131 12.3892 16.1339 12.3892C14.6381 12.3892 13.6474 11.4048 13.6282 9.72372H20.4677V9.0142C20.4677 5.56889 18.3967 4.05398 15.9805 4.05398C13.168 4.05398 11.3335 6.11861 11.3335 9.14844C11.3335 12.2294 13.1424 14.1918 16.1019 14.1918ZM13.6346 8.16406C13.7049 6.91122 14.6317 5.85653 16.0124 5.85653C17.342 5.85653 18.2369 6.82812 18.2496 8.16406H13.6346ZM30.1852 6.77699C29.8656 5.11506 28.536 4.05398 26.2349 4.05398C23.8699 4.05398 22.2591 5.21733 22.2654 7.03267C22.2591 8.46449 23.1412 9.41051 25.0268 9.80043L26.7015 10.152C27.6028 10.3501 28.0247 10.7145 28.0247 11.2706C28.0247 11.9418 27.296 12.4467 26.1966 12.4467C25.1355 12.4467 24.4451 11.9865 24.247 11.1044L21.9906 11.3217C22.2782 13.1243 23.7931 14.1918 26.2029 14.1918C28.6575 14.1918 30.3897 12.9197 30.3961 11.0597C30.3897 9.6598 29.4885 8.80327 27.6348 8.40057L25.9601 8.04261C24.9629 7.81889 24.5666 7.47372 24.573 6.90483C24.5666 6.24006 25.3017 5.77983 26.2669 5.77983C27.3343 5.77983 27.8968 6.36151 28.0758 7.0071L30.1852 6.77699ZM36.5868 14.1918C39.4632 14.1918 41.2914 12.1655 41.2914 9.12926C41.2914 6.08665 39.4632 4.05398 36.5868 4.05398C33.7104 4.05398 31.8823 6.08665 31.8823 9.12926C31.8823 12.1655 33.7104 14.1918 36.5868 14.1918ZM36.5996 12.3381C35.008 12.3381 34.2282 10.919 34.2282 9.12287C34.2282 7.3267 35.008 5.88849 36.5996 5.88849C38.1657 5.88849 38.9455 7.3267 38.9455 9.12287C38.9455 10.919 38.1657 12.3381 36.5996 12.3381ZM45.5692 0.909091H43.2553V14H45.5692V0.909091ZM56.7186 4.18182H54.2576L51.9949 11.4751H51.8926L49.6362 4.18182H47.1689L50.6653 14H53.2221L56.7186 4.18182ZM62.3324 14.1918C64.6207 14.1918 66.1932 13.0732 66.6023 11.3665L64.4418 11.1236C64.1286 11.9545 63.3615 12.3892 62.3643 12.3892C60.8686 12.3892 59.8778 11.4048 59.8587 9.72372H66.6982V9.0142C66.6982 5.56889 64.6271 4.05398 62.2109 4.05398C59.3984 4.05398 57.5639 6.11861 57.5639 9.14844C57.5639 12.2294 59.3729 14.1918 62.3324 14.1918ZM59.8651 8.16406C59.9354 6.91122 60.8622 5.85653 62.2429 5.85653C63.5724 5.85653 64.4673 6.82812 64.4801 8.16406H59.8651ZM73.1206 14H75.4345V4.18182H73.1206V14ZM74.2839 2.78835C75.019 2.78835 75.6199 2.22585 75.6199 1.53551C75.6199 0.838778 75.019 0.276278 74.2839 0.276278C73.5424 0.276278 72.9416 0.838778 72.9416 1.53551C72.9416 2.22585 73.5424 2.78835 74.2839 2.78835ZM85.5739 6.77699C85.2543 5.11506 83.9247 4.05398 81.6236 4.05398C79.2585 4.05398 77.6477 5.21733 77.6541 7.03267C77.6477 8.46449 78.5298 9.41051 80.4155 9.80043L82.0902 10.152C82.9915 10.3501 83.4134 10.7145 83.4134 11.2706C83.4134 11.9418 82.6847 12.4467 81.5852 12.4467C80.5241 12.4467 79.8338 11.9865 79.6357 11.1044L77.3793 11.3217C77.6669 13.1243 79.1818 14.1918 81.5916 14.1918C84.0462 14.1918 85.7784 12.9197 85.7848 11.0597C85.7784 9.6598 84.8771 8.80327 83.0234 8.40057L81.3487 8.04261C80.3516 7.81889 79.9553 7.47372 79.9616 6.90483C79.9553 6.24006 80.6903 5.77983 81.6555 5.77983C82.723 5.77983 83.2855 6.36151 83.4645 7.0071L85.5739 6.77699ZM95.4528 6.77699C95.1332 5.11506 93.8036 4.05398 91.5025 4.05398C89.1374 4.05398 87.5266 5.21733 87.533 7.03267C87.5266 8.46449 88.4087 9.41051 90.2944 9.80043L91.9691 10.152C92.8704 10.3501 93.2923 10.7145 93.2923 11.2706C93.2923 11.9418 92.5636 12.4467 91.4641 12.4467C90.4031 12.4467 89.7127 11.9865 89.5146 11.1044L87.2582 11.3217C87.5458 13.1243 89.0607 14.1918 91.4705 14.1918C93.9251 14.1918 95.6573 12.9197 95.6637 11.0597C95.6573 9.6598 94.756 8.80327 92.9023 8.40057L91.2276 8.04261C90.2305 7.81889 89.8342 7.47372 89.8406 6.90483C89.8342 6.24006 90.5692 5.77983 91.5344 5.77983C92.6019 5.77983 93.1644 6.36151 93.3434 7.0071L95.4528 6.77699ZM103.83 9.87074C103.83 11.3665 102.762 12.108 101.739 12.108C100.627 12.108 99.8857 11.3217 99.8857 10.0753V4.18182H97.5717V10.4332C97.5717 12.7919 98.9141 14.1278 100.844 14.1278C102.315 14.1278 103.35 13.3544 103.798 12.255H103.9V14H106.143V4.18182H103.83V9.87074ZM112.869 14.1918C115.158 14.1918 116.73 13.0732 117.139 11.3665L114.979 11.1236C114.666 11.9545 113.899 12.3892 112.901 12.3892C111.406 12.3892 110.415 11.4048 110.396 9.72372H117.235V9.0142C117.235 5.56889 115.164 4.05398 112.748 4.05398C109.936 4.05398 108.101 6.11861 108.101 9.14844C108.101 12.2294 109.91 14.1918 112.869 14.1918ZM110.402 8.16406C110.472 6.91122 111.399 5.85653 112.78 5.85653C114.11 5.85653 115.004 6.82812 115.017 8.16406H110.402ZM126.953 6.77699C126.633 5.11506 125.304 4.05398 123.002 4.05398C120.637 4.05398 119.027 5.21733 119.033 7.03267C119.027 8.46449 119.909 9.41051 121.794 9.80043L123.469 10.152C124.37 10.3501 124.792 10.7145 124.792 11.2706C124.792 11.9418 124.064 12.4467 122.964 12.4467C121.903 12.4467 121.213 11.9865 121.015 11.1044L118.758 11.3217C119.046 13.1243 120.561 14.1918 122.971 14.1918C125.425 14.1918 127.157 12.9197 127.164 11.0597C127.157 9.6598 126.256 8.80327 124.402 8.40057L122.728 8.04261C121.73 7.81889 121.334 7.47372 121.341 6.90483C121.334 6.24006 122.069 5.77983 123.034 5.77983C124.102 5.77983 124.664 6.36151 124.843 7.0071L126.953 6.77699ZM142.402 17.6818V4.18182H140.127V5.8054H139.993C139.641 5.09588 138.919 4.05398 137.186 4.05398C134.917 4.05398 133.134 5.83097 133.134 9.10369C133.134 12.3381 134.866 14.1726 137.18 14.1726C138.868 14.1726 139.628 13.169 139.993 12.4531H140.088V17.6818H142.402ZM140.133 9.09091C140.133 10.9957 139.302 12.2741 137.826 12.2741C136.298 12.2741 135.493 10.9318 135.493 9.09091C135.493 7.26278 136.285 5.95241 137.826 5.95241C139.315 5.95241 140.133 7.18608 140.133 9.09091ZM151.044 9.87074C151.044 11.3665 149.977 12.108 148.954 12.108C147.842 12.108 147.1 11.3217 147.1 10.0753V4.18182H144.787V10.4332C144.787 12.7919 146.129 14.1278 148.059 14.1278C149.529 14.1278 150.565 13.3544 151.012 12.255H151.115V14H153.358V4.18182H151.044V9.87074ZM155.738 14H158.052V4.18182H155.738V14ZM156.901 2.78835C157.636 2.78835 158.237 2.22585 158.237 1.53551C158.237 0.838778 157.636 0.276278 156.901 0.276278C156.16 0.276278 155.559 0.838778 155.559 1.53551C155.559 2.22585 156.16 2.78835 156.901 2.78835ZM164.714 14.1918C167.181 14.1918 168.754 12.728 168.92 10.6442H166.708C166.51 11.6989 165.749 12.3061 164.733 12.3061C163.288 12.3061 162.355 11.098 162.355 9.09091C162.355 7.10938 163.308 5.92045 164.733 5.92045C165.845 5.92045 166.529 6.63636 166.708 7.58239H168.92C168.76 5.45384 167.098 4.05398 164.701 4.05398C161.825 4.05398 160.009 6.13139 160.009 9.12926C160.009 12.1016 161.78 14.1918 164.714 14.1918ZM170.82 14H173.134V10.7017L173.977 9.80043L176.982 14H179.749L175.722 8.41974L179.526 4.18182H176.822L173.294 8.12571H173.134V0.909091H170.82V14ZM183.382 0.909091H181.068V14H183.382V0.909091ZM187.199 17.6818C189.002 17.6818 190.044 16.755 190.6 15.1889L194.544 4.1946L192.07 4.18182L189.801 11.5966H189.699L187.436 4.18182H184.981L188.542 14.2045L188.344 14.7351C187.915 15.8537 187.238 15.9304 186.228 15.6364L185.691 17.4389C186.004 17.5668 186.567 17.6818 187.199 17.6818Z" fill="#35414B"/>
</svg>
