<svg width="292" height="40" viewBox="0 0 292 40" fill="none" xmlns="http://www.w3.org/2000/svg">
<path d="M7.77273 3.27273H9.13636C9.07386 1.51705 7.45455 0.204545 5.20455 0.204545C2.97727 0.204545 1.22727 1.5 1.22727 3.45455C1.22727 5.02273 2.36364 5.95455 4.18182 6.47727L5.61364 6.88636C6.84091 7.22727 7.93182 7.65909 7.93182 8.81818C7.93182 10.0909 6.70455 10.9318 5.09091 10.9318C3.70455 10.9318 2.47727 10.3182 2.36364 9H0.909091C1.04545 10.9091 2.59091 12.2045 5.09091 12.2045C7.77273 12.2045 9.29545 10.7273 9.29545 8.84091C9.29545 6.65909 7.22727 5.95455 6.02273 5.63636L4.84091 5.31818C3.97727 5.09091 2.59091 4.63636 2.59091 3.38636C2.59091 2.27273 3.61364 1.45455 5.15909 1.45455C6.56818 1.45455 7.63636 2.125 7.77273 3.27273ZM12.7713 6.75C12.7713 5.22727 13.7429 4.36364 15.0668 4.36364C16.3281 4.36364 17.0895 5.15909 17.0895 6.54545V12H18.4304V6.45455C18.4304 4.21023 17.2372 3.15909 15.4531 3.15909C14.0781 3.15909 13.294 3.73295 12.8849 4.63636H12.7713V0.363636H11.4304V12H12.7713V6.75ZM24.429 12.1818C26.7926 12.1818 28.3835 10.3864 28.3835 7.68182C28.3835 4.95455 26.7926 3.15909 24.429 3.15909C22.0653 3.15909 20.4744 4.95455 20.4744 7.68182C20.4744 10.3864 22.0653 12.1818 24.429 12.1818ZM24.429 10.9773C22.6335 10.9773 21.8153 9.43182 21.8153 7.68182C21.8153 5.93182 22.6335 4.36364 24.429 4.36364C26.2244 4.36364 27.0426 5.93182 27.0426 7.68182C27.0426 9.43182 26.2244 10.9773 24.429 10.9773ZM30.4304 12H31.7713V6.47727C31.7713 5.29545 32.7031 4.43182 33.9759 4.43182C34.3338 4.43182 34.7031 4.5 34.794 4.52273V3.15909C34.6406 3.14773 34.2884 3.13636 34.0895 3.13636C33.044 3.13636 32.1349 3.72727 31.8168 4.59091H31.7259V3.27273H30.4304V12ZM40.7259 3.27273H38.8622V1.18182H37.5213V3.27273H36.2031V4.40909H37.5213V9.86364C37.5213 11.3864 38.7486 12.1136 39.8849 12.1136C40.3849 12.1136 40.7031 12.0227 40.8849 11.9545L40.6122 10.75C40.4986 10.7727 40.3168 10.8182 40.0213 10.8182C39.4304 10.8182 38.8622 10.6364 38.8622 9.5V4.40909H40.7259V3.27273ZM44.7429 10.4091H43.2884L43.2202 11.0455C43.0554 12.5852 42.7315 14.1193 42.5838 14.8409H43.6065C43.8793 14.0682 44.4588 12.3182 44.652 11.0227L44.7429 10.4091ZM54.2955 12.2045C55.8182 12.2045 56.6136 11.3864 56.8864 10.8182H56.9545V12H58.2955V6.25C58.2955 3.47727 56.1818 3.15909 55.0682 3.15909C53.75 3.15909 52.25 3.61364 51.5682 5.20455L52.8409 5.65909C53.1364 5.02273 53.8352 4.34091 55.1136 4.34091C56.3466 4.34091 56.9545 4.99432 56.9545 6.11364V6.15909C56.9545 6.80682 56.2955 6.75 54.7045 6.95455C53.0852 7.16477 51.3182 7.52273 51.3182 9.52273C51.3182 11.2273 52.6364 12.2045 54.2955 12.2045ZM54.5 11C53.4318 11 52.6591 10.5227 52.6591 9.59091C52.6591 8.56818 53.5909 8.25 54.6364 8.11364C55.2045 8.04545 56.7273 7.88636 56.9545 7.61364V8.84091C56.9545 9.93182 56.0909 11 54.5 11ZM62.0838 6.75C62.0838 5.22727 63.027 4.36364 64.3111 4.36364C65.5554 4.36364 66.3111 5.17614 66.3111 6.54545V12H67.652V6.45455C67.652 4.22727 66.4645 3.15909 64.6974 3.15909C63.3793 3.15909 62.5611 3.75 62.152 4.63636H62.0384V3.27273H60.7429V12H62.0838V6.75ZM73.6477 12.1818C76.0114 12.1818 77.6023 10.3864 77.6023 7.68182C77.6023 4.95455 76.0114 3.15909 73.6477 3.15909C71.2841 3.15909 69.6932 4.95455 69.6932 7.68182C69.6932 10.3864 71.2841 12.1818 73.6477 12.1818ZM73.6477 10.9773C71.8523 10.9773 71.0341 9.43182 71.0341 7.68182C71.0341 5.93182 71.8523 4.36364 73.6477 4.36364C75.4432 4.36364 76.2614 5.93182 76.2614 7.68182C76.2614 9.43182 75.4432 10.9773 73.6477 10.9773ZM80.9901 6.75C80.9901 5.22727 81.9332 4.36364 83.2173 4.36364C84.4616 4.36364 85.2173 5.17614 85.2173 6.54545V12H86.5582V6.45455C86.5582 4.22727 85.3707 3.15909 83.6037 3.15909C82.2855 3.15909 81.4673 3.75 81.0582 4.63636H80.9446V3.27273H79.6491V12H80.9901V6.75ZM89.5597 15.2727C90.7699 15.2727 91.6222 14.6307 92.1278 13.2727L95.8438 3.29545L94.3778 3.27273L91.9688 10.2273H91.8778L89.4688 3.27273H88.0142L91.2415 12.0455L90.9915 12.7273C90.5028 14.0568 89.9006 14.1818 88.9233 13.9318L88.5824 15.1136C88.7188 15.1818 89.1051 15.2727 89.5597 15.2727ZM97.6179 12H98.9588V6.54545C98.9588 5.26705 99.8906 4.36364 100.936 4.36364C101.953 4.36364 102.663 5.02841 102.663 6.02273V12H104.027V6.31818C104.027 5.19318 104.732 4.36364 105.959 4.36364C106.913 4.36364 107.732 4.86932 107.732 6.15909V12H109.072V6.15909C109.072 4.10795 107.97 3.15909 106.413 3.15909C105.163 3.15909 104.249 3.73295 103.8 4.63636H103.709C103.277 3.70455 102.516 3.15909 101.368 3.15909C100.232 3.15909 99.3906 3.70455 99.027 4.63636H98.9134V3.27273H97.6179V12ZM115.07 12.1818C117.433 12.1818 119.024 10.3864 119.024 7.68182C119.024 4.95455 117.433 3.15909 115.07 3.15909C112.706 3.15909 111.115 4.95455 111.115 7.68182C111.115 10.3864 112.706 12.1818 115.07 12.1818ZM115.07 10.9773C113.274 10.9773 112.456 9.43182 112.456 7.68182C112.456 5.93182 113.274 4.36364 115.07 4.36364C116.865 4.36364 117.683 5.93182 117.683 7.68182C117.683 9.43182 116.865 10.9773 115.07 10.9773ZM126.571 8.43182C126.571 10.0682 125.321 10.8182 124.321 10.8182C123.207 10.8182 122.412 10 122.412 8.72727V3.27273H121.071V8.81818C121.071 11.0455 122.253 12.1136 123.889 12.1136C125.207 12.1136 126.071 11.4091 126.48 10.5227H126.571V12H127.912V3.27273H126.571V8.43182ZM136.55 5.22727C136.129 3.98864 135.186 3.15909 133.459 3.15909C131.618 3.15909 130.254 4.20455 130.254 5.68182C130.254 6.88636 130.97 7.69318 132.572 8.06818L134.027 8.40909C134.908 8.61364 135.322 9.03409 135.322 9.63636C135.322 10.3864 134.527 11 133.277 11C132.18 11 131.493 10.5284 131.254 9.59091L129.982 9.90909C130.294 11.392 131.516 12.1818 133.3 12.1818C135.328 12.1818 136.709 11.0739 136.709 9.56818C136.709 8.35227 135.947 7.58523 134.391 7.20455L133.095 6.88636C132.061 6.63068 131.595 6.28409 131.595 5.61364C131.595 4.86364 132.391 4.31818 133.459 4.31818C134.629 4.31818 135.112 4.96591 135.345 5.56818L136.55 5.22727ZM149.409 5.22727C148.989 3.98864 148.045 3.15909 146.318 3.15909C144.477 3.15909 143.114 4.20455 143.114 5.68182C143.114 6.88636 143.83 7.69318 145.432 8.06818L146.886 8.40909C147.767 8.61364 148.182 9.03409 148.182 9.63636C148.182 10.3864 147.386 11 146.136 11C145.04 11 144.352 10.5284 144.114 9.59091L142.841 9.90909C143.153 11.392 144.375 12.1818 146.159 12.1818C148.188 12.1818 149.568 11.0739 149.568 9.56818C149.568 8.35227 148.807 7.58523 147.25 7.20455L145.955 6.88636C144.92 6.63068 144.455 6.28409 144.455 5.61364C144.455 4.86364 145.25 4.31818 146.318 4.31818C147.489 4.31818 147.972 4.96591 148.205 5.56818L149.409 5.22727ZM157.087 8.43182C157.087 10.0682 155.837 10.8182 154.837 10.8182C153.723 10.8182 152.928 10 152.928 8.72727V3.27273H151.587V8.81818C151.587 11.0455 152.768 12.1136 154.405 12.1136C155.723 12.1136 156.587 11.4091 156.996 10.5227H157.087V12H158.428V3.27273H157.087V8.43182ZM160.884 12H162.224V6.47727C162.224 5.29545 163.156 4.43182 164.429 4.43182C164.787 4.43182 165.156 4.5 165.247 4.52273V3.15909C165.094 3.14773 164.741 3.13636 164.543 3.13636C163.497 3.13636 162.588 3.72727 162.27 4.59091H162.179V3.27273H160.884V12ZM174.239 3.27273H172.784L170.375 10.2273H170.284L167.875 3.27273H166.42L169.648 12H171.011L174.239 3.27273ZM179.355 12.1818C181.128 12.1818 182.423 11.2955 182.832 9.97727L181.537 9.61364C181.196 10.5227 180.406 10.9773 179.355 10.9773C177.781 10.9773 176.696 9.96023 176.634 8.09091H182.969V7.52273C182.969 4.27273 181.037 3.15909 179.219 3.15909C176.855 3.15909 175.287 5.02273 175.287 7.70455C175.287 10.3864 176.832 12.1818 179.355 12.1818ZM176.634 6.93182C176.724 5.57386 177.685 4.36364 179.219 4.36364C180.673 4.36364 181.605 5.45455 181.605 6.93182H176.634ZM185.607 15.2727C186.817 15.2727 187.669 14.6307 188.175 13.2727L191.891 3.29545L190.425 3.27273L188.016 10.2273H187.925L185.516 3.27273H184.061L187.288 12.0455L187.038 12.7273C186.55 14.0568 185.947 14.1818 184.97 13.9318L184.629 15.1136C184.766 15.1818 185.152 15.2727 185.607 15.2727ZM199.847 5.22727C199.426 3.98864 198.483 3.15909 196.756 3.15909C194.915 3.15909 193.551 4.20455 193.551 5.68182C193.551 6.88636 194.267 7.69318 195.869 8.06818L197.324 8.40909C198.205 8.61364 198.619 9.03409 198.619 9.63636C198.619 10.3864 197.824 11 196.574 11C195.477 11 194.79 10.5284 194.551 9.59091L193.278 9.90909C193.591 11.392 194.812 12.1818 196.597 12.1818C198.625 12.1818 200.006 11.0739 200.006 9.56818C200.006 8.35227 199.244 7.58523 197.688 7.20455L196.392 6.88636C195.358 6.63068 194.892 6.28409 194.892 5.61364C194.892 4.86364 195.688 4.31818 196.756 4.31818C197.926 4.31818 198.409 4.96591 198.642 5.56818L199.847 5.22727ZM210.32 3.27273H208.456V1.18182H207.115V3.27273H205.797V4.40909H207.115V9.86364C207.115 11.3864 208.342 12.1136 209.479 12.1136C209.979 12.1136 210.297 12.0227 210.479 11.9545L210.206 10.75C210.092 10.7727 209.911 10.8182 209.615 10.8182C209.024 10.8182 208.456 10.6364 208.456 9.5V4.40909H210.32V3.27273ZM212.337 12H213.678V6.47727C213.678 5.29545 214.609 4.43182 215.882 4.43182C216.24 4.43182 216.609 4.5 216.7 4.52273V3.15909C216.547 3.14773 216.195 3.13636 215.996 3.13636C214.95 3.13636 214.041 3.72727 213.723 4.59091H213.632V3.27273H212.337V12ZM220.858 12.2045C222.381 12.2045 223.176 11.3864 223.449 10.8182H223.517V12H224.858V6.25C224.858 3.47727 222.744 3.15909 221.631 3.15909C220.312 3.15909 218.812 3.61364 218.131 5.20455L219.403 5.65909C219.699 5.02273 220.398 4.34091 221.676 4.34091C222.909 4.34091 223.517 4.99432 223.517 6.11364V6.15909C223.517 6.80682 222.858 6.75 221.267 6.95455C219.648 7.16477 217.881 7.52273 217.881 9.52273C217.881 11.2273 219.199 12.2045 220.858 12.2045ZM221.062 11C219.994 11 219.222 10.5227 219.222 9.59091C219.222 8.56818 220.153 8.25 221.199 8.11364C221.767 8.04545 223.29 7.88636 223.517 7.61364V8.84091C223.517 9.93182 222.653 11 221.062 11ZM230.851 12.1818C232.783 12.1818 234.055 11 234.283 9.45455H232.942C232.692 10.4091 231.896 10.9773 230.851 10.9773C229.26 10.9773 228.237 9.65909 228.237 7.63636C228.237 5.65909 229.283 4.36364 230.851 4.36364C232.033 4.36364 232.737 5.09091 232.942 5.88636H234.283C234.055 4.25 232.669 3.15909 230.828 3.15909C228.464 3.15909 226.896 5.02273 226.896 7.68182C226.896 10.2955 228.396 12.1818 230.851 12.1818ZM236.243 12H237.584V8.73295L238.521 7.86364L241.788 12H243.493L239.533 7L243.22 3.27273H241.561L237.743 7.15909H237.584V0.363636H236.243V12ZM250.31 15.2727C251.52 15.2727 252.372 14.6307 252.878 13.2727L256.594 3.29545L255.128 3.27273L252.719 10.2273H252.628L250.219 3.27273H248.764L251.991 12.0455L251.741 12.7273C251.253 14.0568 250.651 14.1818 249.673 13.9318L249.332 15.1136C249.469 15.1818 249.855 15.2727 250.31 15.2727ZM261.601 12.1818C263.964 12.1818 265.555 10.3864 265.555 7.68182C265.555 4.95455 263.964 3.15909 261.601 3.15909C259.237 3.15909 257.646 4.95455 257.646 7.68182C257.646 10.3864 259.237 12.1818 261.601 12.1818ZM261.601 10.9773C259.805 10.9773 258.987 9.43182 258.987 7.68182C258.987 5.93182 259.805 4.36364 261.601 4.36364C263.396 4.36364 264.214 5.93182 264.214 7.68182C264.214 9.43182 263.396 10.9773 261.601 10.9773ZM273.102 8.43182C273.102 10.0682 271.852 10.8182 270.852 10.8182C269.739 10.8182 268.943 10 268.943 8.72727V3.27273H267.602V8.81818C267.602 11.0455 268.784 12.1136 270.42 12.1136C271.739 12.1136 272.602 11.4091 273.011 10.5227H273.102V12H274.443V3.27273H273.102V8.43182ZM276.899 12H278.24V6.47727C278.24 5.29545 279.172 4.43182 280.445 4.43182C280.803 4.43182 281.172 4.5 281.263 4.52273V3.15909C281.109 3.14773 280.757 3.13636 280.558 3.13636C279.513 3.13636 278.604 3.72727 278.286 4.59091H278.195V3.27273H276.899V12ZM5.02273 27.2727H3.15909V25.1818H1.81818V27.2727H0.5V28.4091H1.81818V33.8636C1.81818 35.3864 3.04545 36.1136 4.18182 36.1136C4.68182 36.1136 5 36.0227 5.18182 35.9545L4.90909 34.75C4.79545 34.7727 4.61364 34.8182 4.31818 34.8182C3.72727 34.8182 3.15909 34.6364 3.15909 33.5V28.4091H5.02273V27.2727ZM10.6051 36.1818C12.3778 36.1818 13.6733 35.2955 14.0824 33.9773L12.7869 33.6136C12.446 34.5227 11.6562 34.9773 10.6051 34.9773C9.03125 34.9773 7.94602 33.9602 7.88352 32.0909H14.2188V31.5227C14.2188 28.2727 12.2869 27.1591 10.4688 27.1591C8.10511 27.1591 6.53693 29.0227 6.53693 31.7045C6.53693 34.3864 8.08239 36.1818 10.6051 36.1818ZM7.88352 30.9318C7.97443 29.5739 8.93466 28.3636 10.4688 28.3636C11.9233 28.3636 12.8551 29.4545 12.8551 30.9318H7.88352ZM18.8267 36.2045C20.3494 36.2045 21.1449 35.3864 21.4176 34.8182H21.4858V36H22.8267V30.25C22.8267 27.4773 20.7131 27.1591 19.5994 27.1591C18.2812 27.1591 16.7812 27.6136 16.0994 29.2045L17.3722 29.6591C17.6676 29.0227 18.3665 28.3409 19.6449 28.3409C20.8778 28.3409 21.4858 28.9943 21.4858 30.1136V30.1591C21.4858 30.8068 20.8267 30.75 19.2358 30.9545C17.6165 31.1648 15.8494 31.5227 15.8494 33.5227C15.8494 35.2273 17.1676 36.2045 18.8267 36.2045ZM19.0312 35C17.9631 35 17.1903 34.5227 17.1903 33.5909C17.1903 32.5682 18.1222 32.25 19.1676 32.1136C19.7358 32.0455 21.2585 31.8864 21.4858 31.6136V32.8409C21.4858 33.9318 20.6222 35 19.0312 35ZM25.2741 36H26.6151V30.5455C26.6151 29.267 27.5469 28.3636 28.5923 28.3636C29.6094 28.3636 30.3196 29.0284 30.3196 30.0227V36H31.6832V30.3182C31.6832 29.1932 32.3878 28.3636 33.6151 28.3636C34.5696 28.3636 35.3878 28.8693 35.3878 30.1591V36H36.7287V30.1591C36.7287 28.108 35.6264 27.1591 34.0696 27.1591C32.8196 27.1591 31.9048 27.733 31.456 28.6364H31.3651C30.9332 27.7045 30.1719 27.1591 29.0241 27.1591C27.8878 27.1591 27.0469 27.7045 26.6832 28.6364H26.5696V27.2727H25.2741V36ZM40.3622 24.3636H39.0895V25.4091C39.0895 26.25 38.6804 26.9773 38.2031 27.6591L38.9304 28.25C39.8395 27.5227 40.3622 26.3182 40.3622 25.3864V24.3636ZM47.081 29.2273C46.6605 27.9886 45.7173 27.1591 43.9901 27.1591C42.1491 27.1591 40.7855 28.2045 40.7855 29.6818C40.7855 30.8864 41.5014 31.6932 43.1037 32.0682L44.5582 32.4091C45.4389 32.6136 45.8537 33.0341 45.8537 33.6364C45.8537 34.3864 45.0582 35 43.8082 35C42.7116 35 42.0241 34.5284 41.7855 33.5909L40.5128 33.9091C40.8253 35.392 42.0469 36.1818 43.831 36.1818C45.8594 36.1818 47.2401 35.0739 47.2401 33.5682C47.2401 32.3523 46.4787 31.5852 44.9219 31.2045L43.6264 30.8864C42.5923 30.6307 42.1264 30.2841 42.1264 29.6136C42.1264 28.8636 42.9219 28.3182 43.9901 28.3182C45.1605 28.3182 45.6435 28.9659 45.8764 29.5682L47.081 29.2273ZM55.0994 30.75C55.0994 29.2273 56.0426 28.3636 57.3267 28.3636C58.571 28.3636 59.3267 29.1761 59.3267 30.5455V36H60.6676V30.4545C60.6676 28.2273 59.4801 27.1591 57.7131 27.1591C56.3949 27.1591 55.5767 27.75 55.1676 28.6364H55.054V27.2727H53.7585V36H55.0994V30.75ZM66.777 36.1818C68.5497 36.1818 69.8452 35.2955 70.2543 33.9773L68.9588 33.6136C68.6179 34.5227 67.8281 34.9773 66.777 34.9773C65.2031 34.9773 64.1179 33.9602 64.0554 32.0909H70.3906V31.5227C70.3906 28.2727 68.4588 27.1591 66.6406 27.1591C64.277 27.1591 62.7088 29.0227 62.7088 31.7045C62.7088 34.3864 64.2543 36.1818 66.777 36.1818ZM64.0554 30.9318C64.1463 29.5739 65.1065 28.3636 66.6406 28.3636C68.0952 28.3636 69.027 29.4545 69.027 30.9318H64.0554ZM76.0895 36.1818C77.8622 36.1818 79.1577 35.2955 79.5668 33.9773L78.2713 33.6136C77.9304 34.5227 77.1406 34.9773 76.0895 34.9773C74.5156 34.9773 73.4304 33.9602 73.3679 32.0909H79.7031V31.5227C79.7031 28.2727 77.7713 27.1591 75.9531 27.1591C73.5895 27.1591 72.0213 29.0227 72.0213 31.7045C72.0213 34.3864 73.5668 36.1818 76.0895 36.1818ZM73.3679 30.9318C73.4588 29.5739 74.419 28.3636 75.9531 28.3636C77.4077 28.3636 78.3395 29.4545 78.3395 30.9318H73.3679ZM85.0384 36.1818C86.7202 36.1818 87.2884 35.1364 87.5838 34.6591H87.7429V36H89.0384V24.3636H87.6974V28.6591H87.5838C87.2884 28.2045 86.7656 27.1591 85.0611 27.1591C82.8565 27.1591 81.3338 28.9091 81.3338 31.6591C81.3338 34.4318 82.8565 36.1818 85.0384 36.1818ZM85.2202 34.9773C83.5384 34.9773 82.6747 33.5 82.6747 31.6364C82.6747 29.7955 83.5156 28.3636 85.2202 28.3636C86.8565 28.3636 87.7202 29.6818 87.7202 31.6364C87.7202 33.6136 86.8338 34.9773 85.2202 34.9773ZM97.8622 29.2273C97.4418 27.9886 96.4986 27.1591 94.7713 27.1591C92.9304 27.1591 91.5668 28.2045 91.5668 29.6818C91.5668 30.8864 92.2827 31.6932 93.8849 32.0682L95.3395 32.4091C96.2202 32.6136 96.6349 33.0341 96.6349 33.6364C96.6349 34.3864 95.8395 35 94.5895 35C93.4929 35 92.8054 34.5284 92.5668 33.5909L91.294 33.9091C91.6065 35.392 92.8281 36.1818 94.6122 36.1818C96.6406 36.1818 98.0213 35.0739 98.0213 33.5682C98.0213 32.3523 97.2599 31.5852 95.7031 31.2045L94.4077 30.8864C93.3736 30.6307 92.9077 30.2841 92.9077 29.6136C92.9077 28.8636 93.7031 28.3182 94.7713 28.3182C95.9418 28.3182 96.4247 28.9659 96.6577 29.5682L97.8622 29.2273ZM106.517 36H107.835L109.744 29.2955H109.881L111.79 36H113.108L115.767 27.2727H114.358L112.472 33.9318H112.381L110.54 27.2727H109.108L107.244 33.9545H107.153L105.267 27.2727H103.858L106.517 36ZM120.902 36.1818C122.675 36.1818 123.97 35.2955 124.379 33.9773L123.084 33.6136C122.743 34.5227 121.953 34.9773 120.902 34.9773C119.328 34.9773 118.243 33.9602 118.18 32.0909H124.516V31.5227C124.516 28.2727 122.584 27.1591 120.766 27.1591C118.402 27.1591 116.834 29.0227 116.834 31.7045C116.834 34.3864 118.379 36.1818 120.902 36.1818ZM118.18 30.9318C118.271 29.5739 119.232 28.3636 120.766 28.3636C122.22 28.3636 123.152 29.4545 123.152 30.9318H118.18ZM130.214 36.1818C131.987 36.1818 133.283 35.2955 133.692 33.9773L132.396 33.6136C132.055 34.5227 131.266 34.9773 130.214 34.9773C128.641 34.9773 127.555 33.9602 127.493 32.0909H133.828V31.5227C133.828 28.2727 131.896 27.1591 130.078 27.1591C127.714 27.1591 126.146 29.0227 126.146 31.7045C126.146 34.3864 127.692 36.1818 130.214 36.1818ZM127.493 30.9318C127.584 29.5739 128.544 28.3636 130.078 28.3636C131.533 28.3636 132.464 29.4545 132.464 30.9318H127.493ZM135.868 36H137.209V32.733L138.146 31.8636L141.413 36H143.118L139.158 31L142.845 27.2727H141.186L137.368 31.1591H137.209V24.3636H135.868V36ZM145.912 24.3636H144.571V36H145.912V24.3636ZM149.232 39.2727C150.442 39.2727 151.294 38.6307 151.8 37.2727L155.516 27.2955L154.05 27.2727L151.641 34.2273H151.55L149.141 27.2727H147.686L150.913 36.0455L150.663 36.7273C150.175 38.0568 149.572 38.1818 148.595 37.9318L148.254 39.1136C148.391 39.1818 148.777 39.2727 149.232 39.2727ZM167.972 29.2273C167.551 27.9886 166.608 27.1591 164.881 27.1591C163.04 27.1591 161.676 28.2045 161.676 29.6818C161.676 30.8864 162.392 31.6932 163.994 32.0682L165.449 32.4091C166.33 32.6136 166.744 33.0341 166.744 33.6364C166.744 34.3864 165.949 35 164.699 35C163.602 35 162.915 34.5284 162.676 33.5909L161.403 33.9091C161.716 35.392 162.938 36.1818 164.722 36.1818C166.75 36.1818 168.131 35.0739 168.131 33.5682C168.131 32.3523 167.369 31.5852 165.812 31.2045L164.517 30.8864C163.483 30.6307 163.017 30.2841 163.017 29.6136C163.017 28.8636 163.812 28.3182 164.881 28.3182C166.051 28.3182 166.534 28.9659 166.767 29.5682L167.972 29.2273ZM173.695 36.1818C176.058 36.1818 177.649 34.3864 177.649 31.6818C177.649 28.9545 176.058 27.1591 173.695 27.1591C171.331 27.1591 169.74 28.9545 169.74 31.6818C169.74 34.3864 171.331 36.1818 173.695 36.1818ZM173.695 34.9773C171.899 34.9773 171.081 33.4318 171.081 31.6818C171.081 29.9318 171.899 28.3636 173.695 28.3636C175.49 28.3636 176.308 29.9318 176.308 31.6818C176.308 33.4318 175.49 34.9773 173.695 34.9773ZM185.06 39.2727C186.27 39.2727 187.122 38.6307 187.628 37.2727L191.344 27.2955L189.878 27.2727L187.469 34.2273H187.378L184.969 27.2727H183.514L186.741 36.0455L186.491 36.7273C186.003 38.0568 185.401 38.1818 184.423 37.9318L184.082 39.1136C184.219 39.1818 184.605 39.2727 185.06 39.2727ZM196.351 36.1818C198.714 36.1818 200.305 34.3864 200.305 31.6818C200.305 28.9545 198.714 27.1591 196.351 27.1591C193.987 27.1591 192.396 28.9545 192.396 31.6818C192.396 34.3864 193.987 36.1818 196.351 36.1818ZM196.351 34.9773C194.555 34.9773 193.737 33.4318 193.737 31.6818C193.737 29.9318 194.555 28.3636 196.351 28.3636C198.146 28.3636 198.964 29.9318 198.964 31.6818C198.964 33.4318 198.146 34.9773 196.351 34.9773ZM207.852 32.4318C207.852 34.0682 206.602 34.8182 205.602 34.8182C204.489 34.8182 203.693 34 203.693 32.7273V27.2727H202.352V32.8182C202.352 35.0455 203.534 36.1136 205.17 36.1136C206.489 36.1136 207.352 35.4091 207.761 34.5227H207.852V36H209.193V27.2727H207.852V32.4318ZM219.695 36.1818C221.626 36.1818 222.899 35 223.126 33.4545H221.786C221.536 34.4091 220.74 34.9773 219.695 34.9773C218.104 34.9773 217.081 33.6591 217.081 31.6364C217.081 29.6591 218.126 28.3636 219.695 28.3636C220.876 28.3636 221.581 29.0909 221.786 29.8864H223.126C222.899 28.25 221.513 27.1591 219.672 27.1591C217.308 27.1591 215.74 29.0227 215.74 31.6818C215.74 34.2955 217.24 36.1818 219.695 36.1818ZM227.655 36.2045C229.178 36.2045 229.973 35.3864 230.246 34.8182H230.314V36H231.655V30.25C231.655 27.4773 229.541 27.1591 228.428 27.1591C227.109 27.1591 225.609 27.6136 224.928 29.2045L226.2 29.6591C226.496 29.0227 227.195 28.3409 228.473 28.3409C229.706 28.3409 230.314 28.9943 230.314 30.1136V30.1591C230.314 30.8068 229.655 30.75 228.064 30.9545C226.445 31.1648 224.678 31.5227 224.678 33.5227C224.678 35.2273 225.996 36.2045 227.655 36.2045ZM227.859 35C226.791 35 226.018 34.5227 226.018 33.5909C226.018 32.5682 226.95 32.25 227.996 32.1136C228.564 32.0455 230.087 31.8864 230.314 31.6136V32.8409C230.314 33.9318 229.45 35 227.859 35ZM235.443 30.75C235.443 29.2273 236.386 28.3636 237.67 28.3636C238.915 28.3636 239.67 29.1761 239.67 30.5455V36H241.011V30.4545C241.011 28.2273 239.824 27.1591 238.057 27.1591C236.739 27.1591 235.92 27.75 235.511 28.6364H235.398V27.2727H234.102V36H235.443V30.75ZM251.848 27.2727H249.893V26.3864C249.893 25.5227 250.257 25.0682 251.143 25.0682C251.53 25.0682 251.757 25.1591 251.893 25.2045L252.28 24.0455C252.075 23.9545 251.666 23.8182 251.007 23.8182C249.757 23.8182 248.553 24.5682 248.553 26.0682V27.2727H247.143V28.4091H248.553V36H249.893V28.4091H251.848V27.2727ZM256.913 36.1818C259.277 36.1818 260.868 34.3864 260.868 31.6818C260.868 28.9545 259.277 27.1591 256.913 27.1591C254.55 27.1591 252.959 28.9545 252.959 31.6818C252.959 34.3864 254.55 36.1818 256.913 36.1818ZM256.913 34.9773C255.118 34.9773 254.3 33.4318 254.3 31.6818C254.3 29.9318 255.118 28.3636 256.913 28.3636C258.709 28.3636 259.527 29.9318 259.527 31.6818C259.527 33.4318 258.709 34.9773 256.913 34.9773ZM266.46 36.1818C268.392 36.1818 269.665 35 269.892 33.4545H268.551C268.301 34.4091 267.506 34.9773 266.46 34.9773C264.869 34.9773 263.847 33.6591 263.847 31.6364C263.847 29.6591 264.892 28.3636 266.46 28.3636C267.642 28.3636 268.347 29.0909 268.551 29.8864H269.892C269.665 28.25 268.278 27.1591 266.438 27.1591C264.074 27.1591 262.506 29.0227 262.506 31.6818C262.506 34.2955 264.006 36.1818 266.46 36.1818ZM277.352 32.4318C277.352 34.0682 276.102 34.8182 275.102 34.8182C273.989 34.8182 273.193 34 273.193 32.7273V27.2727H271.852V32.8182C271.852 35.0455 273.034 36.1136 274.67 36.1136C275.989 36.1136 276.852 35.4091 277.261 34.5227H277.352V36H278.693V27.2727H277.352V32.4318ZM287.331 29.2273C286.911 27.9886 285.967 27.1591 284.24 27.1591C282.399 27.1591 281.036 28.2045 281.036 29.6818C281.036 30.8864 281.751 31.6932 283.354 32.0682L284.808 32.4091C285.689 32.6136 286.104 33.0341 286.104 33.6364C286.104 34.3864 285.308 35 284.058 35C282.962 35 282.274 34.5284 282.036 33.5909L280.763 33.9091C281.075 35.392 282.297 36.1818 284.081 36.1818C286.109 36.1818 287.49 35.0739 287.49 33.5682C287.49 32.3523 286.729 31.5852 285.172 31.2045L283.876 30.8864C282.842 30.6307 282.376 30.2841 282.376 29.6136C282.376 28.8636 283.172 28.3182 284.24 28.3182C285.411 28.3182 285.893 28.9659 286.126 29.5682L287.331 29.2273ZM290.486 36.0909C291.048 36.0909 291.509 35.6307 291.509 35.0682C291.509 34.5057 291.048 34.0455 290.486 34.0455C289.923 34.0455 289.463 34.5057 289.463 35.0682C289.463 35.6307 289.923 36.0909 290.486 36.0909Z" fill="#4E5A65"/>
</svg>
