<svg width="396" height="64" viewBox="0 0 396 64" fill="none" xmlns="http://www.w3.org/2000/svg">
<path d="M7.77273 3.27273H9.13636C9.07386 1.51705 7.45455 0.204545 5.20455 0.204545C2.97727 0.204545 1.22727 1.5 1.22727 3.45455C1.22727 5.02273 2.36364 5.95455 4.18182 6.47727L5.61364 6.88636C6.84091 7.22727 7.93182 7.65909 7.93182 8.81818C7.93182 10.0909 6.70455 10.9318 5.09091 10.9318C3.70455 10.9318 2.47727 10.3182 2.36364 9H0.909091C1.04545 10.9091 2.59091 12.2045 5.09091 12.2045C7.77273 12.2045 9.29545 10.7273 9.29545 8.84091C9.29545 6.65909 7.22727 5.95455 6.02273 5.63636L4.84091 5.31818C3.97727 5.09091 2.59091 4.63636 2.59091 3.38636C2.59091 2.27273 3.61364 1.45455 5.15909 1.45455C6.56818 1.45455 7.63636 2.125 7.77273 3.27273ZM11.4304 12H12.7713V3.27273H11.4304V12ZM12.1122 1.81818C12.6349 1.81818 13.0668 1.40909 13.0668 0.909091C13.0668 0.409091 12.6349 0 12.1122 0C11.5895 0 11.1577 0.409091 11.1577 0.909091C11.1577 1.40909 11.5895 1.81818 12.1122 1.81818ZM16.5682 6.75C16.5682 5.22727 17.5114 4.36364 18.7955 4.36364C20.0398 4.36364 20.7955 5.17614 20.7955 6.54545V12H22.1364V6.45455C22.1364 4.22727 20.9489 3.15909 19.1818 3.15909C17.8636 3.15909 17.0455 3.75 16.6364 4.63636H16.5227V3.27273H15.2273V12H16.5682V6.75ZM28.1321 12.1818C30.0639 12.1818 31.3366 11 31.5639 9.45455H30.223C29.973 10.4091 29.1776 10.9773 28.1321 10.9773C26.5412 10.9773 25.5185 9.65909 25.5185 7.63636C25.5185 5.65909 26.5639 4.36364 28.1321 4.36364C29.3139 4.36364 30.0185 5.09091 30.223 5.88636H31.5639C31.3366 4.25 29.9503 3.15909 28.1094 3.15909C25.7457 3.15909 24.1776 5.02273 24.1776 7.68182C24.1776 10.2955 25.6776 12.1818 28.1321 12.1818ZM37.1832 12.1818C38.956 12.1818 40.2514 11.2955 40.6605 9.97727L39.3651 9.61364C39.0241 10.5227 38.2344 10.9773 37.1832 10.9773C35.6094 10.9773 34.5241 9.96023 34.4616 8.09091H40.7969V7.52273C40.7969 4.27273 38.8651 3.15909 37.0469 3.15909C34.6832 3.15909 33.1151 5.02273 33.1151 7.70455C33.1151 10.3864 34.6605 12.1818 37.1832 12.1818ZM34.4616 6.93182C34.5526 5.57386 35.5128 4.36364 37.0469 4.36364C38.5014 4.36364 39.4332 5.45455 39.4332 6.93182H34.4616ZM51.1321 3.27273H49.2685V1.18182H47.9276V3.27273H46.6094V4.40909H47.9276V9.86364C47.9276 11.3864 49.1548 12.1136 50.2912 12.1136C50.7912 12.1136 51.1094 12.0227 51.2912 11.9545L51.0185 10.75C50.9048 10.7727 50.723 10.8182 50.4276 10.8182C49.8366 10.8182 49.2685 10.6364 49.2685 9.5V4.40909H51.1321V3.27273ZM54.6776 6.75C54.6776 5.22727 55.6491 4.36364 56.973 4.36364C58.2344 4.36364 58.9957 5.15909 58.9957 6.54545V12H60.3366V6.45455C60.3366 4.21023 59.1435 3.15909 57.3594 3.15909C55.9844 3.15909 55.2003 3.73295 54.7912 4.63636H54.6776V0.363636H53.3366V12H54.6776V6.75ZM66.4489 12.1818C68.2216 12.1818 69.517 11.2955 69.9261 9.97727L68.6307 9.61364C68.2898 10.5227 67.5 10.9773 66.4489 10.9773C64.875 10.9773 63.7898 9.96023 63.7273 8.09091H70.0625V7.52273C70.0625 4.27273 68.1307 3.15909 66.3125 3.15909C63.9489 3.15909 62.3807 5.02273 62.3807 7.70455C62.3807 10.3864 63.9261 12.1818 66.4489 12.1818ZM63.7273 6.93182C63.8182 5.57386 64.7784 4.36364 66.3125 4.36364C67.767 4.36364 68.6989 5.45455 68.6989 6.93182H63.7273ZM80.2614 12.1818C82.0341 12.1818 83.3295 11.2955 83.7386 9.97727L82.4432 9.61364C82.1023 10.5227 81.3125 10.9773 80.2614 10.9773C78.6875 10.9773 77.6023 9.96023 77.5398 8.09091H83.875V7.52273C83.875 4.27273 81.9432 3.15909 80.125 3.15909C77.7614 3.15909 76.1932 5.02273 76.1932 7.70455C76.1932 10.3864 77.7386 12.1818 80.2614 12.1818ZM77.5398 6.93182C77.6307 5.57386 78.5909 4.36364 80.125 4.36364C81.5795 4.36364 82.5114 5.45455 82.5114 6.93182H77.5398ZM88.483 12.2045C90.0057 12.2045 90.8011 11.3864 91.0739 10.8182H91.142V12H92.483V6.25C92.483 3.47727 90.3693 3.15909 89.2557 3.15909C87.9375 3.15909 86.4375 3.61364 85.7557 5.20455L87.0284 5.65909C87.3239 5.02273 88.0227 4.34091 89.3011 4.34091C90.5341 4.34091 91.142 4.99432 91.142 6.11364V6.15909C91.142 6.80682 90.483 6.75 88.892 6.95455C87.2727 7.16477 85.5057 7.52273 85.5057 9.52273C85.5057 11.2273 86.8239 12.2045 88.483 12.2045ZM88.6875 11C87.6193 11 86.8466 10.5227 86.8466 9.59091C86.8466 8.56818 87.7784 8.25 88.8239 8.11364C89.392 8.04545 90.9148 7.88636 91.142 7.61364V8.84091C91.142 9.93182 90.2784 11 88.6875 11ZM101.112 5.22727C100.692 3.98864 99.7486 3.15909 98.0213 3.15909C96.1804 3.15909 94.8168 4.20455 94.8168 5.68182C94.8168 6.88636 95.5327 7.69318 97.1349 8.06818L98.5895 8.40909C99.4702 8.61364 99.8849 9.03409 99.8849 9.63636C99.8849 10.3864 99.0895 11 97.8395 11C96.7429 11 96.0554 10.5284 95.8168 9.59091L94.544 9.90909C94.8565 11.392 96.0781 12.1818 97.8622 12.1818C99.8906 12.1818 101.271 11.0739 101.271 9.56818C101.271 8.35227 100.51 7.58523 98.9531 7.20455L97.6577 6.88636C96.6236 6.63068 96.1577 6.28409 96.1577 5.61364C96.1577 4.86364 96.9531 4.31818 98.0213 4.31818C99.1918 4.31818 99.6747 4.96591 99.9077 5.56818L101.112 5.22727ZM103.29 12H104.631V3.27273H103.29V12ZM103.972 1.81818C104.494 1.81818 104.926 1.40909 104.926 0.909091C104.926 0.409091 104.494 0 103.972 0C103.449 0 103.017 0.409091 103.017 0.909091C103.017 1.40909 103.449 1.81818 103.972 1.81818ZM110.746 12.1818C112.518 12.1818 113.814 11.2955 114.223 9.97727L112.928 9.61364C112.587 10.5227 111.797 10.9773 110.746 10.9773C109.172 10.9773 108.087 9.96023 108.024 8.09091H114.359V7.52273C114.359 4.27273 112.428 3.15909 110.609 3.15909C108.246 3.15909 106.678 5.02273 106.678 7.70455C106.678 10.3864 108.223 12.1818 110.746 12.1818ZM108.024 6.93182C108.115 5.57386 109.075 4.36364 110.609 4.36364C112.064 4.36364 112.996 5.45455 112.996 6.93182H108.024ZM122.581 5.22727C122.161 3.98864 121.217 3.15909 119.49 3.15909C117.649 3.15909 116.286 4.20455 116.286 5.68182C116.286 6.88636 117.001 7.69318 118.604 8.06818L120.058 8.40909C120.939 8.61364 121.354 9.03409 121.354 9.63636C121.354 10.3864 120.558 11 119.308 11C118.212 11 117.524 10.5284 117.286 9.59091L116.013 9.90909C116.325 11.392 117.547 12.1818 119.331 12.1818C121.359 12.1818 122.74 11.0739 122.74 9.56818C122.74 8.35227 121.979 7.58523 120.422 7.20455L119.126 6.88636C118.092 6.63068 117.626 6.28409 117.626 5.61364C117.626 4.86364 118.422 4.31818 119.49 4.31818C120.661 4.31818 121.143 4.96591 121.376 5.56818L122.581 5.22727ZM128.554 3.27273H126.69V1.18182H125.349V3.27273H124.031V4.40909H125.349V9.86364C125.349 11.3864 126.577 12.1136 127.713 12.1136C128.213 12.1136 128.531 12.0227 128.713 11.9545L128.44 10.75C128.327 10.7727 128.145 10.8182 127.849 10.8182C127.259 10.8182 126.69 10.6364 126.69 9.5V4.40909H128.554V3.27273ZM138.866 3.27273H137.003V1.18182H135.662V3.27273H134.344V4.40909H135.662V9.86364C135.662 11.3864 136.889 12.1136 138.026 12.1136C138.526 12.1136 138.844 12.0227 139.026 11.9545L138.753 10.75C138.639 10.7727 138.457 10.8182 138.162 10.8182C137.571 10.8182 137.003 10.6364 137.003 9.5V4.40909H138.866V3.27273ZM142.412 6.75C142.412 5.22727 143.384 4.36364 144.707 4.36364C145.969 4.36364 146.73 5.15909 146.73 6.54545V12H148.071V6.45455C148.071 4.21023 146.878 3.15909 145.094 3.15909C143.719 3.15909 142.935 3.73295 142.526 4.63636H142.412V0.363636H141.071V12H142.412V6.75ZM150.524 12H151.865V3.27273H150.524V12ZM151.206 1.81818C151.729 1.81818 152.161 1.40909 152.161 0.909091C152.161 0.409091 151.729 0 151.206 0C150.683 0 150.251 0.409091 150.251 0.909091C150.251 1.40909 150.683 1.81818 151.206 1.81818ZM155.662 6.75C155.662 5.22727 156.605 4.36364 157.889 4.36364C159.134 4.36364 159.889 5.17614 159.889 6.54545V12H161.23V6.45455C161.23 4.22727 160.043 3.15909 158.276 3.15909C156.957 3.15909 156.139 3.75 155.73 4.63636H155.616V3.27273H154.321V12H155.662V6.75ZM167.203 15.4545C169.294 15.4545 170.976 14.5 170.976 12.25V3.27273H169.68V4.65909H169.544C169.249 4.20455 168.703 3.15909 166.999 3.15909C164.794 3.15909 163.271 4.90909 163.271 7.59091C163.271 10.3182 164.862 11.8636 166.976 11.8636C168.68 11.8636 169.226 10.8636 169.521 10.3864H169.635V12.1591C169.635 13.6136 168.612 14.2727 167.203 14.2727C165.618 14.2727 165.061 13.4375 164.703 12.9545L163.635 13.7045C164.18 14.6193 165.254 15.4545 167.203 15.4545ZM167.158 10.6591C165.476 10.6591 164.612 9.38636 164.612 7.56818C164.612 5.79545 165.453 4.36364 167.158 4.36364C168.794 4.36364 169.658 5.68182 169.658 7.56818C169.658 9.5 168.771 10.6591 167.158 10.6591ZM179.612 5.22727C179.192 3.98864 178.249 3.15909 176.521 3.15909C174.68 3.15909 173.317 4.20455 173.317 5.68182C173.317 6.88636 174.033 7.69318 175.635 8.06818L177.089 8.40909C177.97 8.61364 178.385 9.03409 178.385 9.63636C178.385 10.3864 177.589 11 176.339 11C175.243 11 174.555 10.5284 174.317 9.59091L173.044 9.90909C173.357 11.392 174.578 12.1818 176.362 12.1818C178.391 12.1818 179.771 11.0739 179.771 9.56818C179.771 8.35227 179.01 7.58523 177.453 7.20455L176.158 6.88636C175.124 6.63068 174.658 6.28409 174.658 5.61364C174.658 4.86364 175.453 4.31818 176.521 4.31818C177.692 4.31818 178.175 4.96591 178.408 5.56818L179.612 5.22727ZM190.085 3.27273H188.222V1.18182H186.881V3.27273H185.562V4.40909H186.881V9.86364C186.881 11.3864 188.108 12.1136 189.244 12.1136C189.744 12.1136 190.062 12.0227 190.244 11.9545L189.972 10.75C189.858 10.7727 189.676 10.8182 189.381 10.8182C188.79 10.8182 188.222 10.6364 188.222 9.5V4.40909H190.085V3.27273ZM195.554 12.1818C197.918 12.1818 199.509 10.3864 199.509 7.68182C199.509 4.95455 197.918 3.15909 195.554 3.15909C193.19 3.15909 191.599 4.95455 191.599 7.68182C191.599 10.3864 193.19 12.1818 195.554 12.1818ZM195.554 10.9773C193.759 10.9773 192.94 9.43182 192.94 7.68182C192.94 5.93182 193.759 4.36364 195.554 4.36364C197.349 4.36364 198.168 5.93182 198.168 7.68182C198.168 9.43182 197.349 10.9773 195.554 10.9773ZM211.555 8.43182C211.555 10.0682 210.305 10.8182 209.305 10.8182C208.192 10.8182 207.396 10 207.396 8.72727V3.27273H206.055V8.81818C206.055 11.0455 207.237 12.1136 208.874 12.1136C210.192 12.1136 211.055 11.4091 211.464 10.5227H211.555V12H212.896V3.27273H211.555V8.43182ZM221.534 5.22727C221.114 3.98864 220.17 3.15909 218.443 3.15909C216.602 3.15909 215.239 4.20455 215.239 5.68182C215.239 6.88636 215.955 7.69318 217.557 8.06818L219.011 8.40909C219.892 8.61364 220.307 9.03409 220.307 9.63636C220.307 10.3864 219.511 11 218.261 11C217.165 11 216.477 10.5284 216.239 9.59091L214.966 9.90909C215.278 11.392 216.5 12.1818 218.284 12.1818C220.312 12.1818 221.693 11.0739 221.693 9.56818C221.693 8.35227 220.932 7.58523 219.375 7.20455L218.08 6.88636C217.045 6.63068 216.58 6.28409 216.58 5.61364C216.58 4.86364 217.375 4.31818 218.443 4.31818C219.614 4.31818 220.097 4.96591 220.33 5.56818L221.534 5.22727ZM227.371 12.1818C229.143 12.1818 230.439 11.2955 230.848 9.97727L229.553 9.61364C229.212 10.5227 228.422 10.9773 227.371 10.9773C225.797 10.9773 224.712 9.96023 224.649 8.09091H230.984V7.52273C230.984 4.27273 229.053 3.15909 227.234 3.15909C224.871 3.15909 223.303 5.02273 223.303 7.70455C223.303 10.3864 224.848 12.1818 227.371 12.1818ZM224.649 6.93182C224.74 5.57386 225.7 4.36364 227.234 4.36364C228.689 4.36364 229.621 5.45455 229.621 6.93182H224.649ZM240.092 12.2045C241.615 12.2045 242.411 11.3864 242.683 10.8182H242.751V12H244.092V6.25C244.092 3.47727 241.979 3.15909 240.865 3.15909C239.547 3.15909 238.047 3.61364 237.365 5.20455L238.638 5.65909C238.933 5.02273 239.632 4.34091 240.911 4.34091C242.143 4.34091 242.751 4.99432 242.751 6.11364V6.15909C242.751 6.80682 242.092 6.75 240.501 6.95455C238.882 7.16477 237.115 7.52273 237.115 9.52273C237.115 11.2273 238.433 12.2045 240.092 12.2045ZM240.297 11C239.229 11 238.456 10.5227 238.456 9.59091C238.456 8.56818 239.388 8.25 240.433 8.11364C241.001 8.04545 242.524 7.88636 242.751 7.61364V8.84091C242.751 9.93182 241.888 11 240.297 11ZM250.085 12.1818C252.017 12.1818 253.29 11 253.517 9.45455H252.176C251.926 10.4091 251.131 10.9773 250.085 10.9773C248.494 10.9773 247.472 9.65909 247.472 7.63636C247.472 5.65909 248.517 4.36364 250.085 4.36364C251.267 4.36364 251.972 5.09091 252.176 5.88636H253.517C253.29 4.25 251.903 3.15909 250.062 3.15909C247.699 3.15909 246.131 5.02273 246.131 7.68182C246.131 10.2955 247.631 12.1818 250.085 12.1818ZM259.273 3.27273H257.409V1.18182H256.068V3.27273H254.75V4.40909H256.068V9.86364C256.068 11.3864 257.295 12.1136 258.432 12.1136C258.932 12.1136 259.25 12.0227 259.432 11.9545L259.159 10.75C259.045 10.7727 258.864 10.8182 258.568 10.8182C257.977 10.8182 257.409 10.6364 257.409 9.5V4.40909H259.273V3.27273ZM266.79 8.43182C266.79 10.0682 265.54 10.8182 264.54 10.8182C263.426 10.8182 262.631 10 262.631 8.72727V3.27273H261.29V8.81818C261.29 11.0455 262.472 12.1136 264.108 12.1136C265.426 12.1136 266.29 11.4091 266.699 10.5227H266.79V12H268.131V3.27273H266.79V8.43182ZM273.155 12.2045C274.678 12.2045 275.473 11.3864 275.746 10.8182H275.814V12H277.155V6.25C277.155 3.47727 275.041 3.15909 273.928 3.15909C272.609 3.15909 271.109 3.61364 270.428 5.20455L271.7 5.65909C271.996 5.02273 272.695 4.34091 273.973 4.34091C275.206 4.34091 275.814 4.99432 275.814 6.11364V6.15909C275.814 6.80682 275.155 6.75 273.564 6.95455C271.945 7.16477 270.178 7.52273 270.178 9.52273C270.178 11.2273 271.496 12.2045 273.155 12.2045ZM273.359 11C272.291 11 271.518 10.5227 271.518 9.59091C271.518 8.56818 272.45 8.25 273.496 8.11364C274.064 8.04545 275.587 7.88636 275.814 7.61364V8.84091C275.814 9.93182 274.95 11 273.359 11ZM280.943 0.363636H279.602V12H280.943V0.363636ZM284.74 0.363636H283.399V12H284.74V0.363636ZM288.06 15.2727C289.27 15.2727 290.122 14.6307 290.628 13.2727L294.344 3.29545L292.878 3.27273L290.469 10.2273H290.378L287.969 3.27273H286.514L289.741 12.0455L289.491 12.7273C289.003 14.0568 288.401 14.1818 287.423 13.9318L287.082 15.1136C287.219 15.1818 287.605 15.2727 288.06 15.2727ZM304.141 15.4545C306.232 15.4545 307.913 14.5 307.913 12.25V3.27273H306.618V4.65909H306.482C306.186 4.20455 305.641 3.15909 303.936 3.15909C301.732 3.15909 300.209 4.90909 300.209 7.59091C300.209 10.3182 301.8 11.8636 303.913 11.8636C305.618 11.8636 306.163 10.8636 306.459 10.3864H306.572V12.1591C306.572 13.6136 305.55 14.2727 304.141 14.2727C302.555 14.2727 301.999 13.4375 301.641 12.9545L300.572 13.7045C301.118 14.6193 302.192 15.4545 304.141 15.4545ZM304.095 10.6591C302.413 10.6591 301.55 9.38636 301.55 7.56818C301.55 5.79545 302.391 4.36364 304.095 4.36364C305.732 4.36364 306.595 5.68182 306.595 7.56818C306.595 9.5 305.709 10.6591 304.095 10.6591ZM314.027 12.1818C315.8 12.1818 317.095 11.2955 317.504 9.97727L316.209 9.61364C315.868 10.5227 315.078 10.9773 314.027 10.9773C312.453 10.9773 311.368 9.96023 311.305 8.09091H317.641V7.52273C317.641 4.27273 315.709 3.15909 313.891 3.15909C311.527 3.15909 309.959 5.02273 309.959 7.70455C309.959 10.3864 311.504 12.1818 314.027 12.1818ZM311.305 6.93182C311.396 5.57386 312.357 4.36364 313.891 4.36364C315.345 4.36364 316.277 5.45455 316.277 6.93182H311.305ZM323.476 3.27273H321.612V1.18182H320.271V3.27273H318.953V4.40909H320.271V9.86364C320.271 11.3864 321.499 12.1136 322.635 12.1136C323.135 12.1136 323.453 12.0227 323.635 11.9545L323.362 10.75C323.249 10.7727 323.067 10.8182 322.771 10.8182C322.18 10.8182 321.612 10.6364 321.612 9.5V4.40909H323.476V3.27273ZM335.493 8.43182C335.493 10.0682 334.243 10.8182 333.243 10.8182C332.129 10.8182 331.334 10 331.334 8.72727V3.27273H329.993V8.81818C329.993 11.0455 331.175 12.1136 332.811 12.1136C334.129 12.1136 334.993 11.4091 335.402 10.5227H335.493V12H336.834V3.27273H335.493V8.43182ZM345.472 5.22727C345.051 3.98864 344.108 3.15909 342.381 3.15909C340.54 3.15909 339.176 4.20455 339.176 5.68182C339.176 6.88636 339.892 7.69318 341.494 8.06818L342.949 8.40909C343.83 8.61364 344.244 9.03409 344.244 9.63636C344.244 10.3864 343.449 11 342.199 11C341.102 11 340.415 10.5284 340.176 9.59091L338.903 9.90909C339.216 11.392 340.438 12.1818 342.222 12.1818C344.25 12.1818 345.631 11.0739 345.631 9.56818C345.631 8.35227 344.869 7.58523 343.312 7.20455L342.017 6.88636C340.983 6.63068 340.517 6.28409 340.517 5.61364C340.517 4.86364 341.312 4.31818 342.381 4.31818C343.551 4.31818 344.034 4.96591 344.267 5.56818L345.472 5.22727ZM351.308 12.1818C353.081 12.1818 354.376 11.2955 354.786 9.97727L353.49 9.61364C353.149 10.5227 352.359 10.9773 351.308 10.9773C349.734 10.9773 348.649 9.96023 348.587 8.09091H354.922V7.52273C354.922 4.27273 352.99 3.15909 351.172 3.15909C348.808 3.15909 347.24 5.02273 347.24 7.70455C347.24 10.3864 348.786 12.1818 351.308 12.1818ZM348.587 6.93182C348.678 5.57386 349.638 4.36364 351.172 4.36364C352.626 4.36364 353.558 5.45455 353.558 6.93182H348.587ZM360.257 12.1818C361.939 12.1818 362.507 11.1364 362.803 10.6591H362.962V12H364.257V0.363636H362.916V4.65909H362.803C362.507 4.20455 361.984 3.15909 360.28 3.15909C358.075 3.15909 356.553 4.90909 356.553 7.65909C356.553 10.4318 358.075 12.1818 360.257 12.1818ZM360.439 10.9773C358.757 10.9773 357.893 9.5 357.893 7.63636C357.893 5.79545 358.734 4.36364 360.439 4.36364C362.075 4.36364 362.939 5.68182 362.939 7.63636C362.939 9.61364 362.053 10.9773 360.439 10.9773ZM368.899 10.4091H367.445L367.376 11.0455C367.212 12.5852 366.888 14.1193 366.74 14.8409H367.763C368.036 14.0682 368.615 12.3182 368.808 11.0227L368.899 10.4091ZM377.861 12H379.179L381.088 5.29545H381.224L383.134 12H384.452L387.111 3.27273H385.702L383.815 9.93182H383.724L381.884 3.27273H380.452L378.588 9.95455H378.497L376.611 3.27273H375.202L377.861 12ZM392.246 12.1818C394.018 12.1818 395.314 11.2955 395.723 9.97727L394.428 9.61364C394.087 10.5227 393.297 10.9773 392.246 10.9773C390.672 10.9773 389.587 9.96023 389.524 8.09091H395.859V7.52273C395.859 4.27273 393.928 3.15909 392.109 3.15909C389.746 3.15909 388.178 5.02273 388.178 7.70455C388.178 10.3864 389.723 12.1818 392.246 12.1818ZM389.524 6.93182C389.615 5.57386 390.575 4.36364 392.109 4.36364C393.564 4.36364 394.496 5.45455 394.496 6.93182H389.524ZM3.79545 36.2045C5.31818 36.2045 6.11364 35.3864 6.38636 34.8182H6.45455V36H7.79545V30.25C7.79545 27.4773 5.68182 27.1591 4.56818 27.1591C3.25 27.1591 1.75 27.6136 1.06818 29.2045L2.34091 29.6591C2.63636 29.0227 3.33523 28.3409 4.61364 28.3409C5.84659 28.3409 6.45455 28.9943 6.45455 30.1136V30.1591C6.45455 30.8068 5.79545 30.75 4.20455 30.9545C2.58523 31.1648 0.818182 31.5227 0.818182 33.5227C0.818182 35.2273 2.13636 36.2045 3.79545 36.2045ZM4 35C2.93182 35 2.15909 34.5227 2.15909 33.5909C2.15909 32.5682 3.09091 32.25 4.13636 32.1136C4.70455 32.0455 6.22727 31.8864 6.45455 31.6136V32.8409C6.45455 33.9318 5.59091 35 4 35ZM13.5384 36.1818C15.2202 36.1818 15.7884 35.1364 16.0838 34.6591H16.2429V36H17.5384V24.3636H16.1974V28.6591H16.0838C15.7884 28.2045 15.2656 27.1591 13.5611 27.1591C11.3565 27.1591 9.83381 28.9091 9.83381 31.6591C9.83381 34.4318 11.3565 36.1818 13.5384 36.1818ZM13.7202 34.9773C12.0384 34.9773 11.1747 33.5 11.1747 31.6364C11.1747 29.7955 12.0156 28.3636 13.7202 28.3636C15.3565 28.3636 16.2202 29.6818 16.2202 31.6364C16.2202 33.6136 15.3338 34.9773 13.7202 34.9773ZM22.7486 36.2045C24.2713 36.2045 25.0668 35.3864 25.3395 34.8182H25.4077V36H26.7486V30.25C26.7486 27.4773 24.6349 27.1591 23.5213 27.1591C22.2031 27.1591 20.7031 27.6136 20.0213 29.2045L21.294 29.6591C21.5895 29.0227 22.2884 28.3409 23.5668 28.3409C24.7997 28.3409 25.4077 28.9943 25.4077 30.1136V30.1591C25.4077 30.8068 24.7486 30.75 23.1577 30.9545C21.5384 31.1648 19.7713 31.5227 19.7713 33.5227C19.7713 35.2273 21.0895 36.2045 22.7486 36.2045ZM22.9531 35C21.8849 35 21.1122 34.5227 21.1122 33.5909C21.1122 32.5682 22.044 32.25 23.0895 32.1136C23.6577 32.0455 25.1804 31.8864 25.4077 31.6136V32.8409C25.4077 33.9318 24.544 35 22.9531 35ZM29.196 39.2727H30.5369V34.6591H30.6506C30.946 35.1364 31.5142 36.1818 33.196 36.1818C35.3778 36.1818 36.9006 34.4318 36.9006 31.6591C36.9006 28.9091 35.3778 27.1591 33.1733 27.1591C31.4688 27.1591 30.946 28.2045 30.6506 28.6591H30.4915V27.2727H29.196V39.2727ZM30.5142 31.6364C30.5142 29.6818 31.3778 28.3636 33.0142 28.3636C34.7188 28.3636 35.5597 29.7955 35.5597 31.6364C35.5597 33.5 34.696 34.9773 33.0142 34.9773C31.4006 34.9773 30.5142 33.6136 30.5142 31.6364ZM42.7415 27.2727H40.8778V25.1818H39.5369V27.2727H38.2188V28.4091H39.5369V33.8636C39.5369 35.3864 40.7642 36.1136 41.9006 36.1136C42.4006 36.1136 42.7188 36.0227 42.9006 35.9545L42.6278 34.75C42.5142 34.7727 42.3324 34.8182 42.0369 34.8182C41.446 34.8182 40.8778 34.6364 40.8778 33.5V28.4091H42.7415V27.2727ZM50.7841 29.2273C50.3636 27.9886 49.4205 27.1591 47.6932 27.1591C45.8523 27.1591 44.4886 28.2045 44.4886 29.6818C44.4886 30.8864 45.2045 31.6932 46.8068 32.0682L48.2614 32.4091C49.142 32.6136 49.5568 33.0341 49.5568 33.6364C49.5568 34.3864 48.7614 35 47.5114 35C46.4148 35 45.7273 34.5284 45.4886 33.5909L44.2159 33.9091C44.5284 35.392 45.75 36.1818 47.5341 36.1818C49.5625 36.1818 50.9432 35.0739 50.9432 33.5682C50.9432 32.3523 50.1818 31.5852 48.625 31.2045L47.3295 30.8864C46.2955 30.6307 45.8295 30.2841 45.8295 29.6136C45.8295 28.8636 46.625 28.3182 47.6932 28.3182C48.8636 28.3182 49.3466 28.9659 49.5795 29.5682L50.7841 29.2273ZM61.2571 27.2727H59.3935V25.1818H58.0526V27.2727H56.7344V28.4091H58.0526V33.8636C58.0526 35.3864 59.2798 36.1136 60.4162 36.1136C60.9162 36.1136 61.2344 36.0227 61.4162 35.9545L61.1435 34.75C61.0298 34.7727 60.848 34.8182 60.5526 34.8182C59.9616 34.8182 59.3935 34.6364 59.3935 33.5V28.4091H61.2571V27.2727ZM66.7259 36.1818C69.0895 36.1818 70.6804 34.3864 70.6804 31.6818C70.6804 28.9545 69.0895 27.1591 66.7259 27.1591C64.3622 27.1591 62.7713 28.9545 62.7713 31.6818C62.7713 34.3864 64.3622 36.1818 66.7259 36.1818ZM66.7259 34.9773C64.9304 34.9773 64.1122 33.4318 64.1122 31.6818C64.1122 29.9318 64.9304 28.3636 66.7259 28.3636C68.5213 28.3636 69.3395 29.9318 69.3395 31.6818C69.3395 33.4318 68.5213 34.9773 66.7259 34.9773ZM81.0227 27.2727H79.1591V25.1818H77.8182V27.2727H76.5V28.4091H77.8182V33.8636C77.8182 35.3864 79.0455 36.1136 80.1818 36.1136C80.6818 36.1136 81 36.0227 81.1818 35.9545L80.9091 34.75C80.7955 34.7727 80.6136 34.8182 80.3182 34.8182C79.7273 34.8182 79.1591 34.6364 79.1591 33.5V28.4091H81.0227V27.2727ZM84.5682 30.75C84.5682 29.2273 85.5398 28.3636 86.8636 28.3636C88.125 28.3636 88.8864 29.1591 88.8864 30.5455V36H90.2273V30.4545C90.2273 28.2102 89.0341 27.1591 87.25 27.1591C85.875 27.1591 85.0909 27.733 84.6818 28.6364H84.5682V24.3636H83.2273V36H84.5682V30.75ZM96.3395 36.1818C98.1122 36.1818 99.4077 35.2955 99.8168 33.9773L98.5213 33.6136C98.1804 34.5227 97.3906 34.9773 96.3395 34.9773C94.7656 34.9773 93.6804 33.9602 93.6179 32.0909H99.9531V31.5227C99.9531 28.2727 98.0213 27.1591 96.2031 27.1591C93.8395 27.1591 92.2713 29.0227 92.2713 31.7045C92.2713 34.3864 93.8168 36.1818 96.3395 36.1818ZM93.6179 30.9318C93.7088 29.5739 94.669 28.3636 96.2031 28.3636C97.6577 28.3636 98.5895 29.4545 98.5895 30.9318H93.6179ZM108.47 36H109.788L111.697 29.2955H111.834L113.743 36H115.061L117.72 27.2727H116.311L114.425 33.9318H114.334L112.493 27.2727H111.061L109.197 33.9545H109.107L107.22 27.2727H105.811L108.47 36ZM122.061 36.2045C123.584 36.2045 124.379 35.3864 124.652 34.8182H124.72V36H126.061V30.25C126.061 27.4773 123.947 27.1591 122.834 27.1591C121.516 27.1591 120.016 27.6136 119.334 29.2045L120.607 29.6591C120.902 29.0227 121.601 28.3409 122.879 28.3409C124.112 28.3409 124.72 28.9943 124.72 30.1136V30.1591C124.72 30.8068 124.061 30.75 122.47 30.9545C120.851 31.1648 119.084 31.5227 119.084 33.5227C119.084 35.2273 120.402 36.2045 122.061 36.2045ZM122.266 35C121.197 35 120.425 34.5227 120.425 33.5909C120.425 32.5682 121.357 32.25 122.402 32.1136C122.97 32.0455 124.493 31.8864 124.72 31.6136V32.8409C124.72 33.9318 123.857 35 122.266 35ZM129.06 39.2727C130.27 39.2727 131.122 38.6307 131.628 37.2727L135.344 27.2955L133.878 27.2727L131.469 34.2273H131.378L128.969 27.2727H127.514L130.741 36.0455L130.491 36.7273C130.003 38.0568 129.401 38.1818 128.423 37.9318L128.082 39.1136C128.219 39.1818 128.605 39.2727 129.06 39.2727ZM142.482 39.2727C143.692 39.2727 144.544 38.6307 145.05 37.2727L148.766 27.2955L147.3 27.2727L144.891 34.2273H144.8L142.391 27.2727H140.936L144.163 36.0455L143.913 36.7273C143.425 38.0568 142.822 38.1818 141.845 37.9318L141.504 39.1136C141.641 39.1818 142.027 39.2727 142.482 39.2727ZM153.773 36.1818C156.136 36.1818 157.727 34.3864 157.727 31.6818C157.727 28.9545 156.136 27.1591 153.773 27.1591C151.409 27.1591 149.818 28.9545 149.818 31.6818C149.818 34.3864 151.409 36.1818 153.773 36.1818ZM153.773 34.9773C151.977 34.9773 151.159 33.4318 151.159 31.6818C151.159 29.9318 151.977 28.3636 153.773 28.3636C155.568 28.3636 156.386 29.9318 156.386 31.6818C156.386 33.4318 155.568 34.9773 153.773 34.9773ZM165.274 32.4318C165.274 34.0682 164.024 34.8182 163.024 34.8182C161.911 34.8182 161.115 34 161.115 32.7273V27.2727H159.774V32.8182C159.774 35.0455 160.956 36.1136 162.592 36.1136C163.911 36.1136 164.774 35.4091 165.183 34.5227H165.274V36H166.615V27.2727H165.274V32.4318ZM169.071 36H170.412V30.4773C170.412 29.2955 171.344 28.4318 172.616 28.4318C172.974 28.4318 173.344 28.5 173.435 28.5227V27.1591C173.281 27.1477 172.929 27.1364 172.73 27.1364C171.685 27.1364 170.776 27.7273 170.457 28.5909H170.366V27.2727H169.071V36ZM183.32 27.2727H181.456V25.1818H180.115V27.2727H178.797V28.4091H180.115V33.8636C180.115 35.3864 181.342 36.1136 182.479 36.1136C182.979 36.1136 183.297 36.0227 183.479 35.9545L183.206 34.75C183.092 34.7727 182.911 34.8182 182.615 34.8182C182.024 34.8182 181.456 34.6364 181.456 33.5V28.4091H183.32V27.2727ZM188.902 36.1818C190.675 36.1818 191.97 35.2955 192.379 33.9773L191.084 33.6136C190.743 34.5227 189.953 34.9773 188.902 34.9773C187.328 34.9773 186.243 33.9602 186.18 32.0909H192.516V31.5227C192.516 28.2727 190.584 27.1591 188.766 27.1591C186.402 27.1591 184.834 29.0227 184.834 31.7045C184.834 34.3864 186.379 36.1818 188.902 36.1818ZM186.18 30.9318C186.271 29.5739 187.232 28.3636 188.766 28.3636C190.22 28.3636 191.152 29.4545 191.152 30.9318H186.18ZM197.124 36.2045C198.646 36.2045 199.442 35.3864 199.714 34.8182H199.783V36H201.124V30.25C201.124 27.4773 199.01 27.1591 197.896 27.1591C196.578 27.1591 195.078 27.6136 194.396 29.2045L195.669 29.6591C195.964 29.0227 196.663 28.3409 197.942 28.3409C199.175 28.3409 199.783 28.9943 199.783 30.1136V30.1591C199.783 30.8068 199.124 30.75 197.533 30.9545C195.913 31.1648 194.146 31.5227 194.146 33.5227C194.146 35.2273 195.464 36.2045 197.124 36.2045ZM197.328 35C196.26 35 195.487 34.5227 195.487 33.5909C195.487 32.5682 196.419 32.25 197.464 32.1136C198.033 32.0455 199.555 31.8864 199.783 31.6136V32.8409C199.783 33.9318 198.919 35 197.328 35ZM203.571 36H204.912V30.5455C204.912 29.267 205.844 28.3636 206.889 28.3636C207.906 28.3636 208.616 29.0284 208.616 30.0227V36H209.98V30.3182C209.98 29.1932 210.685 28.3636 211.912 28.3636C212.866 28.3636 213.685 28.8693 213.685 30.1591V36H215.026V30.1591C215.026 28.108 213.923 27.1591 212.366 27.1591C211.116 27.1591 210.202 27.733 209.753 28.6364H209.662C209.23 27.7045 208.469 27.1591 207.321 27.1591C206.185 27.1591 205.344 27.7045 204.98 28.6364H204.866V27.2727H203.571V36ZM223.955 36H225.273L227.182 29.2955H227.318L229.227 36H230.545L233.205 27.2727H231.795L229.909 33.9318H229.818L227.977 27.2727H226.545L224.682 33.9545H224.591L222.705 27.2727H221.295L223.955 36ZM238.226 36.1818C240.589 36.1818 242.18 34.3864 242.18 31.6818C242.18 28.9545 240.589 27.1591 238.226 27.1591C235.862 27.1591 234.271 28.9545 234.271 31.6818C234.271 34.3864 235.862 36.1818 238.226 36.1818ZM238.226 34.9773C236.43 34.9773 235.612 33.4318 235.612 31.6818C235.612 29.9318 236.43 28.3636 238.226 28.3636C240.021 28.3636 240.839 29.9318 240.839 31.6818C240.839 33.4318 240.021 34.9773 238.226 34.9773ZM244.227 36H245.568V30.4773C245.568 29.2955 246.5 28.4318 247.773 28.4318C248.131 28.4318 248.5 28.5 248.591 28.5227V27.1591C248.438 27.1477 248.085 27.1364 247.886 27.1364C246.841 27.1364 245.932 27.7273 245.614 28.5909H245.523V27.2727H244.227V36ZM250.18 36H251.521V32.733L252.459 31.8636L255.726 36H257.43L253.47 31L257.158 27.2727H255.499L251.68 31.1591H251.521V24.3636H250.18V36ZM265.065 29.2273C264.645 27.9886 263.702 27.1591 261.974 27.1591C260.134 27.1591 258.77 28.2045 258.77 29.6818C258.77 30.8864 259.486 31.6932 261.088 32.0682L262.543 32.4091C263.423 32.6136 263.838 33.0341 263.838 33.6364C263.838 34.3864 263.043 35 261.793 35C260.696 35 260.009 34.5284 259.77 33.5909L258.497 33.9091C258.81 35.392 260.031 36.1818 261.815 36.1818C263.844 36.1818 265.224 35.0739 265.224 33.5682C265.224 32.3523 264.463 31.5852 262.906 31.2045L261.611 30.8864C260.577 30.6307 260.111 30.2841 260.111 29.6136C260.111 28.8636 260.906 28.3182 261.974 28.3182C263.145 28.3182 263.628 28.9659 263.861 29.5682L265.065 29.2273ZM278.516 30.3864H270.516V31.6364H278.516V30.3864ZM285.584 30.75C285.584 29.2273 286.527 28.3636 287.811 28.3636C289.055 28.3636 289.811 29.1761 289.811 30.5455V36H291.152V30.4545C291.152 28.2273 289.964 27.1591 288.197 27.1591C286.879 27.1591 286.061 27.75 285.652 28.6364H285.538V27.2727H284.243V36H285.584V30.75ZM297.148 36.1818C299.511 36.1818 301.102 34.3864 301.102 31.6818C301.102 28.9545 299.511 27.1591 297.148 27.1591C294.784 27.1591 293.193 28.9545 293.193 31.6818C293.193 34.3864 294.784 36.1818 297.148 36.1818ZM297.148 34.9773C295.352 34.9773 294.534 33.4318 294.534 31.6818C294.534 29.9318 295.352 28.3636 297.148 28.3636C298.943 28.3636 299.761 29.9318 299.761 31.6818C299.761 33.4318 298.943 34.9773 297.148 34.9773ZM306.945 27.2727H305.081V25.1818H303.74V27.2727H302.422V28.4091H303.74V33.8636C303.74 35.3864 304.967 36.1136 306.104 36.1136C306.604 36.1136 306.922 36.0227 307.104 35.9545L306.831 34.75C306.717 34.7727 306.536 34.8182 306.24 34.8182C305.649 34.8182 305.081 34.6364 305.081 33.5V28.4091H306.945V27.2727ZM317.257 27.2727H315.393V25.1818H314.053V27.2727H312.734V28.4091H314.053V33.8636C314.053 35.3864 315.28 36.1136 316.416 36.1136C316.916 36.1136 317.234 36.0227 317.416 35.9545L317.143 34.75C317.03 34.7727 316.848 34.8182 316.553 34.8182C315.962 34.8182 315.393 34.6364 315.393 33.5V28.4091H317.257V27.2727ZM320.803 30.75C320.803 29.2273 321.774 28.3636 323.098 28.3636C324.359 28.3636 325.121 29.1591 325.121 30.5455V36H326.462V30.4545C326.462 28.2102 325.268 27.1591 323.484 27.1591C322.109 27.1591 321.325 27.733 320.916 28.6364H320.803V24.3636H319.462V36H320.803V30.75ZM332.574 36.1818C334.347 36.1818 335.642 35.2955 336.051 33.9773L334.756 33.6136C334.415 34.5227 333.625 34.9773 332.574 34.9773C331 34.9773 329.915 33.9602 329.852 32.0909H336.188V31.5227C336.188 28.2727 334.256 27.1591 332.438 27.1591C330.074 27.1591 328.506 29.0227 328.506 31.7045C328.506 34.3864 330.051 36.1818 332.574 36.1818ZM329.852 30.9318C329.943 29.5739 330.903 28.3636 332.438 28.3636C333.892 28.3636 334.824 29.4545 334.824 30.9318H329.852ZM346.273 36.1818C348.636 36.1818 350.227 34.3864 350.227 31.6818C350.227 28.9545 348.636 27.1591 346.273 27.1591C343.909 27.1591 342.318 28.9545 342.318 31.6818C342.318 34.3864 343.909 36.1818 346.273 36.1818ZM346.273 34.9773C344.477 34.9773 343.659 33.4318 343.659 31.6818C343.659 29.9318 344.477 28.3636 346.273 28.3636C348.068 28.3636 348.886 29.9318 348.886 31.6818C348.886 33.4318 348.068 34.9773 346.273 34.9773ZM356.07 27.2727H354.206V25.1818H352.865V27.2727H351.547V28.4091H352.865V33.8636C352.865 35.3864 354.092 36.1136 355.229 36.1136C355.729 36.1136 356.047 36.0227 356.229 35.9545L355.956 34.75C355.842 34.7727 355.661 34.8182 355.365 34.8182C354.774 34.8182 354.206 34.6364 354.206 33.5V28.4091H356.07V27.2727ZM359.615 30.75C359.615 29.2273 360.587 28.3636 361.911 28.3636C363.172 28.3636 363.933 29.1591 363.933 30.5455V36H365.274V30.4545C365.274 28.2102 364.081 27.1591 362.297 27.1591C360.922 27.1591 360.138 27.733 359.729 28.6364H359.615V24.3636H358.274V36H359.615V30.75ZM371.386 36.1818C373.159 36.1818 374.455 35.2955 374.864 33.9773L373.568 33.6136C373.227 34.5227 372.438 34.9773 371.386 34.9773C369.812 34.9773 368.727 33.9602 368.665 32.0909H375V31.5227C375 28.2727 373.068 27.1591 371.25 27.1591C368.886 27.1591 367.318 29.0227 367.318 31.7045C367.318 34.3864 368.864 36.1818 371.386 36.1818ZM368.665 30.9318C368.756 29.5739 369.716 28.3636 371.25 28.3636C372.705 28.3636 373.636 29.4545 373.636 30.9318H368.665ZM377.04 36H378.381V30.4773C378.381 29.2955 379.312 28.4318 380.585 28.4318C380.943 28.4318 381.312 28.5 381.403 28.5227V27.1591C381.25 27.1477 380.898 27.1364 380.699 27.1364C379.653 27.1364 378.744 27.7273 378.426 28.5909H378.335V27.2727H377.04V36ZM3.20455 60H4.52273L6.43182 53.2955H6.56818L8.47727 60H9.79545L12.4545 51.2727H11.0455L9.15909 57.9318H9.06818L7.22727 51.2727H5.79545L3.93182 57.9545H3.84091L1.95455 51.2727H0.545455L3.20455 60ZM16.7955 60.2045C18.3182 60.2045 19.1136 59.3864 19.3864 58.8182H19.4545V60H20.7955V54.25C20.7955 51.4773 18.6818 51.1591 17.5682 51.1591C16.25 51.1591 14.75 51.6136 14.0682 53.2045L15.3409 53.6591C15.6364 53.0227 16.3352 52.3409 17.6136 52.3409C18.8466 52.3409 19.4545 52.9943 19.4545 54.1136V54.1591C19.4545 54.8068 18.7955 54.75 17.2045 54.9545C15.5852 55.1648 13.8182 55.5227 13.8182 57.5227C13.8182 59.2273 15.1364 60.2045 16.7955 60.2045ZM17 59C15.9318 59 15.1591 58.5227 15.1591 57.5909C15.1591 56.5682 16.0909 56.25 17.1364 56.1136C17.7045 56.0455 19.2273 55.8864 19.4545 55.6136V56.8409C19.4545 57.9318 18.5909 59 17 59ZM23.794 63.2727C25.0043 63.2727 25.8565 62.6307 26.3622 61.2727L30.0781 51.2955L28.6122 51.2727L26.2031 58.2273H26.1122L23.7031 51.2727H22.2486L25.4759 60.0455L25.2259 60.7273C24.7372 62.0568 24.1349 62.1818 23.1577 61.9318L22.8168 63.1136C22.9531 63.1818 23.3395 63.2727 23.794 63.2727ZM38.9205 60.2045C40.4432 60.2045 41.2386 59.3864 41.5114 58.8182H41.5795V60H42.9205V54.25C42.9205 51.4773 40.8068 51.1591 39.6932 51.1591C38.375 51.1591 36.875 51.6136 36.1932 53.2045L37.4659 53.6591C37.7614 53.0227 38.4602 52.3409 39.7386 52.3409C40.9716 52.3409 41.5795 52.9943 41.5795 54.1136V54.1591C41.5795 54.8068 40.9205 54.75 39.3295 54.9545C37.7102 55.1648 35.9432 55.5227 35.9432 57.5227C35.9432 59.2273 37.2614 60.2045 38.9205 60.2045ZM39.125 59C38.0568 59 37.2841 58.5227 37.2841 57.5909C37.2841 56.5682 38.2159 56.25 39.2614 56.1136C39.8295 56.0455 41.3523 55.8864 41.5795 55.6136V56.8409C41.5795 57.9318 40.7159 59 39.125 59ZM45.3679 60H46.7088V54.4773C46.7088 53.2955 47.6406 52.4318 48.9134 52.4318C49.2713 52.4318 49.6406 52.5 49.7315 52.5227V51.1591C49.5781 51.1477 49.2259 51.1364 49.027 51.1364C47.9815 51.1364 47.0724 51.7273 46.7543 52.5909H46.6634V51.2727H45.3679V60ZM54.6009 60.1818C56.9645 60.1818 58.5554 58.3864 58.5554 55.6818C58.5554 52.9545 56.9645 51.1591 54.6009 51.1591C52.2372 51.1591 50.6463 52.9545 50.6463 55.6818C50.6463 58.3864 52.2372 60.1818 54.6009 60.1818ZM54.6009 58.9773C52.8054 58.9773 51.9872 57.4318 51.9872 55.6818C51.9872 53.9318 52.8054 52.3636 54.6009 52.3636C56.3963 52.3636 57.2145 53.9318 57.2145 55.6818C57.2145 57.4318 56.3963 58.9773 54.6009 58.9773ZM66.1023 56.4318C66.1023 58.0682 64.8523 58.8182 63.8523 58.8182C62.7386 58.8182 61.9432 58 61.9432 56.7273V51.2727H60.6023V56.8182C60.6023 59.0455 61.7841 60.1136 63.4205 60.1136C64.7386 60.1136 65.6023 59.4091 66.0114 58.5227H66.1023V60H67.4432V51.2727H66.1023V56.4318ZM71.2401 54.75C71.2401 53.2273 72.1832 52.3636 73.4673 52.3636C74.7116 52.3636 75.4673 53.1761 75.4673 54.5455V60H76.8082V54.4545C76.8082 52.2273 75.6207 51.1591 73.8537 51.1591C72.5355 51.1591 71.7173 51.75 71.3082 52.6364H71.1946V51.2727H69.8991V60H71.2401V54.75ZM82.554 60.1818C84.2358 60.1818 84.804 59.1364 85.0994 58.6591H85.2585V60H86.554V48.3636H85.2131V52.6591H85.0994C84.804 52.2045 84.2812 51.1591 82.5767 51.1591C80.3722 51.1591 78.8494 52.9091 78.8494 55.6591C78.8494 58.4318 80.3722 60.1818 82.554 60.1818ZM82.7358 58.9773C81.054 58.9773 80.1903 57.5 80.1903 55.6364C80.1903 53.7955 81.0312 52.3636 82.7358 52.3636C84.3722 52.3636 85.2358 53.6818 85.2358 55.6364C85.2358 57.6136 84.3494 58.9773 82.7358 58.9773ZM90.1733 60.0909C90.7358 60.0909 91.196 59.6307 91.196 59.0682C91.196 58.5057 90.7358 58.0455 90.1733 58.0455C89.6108 58.0455 89.1506 58.5057 89.1506 59.0682C89.1506 59.6307 89.6108 60.0909 90.1733 60.0909Z" fill="#4E5A65"/>
</svg>
