<svg width="152" height="18" viewBox="0 0 152 18" fill="none" xmlns="http://www.w3.org/2000/svg">
<path d="M8.40554 4.50781H10.6875C10.6428 2.29616 8.7571 0.730113 5.97017 0.730113C3.22159 0.730113 1.15696 2.27699 1.16335 4.59091C1.16335 6.47017 2.49929 7.55043 4.65341 8.10653L6.14276 8.49006C7.5554 8.84801 8.48864 9.28906 8.49503 10.3054C8.48864 11.424 7.42756 12.1719 5.88068 12.1719C4.39773 12.1719 3.24716 11.5071 3.15128 10.1328H0.818182C0.914062 12.7344 2.85085 14.1982 5.89986 14.1982C9.03835 14.1982 10.8601 12.6321 10.8665 10.3246C10.8601 8.0554 8.98722 7.01989 7.01847 6.55327L5.79119 6.24645C4.71733 5.99077 3.55398 5.53693 3.56676 4.44389C3.57315 3.45952 4.45526 2.73722 5.93821 2.73722C7.35085 2.73722 8.28409 3.3956 8.40554 4.50781ZM19.1362 9.87074C19.1362 11.3665 18.0687 12.108 17.046 12.108C15.9338 12.108 15.1923 11.3217 15.1923 10.0753V4.18182H12.8784V10.4332C12.8784 12.7919 14.2207 14.1278 16.1511 14.1278C17.6213 14.1278 18.6568 13.3544 19.1042 12.255H19.2065V14H21.4501V4.18182H19.1362V9.87074ZM23.8295 14H26.1435V8.22798C26.1435 6.98153 27.0831 6.09943 28.3551 6.09943C28.745 6.09943 29.2308 6.16974 29.429 6.23366V4.10511C29.218 4.06676 28.8537 4.04119 28.598 4.04119C27.473 4.04119 26.5334 4.6804 26.1754 5.81818H26.0732V4.18182H23.8295V14ZM40.035 4.18182H37.574L35.3113 11.4751H35.209L32.9526 4.18182H30.4853L33.9817 14H36.5385L40.035 4.18182ZM45.6488 14.1918C47.9371 14.1918 49.5096 13.0732 49.9187 11.3665L47.7582 11.1236C47.445 11.9545 46.6779 12.3892 45.6808 12.3892C44.185 12.3892 43.1942 11.4048 43.1751 9.72372H50.0146V9.0142C50.0146 5.56889 47.9435 4.05398 45.5273 4.05398C42.7148 4.05398 40.8803 6.11861 40.8803 9.14844C40.8803 12.2294 42.6893 14.1918 45.6488 14.1918ZM43.1815 8.16406C43.2518 6.91122 44.1786 5.85653 45.5593 5.85653C46.8888 5.85653 47.7837 6.82812 47.7965 8.16406H43.1815ZM53.1291 17.6818C54.9316 17.6818 55.9735 16.755 56.5297 15.1889L60.4735 4.1946L57.9998 4.18182L55.7306 11.5966H55.6284L53.3656 4.18182H50.911L54.4714 14.2045L54.2733 14.7351C53.845 15.8537 53.1674 15.9304 52.1575 15.6364L51.6206 17.4389C51.9338 17.5668 52.4963 17.6818 53.1291 17.6818ZM67.9826 17.6818C69.7852 17.6818 70.8271 16.755 71.3832 15.1889L75.3271 4.1946L72.8533 4.18182L70.5842 11.5966H70.4819L68.2191 4.18182H65.7646L69.3249 14.2045L69.1268 14.7351C68.6985 15.8537 68.021 15.9304 67.011 15.6364L66.4741 17.4389C66.7873 17.5668 67.3498 17.6818 67.9826 17.6818ZM80.8817 14.1918C83.7582 14.1918 85.5863 12.1655 85.5863 9.12926C85.5863 6.08665 83.7582 4.05398 80.8817 4.05398C78.0053 4.05398 76.1772 6.08665 76.1772 9.12926C76.1772 12.1655 78.0053 14.1918 80.8817 14.1918ZM80.8945 12.3381C79.3029 12.3381 78.5231 10.919 78.5231 9.12287C78.5231 7.3267 79.3029 5.88849 80.8945 5.88849C82.4606 5.88849 83.2404 7.3267 83.2404 9.12287C83.2404 10.919 82.4606 12.3381 80.8945 12.3381ZM93.8081 9.87074C93.8081 11.3665 92.7406 12.108 91.7179 12.108C90.6056 12.108 89.8642 11.3217 89.8642 10.0753V4.18182H87.5502V10.4332C87.5502 12.7919 88.8926 14.1278 90.823 14.1278C92.2931 14.1278 93.3287 13.3544 93.7761 12.255H93.8784V14H96.122V4.18182H93.8081V9.87074ZM98.5014 14H100.815V8.22798C100.815 6.98153 101.755 6.09943 103.027 6.09943C103.417 6.09943 103.903 6.16974 104.101 6.23366V4.10511C103.89 4.06676 103.526 4.04119 103.27 4.04119C102.145 4.04119 101.205 4.6804 100.847 5.81818H100.745V4.18182H98.5014V14ZM115.006 4.18182H113.069V1.82955H110.755V4.18182H109.362V5.97159H110.755V11.4304C110.742 13.2777 112.085 14.1854 113.823 14.1342C114.482 14.1151 114.935 13.9872 115.185 13.9041L114.795 12.0952C114.667 12.1271 114.405 12.1847 114.117 12.1847C113.536 12.1847 113.069 11.9801 113.069 11.0469V5.97159H115.006V4.18182ZM121.182 14.1918C123.47 14.1918 125.043 13.0732 125.452 11.3665L123.291 11.1236C122.978 11.9545 122.211 12.3892 121.214 12.3892C119.718 12.3892 118.727 11.4048 118.708 9.72372H125.548V9.0142C125.548 5.56889 123.477 4.05398 121.061 4.05398C118.248 4.05398 116.414 6.11861 116.414 9.14844C116.414 12.2294 118.222 14.1918 121.182 14.1918ZM118.715 8.16406C118.785 6.91122 119.712 5.85653 121.093 5.85653C122.422 5.85653 123.317 6.82812 123.33 8.16406H118.715ZM130.331 14.1982C131.871 14.1982 132.792 13.4759 133.213 12.6513H133.29V14H135.515V7.42898C135.515 4.83381 133.399 4.05398 131.526 4.05398C129.461 4.05398 127.876 4.97443 127.365 6.7642L129.525 7.07102C129.755 6.39986 130.407 5.82457 131.539 5.82457C132.613 5.82457 133.201 6.37429 133.201 7.33949V7.37784C133.201 8.04261 132.504 8.07457 130.772 8.25994C128.867 8.46449 127.045 9.03338 127.045 11.245C127.045 13.1754 128.458 14.1982 130.331 14.1982ZM130.931 12.4979C129.966 12.4979 129.276 12.0568 129.276 11.2067C129.276 10.3182 130.049 9.94744 131.085 9.80043C131.692 9.71733 132.907 9.56392 133.207 9.32102V10.478C133.207 11.571 132.325 12.4979 130.931 12.4979ZM137.841 14H140.155V8.02983C140.155 6.82173 140.961 6.00355 141.958 6.00355C142.936 6.00355 143.607 6.66193 143.607 7.67188V14H145.876V7.87642C145.876 6.7706 146.534 6.00355 147.653 6.00355C148.586 6.00355 149.328 6.55327 149.328 7.76776V14H151.648V7.4098C151.648 5.21733 150.382 4.05398 148.58 4.05398C147.154 4.05398 146.068 4.7571 145.633 5.85014H145.531C145.154 4.73793 144.201 4.05398 142.878 4.05398C141.561 4.05398 140.577 4.73153 140.168 5.85014H140.053V4.18182H137.841V14Z" fill="#35414B"/>
</svg>
