<svg width="212" height="18" viewBox="0 0 212 18" fill="none" xmlns="http://www.w3.org/2000/svg">
<path d="M0.715909 2.89702H4.76207V14H7.11435V2.89702H11.1605V0.909091H0.715909V2.89702ZM15.9945 14.1918C18.2828 14.1918 19.8553 13.0732 20.2644 11.3665L18.1039 11.1236C17.7907 11.9545 17.0236 12.3892 16.0265 12.3892C14.5307 12.3892 13.54 11.4048 13.5208 9.72372H20.3603V9.0142C20.3603 5.56889 18.2892 4.05398 15.873 4.05398C13.0605 4.05398 11.226 6.11861 11.226 9.14844C11.226 12.2294 13.035 14.1918 15.9945 14.1918ZM13.5272 8.16406C13.5975 6.91122 14.5243 5.85653 15.905 5.85653C17.2346 5.85653 18.1294 6.82812 18.1422 8.16406H13.5272ZM25.1431 14.1982C26.6836 14.1982 27.604 13.4759 28.0259 12.6513H28.1026V14H30.3271V7.42898C30.3271 4.83381 28.2113 4.05398 26.3384 4.05398C24.2738 4.05398 22.6886 4.97443 22.1772 6.7642L24.3377 7.07102C24.5678 6.39986 25.2198 5.82457 26.3512 5.82457C27.4251 5.82457 28.0131 6.37429 28.0131 7.33949V7.37784C28.0131 8.04261 27.3164 8.07457 25.5842 8.25994C23.6793 8.46449 21.8576 9.03338 21.8576 11.245C21.8576 13.1754 23.2702 14.1982 25.1431 14.1982ZM25.744 12.4979C24.7788 12.4979 24.0884 12.0568 24.0884 11.2067C24.0884 10.3182 24.8619 9.94744 25.8974 9.80043C26.5046 9.71733 27.7191 9.56392 28.0195 9.32102V10.478C28.0195 11.571 27.1374 12.4979 25.744 12.4979ZM32.6538 14H34.9677V8.02983C34.9677 6.82173 35.7731 6.00355 36.7702 6.00355C37.7482 6.00355 38.4194 6.66193 38.4194 7.67188V14H40.6886V7.87642C40.6886 6.7706 41.3469 6.00355 42.4656 6.00355C43.3988 6.00355 44.1403 6.55327 44.1403 7.76776V14H46.4606V7.4098C46.4606 5.21733 45.195 4.05398 43.3924 4.05398C41.967 4.05398 40.8803 4.7571 40.4457 5.85014H40.3434C39.9663 4.73793 39.0138 4.05398 37.6907 4.05398C36.3739 4.05398 35.3896 4.73153 34.9805 5.85014H34.8654V4.18182H32.6538V14ZM60.4895 4.50781H62.7715C62.7267 2.29616 60.8411 0.730113 58.0542 0.730113C55.3056 0.730113 53.2409 2.27699 53.2473 4.59091C53.2473 6.47017 54.5833 7.55043 56.7374 8.10653L58.2267 8.49006C59.6394 8.84801 60.5726 9.28906 60.579 10.3054C60.5726 11.424 59.5115 12.1719 57.9647 12.1719C56.4817 12.1719 55.3311 11.5071 55.2353 10.1328H52.9022C52.998 12.7344 54.9348 14.1982 57.9838 14.1982C61.1223 14.1982 62.9441 12.6321 62.9505 10.3246C62.9441 8.0554 61.0712 7.01989 59.1025 6.55327L57.8752 6.24645C56.8013 5.99077 55.638 5.53693 55.6507 4.44389C55.6571 3.45952 56.5392 2.73722 58.0222 2.73722C59.4348 2.73722 60.3681 3.3956 60.4895 4.50781ZM71.2202 9.87074C71.2202 11.3665 70.1527 12.108 69.13 12.108C68.0178 12.108 67.2763 11.3217 67.2763 10.0753V4.18182H64.9624V10.4332C64.9624 12.7919 66.3047 14.1278 68.2351 14.1278C69.7053 14.1278 70.7408 13.3544 71.1882 12.255H71.2905V14H73.5341V4.18182H71.2202V9.87074ZM75.9135 14H78.2275V8.22798C78.2275 6.98153 79.1671 6.09943 80.4391 6.09943C80.829 6.09943 81.3148 6.16974 81.513 6.23366V4.10511C81.302 4.06676 80.9377 4.04119 80.682 4.04119C79.557 4.04119 78.6174 4.6804 78.2594 5.81818H78.1571V4.18182H75.9135V14ZM92.119 4.18182H89.658L87.3952 11.4751H87.293L85.0366 4.18182H82.5692L86.0657 14H88.6225L92.119 4.18182ZM97.7328 14.1918C100.021 14.1918 101.594 13.0732 102.003 11.3665L99.8422 11.1236C99.5289 11.9545 98.7619 12.3892 97.7647 12.3892C96.269 12.3892 95.2782 11.4048 95.2591 9.72372H102.099V9.0142C102.099 5.56889 100.028 4.05398 97.6113 4.05398C94.7988 4.05398 92.9643 6.11861 92.9643 9.14844C92.9643 12.2294 94.7733 14.1918 97.7328 14.1918ZM95.2654 8.16406C95.3358 6.91122 96.2626 5.85653 97.6433 5.85653C98.9728 5.85653 99.8677 6.82812 99.8805 8.16406H95.2654ZM105.213 17.6818C107.016 17.6818 108.058 16.755 108.614 15.1889L112.558 4.1946L110.084 4.18182L107.815 11.5966H107.712L105.45 4.18182H102.995L106.555 14.2045L106.357 14.7351C105.929 15.8537 105.251 15.9304 104.241 15.6364L103.705 17.4389C104.018 17.5668 104.58 17.6818 105.213 17.6818ZM121.923 6.77699C121.604 5.11506 120.274 4.05398 117.973 4.05398C115.608 4.05398 113.997 5.21733 114.004 7.03267C113.997 8.46449 114.879 9.41051 116.765 9.80043L118.44 10.152C119.341 10.3501 119.763 10.7145 119.763 11.2706C119.763 11.9418 119.034 12.4467 117.935 12.4467C116.874 12.4467 116.183 11.9865 115.985 11.1044L113.729 11.3217C114.017 13.1243 115.531 14.1918 117.941 14.1918C120.396 14.1918 122.128 12.9197 122.134 11.0597C122.128 9.6598 121.227 8.80327 119.373 8.40057L117.698 8.04261C116.701 7.81889 116.305 7.47372 116.311 6.90483C116.305 6.24006 117.04 5.77983 118.005 5.77983C119.073 5.77983 119.635 6.36151 119.814 7.0071L121.923 6.77699ZM132.419 14.1918C133.576 14.1918 134.861 13.8338 135.775 13.0412L136.612 14H139.118L137.2 11.7564C137.84 10.8999 138.338 9.62784 138.338 7.83168H136.35C136.35 8.6946 136.146 9.46804 135.801 10.1136L133.41 7.31392L134.235 6.70668C135.328 5.91406 135.973 4.96165 135.973 3.72159C135.973 2.12358 134.714 0.74929 132.649 0.74929C130.578 0.74929 129.217 2.12358 129.217 3.98366C129.217 5.15341 129.805 6.10582 130.559 7.03906C129.102 8.04261 128.105 8.98224 128.105 10.5227C128.105 12.6065 129.741 14.1918 132.419 14.1918ZM134.516 11.5966C133.896 12.044 133.186 12.2869 132.49 12.2869C131.205 12.2869 130.374 11.456 130.374 10.4205C130.374 9.96662 130.719 9.28267 131.588 8.64347L131.799 8.49006L134.516 11.5966ZM132.227 5.90128C131.678 5.22372 131.281 4.61648 131.281 4.01562C131.281 3.30611 131.844 2.64773 132.681 2.64773C133.506 2.64773 134.011 3.26136 134.011 3.82386C134.011 4.48864 133.653 4.95526 132.969 5.39631L132.227 5.90128ZM145.01 14H147.381V9.20597H149.798L152.367 14H155.013L152.182 8.80966C153.722 8.18963 154.534 6.87287 154.534 5.09588C154.534 2.59659 152.923 0.909091 149.919 0.909091H145.01V14ZM147.381 7.23722V2.89062H149.555C151.325 2.89062 152.118 3.70241 152.118 5.09588C152.118 6.48935 151.325 7.23722 149.567 7.23722H147.381ZM160.821 14.1918C163.109 14.1918 164.681 13.0732 165.091 11.3665L162.93 11.1236C162.617 11.9545 161.85 12.3892 160.853 12.3892C159.357 12.3892 158.366 11.4048 158.347 9.72372H165.186V9.0142C165.186 5.56889 163.115 4.05398 160.699 4.05398C157.887 4.05398 156.052 6.11861 156.052 9.14844C156.052 12.2294 157.861 14.1918 160.821 14.1918ZM158.353 8.16406C158.424 6.91122 159.35 5.85653 160.731 5.85653C162.061 5.85653 162.956 6.82812 162.968 8.16406H158.353ZM167.144 17.6818H169.458V12.4531H169.554C169.918 13.169 170.679 14.1726 172.366 14.1726C174.68 14.1726 176.412 12.3381 176.412 9.10369C176.412 5.83097 174.629 4.05398 172.36 4.05398C170.628 4.05398 169.905 5.09588 169.554 5.8054H169.42V4.18182H167.144V17.6818ZM169.413 9.09091C169.413 7.18608 170.231 5.95241 171.721 5.95241C173.261 5.95241 174.054 7.26278 174.054 9.09091C174.054 10.9318 173.248 12.2741 171.721 12.2741C170.244 12.2741 169.413 10.9957 169.413 9.09091ZM182.677 14.1918C185.553 14.1918 187.381 12.1655 187.381 9.12926C187.381 6.08665 185.553 4.05398 182.677 4.05398C179.8 4.05398 177.972 6.08665 177.972 9.12926C177.972 12.1655 179.8 14.1918 182.677 14.1918ZM182.689 12.3381C181.098 12.3381 180.318 10.919 180.318 9.12287C180.318 7.3267 181.098 5.88849 182.689 5.88849C184.256 5.88849 185.035 7.3267 185.035 9.12287C185.035 10.919 184.256 12.3381 182.689 12.3381ZM189.345 14H191.659V8.22798C191.659 6.98153 192.599 6.09943 193.871 6.09943C194.261 6.09943 194.746 6.16974 194.945 6.23366V4.10511C194.734 4.06676 194.369 4.04119 194.114 4.04119C192.989 4.04119 192.049 4.6804 191.691 5.81818H191.589V4.18182H189.345V14ZM201.912 4.18182H199.975V1.82955H197.661V4.18182H196.268V5.97159H197.661V11.4304C197.648 13.2777 198.991 14.1854 200.729 14.1342C201.388 14.1151 201.842 13.9872 202.091 13.9041L201.701 12.0952C201.573 12.1271 201.311 12.1847 201.023 12.1847C200.442 12.1847 199.975 11.9801 199.975 11.0469V5.97159H201.912V4.18182ZM211.466 6.77699C211.147 5.11506 209.817 4.05398 207.516 4.05398C205.151 4.05398 203.54 5.21733 203.547 7.03267C203.54 8.46449 204.422 9.41051 206.308 9.80043L207.983 10.152C208.884 10.3501 209.306 10.7145 209.306 11.2706C209.306 11.9418 208.577 12.4467 207.478 12.4467C206.417 12.4467 205.726 11.9865 205.528 11.1044L203.272 11.3217C203.559 13.1243 205.074 14.1918 207.484 14.1918C209.939 14.1918 211.671 12.9197 211.677 11.0597C211.671 9.6598 210.77 8.80327 208.916 8.40057L207.241 8.04261C206.244 7.81889 205.848 7.47372 205.854 6.90483C205.848 6.24006 206.583 5.77983 207.548 5.77983C208.616 5.77983 209.178 6.36151 209.357 7.0071L211.466 6.77699Z" fill="#35414B"/>
</svg>
