<svg width="174" height="18" viewBox="0 0 174 18" fill="none" xmlns="http://www.w3.org/2000/svg">
<path d="M0.715909 2.89702H4.76207V14H7.11435V2.89702H11.1605V0.909091H0.715909V2.89702ZM12.0522 14H14.3661V8.22798C14.3661 6.98153 15.3058 6.09943 16.5778 6.09943C16.9677 6.09943 17.4535 6.16974 17.6516 6.23366V4.10511C17.4407 4.06676 17.0763 4.04119 16.8207 4.04119C15.6957 4.04119 14.756 4.6804 14.3981 5.81818H14.2958V4.18182H12.0522V14ZM21.8208 14.1982C23.3613 14.1982 24.2818 13.4759 24.7037 12.6513H24.7804V14H27.0048V7.42898C27.0048 4.83381 24.889 4.05398 23.0162 4.05398C20.9515 4.05398 19.3663 4.97443 18.8549 6.7642L21.0154 7.07102C21.2456 6.39986 21.8975 5.82457 23.0289 5.82457C24.1028 5.82457 24.6909 6.37429 24.6909 7.33949V7.37784C24.6909 8.04261 23.9941 8.07457 22.2619 8.25994C20.3571 8.46449 18.5353 9.03338 18.5353 11.245C18.5353 13.1754 19.948 14.1982 21.8208 14.1982ZM22.4217 12.4979C21.4565 12.4979 20.7662 12.0568 20.7662 11.2067C20.7662 10.3182 21.5396 9.94744 22.5751 9.80043C23.1824 9.71733 24.3968 9.56392 24.6973 9.32102V10.478C24.6973 11.571 23.8152 12.4979 22.4217 12.4979ZM33.6142 14.1918C36.0815 14.1918 37.6539 12.728 37.8201 10.6442H35.6085C35.4103 11.6989 34.6497 12.3061 33.6333 12.3061C32.1887 12.3061 31.2555 11.098 31.2555 9.09091C31.2555 7.10938 32.2079 5.92045 33.6333 5.92045C34.7456 5.92045 35.4295 6.63636 35.6085 7.58239H37.8201C37.6603 5.45384 35.9984 4.05398 33.6014 4.05398C30.725 4.05398 28.9096 6.13139 28.9096 9.12926C28.9096 12.1016 30.6802 14.1918 33.6142 14.1918ZM39.7202 14H42.0341V10.7017L42.8778 9.80043L45.8821 14H48.6499L44.6229 8.41974L48.4261 4.18182H45.7223L42.1939 8.12571H42.0341V0.909091H39.7202V14ZM55.8713 17.6818C57.6738 17.6818 58.7157 16.755 59.2718 15.1889L63.2157 4.1946L60.742 4.18182L58.4728 11.5966H58.3706L56.1078 4.18182H53.6532L57.2136 14.2045L57.0154 14.7351C56.5872 15.8537 55.9096 15.9304 54.8997 15.6364L54.3627 17.4389C54.676 17.5668 55.2385 17.6818 55.8713 17.6818ZM68.7704 14.1918C71.6468 14.1918 73.475 12.1655 73.475 9.12926C73.475 6.08665 71.6468 4.05398 68.7704 4.05398C65.894 4.05398 64.0659 6.08665 64.0659 9.12926C64.0659 12.1655 65.894 14.1918 68.7704 14.1918ZM68.7832 12.3381C67.1916 12.3381 66.4118 10.919 66.4118 9.12287C66.4118 7.3267 67.1916 5.88849 68.7832 5.88849C70.3493 5.88849 71.1291 7.3267 71.1291 9.12287C71.1291 10.919 70.3493 12.3381 68.7832 12.3381ZM81.6967 9.87074C81.6967 11.3665 80.6293 12.108 79.6065 12.108C78.4943 12.108 77.7528 11.3217 77.7528 10.0753V4.18182H75.4389V10.4332C75.4389 12.7919 76.7812 14.1278 78.7116 14.1278C80.1818 14.1278 81.2173 13.3544 81.6648 12.255H81.767V14H84.0107V4.18182H81.6967V9.87074ZM86.3901 14H88.704V8.22798C88.704 6.98153 89.6436 6.09943 90.9157 6.09943C91.3056 6.09943 91.7914 6.16974 91.9895 6.23366V4.10511C91.7786 4.06676 91.4142 4.04119 91.1586 4.04119C90.0336 4.04119 89.0939 4.6804 88.736 5.81818H88.6337V4.18182H86.3901V14ZM97.9917 17.6818H100.306V12.4531H100.401C100.766 13.169 101.526 14.1726 103.214 14.1726C105.528 14.1726 107.26 12.3381 107.26 9.10369C107.26 5.83097 105.477 4.05398 103.208 4.05398C101.475 4.05398 100.753 5.09588 100.401 5.8054H100.267V4.18182H97.9917V17.6818ZM100.261 9.09091C100.261 7.18608 101.079 5.95241 102.568 5.95241C104.109 5.95241 104.901 7.26278 104.901 9.09091C104.901 10.9318 104.096 12.2741 102.568 12.2741C101.092 12.2741 100.261 10.9957 100.261 9.09091ZM109.242 14H111.556V8.22798C111.556 6.98153 112.495 6.09943 113.767 6.09943C114.157 6.09943 114.643 6.16974 114.841 6.23366V4.10511C114.63 4.06676 114.266 4.04119 114.01 4.04119C112.885 4.04119 111.945 4.6804 111.588 5.81818H111.485V4.18182H109.242V14ZM120.257 14.1918C123.133 14.1918 124.961 12.1655 124.961 9.12926C124.961 6.08665 123.133 4.05398 120.257 4.05398C117.38 4.05398 115.552 6.08665 115.552 9.12926C115.552 12.1655 117.38 14.1918 120.257 14.1918ZM120.27 12.3381C118.678 12.3381 117.898 10.919 117.898 9.12287C117.898 7.3267 118.678 5.88849 120.27 5.88849C121.836 5.88849 122.615 7.3267 122.615 9.12287C122.615 10.919 121.836 12.3381 120.27 12.3381ZM131.195 17.8864C133.848 17.8864 135.804 16.6719 135.804 14.1598V4.18182H133.522V5.8054H133.394C133.042 5.09588 132.307 4.05398 130.575 4.05398C128.306 4.05398 126.523 5.83097 126.523 9.05895C126.523 12.2614 128.306 13.8594 130.569 13.8594C132.25 13.8594 133.036 12.9581 133.394 12.2358H133.509V14.0959C133.509 15.5405 132.55 16.1349 131.233 16.1349C129.84 16.1349 129.226 15.4766 128.945 14.9013L126.861 15.4062C127.283 16.7805 128.696 17.8864 131.195 17.8864ZM131.214 12.044C129.687 12.044 128.881 10.8551 128.881 9.04616C128.881 7.26278 129.674 5.95241 131.214 5.95241C132.704 5.95241 133.522 7.18608 133.522 9.04616C133.522 10.919 132.691 12.044 131.214 12.044ZM138.175 14H140.489V8.22798C140.489 6.98153 141.429 6.09943 142.701 6.09943C143.091 6.09943 143.577 6.16974 143.775 6.23366V4.10511C143.564 4.06676 143.199 4.04119 142.944 4.04119C141.819 4.04119 140.879 4.6804 140.521 5.81818H140.419V4.18182H138.175V14ZM149.254 14.1918C151.543 14.1918 153.115 13.0732 153.524 11.3665L151.364 11.1236C151.05 11.9545 150.283 12.3892 149.286 12.3892C147.79 12.3892 146.8 11.4048 146.781 9.72372H153.62V9.0142C153.62 5.56889 151.549 4.05398 149.133 4.05398C146.32 4.05398 144.486 6.11861 144.486 9.14844C144.486 12.2294 146.295 14.1918 149.254 14.1918ZM146.787 8.16406C146.857 6.91122 147.784 5.85653 149.165 5.85653C150.494 5.85653 151.389 6.82812 151.402 8.16406H146.787ZM163.338 6.77699C163.018 5.11506 161.688 4.05398 159.387 4.05398C157.022 4.05398 155.411 5.21733 155.418 7.03267C155.411 8.46449 156.294 9.41051 158.179 9.80043L159.854 10.152C160.755 10.3501 161.177 10.7145 161.177 11.2706C161.177 11.9418 160.448 12.4467 159.349 12.4467C158.288 12.4467 157.597 11.9865 157.399 11.1044L155.143 11.3217C155.431 13.1243 156.945 14.1918 159.355 14.1918C161.81 14.1918 163.542 12.9197 163.548 11.0597C163.542 9.6598 162.641 8.80327 160.787 8.40057L159.112 8.04261C158.115 7.81889 157.719 7.47372 157.725 6.90483C157.719 6.24006 158.454 5.77983 159.419 5.77983C160.487 5.77983 161.049 6.36151 161.228 7.0071L163.338 6.77699ZM173.216 6.77699C172.897 5.11506 171.567 4.05398 169.266 4.05398C166.901 4.05398 165.29 5.21733 165.297 7.03267C165.29 8.46449 166.172 9.41051 168.058 9.80043L169.733 10.152C170.634 10.3501 171.056 10.7145 171.056 11.2706C171.056 11.9418 170.327 12.4467 169.228 12.4467C168.167 12.4467 167.476 11.9865 167.278 11.1044L165.022 11.3217C165.309 13.1243 166.824 14.1918 169.234 14.1918C171.689 14.1918 173.421 12.9197 173.427 11.0597C173.421 9.6598 172.52 8.80327 170.666 8.40057L168.991 8.04261C167.994 7.81889 167.598 7.47372 167.604 6.90483C167.598 6.24006 168.333 5.77983 169.298 5.77983C170.366 5.77983 170.928 6.36151 171.107 7.0071L173.216 6.77699Z" fill="#35414B"/>
</svg>
