<svg width="80" height="20" viewBox="0 0 80 20" fill="none" xmlns="http://www.w3.org/2000/svg">
<path d="M0.0093689 0.332214H2.79874V6.5294H8.68171V0.332214H11.4747V15.5444H8.68171V9.21706H2.79874V15.5444H0.0093689V0.332214ZM20.3114 10.5896C20.3114 11.863 19.2739 12.8992 18.0008 12.8992C16.7272 12.8992 15.6903 11.863 15.6903 10.5896V4.04018H13.045V10.5896C13.045 13.3219 15.2683 15.5444 18.0008 15.5444C20.7326 15.5444 22.9558 13.3219 22.9558 10.5896V4.04018H20.3114V10.5896ZM30.3405 4.1169C29.0283 4.1169 28.1123 4.49768 27.2278 5.36596V0.332214H24.5739V9.66112C24.5739 13.153 27.0986 15.5444 29.935 15.5444C33.0883 15.5444 35.8511 13.1103 35.8511 9.83081C35.8511 6.59284 33.3034 4.1169 30.3405 4.1169ZM30.4064 13.0892C28.6081 13.0892 27.233 11.5874 27.233 9.83081C27.233 8.07393 28.6081 6.57159 30.4064 6.57159C31.9301 6.57159 33.3061 8.07393 33.3061 9.83081C33.3061 11.5874 31.9301 13.0892 30.4064 13.0892ZM40.3084 4.7855C40.3084 3.45143 41.1973 3.02846 42.1705 3.02846C42.9539 3.02846 43.9906 3.62096 44.6672 4.34065L46.402 2.30925C45.535 1.1455 43.7789 0.34112 42.3398 0.34112C39.4616 0.34112 37.3876 2.013 37.3876 4.7855C37.3876 9.92768 43.7153 8.29768 43.7153 11.1764C43.7153 12.0642 42.848 12.848 41.8539 12.848C40.2873 12.848 39.7792 12.0861 39.06 11.2817L37.1339 13.2707C38.362 14.7733 39.8851 15.5355 41.7053 15.5355C44.435 15.5355 46.6359 13.8425 46.6359 11.1969C46.6359 5.48346 40.3084 7.26128 40.3084 4.7855ZM53.6225 3.96784C50.7864 3.96784 48.2614 6.35784 48.2614 9.8505V19.2035H50.9151V14.1458C51.7998 15.0135 52.7153 15.3949 54.028 15.3949C56.9908 15.3949 59.5387 12.9192 59.5387 9.68128C59.5387 6.40128 56.7751 3.96784 53.6225 3.96784ZM54.0941 12.9405C52.2959 12.9405 50.9206 11.4366 50.9206 9.68128C50.9206 7.9244 52.2959 6.42206 54.0941 6.42206C55.6175 6.42206 56.9936 7.9244 56.9936 9.68128C56.9936 11.4366 55.6175 12.9405 54.0941 12.9405ZM79.0733 13.0892C77.508 13.0892 77.0636 12.4124 77.0636 11.375V6.78315H79.4967V4.45565H77.0636V1.3869L74.3769 2.59284V11.9464C74.3769 14.338 76.0269 15.5444 78.2901 15.5444C78.6287 15.5444 79.0948 15.5225 79.3491 15.4599L80.0051 13.0477C79.7089 13.0682 79.3705 13.0892 79.0733 13.0892Z" fill="#45535E"/>
</svg>
