<svg width="338" height="87" viewBox="0 0 338 87" fill="none" xmlns="http://www.w3.org/2000/svg">
<path d="M8.99148 30H14.1903L20.0284 9.58807H20.2557L26.0795 30H31.2784L39.4886 0.90909H33.821L28.5795 22.3011H28.3239L22.7131 0.90909H17.5568L11.9602 22.2869H11.6903L6.44886 0.90909H0.78125L8.99148 30ZM50.348 30.4261C55.4332 30.4261 58.9276 27.9403 59.8366 24.1477L55.0355 23.608C54.3395 25.4545 52.6349 26.4205 50.419 26.4205C47.0952 26.4205 44.8935 24.233 44.8509 20.4972H60.0497V18.9205C60.0497 11.2642 55.4474 7.89773 50.0781 7.89773C43.8281 7.89773 39.7514 12.4858 39.7514 19.2188C39.7514 26.0653 43.7713 30.4261 50.348 30.4261ZM44.8651 17.0312C45.0213 14.2472 47.081 11.9034 50.1491 11.9034C53.1037 11.9034 55.0923 14.0625 55.1207 17.0312H44.8651ZM78.8246 30H84.1939L88.2848 15.2557H88.5831L92.674 30H98.0291L104.208 8.18182H98.9524L95.174 23.4375H94.9609L91.0405 8.18182H85.8558L81.9354 23.5227H81.7365L77.9013 8.18182H72.6598L78.8246 30ZM116.729 30.4261C123.121 30.4261 127.184 25.9233 127.184 19.1761C127.184 12.4148 123.121 7.89773 116.729 7.89773C110.337 7.89773 106.275 12.4148 106.275 19.1761C106.275 25.9233 110.337 30.4261 116.729 30.4261ZM116.758 26.3068C113.221 26.3068 111.488 23.1534 111.488 19.1619C111.488 15.1705 113.221 11.9744 116.758 11.9744C120.238 11.9744 121.971 15.1705 121.971 19.1619C121.971 23.1534 120.238 26.3068 116.758 26.3068ZM131.548 30H136.69V17.1733C136.69 14.4034 138.778 12.4432 141.605 12.4432C142.472 12.4432 143.551 12.5994 143.991 12.7415V8.01136C143.523 7.92614 142.713 7.86932 142.145 7.86932C139.645 7.86932 137.557 9.28977 136.761 11.8182H136.534V8.18182H131.548V30ZM147.408 30H152.55V22.6705L154.425 20.6676L161.101 30H167.251L158.303 17.5994L166.754 8.18182H160.746L152.905 16.946H152.55V0.90909H147.408V30ZM185.245 17.2159C185.245 14.0625 187.205 12.2443 189.961 12.2443C192.66 12.2443 194.251 13.9631 194.251 16.9034V30H199.393V16.108C199.393 10.8381 196.41 7.89773 191.879 7.89773C188.526 7.89773 186.396 9.41761 185.387 11.8892H185.131V0.90909H180.103V30H185.245V17.2159ZM214.151 30.4261C220.543 30.4261 224.606 25.9233 224.606 19.1761C224.606 12.4148 220.543 7.89773 214.151 7.89773C207.759 7.89773 203.697 12.4148 203.697 19.1761C203.697 25.9233 207.759 30.4261 214.151 30.4261ZM214.18 26.3068C210.643 26.3068 208.91 23.1534 208.91 19.1619C208.91 15.1705 210.643 11.9744 214.18 11.9744C217.66 11.9744 219.393 15.1705 219.393 19.1619C219.393 23.1534 217.66 26.3068 214.18 26.3068ZM232.887 30H238.256L242.347 15.2557H242.646L246.737 30H252.092L258.271 8.18182H253.015L249.237 23.4375H249.023L245.103 8.18182H239.918L235.998 23.5227H235.799L231.964 8.18182H226.722L232.887 30ZM274.979 38.1818C278.984 38.1818 281.3 36.1222 282.536 32.642L291.3 8.21023L285.803 8.18182L280.76 24.6591H280.533L275.504 8.18182H270.05L277.962 30.4545L277.521 31.6335C276.57 34.1193 275.064 34.2898 272.82 33.6364L271.626 37.642C272.322 37.9261 273.572 38.1818 274.979 38.1818ZM303.643 30.4261C310.036 30.4261 314.098 25.9233 314.098 19.1761C314.098 12.4148 310.036 7.89773 303.643 7.89773C297.251 7.89773 293.189 12.4148 293.189 19.1761C293.189 25.9233 297.251 30.4261 303.643 30.4261ZM303.672 26.3068C300.135 26.3068 298.402 23.1534 298.402 19.1619C298.402 15.1705 300.135 11.9744 303.672 11.9744C307.152 11.9744 308.885 15.1705 308.885 19.1619C308.885 23.1534 307.152 26.3068 303.672 26.3068ZM332.369 20.8239C332.369 24.1477 329.996 25.7955 327.724 25.7955C325.252 25.7955 323.604 24.0483 323.604 21.2784V8.18182H318.462V22.0739C318.462 27.3153 321.445 30.2841 325.735 30.2841C329.002 30.2841 331.303 28.5653 332.298 26.1222H332.525V30H337.511V8.18182H332.369V20.8239ZM7.14489 78H12.5142L16.6051 63.2557H16.9034L20.9943 78H26.3494L32.5284 56.1818H27.2727L23.4943 71.4375H23.2812L19.3608 56.1818H14.1761L10.2557 71.5227H10.0568L6.22159 56.1818H0.980114L7.14489 78ZM45.0497 78.4261C51.4418 78.4261 55.5043 73.9233 55.5043 67.1761C55.5043 60.4148 51.4418 55.8977 45.0497 55.8977C38.6577 55.8977 34.5952 60.4148 34.5952 67.1761C34.5952 73.9233 38.6577 78.4261 45.0497 78.4261ZM45.0781 74.3068C41.5412 74.3068 39.8082 71.1534 39.8082 67.1619C39.8082 63.1705 41.5412 59.9744 45.0781 59.9744C48.5582 59.9744 50.2912 63.1705 50.2912 67.1619C50.2912 71.1534 48.5582 74.3068 45.0781 74.3068ZM59.8686 78H65.0107V65.1733C65.0107 62.4034 67.0987 60.4432 69.9254 60.4432C70.7919 60.4432 71.8714 60.5994 72.3118 60.7415V56.0114C71.843 55.9261 71.0334 55.8693 70.4652 55.8693C67.9652 55.8693 65.8771 57.2898 65.0817 59.8182H64.8544V56.1818H59.8686V78ZM75.728 78H80.87V70.6705L82.745 68.6676L89.4212 78H95.5717L86.6229 65.5994L95.0746 56.1818H89.0661L81.2251 64.946H80.87V48.9091H75.728V78ZM118.082 78.4261C123.168 78.4261 126.662 75.9403 127.571 72.1477L122.77 71.608C122.074 73.4545 120.369 74.4205 118.153 74.4205C114.83 74.4205 112.628 72.233 112.585 68.4972H127.784V66.9205C127.784 59.2642 123.182 55.8977 117.812 55.8977C111.562 55.8977 107.486 60.4858 107.486 67.2188C107.486 74.0653 111.506 78.4261 118.082 78.4261ZM112.599 65.0312C112.756 62.2472 114.815 59.9034 117.884 59.9034C120.838 59.9034 122.827 62.0625 122.855 65.0312H112.599ZM150.998 56.1818H145.529L140.501 72.3892H140.273L135.259 56.1818H129.776L137.546 78H143.228L150.998 56.1818ZM163.473 78.4261C168.558 78.4261 172.053 75.9403 172.962 72.1477L168.161 71.608C167.464 73.4545 165.76 74.4205 163.544 74.4205C160.22 74.4205 158.018 72.233 157.976 68.4972H173.175V66.9205C173.175 59.2642 168.572 55.8977 163.203 55.8977C156.953 55.8977 152.876 60.4858 152.876 67.2188C152.876 74.0653 156.896 78.4261 163.473 78.4261ZM157.99 65.0312C158.146 62.2472 160.206 59.9034 163.274 59.9034C166.229 59.9034 168.217 62.0625 168.246 65.0312H157.99ZM177.525 78H182.667V65.1733C182.667 62.4034 184.755 60.4432 187.582 60.4432C188.448 60.4432 189.528 60.5994 189.968 60.7415V56.0114C189.499 55.9261 188.69 55.8693 188.121 55.8693C185.621 55.8693 183.533 57.2898 182.738 59.8182H182.511V56.1818H177.525V78ZM197.244 86.1818C201.25 86.1818 203.565 84.1222 204.801 80.642L213.565 56.2102L208.068 56.1818L203.026 72.6591H202.798L197.77 56.1818H192.315L200.227 78.4545L199.787 79.6335C198.835 82.1193 197.33 82.2898 195.085 81.6364L193.892 85.642C194.588 85.9261 195.838 86.1818 197.244 86.1818ZM224.489 78.3835C228.239 78.3835 229.929 76.1534 230.739 74.5625H231.051V78H236.108V48.9091H230.952V59.7898H230.739C229.957 58.2131 228.352 55.8977 224.503 55.8977C219.46 55.8977 215.497 59.8466 215.497 67.1193C215.497 74.3068 219.347 78.3835 224.489 78.3835ZM225.923 74.1648C222.528 74.1648 220.739 71.1818 220.739 67.0909C220.739 63.0284 222.5 60.1165 225.923 60.1165C229.233 60.1165 231.051 62.858 231.051 67.0909C231.051 71.3239 229.205 74.1648 225.923 74.1648ZM247.866 78.4403C251.289 78.4403 253.335 76.8352 254.272 75.0028H254.442V78H259.386V63.3977C259.386 57.6307 254.684 55.8977 250.522 55.8977C245.934 55.8977 242.411 57.9432 241.275 61.9205L246.076 62.6023C246.587 61.1108 248.036 59.8324 250.55 59.8324C252.937 59.8324 254.244 61.054 254.244 63.1989V63.2841C254.244 64.7614 252.695 64.8324 248.846 65.2443C244.613 65.6989 240.565 66.9631 240.565 71.8778C240.565 76.1676 243.704 78.4403 247.866 78.4403ZM249.201 74.6619C247.056 74.6619 245.522 73.6818 245.522 71.7926C245.522 69.8182 247.241 68.9943 249.542 68.6676C250.891 68.483 253.59 68.142 254.258 67.6023V70.1733C254.258 72.6023 252.298 74.6619 249.201 74.6619ZM266.971 86.1818C270.977 86.1818 273.292 84.1222 274.528 80.642L283.292 56.2102L277.795 56.1818L272.752 72.6591H272.525L267.496 56.1818H262.042L269.954 78.4545L269.513 79.6335C268.562 82.1193 267.056 82.2898 264.812 81.6364L263.619 85.642C264.315 85.9261 265.565 86.1818 266.971 86.1818Z" fill="#35414B"/>
</svg>
