<svg width="391" height="87" viewBox="0 0 391 87" fill="none" xmlns="http://www.w3.org/2000/svg">
<path d="M8.44851 30H13.6474L19.4854 9.58807H19.7127L25.5366 30H30.7354L38.9457 0.90909H33.2781L28.0366 22.3011H27.7809L22.1701 0.90909H17.0138L11.4173 22.2869H11.1474L5.90589 0.90909H0.238281L8.44851 30ZM47.5146 17.2159C47.5146 14.0625 49.4748 12.2443 52.2305 12.2443C54.9293 12.2443 56.5202 13.9631 56.5202 16.9034V30H61.6623V16.108C61.6623 10.8381 58.6793 7.89773 54.1481 7.89773C50.7958 7.89773 48.6651 9.41761 47.6566 11.8892H47.4009V0.90909H42.3725V30H47.5146V17.2159ZM69.3185 38.1818C73.3242 38.1818 75.6396 36.1222 76.8754 32.642L85.6396 8.21023L80.1424 8.18182L75.0998 24.6591H74.8725L69.8441 8.18182H64.3896L72.3015 30.4545L71.8612 31.6335C70.9094 34.1193 69.4038 34.2898 67.1594 33.6364L65.9663 37.642C66.6623 37.9261 67.9123 38.1818 69.3185 38.1818ZM108.647 30.4261C114.13 30.4261 117.625 27.1733 117.994 22.5426H113.079C112.639 24.8864 110.949 26.2358 108.69 26.2358C105.48 26.2358 103.406 23.5511 103.406 19.0909C103.406 14.6875 105.522 12.0455 108.69 12.0455C111.162 12.0455 112.681 13.6364 113.079 15.7386H117.994C117.639 11.0085 113.946 7.89773 108.619 7.89773C102.227 7.89773 98.1928 12.5142 98.1928 19.1761C98.1928 25.7812 102.127 30.4261 108.647 30.4261ZM136.123 20.8239C136.123 24.1477 133.75 25.7955 131.478 25.7955C129.006 25.7955 127.358 24.0483 127.358 21.2784V8.18182H122.216V22.0739C122.216 27.3153 125.199 30.2841 129.489 30.2841C132.756 30.2841 135.057 28.5653 136.051 26.1222H136.279V30H141.265V8.18182H136.123V20.8239ZM163.797 13.9489C163.086 10.2557 160.132 7.89773 155.018 7.89773C149.762 7.89773 146.183 10.483 146.197 14.517C146.183 17.6989 148.143 19.8011 152.333 20.6676L156.055 21.4489C158.058 21.8892 158.995 22.6989 158.995 23.9347C158.995 25.4261 157.376 26.5483 154.933 26.5483C152.575 26.5483 151.041 25.5256 150.6 23.5653L145.586 24.0483C146.225 28.054 149.592 30.4261 154.947 30.4261C160.402 30.4261 164.251 27.5994 164.265 23.4659C164.251 20.3551 162.248 18.4517 158.129 17.5568L154.407 16.7614C152.191 16.2642 151.311 15.4972 151.325 14.233C151.311 12.7557 152.944 11.733 155.089 11.733C157.461 11.733 158.711 13.0256 159.109 14.4602L163.797 13.9489ZM179.4 8.18182H175.096V2.95455H169.954V8.18182H166.858V12.1591H169.954V24.2898C169.926 28.3949 172.909 30.4119 176.772 30.2983C178.235 30.2557 179.244 29.9716 179.798 29.7869L178.931 25.767C178.647 25.8381 178.065 25.9659 177.426 25.9659C176.133 25.9659 175.096 25.5114 175.096 23.4375V12.1591H179.4V8.18182ZM192.983 30.4261C199.375 30.4261 203.438 25.9233 203.438 19.1761C203.438 12.4148 199.375 7.89773 192.983 7.89773C186.591 7.89773 182.529 12.4148 182.529 19.1761C182.529 25.9233 186.591 30.4261 192.983 30.4261ZM193.012 26.3068C189.475 26.3068 187.742 23.1534 187.742 19.1619C187.742 15.1705 189.475 11.9744 193.012 11.9744C196.492 11.9744 198.225 15.1705 198.225 19.1619C198.225 23.1534 196.492 26.3068 193.012 26.3068ZM207.802 30H212.944V16.733C212.944 14.0483 214.734 12.2301 216.95 12.2301C219.123 12.2301 220.615 13.6932 220.615 15.9375V30H225.657V16.392C225.657 13.9347 227.12 12.2301 229.606 12.2301C231.68 12.2301 233.328 13.4517 233.328 16.1506V30H238.484V15.3551C238.484 10.483 235.672 7.89773 231.666 7.89773C228.498 7.89773 226.083 9.46023 225.118 11.8892H224.89C224.052 9.41761 221.936 7.89773 218.995 7.89773C216.069 7.89773 213.882 9.40341 212.973 11.8892H212.717V8.18182H207.802V30ZM253.36 30.4261C258.445 30.4261 261.939 27.9403 262.848 24.1477L258.047 23.608C257.351 25.4545 255.647 26.4205 253.431 26.4205C250.107 26.4205 247.905 24.233 247.863 20.4972H263.061V18.9205C263.061 11.2642 258.459 7.89773 253.09 7.89773C246.84 7.89773 242.763 12.4858 242.763 19.2188C242.763 26.0653 246.783 30.4261 253.36 30.4261ZM247.877 17.0312C248.033 14.2472 250.093 11.9034 253.161 11.9034C256.115 11.9034 258.104 14.0625 258.132 17.0312H247.877ZM267.412 30H272.554V17.1733C272.554 14.4034 274.642 12.4432 277.468 12.4432C278.335 12.4432 279.414 12.5994 279.855 12.7415V8.01136C279.386 7.92614 278.576 7.86932 278.008 7.86932C275.508 7.86932 273.42 9.28977 272.625 11.8182H272.397V8.18182H267.412V30ZM300.515 13.9489C299.805 10.2557 296.85 7.89773 291.737 7.89773C286.481 7.89773 282.902 10.483 282.916 14.517C282.902 17.6989 284.862 19.8011 289.052 20.6676L292.774 21.4489C294.777 21.8892 295.714 22.6989 295.714 23.9347C295.714 25.4261 294.095 26.5483 291.652 26.5483C289.294 26.5483 287.76 25.5256 287.319 23.5653L282.305 24.0483C282.944 28.054 286.311 30.4261 291.666 30.4261C297.12 30.4261 300.97 27.5994 300.984 23.4659C300.97 20.3551 298.967 18.4517 294.848 17.5568L291.126 16.7614C288.91 16.2642 288.029 15.4972 288.044 14.233C288.029 12.7557 289.663 11.733 291.808 11.733C294.18 11.733 295.43 13.0256 295.828 14.4602L300.515 13.9489ZM320.288 0.90909H315.146V30H320.288V0.90909ZM335.093 30.4261C341.485 30.4261 345.547 25.9233 345.547 19.1761C345.547 12.4148 341.485 7.89773 335.093 7.89773C328.701 7.89773 324.638 12.4148 324.638 19.1761C324.638 25.9233 328.701 30.4261 335.093 30.4261ZM335.121 26.3068C331.584 26.3068 329.851 23.1534 329.851 19.1619C329.851 15.1705 331.584 11.9744 335.121 11.9744C338.601 11.9744 340.334 15.1705 340.334 19.1619C340.334 23.1534 338.601 26.3068 335.121 26.3068ZM368.658 8.18182H363.189L358.161 24.3892H357.934L352.919 8.18182H347.436L355.206 30H360.888L368.658 8.18182ZM381.133 30.4261C386.218 30.4261 389.713 27.9403 390.622 24.1477L385.821 23.608C385.125 25.4545 383.42 26.4205 381.204 26.4205C377.88 26.4205 375.679 24.233 375.636 20.4972H390.835V18.9205C390.835 11.2642 386.233 7.89773 380.863 7.89773C374.613 7.89773 370.537 12.4858 370.537 19.2188C370.537 26.0653 374.556 30.4261 381.133 30.4261ZM375.65 17.0312C375.806 14.2472 377.866 11.9034 380.934 11.9034C383.889 11.9034 385.877 14.0625 385.906 17.0312H375.65ZM50.1957 78H55.565L59.6559 63.2557H59.9542L64.0451 78H69.4002L75.5792 56.1818H70.3235L66.5451 71.4375H66.332L62.4116 56.1818H57.2269L53.3065 71.5227H53.1076L49.2724 56.1818H44.0309L50.1957 78ZM88.1005 78.4261C94.4925 78.4261 98.555 73.9233 98.555 67.1761C98.555 60.4148 94.4925 55.8977 88.1005 55.8977C81.7085 55.8977 77.646 60.4148 77.646 67.1761C77.646 73.9233 81.7085 78.4261 88.1005 78.4261ZM88.1289 74.3068C84.592 74.3068 82.859 71.1534 82.859 67.1619C82.859 63.1705 84.592 59.9744 88.1289 59.9744C91.609 59.9744 93.342 63.1705 93.342 67.1619C93.342 71.1534 91.609 74.3068 88.1289 74.3068ZM102.919 78H108.061V65.1733C108.061 62.4034 110.15 60.4432 112.976 60.4432C113.843 60.4432 114.922 60.5994 115.363 60.7415V56.0114C114.894 55.9261 114.084 55.8693 113.516 55.8693C111.016 55.8693 108.928 57.2898 108.132 59.8182H107.905V56.1818H102.919V78ZM118.779 78H123.921V70.6705L125.796 68.6676L132.472 78H138.623L129.674 65.5994L138.125 56.1818H132.117L124.276 64.946H123.921V48.9091H118.779V78ZM141.552 78H146.694V56.1818H141.552V78ZM144.137 53.0852C145.771 53.0852 147.106 51.8352 147.106 50.3011C147.106 48.7528 145.771 47.5028 144.137 47.5028C142.49 47.5028 141.154 48.7528 141.154 50.3011C141.154 51.8352 142.49 53.0852 144.137 53.0852ZM157.124 65.2159C157.124 62.0625 159.027 60.2443 161.74 60.2443C164.397 60.2443 165.988 61.9915 165.988 64.9034V78H171.13V64.108C171.144 58.8807 168.161 55.8977 163.658 55.8977C160.391 55.8977 158.147 57.4602 157.152 59.8892H156.897V56.1818H151.982V78H157.124V65.2159ZM185.846 86.6364C191.74 86.6364 196.087 83.9375 196.087 78.3551V56.1818H191.016V59.7898H190.732C189.951 58.2131 188.317 55.8977 184.468 55.8977C179.425 55.8977 175.462 59.8466 175.462 67.0199C175.462 74.1364 179.425 77.6875 184.453 77.6875C188.189 77.6875 189.936 75.6847 190.732 74.0795H190.988V78.2131C190.988 81.4233 188.857 82.7443 185.931 82.7443C182.834 82.7443 181.471 81.2812 180.846 80.0028L176.215 81.125C177.152 84.179 180.292 86.6364 185.846 86.6364ZM185.888 73.6534C182.493 73.6534 180.703 71.0114 180.703 66.9915C180.703 63.0284 182.465 60.1165 185.888 60.1165C189.198 60.1165 191.016 62.858 191.016 66.9915C191.016 71.1534 189.169 73.6534 185.888 73.6534ZM215.782 78H221.151L225.242 63.2557H225.54L229.631 78H234.986L241.165 56.1818H235.909L232.131 71.4375H231.918L227.998 56.1818H222.813L218.892 71.5227H218.694L214.858 56.1818H209.617L215.782 78ZM244.755 78H249.897V56.1818H244.755V78ZM247.341 53.0852C248.974 53.0852 250.309 51.8352 250.309 50.3011C250.309 48.7528 248.974 47.5028 247.341 47.5028C245.693 47.5028 244.358 48.7528 244.358 50.3011C244.358 51.8352 245.693 53.0852 247.341 53.0852ZM266.08 56.1818H261.776V50.9545H256.634V56.1818H253.537V60.1591H256.634V72.2898C256.605 76.3949 259.588 78.4119 263.452 78.2983C264.915 78.2557 265.924 77.9716 266.478 77.7869L265.611 73.767C265.327 73.8381 264.745 73.9659 264.105 73.9659C262.813 73.9659 261.776 73.5114 261.776 71.4375V60.1591H266.08V56.1818ZM275.991 65.2159C275.991 62.0625 277.951 60.2443 280.707 60.2443C283.406 60.2443 284.997 61.9631 284.997 64.9034V78H290.139V64.108C290.139 58.8381 287.156 55.8977 282.625 55.8977C279.272 55.8977 277.142 57.4176 276.133 59.8892H275.877V48.9091H270.849V78H275.991V65.2159ZM319.208 68.8239C319.208 72.1477 316.836 73.7955 314.564 73.7955C312.092 73.7955 310.444 72.0483 310.444 69.2784V56.1818H305.302V70.0739C305.302 75.3153 308.285 78.2841 312.575 78.2841C315.842 78.2841 318.143 76.5653 319.137 74.1222H319.365V78H324.35V56.1818H319.208V68.8239ZM346.882 61.9489C346.172 58.2557 343.218 55.8977 338.104 55.8977C332.848 55.8977 329.269 58.483 329.283 62.517C329.269 65.6989 331.229 67.8011 335.419 68.6676L339.141 69.4489C341.144 69.8892 342.081 70.6989 342.081 71.9347C342.081 73.4261 340.462 74.5483 338.019 74.5483C335.661 74.5483 334.127 73.5256 333.686 71.5653L328.672 72.0483C329.311 76.054 332.678 78.4261 338.033 78.4261C343.488 78.4261 347.337 75.5994 347.351 71.4659C347.337 68.3551 345.334 66.4517 341.215 65.5568L337.493 64.7614C335.277 64.2642 334.397 63.4972 334.411 62.233C334.397 60.7557 336.03 59.733 338.175 59.733C340.547 59.733 341.797 61.0256 342.195 62.4602L346.882 61.9489Z" fill="#35414B"/>
</svg>
