<svg width="541" height="82" viewBox="0 0 541 82" fill="none" xmlns="http://www.w3.org/2000/svg">
<path d="M35.8859 5H37.3177V3.82386C37.3177 2.87784 37.778 2.05966 38.3149 1.29261L37.4967 0.627841C36.474 1.44602 35.8859 2.80114 35.8859 3.84943V5ZM39.1586 5H40.5905V3.82386C40.5905 2.87784 41.0507 2.05966 41.5876 1.29261L40.7694 0.627841C39.7467 1.44602 39.1586 2.80114 39.1586 3.84943V5ZM45.0425 0.909091H43.4573V14H45.0425V0.909091ZM52.2863 4.18182H50.1897V1.82955H48.6812V4.18182H47.1982V5.46023H48.6812V11.5966C48.6812 13.3097 50.0619 14.1278 51.3403 14.1278C51.9028 14.1278 52.2607 14.0256 52.4653 13.9489L52.1585 12.5938C52.0306 12.6193 51.8261 12.6705 51.4937 12.6705C50.8289 12.6705 50.1897 12.4659 50.1897 11.1875V5.46023H52.2863V4.18182ZM55.8595 0.909091H54.4532V5.40909H55.8595V0.909091ZM65.5003 6.38068C65.0273 4.98722 63.9662 4.05398 62.023 4.05398C59.952 4.05398 58.4179 5.23011 58.4179 6.89205C58.4179 8.24716 59.2233 9.15483 61.0258 9.5767L62.6622 9.96023C63.653 10.1903 64.1196 10.6634 64.1196 11.3409C64.1196 12.1847 63.2247 12.875 61.8184 12.875C60.5848 12.875 59.8113 12.3445 59.5429 11.2898L58.1111 11.6477C58.4626 13.3161 59.8369 14.2045 61.844 14.2045C64.126 14.2045 65.6792 12.9581 65.6792 11.2642C65.6792 9.89631 64.8227 9.03338 63.0713 8.60511L61.6139 8.24716C60.4506 7.95952 59.9264 7.5696 59.9264 6.81534C59.9264 5.97159 60.8213 5.35795 62.023 5.35795C63.3398 5.35795 63.8831 6.08665 64.1452 6.7642L65.5003 6.38068ZM75.9017 14.2301C77.6148 14.2301 78.5097 13.3097 78.8165 12.6705H78.8932V14H80.4017V7.53125C80.4017 4.41193 78.0239 4.05398 76.771 4.05398C75.2881 4.05398 73.6006 4.56534 72.8335 6.35511L74.2654 6.86648C74.5977 6.15057 75.384 5.38352 76.8222 5.38352C78.2093 5.38352 78.8932 6.11861 78.8932 7.37784V7.42898C78.8932 8.15767 78.1517 8.09375 76.3619 8.32386C74.5402 8.56037 72.5523 8.96307 72.5523 11.2131C72.5523 13.1307 74.0352 14.2301 75.9017 14.2301ZM76.1318 12.875C74.9301 12.875 74.0608 12.3381 74.0608 11.2898C74.0608 10.1392 75.1091 9.78125 76.2852 9.62784C76.9244 9.55114 78.6375 9.37216 78.8932 9.06534V10.446C78.8932 11.6733 77.9216 12.875 76.1318 12.875ZM83.1551 14H84.6636V7.86364C84.6636 6.42543 85.7119 5.40909 86.8881 5.40909C88.0322 5.40909 88.8312 6.15696 88.8312 7.27557V14H90.3653V7.60795C90.3653 6.34233 91.1579 5.40909 92.5386 5.40909C93.6125 5.40909 94.5329 5.97798 94.5329 7.42898V14H96.0415V7.42898C96.0415 5.12145 94.8014 4.05398 93.05 4.05398C91.6437 4.05398 90.6146 4.69957 90.1096 5.71591H90.0074C89.5216 4.66761 88.665 4.05398 87.3738 4.05398C86.0954 4.05398 85.1494 4.66761 84.7403 5.71591H84.6125V4.18182H83.1551V14ZM101.689 14.2301C103.402 14.2301 104.297 13.3097 104.604 12.6705H104.68V14H106.189V7.53125C106.189 4.41193 103.811 4.05398 102.558 4.05398C101.075 4.05398 99.3877 4.56534 98.6206 6.35511L100.052 6.86648C100.385 6.15057 101.171 5.38352 102.609 5.38352C103.996 5.38352 104.68 6.11861 104.68 7.37784V7.42898C104.68 8.15767 103.939 8.09375 102.149 8.32386C100.327 8.56037 98.3394 8.96307 98.3394 11.2131C98.3394 13.1307 99.8224 14.2301 101.689 14.2301ZM101.919 12.875C100.717 12.875 99.8479 12.3381 99.8479 11.2898C99.8479 10.1392 100.896 9.78125 102.072 9.62784C102.712 9.55114 104.425 9.37216 104.68 9.06534V10.446C104.68 11.6733 103.709 12.875 101.919 12.875ZM108.661 14H116.357V12.5938H110.758V12.4915L116.178 5.38352V4.18182H108.84V5.58807H114.235V5.69034L108.661 12.8494V14ZM118.68 14H120.189V4.18182H118.68V14ZM119.448 2.54545C120.036 2.54545 120.521 2.08523 120.521 1.52273C120.521 0.960227 120.036 0.5 119.448 0.5C118.859 0.5 118.374 0.960227 118.374 1.52273C118.374 2.08523 118.859 2.54545 119.448 2.54545ZM124.46 8.09375C124.46 6.38068 125.522 5.40909 126.966 5.40909C128.366 5.40909 129.216 6.32315 129.216 7.86364V14H130.725V7.76136C130.725 5.25568 129.389 4.05398 127.401 4.05398C125.918 4.05398 124.997 4.71875 124.537 5.71591H124.409V4.18182H122.952V14H124.46V8.09375ZM137.444 17.8864C139.797 17.8864 141.689 16.8125 141.689 14.2812V4.18182H140.231V5.74148H140.078C139.745 5.23011 139.132 4.05398 137.214 4.05398C134.734 4.05398 133.021 6.02273 133.021 9.03977C133.021 12.108 134.811 13.8466 137.189 13.8466C139.106 13.8466 139.72 12.7216 140.052 12.1847H140.18V14.179C140.18 15.8153 139.03 16.5568 137.444 16.5568C135.661 16.5568 135.035 15.6172 134.632 15.0739L133.43 15.9176C134.044 16.9467 135.252 17.8864 137.444 17.8864ZM137.393 12.4915C135.501 12.4915 134.53 11.0597 134.53 9.0142C134.53 7.01989 135.476 5.40909 137.393 5.40909C139.234 5.40909 140.206 6.89205 140.206 9.0142C140.206 11.1875 139.209 12.4915 137.393 12.4915ZM151.737 14H153.22L155.368 6.45739H155.521L157.669 14H159.152L162.143 4.18182H160.558L158.436 11.6733H158.334L156.263 4.18182H154.652L152.555 11.6989H152.453L150.331 4.18182H148.745L151.737 14ZM165.646 8.09375C165.646 6.38068 166.739 5.40909 168.228 5.40909C169.647 5.40909 170.504 6.30398 170.504 7.86364V14H172.013V7.76136C172.013 5.23651 170.67 4.05398 168.663 4.05398C167.116 4.05398 166.234 4.69957 165.774 5.71591H165.646V0.909091H164.138V14H165.646V8.09375ZM177.661 14.2301C179.375 14.2301 180.269 13.3097 180.576 12.6705H180.653V14H182.161V7.53125C182.161 4.41193 179.784 4.05398 178.531 4.05398C177.048 4.05398 175.36 4.56534 174.593 6.35511L176.025 6.86648C176.358 6.15057 177.144 5.38352 178.582 5.38352C179.969 5.38352 180.653 6.11861 180.653 7.37784V7.42898C180.653 8.15767 179.911 8.09375 178.122 8.32386C176.3 8.56037 174.312 8.96307 174.312 11.2131C174.312 13.1307 175.795 14.2301 177.661 14.2301ZM177.892 12.875C176.69 12.875 175.821 12.3381 175.821 11.2898C175.821 10.1392 176.869 9.78125 178.045 9.62784C178.684 9.55114 180.397 9.37216 180.653 9.06534V10.446C180.653 11.6733 179.681 12.875 177.892 12.875ZM189.185 4.18182H187.088V1.82955H185.58V4.18182H184.097V5.46023H185.58V11.5966C185.58 13.3097 186.96 14.1278 188.239 14.1278C188.801 14.1278 189.159 14.0256 189.364 13.9489L189.057 12.5938C188.929 12.6193 188.725 12.6705 188.392 12.6705C187.727 12.6705 187.088 12.4659 187.088 11.1875V5.46023H189.185V4.18182ZM198.025 8.09375C198.025 6.38068 199.118 5.40909 200.607 5.40909C202.026 5.40909 202.883 6.30398 202.883 7.86364V14H204.391V7.76136C204.391 5.23651 203.049 4.05398 201.042 4.05398C199.495 4.05398 198.613 4.69957 198.153 5.71591H198.025V0.909091H196.516V14H198.025V8.09375ZM210.04 14.2301C211.753 14.2301 212.648 13.3097 212.955 12.6705H213.032V14H214.54V7.53125C214.54 4.41193 212.163 4.05398 210.91 4.05398C209.427 4.05398 207.739 4.56534 206.972 6.35511L208.404 6.86648C208.736 6.15057 209.523 5.38352 210.961 5.38352C212.348 5.38352 213.032 6.11861 213.032 7.37784V7.42898C213.032 8.15767 212.29 8.09375 210.501 8.32386C208.679 8.56037 206.691 8.96307 206.691 11.2131C206.691 13.1307 208.174 14.2301 210.04 14.2301ZM210.271 12.875C209.069 12.875 208.199 12.3381 208.199 11.2898C208.199 10.1392 209.248 9.78125 210.424 9.62784C211.063 9.55114 212.776 9.37216 213.032 9.06534V10.446C213.032 11.6733 212.06 12.875 210.271 12.875ZM224.248 6.38068C223.775 4.98722 222.714 4.05398 220.771 4.05398C218.7 4.05398 217.166 5.23011 217.166 6.89205C217.166 8.24716 217.971 9.15483 219.774 9.5767L221.41 9.96023C222.401 10.1903 222.868 10.6634 222.868 11.3409C222.868 12.1847 221.973 12.875 220.566 12.875C219.333 12.875 218.559 12.3445 218.291 11.2898L216.859 11.6477C217.211 13.3161 218.585 14.2045 220.592 14.2045C222.874 14.2045 224.427 12.9581 224.427 11.2642C224.427 9.89631 223.571 9.03338 221.819 8.60511L220.362 8.24716C219.199 7.95952 218.674 7.5696 218.674 6.81534C218.674 5.97159 219.569 5.35795 220.771 5.35795C222.088 5.35795 222.631 6.08665 222.893 6.7642L224.248 6.38068ZM233.269 8.09375C233.269 6.38068 234.362 5.40909 235.851 5.40909C237.271 5.40909 238.127 6.30398 238.127 7.86364V14H239.636V7.76136C239.636 5.23651 238.293 4.05398 236.286 4.05398C234.739 4.05398 233.857 4.69957 233.397 5.71591H233.269V0.909091H231.761V14H233.269V8.09375ZM246.512 14.2045C248.506 14.2045 249.964 13.2074 250.424 11.7244L248.966 11.3153C248.583 12.3381 247.694 12.8494 246.512 12.8494C244.741 12.8494 243.52 11.7053 243.45 9.60227H250.577V8.96307C250.577 5.30682 248.404 4.05398 246.358 4.05398C243.699 4.05398 241.935 6.15057 241.935 9.16761C241.935 12.1847 243.674 14.2045 246.512 14.2045ZM243.45 8.2983C243.552 6.7706 244.633 5.40909 246.358 5.40909C247.995 5.40909 249.043 6.63636 249.043 8.2983H243.45ZM254.38 0.909091H252.872V14H254.38V0.909091ZM257.143 17.6818H258.652V12.4915H258.78C259.112 13.0284 259.751 14.2045 261.643 14.2045C264.098 14.2045 265.811 12.2358 265.811 9.11648C265.811 6.02273 264.098 4.05398 261.618 4.05398C259.7 4.05398 259.112 5.23011 258.78 5.74148H258.601V4.18182H257.143V17.6818ZM258.626 9.09091C258.626 6.89205 259.598 5.40909 261.439 5.40909C263.356 5.40909 264.302 7.01989 264.302 9.09091C264.302 11.1875 263.331 12.8494 261.439 12.8494C259.623 12.8494 258.626 11.3153 258.626 9.09091ZM272.229 14.2045C274.223 14.2045 275.68 13.2074 276.141 11.7244L274.683 11.3153C274.3 12.3381 273.411 12.8494 272.229 12.8494C270.458 12.8494 269.237 11.7053 269.167 9.60227H276.294V8.96307C276.294 5.30682 274.121 4.05398 272.075 4.05398C269.416 4.05398 267.652 6.15057 267.652 9.16761C267.652 12.1847 269.391 14.2045 272.229 14.2045ZM269.167 8.2983C269.269 6.7706 270.349 5.40909 272.075 5.40909C273.712 5.40909 274.76 6.63636 274.76 8.2983H269.167ZM282.296 14.2045C284.188 14.2045 284.827 13.0284 285.16 12.4915H285.339V14H286.796V0.909091H285.288V5.74148H285.16C284.827 5.23011 284.239 4.05398 282.322 4.05398C279.842 4.05398 278.128 6.02273 278.128 9.11648C278.128 12.2358 279.842 14.2045 282.296 14.2045ZM282.501 12.8494C280.609 12.8494 279.637 11.1875 279.637 9.09091C279.637 7.01989 280.583 5.40909 282.501 5.40909C284.342 5.40909 285.313 6.89205 285.313 9.09091C285.313 11.3153 284.316 12.8494 282.501 12.8494ZM294.831 14H296.339V7.86364C296.339 6.42543 297.388 5.40909 298.564 5.40909C299.708 5.40909 300.507 6.15696 300.507 7.27557V14H302.041V7.60795C302.041 6.34233 302.834 5.40909 304.214 5.40909C305.288 5.40909 306.209 5.97798 306.209 7.42898V14H307.717V7.42898C307.717 5.12145 306.477 4.05398 304.726 4.05398C303.32 4.05398 302.29 4.69957 301.785 5.71591H301.683C301.197 4.66761 300.341 4.05398 299.05 4.05398C297.771 4.05398 296.825 4.66761 296.416 5.71591H296.288V4.18182H294.831V14ZM314.592 14.2045C316.586 14.2045 318.044 13.2074 318.504 11.7244L317.046 11.3153C316.663 12.3381 315.774 12.8494 314.592 12.8494C312.821 12.8494 311.6 11.7053 311.53 9.60227H318.657V8.96307C318.657 5.30682 316.484 4.05398 314.438 4.05398C311.779 4.05398 310.015 6.15057 310.015 9.16761C310.015 12.1847 311.754 14.2045 314.592 14.2045ZM311.53 8.2983C311.632 6.7706 312.713 5.40909 314.438 5.40909C316.075 5.40909 317.123 6.63636 317.123 8.2983H311.53ZM327.523 0.909091H326.014V14H327.523V0.909091ZM334.402 14.2045C336.397 14.2045 337.854 13.2074 338.314 11.7244L336.857 11.3153C336.473 12.3381 335.585 12.8494 334.402 12.8494C332.632 12.8494 331.411 11.7053 331.341 9.60227H338.468V8.96307C338.468 5.30682 336.294 4.05398 334.249 4.05398C331.59 4.05398 329.826 6.15057 329.826 9.16761C329.826 12.1847 331.564 14.2045 334.402 14.2045ZM331.341 8.2983C331.443 6.7706 332.523 5.40909 334.249 5.40909C335.885 5.40909 336.934 6.63636 336.934 8.2983H331.341ZM343.652 14.2301C345.365 14.2301 346.26 13.3097 346.566 12.6705H346.643V14H348.152V7.53125C348.152 4.41193 345.774 4.05398 344.521 4.05398C343.038 4.05398 341.351 4.56534 340.584 6.35511L342.015 6.86648C342.348 6.15057 343.134 5.38352 344.572 5.38352C345.959 5.38352 346.643 6.11861 346.643 7.37784V7.42898C346.643 8.15767 345.902 8.09375 344.112 8.32386C342.29 8.56037 340.302 8.96307 340.302 11.2131C340.302 13.1307 341.785 14.2301 343.652 14.2301ZM343.882 12.875C342.68 12.875 341.811 12.3381 341.811 11.2898C341.811 10.1392 342.859 9.78125 344.035 9.62784C344.674 9.55114 346.388 9.37216 346.643 9.06534V10.446C346.643 11.6733 345.672 12.875 343.882 12.875ZM350.905 14H352.414V7.78693C352.414 6.45739 353.462 5.4858 354.894 5.4858C355.296 5.4858 355.712 5.5625 355.814 5.58807V4.05398C355.642 4.04119 355.245 4.02841 355.022 4.02841C353.845 4.02841 352.823 4.69318 352.465 5.66477H352.362V4.18182H350.905V14ZM359.111 8.09375C359.111 6.38068 360.172 5.40909 361.617 5.40909C363.016 5.40909 363.867 6.32315 363.867 7.86364V14H365.375V7.76136C365.375 5.25568 364.039 4.05398 362.051 4.05398C360.568 4.05398 359.648 4.71875 359.188 5.71591H359.06V4.18182H357.602V14H359.111V8.09375ZM376.083 14.2301C377.796 14.2301 378.691 13.3097 378.998 12.6705H379.075V14H380.583V7.53125C380.583 4.41193 378.206 4.05398 376.953 4.05398C375.47 4.05398 373.782 4.56534 373.015 6.35511L374.447 6.86648C374.779 6.15057 375.566 5.38352 377.004 5.38352C378.391 5.38352 379.075 6.11861 379.075 7.37784V7.42898C379.075 8.15767 378.333 8.09375 376.544 8.32386C374.722 8.56037 372.734 8.96307 372.734 11.2131C372.734 13.1307 374.217 14.2301 376.083 14.2301ZM376.313 12.875C375.112 12.875 374.242 12.3381 374.242 11.2898C374.242 10.1392 375.291 9.78125 376.467 9.62784C377.106 9.55114 378.819 9.37216 379.075 9.06534V10.446C379.075 11.6733 378.103 12.875 376.313 12.875ZM383.541 14H384.999V12.4915H385.178C385.51 13.0284 386.149 14.2045 388.041 14.2045C390.496 14.2045 392.209 12.2358 392.209 9.11648C392.209 6.02273 390.496 4.05398 388.016 4.05398C386.098 4.05398 385.51 5.23011 385.178 5.74148H385.05V0.909091H383.541V14ZM385.024 9.09091C385.024 6.89205 385.996 5.40909 387.837 5.40909C389.754 5.40909 390.7 7.01989 390.7 9.09091C390.7 11.1875 389.729 12.8494 387.837 12.8494C386.021 12.8494 385.024 11.3153 385.024 9.09091ZM398.505 14.2045C401.164 14.2045 402.954 12.1847 402.954 9.14205C402.954 6.07386 401.164 4.05398 398.505 4.05398C395.846 4.05398 394.056 6.07386 394.056 9.14205C394.056 12.1847 395.846 14.2045 398.505 14.2045ZM398.505 12.8494C396.485 12.8494 395.565 11.1108 395.565 9.14205C395.565 7.1733 396.485 5.40909 398.505 5.40909C400.525 5.40909 401.445 7.1733 401.445 9.14205C401.445 11.1108 400.525 12.8494 398.505 12.8494ZM411.444 9.9858C411.444 11.8267 410.038 12.6705 408.913 12.6705C407.66 12.6705 406.765 11.75 406.765 10.3182V4.18182H405.257V10.4205C405.257 12.9261 406.586 14.1278 408.427 14.1278C409.91 14.1278 410.882 13.3352 411.342 12.3381H411.444V14H412.953V4.18182H411.444V9.9858ZM419.986 4.18182H417.889V1.82955H416.38V4.18182H414.897V5.46023H416.38V11.5966C416.38 13.3097 417.761 14.1278 419.04 14.1278C419.602 14.1278 419.96 14.0256 420.165 13.9489L419.858 12.5938C419.73 12.6193 419.525 12.6705 419.193 12.6705C418.528 12.6705 417.889 12.4659 417.889 11.1875V5.46023H419.986V4.18182ZM427.317 14H428.826V7.86364C428.826 6.42543 429.874 5.40909 431.05 5.40909C432.194 5.40909 432.993 6.15696 432.993 7.27557V14H434.527V7.60795C434.527 6.34233 435.32 5.40909 436.701 5.40909C437.775 5.40909 438.695 5.97798 438.695 7.42898V14H440.204V7.42898C440.204 5.12145 438.964 4.05398 437.212 4.05398C435.806 4.05398 434.777 4.69957 434.272 5.71591H434.169C433.684 4.66761 432.827 4.05398 431.536 4.05398C430.258 4.05398 429.312 4.66761 428.902 5.71591H428.775V4.18182H427.317V14ZM443.582 17.6818C444.943 17.6818 445.902 16.9595 446.471 15.4318L450.651 4.20739L449.002 4.18182L446.292 12.0057H446.19L443.479 4.18182H441.843L445.474 14.0511L445.193 14.8182C444.643 16.3139 443.965 16.4545 442.866 16.1733L442.482 17.5028C442.636 17.5795 443.07 17.6818 443.582 17.6818ZM461.98 4.18182H459.883V1.82955H458.375V4.18182H456.892V5.46023H458.375V11.5966C458.375 13.3097 459.755 14.1278 461.034 14.1278C461.596 14.1278 461.954 14.0256 462.159 13.9489L461.852 12.5938C461.724 12.6193 461.519 12.6705 461.187 12.6705C460.522 12.6705 459.883 12.4659 459.883 11.1875V5.46023H461.98V4.18182ZM468.26 14.2045C470.254 14.2045 471.712 13.2074 472.172 11.7244L470.714 11.3153C470.331 12.3381 469.442 12.8494 468.26 12.8494C466.489 12.8494 465.268 11.7053 465.198 9.60227H472.325V8.96307C472.325 5.30682 470.152 4.05398 468.106 4.05398C465.447 4.05398 463.683 6.15057 463.683 9.16761C463.683 12.1847 465.422 14.2045 468.26 14.2045ZM465.198 8.2983C465.3 6.7706 466.381 5.40909 468.106 5.40909C469.743 5.40909 470.791 6.63636 470.791 8.2983H465.198ZM477.509 14.2301C479.222 14.2301 480.117 13.3097 480.424 12.6705H480.501V14H482.009V7.53125C482.009 4.41193 479.631 4.05398 478.378 4.05398C476.896 4.05398 475.208 4.56534 474.441 6.35511L475.873 6.86648C476.205 6.15057 476.991 5.38352 478.43 5.38352C479.817 5.38352 480.501 6.11861 480.501 7.37784V7.42898C480.501 8.15767 479.759 8.09375 477.969 8.32386C476.148 8.56037 474.16 8.96307 474.16 11.2131C474.16 13.1307 475.643 14.2301 477.509 14.2301ZM477.739 12.875C476.538 12.875 475.668 12.3381 475.668 11.2898C475.668 10.1392 476.717 9.78125 477.893 9.62784C478.532 9.55114 480.245 9.37216 480.501 9.06534V10.446C480.501 11.6733 479.529 12.875 477.739 12.875ZM484.763 14H486.271V7.86364C486.271 6.42543 487.319 5.40909 488.495 5.40909C489.64 5.40909 490.439 6.15696 490.439 7.27557V14H491.973V7.60795C491.973 6.34233 492.765 5.40909 494.146 5.40909C495.22 5.40909 496.14 5.97798 496.14 7.42898V14H497.649V7.42898C497.649 5.12145 496.409 4.05398 494.657 4.05398C493.251 4.05398 492.222 4.69957 491.717 5.71591H491.615C491.129 4.66761 490.272 4.05398 488.981 4.05398C487.703 4.05398 486.757 4.66761 486.348 5.71591H486.22V4.18182H484.763V14ZM501.506 14.1023C502.139 14.1023 502.657 13.5845 502.657 12.9517C502.657 12.3189 502.139 11.8011 501.506 11.8011C500.874 11.8011 500.356 12.3189 500.356 12.9517C500.356 13.5845 500.874 14.1023 501.506 14.1023ZM1.65092 32.9091H0.0656961V46H1.65092V32.9091ZM13.3947 46.2045C15.2868 46.2045 15.926 45.0284 16.2583 44.4915H16.4373V46H17.8947V32.9091H16.3862V37.7415H16.2583C15.926 37.2301 15.3379 36.054 13.4203 36.054C10.9402 36.054 9.2271 38.0227 9.2271 41.1165C9.2271 44.2358 10.9402 46.2045 13.3947 46.2045ZM13.5993 44.8494C11.7072 44.8494 10.7356 43.1875 10.7356 41.0909C10.7356 39.0199 11.6816 37.4091 13.5993 37.4091C15.4402 37.4091 16.4118 38.892 16.4118 41.0909C16.4118 43.3153 15.4146 44.8494 13.5993 44.8494ZM24.8556 46.2045C27.5147 46.2045 29.3045 44.1847 29.3045 41.142C29.3045 38.0739 27.5147 36.054 24.8556 36.054C22.1966 36.054 20.4068 38.0739 20.4068 41.142C20.4068 44.1847 22.1966 46.2045 24.8556 46.2045ZM24.8556 44.8494C22.8358 44.8494 21.9153 43.1108 21.9153 41.142C21.9153 39.1733 22.8358 37.4091 24.8556 37.4091C26.8755 37.4091 27.796 39.1733 27.796 41.142C27.796 43.1108 26.8755 44.8494 24.8556 44.8494ZM33.1158 40.0938C33.1158 38.3807 34.1768 37.4091 35.6214 37.4091C37.0213 37.4091 37.8714 38.3232 37.8714 39.8636V46H39.38V39.7614C39.38 37.2557 38.044 36.054 36.0561 36.054C34.5732 36.054 33.6527 36.7188 33.1925 37.7159H33.0646V36.1818H31.6072V46H33.1158V40.0938ZM43.4405 32.9091H42.0343V37.4091H43.4405V32.9091ZM50.3967 36.1818H48.3001V33.8295H46.7915V36.1818H45.3086V37.4602H46.7915V43.5966C46.7915 45.3097 48.1722 46.1278 49.4506 46.1278C50.0131 46.1278 50.3711 46.0256 50.5756 45.9489L50.2688 44.5938C50.141 44.6193 49.9364 44.6705 49.604 44.6705C48.9393 44.6705 48.3001 44.4659 48.3001 43.1875V37.4602H50.3967V36.1818ZM59.9528 46H61.4357L63.5835 38.4574H63.7369L65.8846 46H67.3675L70.359 36.1818H68.7738L66.6516 43.6733H66.5494L64.4783 36.1818H62.8675L60.771 43.6989H60.6687L58.5465 36.1818H56.9613L59.9528 46ZM76.008 46.2045C78.6671 46.2045 80.4569 44.1847 80.4569 41.142C80.4569 38.0739 78.6671 36.054 76.008 36.054C73.3489 36.054 71.5591 38.0739 71.5591 41.142C71.5591 44.1847 73.3489 46.2045 76.008 46.2045ZM76.008 44.8494C73.9881 44.8494 73.0676 43.1108 73.0676 41.142C73.0676 39.1733 73.9881 37.4091 76.008 37.4091C78.0279 37.4091 78.9483 39.1733 78.9483 41.142C78.9483 43.1108 78.0279 44.8494 76.008 44.8494ZM82.7596 46H84.2681V39.7869C84.2681 38.4574 85.3164 37.4858 86.7482 37.4858C87.1509 37.4858 87.5664 37.5625 87.6687 37.5881V36.054C87.4961 36.0412 87.0998 36.0284 86.8761 36.0284C85.6999 36.0284 84.6772 36.6932 84.3192 37.6648H84.217V36.1818H82.7596V46ZM89.4569 46H90.9654V39.7869C90.9654 38.4574 92.0137 37.4858 93.4455 37.4858C93.8482 37.4858 94.2637 37.5625 94.3659 37.5881V36.054C94.1934 36.0412 93.7971 36.0284 93.5733 36.0284C92.3972 36.0284 91.3745 36.6932 91.0165 37.6648H90.9142V36.1818H89.4569V46ZM97.4245 49.6818C98.786 49.6818 99.7449 48.9595 100.314 47.4318L104.494 36.2074L102.845 36.1818L100.135 44.0057H100.032L97.3223 36.1818H95.6859L99.3166 46.0511L99.0353 46.8182C98.4856 48.3139 97.8081 48.4545 96.7086 48.1733L96.3251 49.5028C96.4785 49.5795 96.9132 49.6818 97.4245 49.6818ZM114.442 46.2301C116.155 46.2301 117.05 45.3097 117.357 44.6705H117.433V46H118.942V39.5312C118.942 36.4119 116.564 36.054 115.311 36.054C113.828 36.054 112.141 36.5653 111.374 38.3551L112.805 38.8665C113.138 38.1506 113.924 37.3835 115.362 37.3835C116.749 37.3835 117.433 38.1186 117.433 39.3778V39.429C117.433 40.1577 116.692 40.0938 114.902 40.3239C113.08 40.5604 111.092 40.9631 111.092 43.2131C111.092 45.1307 112.575 46.2301 114.442 46.2301ZM114.672 44.875C113.47 44.875 112.601 44.3381 112.601 43.2898C112.601 42.1392 113.649 41.7812 114.825 41.6278C115.464 41.5511 117.178 41.3722 117.433 41.0653V42.446C117.433 43.6733 116.462 44.875 114.672 44.875ZM121.9 46H123.357V44.4915H123.536C123.868 45.0284 124.508 46.2045 126.4 46.2045C128.854 46.2045 130.567 44.2358 130.567 41.1165C130.567 38.0227 128.854 36.054 126.374 36.054C124.456 36.054 123.868 37.2301 123.536 37.7415H123.408V32.9091H121.9V46ZM123.383 41.0909C123.383 38.892 124.354 37.4091 126.195 37.4091C128.113 37.4091 129.059 39.0199 129.059 41.0909C129.059 43.1875 128.087 44.8494 126.195 44.8494C124.38 44.8494 123.383 43.3153 123.383 41.0909ZM136.863 46.2045C139.523 46.2045 141.312 44.1847 141.312 41.142C141.312 38.0739 139.523 36.054 136.863 36.054C134.204 36.054 132.415 38.0739 132.415 41.142C132.415 44.1847 134.204 46.2045 136.863 46.2045ZM136.863 44.8494C134.844 44.8494 133.923 43.1108 133.923 41.142C133.923 39.1733 134.844 37.4091 136.863 37.4091C138.883 37.4091 139.804 39.1733 139.804 41.142C139.804 43.1108 138.883 44.8494 136.863 44.8494ZM149.803 41.9858C149.803 43.8267 148.396 44.6705 147.271 44.6705C146.018 44.6705 145.124 43.75 145.124 42.3182V36.1818H143.615V42.4205C143.615 44.9261 144.945 46.1278 146.786 46.1278C148.268 46.1278 149.24 45.3352 149.7 44.3381H149.803V46H151.311V36.1818H149.803V41.9858ZM158.344 36.1818H156.247V33.8295H154.739V36.1818H153.256V37.4602H154.739V43.5966C154.739 45.3097 156.119 46.1278 157.398 46.1278C157.96 46.1278 158.318 46.0256 158.523 45.9489L158.216 44.5938C158.088 44.6193 157.884 44.6705 157.551 44.6705C156.887 44.6705 156.247 44.4659 156.247 43.1875V37.4602H158.344V36.1818ZM165.88 46H167.338V44.4915H167.517C167.849 45.0284 168.488 46.2045 170.38 46.2045C172.835 46.2045 174.548 44.2358 174.548 41.1165C174.548 38.0227 172.835 36.054 170.355 36.054C168.437 36.054 167.849 37.2301 167.517 37.7415H167.389V32.9091H165.88V46ZM167.363 41.0909C167.363 38.892 168.335 37.4091 170.176 37.4091C172.093 37.4091 173.039 39.0199 173.039 41.0909C173.039 43.1875 172.068 44.8494 170.176 44.8494C168.36 44.8494 167.363 43.3153 167.363 41.0909ZM178.364 32.9091H176.855V46H178.364V32.9091ZM181.127 46H182.635V36.1818H181.127V46ZM181.894 34.5455C182.482 34.5455 182.968 34.0852 182.968 33.5227C182.968 32.9602 182.482 32.5 181.894 32.5C181.306 32.5 180.82 32.9602 180.82 33.5227C180.82 34.0852 181.306 34.5455 181.894 34.5455ZM186.907 40.0938C186.907 38.3807 187.968 37.4091 189.412 37.4091C190.812 37.4091 191.662 38.3232 191.662 39.8636V46H193.171V39.7614C193.171 37.2557 191.835 36.054 189.847 36.054C188.364 36.054 187.444 36.7188 186.983 37.7159H186.856V36.1818H185.398V46H186.907V40.0938ZM199.635 46.2045C201.527 46.2045 202.166 45.0284 202.499 44.4915H202.678V46H204.135V32.9091H202.626V37.7415H202.499C202.166 37.2301 201.578 36.054 199.661 36.054C197.18 36.054 195.467 38.0227 195.467 41.1165C195.467 44.2358 197.18 46.2045 199.635 46.2045ZM199.839 44.8494C197.947 44.8494 196.976 43.1875 196.976 41.0909C196.976 39.0199 197.922 37.4091 199.839 37.4091C201.68 37.4091 202.652 38.892 202.652 41.0909C202.652 43.3153 201.655 44.8494 199.839 44.8494ZM214.062 38.3807C213.589 36.9872 212.528 36.054 210.585 36.054C208.513 36.054 206.979 37.2301 206.979 38.892C206.979 40.2472 207.785 41.1548 209.587 41.5767L211.224 41.9602C212.214 42.1903 212.681 42.6634 212.681 43.3409C212.681 44.1847 211.786 44.875 210.38 44.875C209.146 44.875 208.373 44.3445 208.104 43.2898L206.673 43.6477C207.024 45.3161 208.398 46.2045 210.406 46.2045C212.688 46.2045 214.241 44.9581 214.241 43.2642C214.241 41.8963 213.384 41.0334 211.633 40.6051L210.175 40.2472C209.012 39.9595 208.488 39.5696 208.488 38.8153C208.488 37.9716 209.383 37.358 210.585 37.358C211.901 37.358 212.445 38.0866 212.707 38.7642L214.062 38.3807ZM216.512 49.6818H218.02V44.4915H218.148C218.48 45.0284 219.119 46.2045 221.012 46.2045C223.466 46.2045 225.179 44.2358 225.179 41.1165C225.179 38.0227 223.466 36.054 220.986 36.054C219.068 36.054 218.48 37.2301 218.148 37.7415H217.969V36.1818H216.512V49.6818ZM217.994 41.0909C217.994 38.892 218.966 37.4091 220.807 37.4091C222.725 37.4091 223.671 39.0199 223.671 41.0909C223.671 43.1875 222.699 44.8494 220.807 44.8494C218.992 44.8494 217.994 43.3153 217.994 41.0909ZM231.469 46.2045C234.128 46.2045 235.918 44.1847 235.918 41.142C235.918 38.0739 234.128 36.054 231.469 36.054C228.81 36.054 227.02 38.0739 227.02 41.142C227.02 44.1847 228.81 46.2045 231.469 46.2045ZM231.469 44.8494C229.449 44.8494 228.529 43.1108 228.529 41.142C228.529 39.1733 229.449 37.4091 231.469 37.4091C233.489 37.4091 234.409 39.1733 234.409 41.142C234.409 43.1108 233.489 44.8494 231.469 44.8494ZM242.49 36.1818H240.394V33.8295H238.885V36.1818H237.402V37.4602H238.885V43.5966C238.885 45.3097 240.266 46.1278 241.544 46.1278C242.107 46.1278 242.465 46.0256 242.669 45.9489L242.363 44.5938C242.235 44.6193 242.03 44.6705 241.698 44.6705C241.033 44.6705 240.394 44.4659 240.394 43.1875V37.4602H242.49V36.1818ZM251.538 38.3807C251.065 36.9872 250.004 36.054 248.061 36.054C245.99 36.054 244.456 37.2301 244.456 38.892C244.456 40.2472 245.261 41.1548 247.064 41.5767L248.7 41.9602C249.691 42.1903 250.158 42.6634 250.158 43.3409C250.158 44.1847 249.263 44.875 247.857 44.875C246.623 44.875 245.849 44.3445 245.581 43.2898L244.149 43.6477C244.501 45.3161 245.875 46.2045 247.882 46.2045C250.164 46.2045 251.717 44.9581 251.717 43.2642C251.717 41.8963 250.861 41.0334 249.109 40.6051L247.652 40.2472C246.489 39.9595 245.964 39.5696 245.964 38.8153C245.964 37.9716 246.859 37.358 248.061 37.358C249.378 37.358 249.921 38.0866 250.183 38.7642L251.538 38.3807ZM261.94 46.2301C263.653 46.2301 264.548 45.3097 264.855 44.6705H264.931V46H266.44V39.5312C266.44 36.4119 264.062 36.054 262.809 36.054C261.326 36.054 259.639 36.5653 258.872 38.3551L260.303 38.8665C260.636 38.1506 261.422 37.3835 262.86 37.3835C264.247 37.3835 264.931 38.1186 264.931 39.3778V39.429C264.931 40.1577 264.19 40.0938 262.4 40.3239C260.578 40.5604 258.59 40.9631 258.59 43.2131C258.59 45.1307 260.073 46.2301 261.94 46.2301ZM262.17 44.875C260.968 44.875 260.099 44.3381 260.099 43.2898C260.099 42.1392 261.147 41.7812 262.323 41.6278C262.963 41.5511 264.676 41.3722 264.931 41.0653V42.446C264.931 43.6733 263.96 44.875 262.17 44.875ZM270.702 40.0938C270.702 38.3807 271.763 37.4091 273.207 37.4091C274.607 37.4091 275.457 38.3232 275.457 39.8636V46H276.966V39.7614C276.966 37.2557 275.63 36.054 273.642 36.054C272.159 36.054 271.239 36.7188 270.778 37.7159H270.651V36.1818H269.193V46H270.702V40.0938ZM280.343 49.6818C281.704 49.6818 282.663 48.9595 283.232 47.4318L287.412 36.2074L285.763 36.1818L283.053 44.0057H282.95L280.24 36.1818H278.604L282.235 46.0511L281.953 46.8182C281.404 48.3139 280.726 48.4545 279.627 48.1733L279.243 49.5028C279.396 49.5795 279.831 49.6818 280.343 49.6818ZM289.408 46H290.917V39.8636C290.917 38.4254 291.965 37.4091 293.141 37.4091C294.285 37.4091 295.084 38.157 295.084 39.2756V46H296.618V39.608C296.618 38.3423 297.411 37.4091 298.792 37.4091C299.865 37.4091 300.786 37.978 300.786 39.429V46H302.294V39.429C302.294 37.1214 301.054 36.054 299.303 36.054C297.897 36.054 296.868 36.6996 296.363 37.7159H296.26C295.775 36.6676 294.918 36.054 293.627 36.054C292.348 36.054 291.402 36.6676 290.993 37.7159H290.865V36.1818H289.408V46ZM309.041 46.2045C311.7 46.2045 313.49 44.1847 313.49 41.142C313.49 38.0739 311.7 36.054 309.041 36.054C306.382 36.054 304.592 38.0739 304.592 41.142C304.592 44.1847 306.382 46.2045 309.041 46.2045ZM309.041 44.8494C307.021 44.8494 306.101 43.1108 306.101 41.142C306.101 39.1733 307.021 37.4091 309.041 37.4091C311.061 37.4091 311.982 39.1733 311.982 41.142C311.982 43.1108 311.061 44.8494 309.041 44.8494ZM315.793 46H317.301V39.7869C317.301 38.4574 318.35 37.4858 319.781 37.4858C320.184 37.4858 320.6 37.5625 320.702 37.5881V36.054C320.529 36.0412 320.133 36.0284 319.909 36.0284C318.733 36.0284 317.71 36.6932 317.352 37.6648H317.25V36.1818H315.793V46ZM326.308 46.2045C328.302 46.2045 329.759 45.2074 330.22 43.7244L328.762 43.3153C328.379 44.3381 327.49 44.8494 326.308 44.8494C324.537 44.8494 323.316 43.7053 323.246 41.6023H330.373V40.9631C330.373 37.3068 328.2 36.054 326.154 36.054C323.495 36.054 321.731 38.1506 321.731 41.1676C321.731 44.1847 323.47 46.2045 326.308 46.2045ZM323.246 40.2983C323.348 38.7706 324.428 37.4091 326.154 37.4091C327.791 37.4091 328.839 38.6364 328.839 40.2983H323.246ZM334.918 44.2102H333.281L333.205 44.9261C333.019 46.6584 332.655 48.3842 332.489 49.196H333.639C333.946 48.3267 334.598 46.358 334.816 44.9006L334.918 44.2102ZM345.664 46.2301C347.377 46.2301 348.272 45.3097 348.579 44.6705H348.656V46H350.164V39.5312C350.164 36.4119 347.787 36.054 346.534 36.054C345.051 36.054 343.363 36.5653 342.596 38.3551L344.028 38.8665C344.36 38.1506 345.147 37.3835 346.585 37.3835C347.972 37.3835 348.656 38.1186 348.656 39.3778V39.429C348.656 40.1577 347.914 40.0938 346.125 40.3239C344.303 40.5604 342.315 40.9631 342.315 43.2131C342.315 45.1307 343.798 46.2301 345.664 46.2301ZM345.895 44.875C344.693 44.875 343.824 44.3381 343.824 43.2898C343.824 42.1392 344.872 41.7812 346.048 41.6278C346.687 41.5511 348.4 41.3722 348.656 41.0653V42.446C348.656 43.6733 347.684 44.875 345.895 44.875ZM354.426 40.0938C354.426 38.3807 355.487 37.4091 356.932 37.4091C358.332 37.4091 359.182 38.3232 359.182 39.8636V46H360.691V39.7614C360.691 37.2557 359.355 36.054 357.367 36.054C355.884 36.054 354.963 36.7188 354.503 37.7159H354.375V36.1818H352.918V46H354.426V40.0938ZM367.154 46.2045C369.047 46.2045 369.686 45.0284 370.018 44.4915H370.197V46H371.654V32.9091H370.146V37.7415H370.018C369.686 37.2301 369.098 36.054 367.18 36.054C364.7 36.054 362.987 38.0227 362.987 41.1165C362.987 44.2358 364.7 46.2045 367.154 46.2045ZM367.359 44.8494C365.467 44.8494 364.495 43.1875 364.495 41.0909C364.495 39.0199 365.441 37.4091 367.359 37.4091C369.2 37.4091 370.172 38.892 370.172 41.0909C370.172 43.3153 369.174 44.8494 367.359 44.8494ZM384.266 32.9091H382.681L379.408 35.0824V36.6932L382.604 34.571H382.681V46H384.266V32.9091ZM393.681 39.6847H387.954V41.0909H393.681V39.6847ZM400.324 46.2045C402.983 46.2045 404.773 44.1847 404.773 41.142C404.773 38.0739 402.983 36.054 400.324 36.054C397.665 36.054 395.876 38.0739 395.876 41.142C395.876 44.1847 397.665 46.2045 400.324 46.2045ZM400.324 44.8494C398.305 44.8494 397.384 43.1108 397.384 41.142C397.384 39.1733 398.305 37.4091 400.324 37.4091C402.344 37.4091 403.265 39.1733 403.265 41.142C403.265 43.1108 402.344 44.8494 400.324 44.8494ZM408.585 40.0938C408.585 38.3807 409.646 37.4091 411.09 37.4091C412.49 37.4091 413.34 38.3232 413.34 39.8636V46H414.849V39.7614C414.849 37.2557 413.513 36.054 411.525 36.054C410.042 36.054 409.121 36.7188 408.661 37.7159H408.533V36.1818H407.076V46H408.585V40.0938ZM423.23 39.6847H417.503V41.0909H423.23V39.6847ZM430.461 32.9091H428.876L425.603 35.0824V36.6932L428.799 34.571H428.876V46H430.461V32.9091ZM441.206 38.3807C440.733 36.9872 439.672 36.054 437.729 36.054C435.658 36.054 434.124 37.2301 434.124 38.892C434.124 40.2472 434.929 41.1548 436.732 41.5767L438.368 41.9602C439.359 42.1903 439.826 42.6634 439.826 43.3409C439.826 44.1847 438.931 44.875 437.525 44.875C436.291 44.875 435.517 44.3445 435.249 43.2898L433.817 43.6477C434.169 45.3161 435.543 46.2045 437.55 46.2045C439.832 46.2045 441.385 44.9581 441.385 43.2642C441.385 41.8963 440.529 41.0334 438.777 40.6051L437.32 40.2472C436.157 39.9595 435.632 39.5696 435.632 38.8153C435.632 37.9716 436.527 37.358 437.729 37.358C439.046 37.358 439.589 38.0866 439.851 38.7642L441.206 38.3807ZM450.227 40.0938C450.227 38.3807 451.32 37.4091 452.809 37.4091C454.229 37.4091 455.085 38.304 455.085 39.8636V46H456.594V39.7614C456.594 37.2365 455.251 36.054 453.244 36.054C451.697 36.054 450.815 36.6996 450.355 37.7159H450.227V32.9091H448.719V46H450.227V40.0938ZM462.243 46.2301C463.956 46.2301 464.85 45.3097 465.157 44.6705H465.234V46H466.743V39.5312C466.743 36.4119 464.365 36.054 463.112 36.054C461.629 36.054 459.941 36.5653 459.174 38.3551L460.606 38.8665C460.939 38.1506 461.725 37.3835 463.163 37.3835C464.55 37.3835 465.234 38.1186 465.234 39.3778V39.429C465.234 40.1577 464.493 40.0938 462.703 40.3239C460.881 40.5604 458.893 40.9631 458.893 43.2131C458.893 45.1307 460.376 46.2301 462.243 46.2301ZM462.473 44.875C461.271 44.875 460.402 44.3381 460.402 43.2898C460.402 42.1392 461.45 41.7812 462.626 41.6278C463.265 41.5511 464.978 41.3722 465.234 41.0653V42.446C465.234 43.6733 464.262 44.875 462.473 44.875ZM477.173 36.1818H475.536L472.826 44.0057H472.724L470.014 36.1818H468.377L472.008 46H473.542L477.173 36.1818ZM482.929 46.2045C484.923 46.2045 486.381 45.2074 486.841 43.7244L485.383 43.3153C485 44.3381 484.111 44.8494 482.929 44.8494C481.158 44.8494 479.937 43.7053 479.867 41.6023H486.994V40.9631C486.994 37.3068 484.821 36.054 482.775 36.054C480.116 36.054 478.352 38.1506 478.352 41.1676C478.352 44.1847 480.091 46.2045 482.929 46.2045ZM479.867 40.2983C479.969 38.7706 481.05 37.4091 482.775 37.4091C484.412 37.4091 485.46 38.6364 485.46 40.2983H479.867ZM495.86 40.0938C495.86 38.3807 496.921 37.4091 498.366 37.4091C499.765 37.4091 500.616 38.3232 500.616 39.8636V46H502.124V39.7614C502.124 37.2557 500.788 36.054 498.8 36.054C497.317 36.054 496.397 36.7188 495.937 37.7159H495.809V36.1818H494.351V46H495.86V40.0938ZM508.997 46.2045C510.991 46.2045 512.449 45.2074 512.909 43.7244L511.452 43.3153C511.068 44.3381 510.18 44.8494 508.997 44.8494C507.227 44.8494 506.006 43.7053 505.935 41.6023H513.062V40.9631C513.062 37.3068 510.889 36.054 508.844 36.054C506.185 36.054 504.42 38.1506 504.42 41.1676C504.42 44.1847 506.159 46.2045 508.997 46.2045ZM505.935 40.2983C506.038 38.7706 507.118 37.4091 508.844 37.4091C510.48 37.4091 511.528 38.6364 511.528 40.2983H505.935ZM523.087 36.1818H521.45L518.74 44.0057H518.638L515.928 36.1818H514.291L517.922 46H519.456L523.087 36.1818ZM528.843 46.2045C530.837 46.2045 532.295 45.2074 532.755 43.7244L531.297 43.3153C530.914 44.3381 530.025 44.8494 528.843 44.8494C527.072 44.8494 525.851 43.7053 525.781 41.6023H532.908V40.9631C532.908 37.3068 530.735 36.054 528.689 36.054C526.03 36.054 524.266 38.1506 524.266 41.1676C524.266 44.1847 526.005 46.2045 528.843 46.2045ZM525.781 40.2983C525.883 38.7706 526.964 37.4091 528.689 37.4091C530.326 37.4091 531.374 38.6364 531.374 40.2983H525.781ZM535.203 46H536.711V39.7869C536.711 38.4574 537.76 37.4858 539.192 37.4858C539.594 37.4858 540.01 37.5625 540.112 37.5881V36.054C539.939 36.0412 539.543 36.0284 539.319 36.0284C538.143 36.0284 537.121 36.6932 536.763 37.6648H536.66V36.1818H535.203V46ZM94.4954 78H95.9528V76.4915H96.1317C96.4641 77.0284 97.1033 78.2045 98.9954 78.2045C101.45 78.2045 103.163 76.2358 103.163 73.1165C103.163 70.0227 101.45 68.054 98.9698 68.054C97.0522 68.054 96.4641 69.2301 96.1317 69.7415H96.0039V64.9091H94.4954V78ZM95.9783 73.0909C95.9783 70.892 96.9499 69.4091 98.7908 69.4091C100.708 69.4091 101.654 71.0199 101.654 73.0909C101.654 75.1875 100.683 76.8494 98.7908 76.8494C96.9755 76.8494 95.9783 75.3153 95.9783 73.0909ZM109.587 78.2045C111.581 78.2045 113.039 77.2074 113.499 75.7244L112.042 75.3153C111.658 76.3381 110.77 76.8494 109.587 76.8494C107.816 76.8494 106.596 75.7053 106.525 73.6023H113.652V72.9631C113.652 69.3068 111.479 68.054 109.434 68.054C106.775 68.054 105.01 70.1506 105.01 73.1676C105.01 76.1847 106.749 78.2045 109.587 78.2045ZM106.525 72.2983C106.627 70.7706 107.708 69.4091 109.434 69.4091C111.07 69.4091 112.118 70.6364 112.118 72.2983H106.525ZM120.064 78.2045C122.058 78.2045 123.515 77.2074 123.975 75.7244L122.518 75.3153C122.135 76.3381 121.246 76.8494 120.064 76.8494C118.293 76.8494 117.072 75.7053 117.002 73.6023H124.129V72.9631C124.129 69.3068 121.956 68.054 119.91 68.054C117.251 68.054 115.487 70.1506 115.487 73.1676C115.487 76.1847 117.225 78.2045 120.064 78.2045ZM117.002 72.2983C117.104 70.7706 118.184 69.4091 119.91 69.4091C121.547 69.4091 122.595 70.6364 122.595 72.2983H117.002ZM127.932 72.0938C127.932 70.3807 128.993 69.4091 130.438 69.4091C131.838 69.4091 132.688 70.3232 132.688 71.8636V78H134.196V71.7614C134.196 69.2557 132.86 68.054 130.873 68.054C129.39 68.054 128.469 68.7188 128.009 69.7159H127.881V68.1818H126.424V78H127.932V72.0938ZM142.015 78H143.524V71.8636C143.524 70.4254 144.572 69.4091 145.748 69.4091C146.893 69.4091 147.692 70.157 147.692 71.2756V78H149.226V71.608C149.226 70.3423 150.018 69.4091 151.399 69.4091C152.473 69.4091 153.393 69.978 153.393 71.429V78H154.902V71.429C154.902 69.1214 153.662 68.054 151.91 68.054C150.504 68.054 149.475 68.6996 148.97 69.7159H148.868C148.382 68.6676 147.525 68.054 146.234 68.054C144.956 68.054 144.01 68.6676 143.601 69.7159H143.473V68.1818H142.015V78ZM161.649 78.2045C164.308 78.2045 166.097 76.1847 166.097 73.142C166.097 70.0739 164.308 68.054 161.649 68.054C158.99 68.054 157.2 70.0739 157.2 73.142C157.2 76.1847 158.99 78.2045 161.649 78.2045ZM161.649 76.8494C159.629 76.8494 158.708 75.1108 158.708 73.142C158.708 71.1733 159.629 69.4091 161.649 69.4091C163.669 69.4091 164.589 71.1733 164.589 73.142C164.589 75.1108 163.669 76.8494 161.649 76.8494ZM168.4 78H169.909V71.7869C169.909 70.4574 170.957 69.4858 172.389 69.4858C172.792 69.4858 173.207 69.5625 173.309 69.5881V68.054C173.137 68.0412 172.74 68.0284 172.517 68.0284C171.341 68.0284 170.318 68.6932 169.96 69.6648H169.858V68.1818H168.4V78ZM178.915 78.2045C180.909 78.2045 182.367 77.2074 182.827 75.7244L181.37 75.3153C180.986 76.3381 180.098 76.8494 178.915 76.8494C177.145 76.8494 175.924 75.7053 175.853 73.6023H182.98V72.9631C182.98 69.3068 180.807 68.054 178.762 68.054C176.103 68.054 174.338 70.1506 174.338 73.1676C174.338 76.1847 176.077 78.2045 178.915 78.2045ZM175.853 72.2983C175.956 70.7706 177.036 69.4091 178.762 69.4091C180.398 69.4091 181.446 70.6364 181.446 72.2983H175.853ZM190.338 81.6818H191.846V76.4915H191.974C192.306 77.0284 192.946 78.2045 194.838 78.2045C197.292 78.2045 199.005 76.2358 199.005 73.1165C199.005 70.0227 197.292 68.054 194.812 68.054C192.895 68.054 192.306 69.2301 191.974 69.7415H191.795V68.1818H190.338V81.6818ZM191.821 73.0909C191.821 70.892 192.792 69.4091 194.633 69.4091C196.551 69.4091 197.497 71.0199 197.497 73.0909C197.497 75.1875 196.525 76.8494 194.633 76.8494C192.818 76.8494 191.821 75.3153 191.821 73.0909ZM201.306 78H202.815V71.7869C202.815 70.4574 203.863 69.4858 205.295 69.4858C205.698 69.4858 206.113 69.5625 206.216 69.5881V68.054C206.043 68.0412 205.647 68.0284 205.423 68.0284C204.247 68.0284 203.224 68.6932 202.866 69.6648H202.764V68.1818H201.306V78ZM211.694 78.2045C214.353 78.2045 216.142 76.1847 216.142 73.142C216.142 70.0739 214.353 68.054 211.694 68.054C209.034 68.054 207.245 70.0739 207.245 73.142C207.245 76.1847 209.034 78.2045 211.694 78.2045ZM211.694 76.8494C209.674 76.8494 208.753 75.1108 208.753 73.142C208.753 71.1733 209.674 69.4091 211.694 69.4091C213.713 69.4091 214.634 71.1733 214.634 73.142C214.634 75.1108 213.713 76.8494 211.694 76.8494ZM222.153 78.2045C224.045 78.2045 224.684 77.0284 225.016 76.4915H225.195V78H226.653V64.9091H225.144V69.7415H225.016C224.684 69.2301 224.096 68.054 222.178 68.054C219.698 68.054 217.985 70.0227 217.985 73.1165C217.985 76.2358 219.698 78.2045 222.153 78.2045ZM222.357 76.8494C220.465 76.8494 219.493 75.1875 219.493 73.0909C219.493 71.0199 220.439 69.4091 222.357 69.4091C224.198 69.4091 225.17 70.892 225.17 73.0909C225.17 75.3153 224.172 76.8494 222.357 76.8494ZM235.812 73.9858C235.812 75.8267 234.406 76.6705 233.281 76.6705C232.028 76.6705 231.133 75.75 231.133 74.3182V68.1818H229.625V74.4205C229.625 76.9261 230.954 78.1278 232.795 78.1278C234.278 78.1278 235.25 77.3352 235.71 76.3381H235.812V78H237.321V68.1818H235.812V73.9858ZM244.072 78.2045C246.246 78.2045 247.678 76.875 247.933 75.1364H246.425C246.143 76.2102 245.249 76.8494 244.072 76.8494C242.283 76.8494 241.132 75.3665 241.132 73.0909C241.132 70.8665 242.308 69.4091 244.072 69.4091C245.402 69.4091 246.195 70.2273 246.425 71.1222H247.933C247.678 69.2812 246.118 68.054 244.047 68.054C241.388 68.054 239.624 70.1506 239.624 73.142C239.624 76.0824 241.311 78.2045 244.072 78.2045ZM254.408 68.1818H252.312V65.8295H250.803V68.1818H249.32V69.4602H250.803V75.5966C250.803 77.3097 252.184 78.1278 253.462 78.1278C254.025 78.1278 254.383 78.0256 254.587 77.9489L254.281 76.5938C254.153 76.6193 253.948 76.6705 253.616 76.6705C252.951 76.6705 252.312 76.4659 252.312 75.1875V69.4602H254.408V68.1818ZM256.678 78H258.186V68.1818H256.678V78ZM257.445 66.5455C258.033 66.5455 258.518 66.0852 258.518 65.5227C258.518 64.9602 258.033 64.5 257.445 64.5C256.857 64.5 256.371 64.9602 256.371 65.5227C256.371 66.0852 256.857 66.5455 257.445 66.5455ZM268.977 68.1818H267.341L264.631 76.0057H264.529L261.818 68.1818H260.182L263.813 78H265.347L268.977 68.1818ZM274.733 78.2045C276.728 78.2045 278.185 77.2074 278.645 75.7244L277.188 75.3153C276.805 76.3381 275.916 76.8494 274.733 76.8494C272.963 76.8494 271.742 75.7053 271.672 73.6023H278.799V72.9631C278.799 69.3068 276.626 68.054 274.58 68.054C271.921 68.054 270.157 70.1506 270.157 73.1676C270.157 76.1847 271.895 78.2045 274.733 78.2045ZM271.672 72.2983C271.774 70.7706 272.854 69.4091 274.58 69.4091C276.216 69.4091 277.265 70.6364 277.265 72.2983H271.672ZM282.193 78.1023C282.826 78.1023 283.344 77.5845 283.344 76.9517C283.344 76.3189 282.826 75.8011 282.193 75.8011C281.56 75.8011 281.042 76.3189 281.042 76.9517C281.042 77.5845 281.56 78.1023 282.193 78.1023ZM290.602 66.3153H294.718V78H296.303V66.3153H300.42V64.9091H290.602V66.3153ZM304.17 72.0938C304.17 70.3807 305.263 69.4091 306.753 69.4091C308.172 69.4091 309.028 70.304 309.028 71.8636V78H310.537V71.7614C310.537 69.2365 309.195 68.054 307.188 68.054C305.641 68.054 304.759 68.6996 304.298 69.7159H304.17V64.9091H302.662V78H304.17V72.0938ZM317.413 78.2045C319.407 78.2045 320.865 77.2074 321.325 75.7244L319.868 75.3153C319.484 76.3381 318.596 76.8494 317.413 76.8494C315.643 76.8494 314.422 75.7053 314.351 73.6023H321.479V72.9631C321.479 69.3068 319.305 68.054 317.26 68.054C314.601 68.054 312.836 70.1506 312.836 73.1676C312.836 76.1847 314.575 78.2045 317.413 78.2045ZM314.351 72.2983C314.454 70.7706 315.534 69.4091 317.26 69.4091C318.896 69.4091 319.944 70.6364 319.944 72.2983H314.351ZM333.106 68.1818H331.009V65.8295H329.501V68.1818H328.018V69.4602H329.501V75.5966C329.501 77.3097 330.881 78.1278 332.16 78.1278C332.722 78.1278 333.08 78.0256 333.285 77.9489L332.978 76.5938C332.85 76.6193 332.645 76.6705 332.313 76.6705C331.648 76.6705 331.009 76.4659 331.009 75.1875V69.4602H333.106V68.1818ZM339.386 78.2045C341.38 78.2045 342.838 77.2074 343.298 75.7244L341.84 75.3153C341.457 76.3381 340.568 76.8494 339.386 76.8494C337.615 76.8494 336.394 75.7053 336.324 73.6023H343.451V72.9631C343.451 69.3068 341.278 68.054 339.232 68.054C336.573 68.054 334.809 70.1506 334.809 73.1676C334.809 76.1847 336.548 78.2045 339.386 78.2045ZM336.324 72.2983C336.426 70.7706 337.507 69.4091 339.232 69.4091C340.869 69.4091 341.917 70.6364 341.917 72.2983H336.324ZM348.635 78.2301C350.348 78.2301 351.243 77.3097 351.55 76.6705H351.627V78H353.135V71.5312C353.135 68.4119 350.757 68.054 349.504 68.054C348.021 68.054 346.334 68.5653 345.567 70.3551L346.999 70.8665C347.331 70.1506 348.117 69.3835 349.556 69.3835C350.943 69.3835 351.627 70.1186 351.627 71.3778V71.429C351.627 72.1577 350.885 72.0938 349.095 72.3239C347.274 72.5604 345.286 72.9631 345.286 75.2131C345.286 77.1307 346.769 78.2301 348.635 78.2301ZM348.865 76.875C347.664 76.875 346.794 76.3381 346.794 75.2898C346.794 74.1392 347.843 73.7812 349.019 73.6278C349.658 73.5511 351.371 73.3722 351.627 73.0653V74.446C351.627 75.6733 350.655 76.875 348.865 76.875ZM355.888 78H357.397V71.8636C357.397 70.4254 358.445 69.4091 359.621 69.4091C360.766 69.4091 361.565 70.157 361.565 71.2756V78H363.099V71.608C363.099 70.3423 363.891 69.4091 365.272 69.4091C366.346 69.4091 367.266 69.978 367.266 71.429V78H368.775V71.429C368.775 69.1214 367.535 68.054 365.783 68.054C364.377 68.054 363.348 68.6996 362.843 69.7159H362.741C362.255 68.6676 361.398 68.054 360.107 68.054C358.829 68.054 357.883 68.6676 357.474 69.7159H357.346V68.1818H355.888V78ZM378.104 64.9091H376.596V78H378.104V64.9091ZM384.856 78.2045C387.515 78.2045 389.305 76.1847 389.305 73.142C389.305 70.0739 387.515 68.054 384.856 68.054C382.197 68.054 380.407 70.0739 380.407 73.142C380.407 76.1847 382.197 78.2045 384.856 78.2045ZM384.856 76.8494C382.836 76.8494 381.915 75.1108 381.915 73.142C381.915 71.1733 382.836 69.4091 384.856 69.4091C386.876 69.4091 387.796 71.1733 387.796 73.142C387.796 75.1108 386.876 76.8494 384.856 76.8494ZM399.284 68.1818H397.648L394.938 76.0057H394.835L392.125 68.1818H390.489L394.119 78H395.653L399.284 68.1818ZM405.04 78.2045C407.034 78.2045 408.492 77.2074 408.952 75.7244L407.495 75.3153C407.111 76.3381 406.223 76.8494 405.04 76.8494C403.27 76.8494 402.049 75.7053 401.978 73.6023H409.105V72.9631C409.105 69.3068 406.932 68.054 404.887 68.054C402.228 68.054 400.463 70.1506 400.463 73.1676C400.463 76.1847 402.202 78.2045 405.04 78.2045ZM401.978 72.2983C402.081 70.7706 403.161 69.4091 404.887 69.4091C406.523 69.4091 407.571 70.6364 407.571 72.2983H401.978ZM418.355 70.3807C417.882 68.9872 416.821 68.054 414.877 68.054C412.806 68.054 411.272 69.2301 411.272 70.892C411.272 72.2472 412.078 73.1548 413.88 73.5767L415.517 73.9602C416.507 74.1903 416.974 74.6634 416.974 75.3409C416.974 76.1847 416.079 76.875 414.673 76.875C413.439 76.875 412.666 76.3445 412.397 75.2898L410.966 75.6477C411.317 77.3161 412.691 78.2045 414.699 78.2045C416.98 78.2045 418.534 76.9581 418.534 75.2642C418.534 73.8963 417.677 73.0334 415.926 72.6051L414.468 72.2472C413.305 71.9595 412.781 71.5696 412.781 70.8153C412.781 69.9716 413.676 69.358 414.877 69.358C416.194 69.358 416.738 70.0866 417 70.7642L418.355 70.3807ZM425.867 78H427.376V68.1818H425.867V78ZM426.634 66.5455C427.222 66.5455 427.708 66.0852 427.708 65.5227C427.708 64.9602 427.222 64.5 426.634 64.5C426.046 64.5 425.56 64.9602 425.56 65.5227C425.56 66.0852 426.046 66.5455 426.634 66.5455ZM434.408 68.1818H432.312V65.8295H430.803V68.1818H429.32V69.4602H430.803V75.5966C430.803 77.3097 432.184 78.1278 433.462 78.1278C434.025 78.1278 434.383 78.0256 434.587 77.9489L434.281 76.5938C434.153 76.6193 433.948 76.6705 433.616 76.6705C432.951 76.6705 432.312 76.4659 432.312 75.1875V69.4602H434.408V68.1818ZM437.777 78.1023C438.41 78.1023 438.928 77.5845 438.928 76.9517C438.928 76.3189 438.41 75.8011 437.777 75.8011C437.144 75.8011 436.626 76.3189 436.626 76.9517C436.626 77.5845 437.144 78.1023 437.777 78.1023ZM441.945 64.9091H440.513V66.0852C440.513 67.0312 440.053 67.8494 439.516 68.6165L440.334 69.2812C441.357 68.4631 441.945 67.108 441.945 66.0597V64.9091ZM445.217 64.9091H443.786V66.0852C443.786 67.0312 443.325 67.8494 442.788 68.6165L443.607 69.2812C444.629 68.4631 445.217 67.108 445.217 66.0597V64.9091Z" fill="#4E5A65"/>
</svg>
